<?xml version="1.0" encoding="UTF-8" standalone="no"?>
<!-- Created with Inkscape (http://www.inkscape.org/) -->

<svg
   xmlns:dc="http://purl.org/dc/elements/1.1/"
   xmlns:cc="http://creativecommons.org/ns#"
   xmlns:rdf="http://www.w3.org/1999/02/22-rdf-syntax-ns#"
   xmlns:svg="http://www.w3.org/2000/svg"
   xmlns="http://www.w3.org/2000/svg"
   xmlns:sodipodi="http://sodipodi.sourceforge.net/DTD/sodipodi-0.dtd"
   xmlns:inkscape="http://www.inkscape.org/namespaces/inkscape"
   version="1.1"
   id="svg4842"
   xml:space="preserve"
   width="209.33426"
   height="209.33426"
   viewBox="0 0 209.33426 209.33426"
   sodipodi:docname="figSStructGridVars.svg"
   inkscape:version="0.92.2 (5c3e80d, 2017-08-06)"><metadata
     id="metadata4848"><rdf:RDF><cc:Work
         rdf:about=""><dc:format>image/svg+xml</dc:format><dc:type
           rdf:resource="http://purl.org/dc/dcmitype/StillImage" /><dc:title></dc:title></cc:Work></rdf:RDF></metadata><defs
     id="defs4846" /><sodipodi:namedview
     pagecolor="#ffffff"
     bordercolor="#666666"
     borderopacity="1"
     objecttolerance="10"
     gridtolerance="10"
     guidetolerance="10"
     inkscape:pageopacity="0"
     inkscape:pageshadow="2"
     inkscape:window-width="1113"
     inkscape:window-height="860"
     id="namedview4844"
     showgrid="false"
     inkscape:zoom="3.1576293"
     inkscape:cx="104.66713"
     inkscape:cy="104.66713"
     inkscape:window-x="0"
     inkscape:window-y="0"
     inkscape:window-maximized="0"
     inkscape:current-layer="g4850" /><g
     id="g4850"
     inkscape:groupmode="layer"
     inkscape:label="figSStructGridVars"
     transform="matrix(1.3333333,0,0,-1.3333333,-4.292852,213.62712)"><g
       id="g4852"
       transform="scale(0.1)"><g
         id="g4854"><path
           d="M 460.8,1598.4 V 35.9998"
           style="fill:none;stroke:#000000;stroke-width:7.5;stroke-linecap:round;stroke-linejoin:round;stroke-miterlimit:10;stroke-dasharray:none;stroke-opacity:1"
           id="path4856"
           inkscape:connector-curvature="0" /><path
           d="M 1180.8,1598.4 V 35.9998"
           style="fill:none;stroke:#000000;stroke-width:7.5;stroke-linecap:round;stroke-linejoin:round;stroke-miterlimit:10;stroke-dasharray:none;stroke-opacity:1"
           id="path4858"
           inkscape:connector-curvature="0" /><path
           d="M 35.9998,1173.6 H 1598.4"
           style="fill:none;stroke:#000000;stroke-width:7.5;stroke-linecap:round;stroke-linejoin:round;stroke-miterlimit:10;stroke-dasharray:none;stroke-opacity:1"
           id="path4860"
           inkscape:connector-curvature="0" /><path
           d="M 35.9998,453.6 H 1598.4"
           style="fill:none;stroke:#000000;stroke-width:7.5;stroke-linecap:round;stroke-linejoin:round;stroke-miterlimit:10;stroke-dasharray:none;stroke-opacity:1"
           id="path4862"
           inkscape:connector-curvature="0" /><path
           d="m 864,813.608 c -0.033,33.254 -35.994,54.009 -64.805,37.402 -28.808,-16.714 -28.755,-58.235 0.052,-74.849 28.833,-16.568 64.727,4.185 64.753,37.439"
           style="fill:#000000;fill-opacity:1;fill-rule:evenodd;stroke:none"
           id="path4864"
           inkscape:connector-curvature="0" /><path
           d="m 864,813.608 c -0.033,33.254 -35.994,54.009 -64.805,37.402 -28.808,-16.714 -28.755,-58.235 0.052,-74.849 28.833,-16.568 64.727,4.185 64.753,37.439"
           style="fill:none;stroke:#000000;stroke-width:7.5;stroke-linecap:round;stroke-linejoin:round;stroke-miterlimit:10;stroke-dasharray:none;stroke-opacity:1"
           id="path4866"
           inkscape:connector-curvature="0" /><path
           d="m 1132.8,1130.4 h 86.4001 v 86.3999 H 1132.8 Z"
           style="fill:#000000;fill-opacity:1;fill-rule:evenodd;stroke:none"
           id="path4868"
           inkscape:connector-curvature="0" /><path
           d="m 1132.8,1130.4 h 86.4001 v 86.3999 H 1132.8 Z"
           style="fill:none;stroke:#000000;stroke-width:7.5;stroke-linecap:round;stroke-linejoin:round;stroke-miterlimit:10;stroke-dasharray:none;stroke-opacity:1"
           id="path4870"
           inkscape:connector-curvature="0" /><path
           d="m 412.8,1130.4 h 86.4001 v 86.3999 H 412.8 Z"
           style="fill:#a0a0a4;fill-opacity:1;fill-rule:evenodd;stroke:none"
           id="path4872"
           inkscape:connector-curvature="0" /><path
           d="m 412.8,1130.4 h 86.4001 v 86.3999 H 412.8 Z"
           style="fill:none;stroke:#000000;stroke-width:7.5;stroke-linecap:round;stroke-linejoin:round;stroke-miterlimit:10;stroke-dasharray:none;stroke-opacity:1"
           id="path4874"
           inkscape:connector-curvature="0" /><path
           d="m 412.8,410.4 h 86.4001 v 86.3999 H 412.8 Z"
           style="fill:#a0a0a4;fill-opacity:1;fill-rule:evenodd;stroke:none"
           id="path4876"
           inkscape:connector-curvature="0" /><path
           d="m 412.8,410.4 h 86.4001 v 86.3999 H 412.8 Z"
           style="fill:none;stroke:#000000;stroke-width:7.5;stroke-linecap:round;stroke-linejoin:round;stroke-miterlimit:10;stroke-dasharray:none;stroke-opacity:1"
           id="path4878"
           inkscape:connector-curvature="0" /><path
           d="m 1132.8,410.4 h 86.4001 v 86.3999 H 1132.8 Z"
           style="fill:#a0a0a4;fill-opacity:1;fill-rule:evenodd;stroke:none"
           id="path4880"
           inkscape:connector-curvature="0" /><path
           d="m 1132.8,410.4 h 86.4001 v 86.3999 H 1132.8 Z"
           style="fill:none;stroke:#000000;stroke-width:7.5;stroke-linecap:round;stroke-linejoin:round;stroke-miterlimit:10;stroke-dasharray:none;stroke-opacity:1"
           id="path4882"
           inkscape:connector-curvature="0" /><path
           d="m 1569.6,810.005 c -0.02,19.398 -21,31.505 -37.8,21.817 -16.81,-9.749 -16.78,-33.97 0.03,-43.662 16.82,-9.664 37.75,2.442 37.77,21.84"
           style="fill:#ffffff;fill-opacity:1;fill-rule:evenodd;stroke:none"
           id="path4884"
           inkscape:connector-curvature="0" /><path
           d="m 1569.6,810.005 c -0.02,19.398 -21,31.505 -37.8,21.817 -16.81,-9.749 -16.78,-33.97 0.03,-43.662 16.82,-9.664 37.75,2.442 37.77,21.84"
           style="fill:none;stroke:#000000;stroke-width:7.5;stroke-linecap:round;stroke-linejoin:round;stroke-miterlimit:10;stroke-dasharray:none;stroke-opacity:1"
           id="path4886"
           inkscape:connector-curvature="0" /><path
           d="m 1569.6,90.0049 c -0.02,19.3981 -21,31.5051 -37.8,21.8171 -16.81,-9.749 -16.78,-33.9702 0.03,-43.6621 16.82,-9.6641 37.75,2.4419 37.77,21.8401"
           style="fill:#ffffff;fill-opacity:1;fill-rule:evenodd;stroke:none"
           id="path4888"
           inkscape:connector-curvature="0" /><path
           d="m 1569.6,90.0049 c -0.02,19.3981 -21,31.5051 -37.8,21.8171 -16.81,-9.749 -16.78,-33.9702 0.03,-43.6621 16.82,-9.6641 37.75,2.4419 37.77,21.8401"
           style="fill:none;stroke:#000000;stroke-width:7.5;stroke-linecap:round;stroke-linejoin:round;stroke-miterlimit:10;stroke-dasharray:none;stroke-opacity:1"
           id="path4890"
           inkscape:connector-curvature="0" /><path
           d="M 849.6,90.0049 C 849.581,109.403 828.603,121.51 811.797,111.822 794.993,102.073 795.023,77.8518 811.827,68.1599 828.646,58.4958 849.585,70.6018 849.6,90"
           style="fill:#ffffff;fill-opacity:1;fill-rule:evenodd;stroke:none"
           id="path4892"
           inkscape:connector-curvature="0" /><path
           d="M 849.6,90.0049 C 849.581,109.403 828.603,121.51 811.797,111.822 794.993,102.073 795.023,77.8518 811.827,68.1599 828.646,58.4958 849.585,70.6018 849.6,90"
           style="fill:none;stroke:#000000;stroke-width:7.5;stroke-linecap:round;stroke-linejoin:round;stroke-miterlimit:10;stroke-dasharray:none;stroke-opacity:1"
           id="path4894"
           inkscape:connector-curvature="0" /><path
           d="M 129.6,90.0049 C 129.581,109.403 108.603,121.51 91.7969,111.822 74.9929,102.073 75.0229,77.8518 91.8269,68.1599 108.646,58.4958 129.585,70.6018 129.6,90"
           style="fill:#ffffff;fill-opacity:1;fill-rule:evenodd;stroke:none"
           id="path4896"
           inkscape:connector-curvature="0" /><path
           d="M 129.6,90.0049 C 129.581,109.403 108.603,121.51 91.7969,111.822 74.9929,102.073 75.0229,77.8518 91.8269,68.1599 108.646,58.4958 129.585,70.6018 129.6,90"
           style="fill:none;stroke:#000000;stroke-width:7.5;stroke-linecap:round;stroke-linejoin:round;stroke-miterlimit:10;stroke-dasharray:none;stroke-opacity:1"
           id="path4898"
           inkscape:connector-curvature="0" /><path
           d="m 129.6,810.005 c -0.019,19.398 -20.997,31.505 -37.8031,21.817 -16.804,-9.749 -16.774,-33.97 0.03,-43.662 16.8191,-9.664 37.7581,2.442 37.7731,21.84"
           style="fill:#ffffff;fill-opacity:1;fill-rule:evenodd;stroke:none"
           id="path4900"
           inkscape:connector-curvature="0" /><path
           d="m 129.6,810.005 c -0.019,19.398 -20.997,31.505 -37.8031,21.817 -16.804,-9.749 -16.774,-33.97 0.03,-43.662 16.8191,-9.664 37.7581,2.442 37.7731,21.84"
           style="fill:none;stroke:#000000;stroke-width:7.5;stroke-linecap:round;stroke-linejoin:round;stroke-miterlimit:10;stroke-dasharray:none;stroke-opacity:1"
           id="path4902"
           inkscape:connector-curvature="0" /><path
           d="m 129.6,1530 c -0.019,19.4 -20.997,31.51 -37.8031,21.82 -16.804,-9.75 -16.774,-33.97 0.03,-43.66 16.8191,-9.66 37.7581,2.44 37.7731,21.84"
           style="fill:#ffffff;fill-opacity:1;fill-rule:evenodd;stroke:none"
           id="path4904"
           inkscape:connector-curvature="0" /><path
           d="m 129.6,1530 c -0.019,19.4 -20.997,31.51 -37.8031,21.82 -16.804,-9.75 -16.774,-33.97 0.03,-43.66 16.8191,-9.66 37.7581,2.44 37.7731,21.84"
           style="fill:none;stroke:#000000;stroke-width:7.5;stroke-linecap:round;stroke-linejoin:round;stroke-miterlimit:10;stroke-dasharray:none;stroke-opacity:1"
           id="path4906"
           inkscape:connector-curvature="0" /><path
           d="m 849.6,1530 c -0.019,19.4 -20.997,31.51 -37.803,21.82 -16.804,-9.75 -16.774,-33.97 0.03,-43.66 16.819,-9.66 37.758,2.44 37.773,21.84"
           style="fill:#ffffff;fill-opacity:1;fill-rule:evenodd;stroke:none"
           id="path4908"
           inkscape:connector-curvature="0" /><path
           d="m 849.6,1530 c -0.019,19.4 -20.997,31.51 -37.803,21.82 -16.804,-9.75 -16.774,-33.97 0.03,-43.66 16.819,-9.66 37.758,2.44 37.773,21.84"
           style="fill:none;stroke:#000000;stroke-width:7.5;stroke-linecap:round;stroke-linejoin:round;stroke-miterlimit:10;stroke-dasharray:none;stroke-opacity:1"
           id="path4910"
           inkscape:connector-curvature="0" /><path
           d="m 1569.6,1530 c -0.02,19.4 -21,31.51 -37.8,21.82 -16.81,-9.75 -16.78,-33.97 0.03,-43.66 16.82,-9.66 37.75,2.44 37.77,21.84"
           style="fill:#ffffff;fill-opacity:1;fill-rule:evenodd;stroke:none"
           id="path4912"
           inkscape:connector-curvature="0" /><path
           d="m 1569.6,1530 c -0.02,19.4 -21,31.51 -37.8,21.82 -16.81,-9.75 -16.78,-33.97 0.03,-43.66 16.82,-9.66 37.75,2.44 37.77,21.84"
           style="fill:none;stroke:#000000;stroke-width:7.5;stroke-linecap:round;stroke-linejoin:round;stroke-miterlimit:10;stroke-dasharray:none;stroke-opacity:1"
           id="path4914"
           inkscape:connector-curvature="0" /><path
           d="m 1144.8,763.2 v 93.6 l 93.6,-46.8 -93.6,-46.8"
           style="fill:#000000;fill-opacity:1;fill-rule:evenodd;stroke:none"
           id="path4916"
           inkscape:connector-curvature="0" /><path
           d="m 1144.8,763.2 v 93.6 l 93.6,-46.8 -93.6,-46.8"
           style="fill:none;stroke:#000000;stroke-width:7.5;stroke-linecap:round;stroke-linejoin:round;stroke-miterlimit:10;stroke-dasharray:none;stroke-opacity:1"
           id="path4918"
           inkscape:connector-curvature="0" /><path
           d="m 424.8,763.2 v 93.6 L 518.4,810 424.8,763.2"
           style="fill:#a0a0a4;fill-opacity:1;fill-rule:evenodd;stroke:none"
           id="path4920"
           inkscape:connector-curvature="0" /><path
           d="m 424.8,763.2 v 93.6 L 518.4,810 424.8,763.2"
           style="fill:none;stroke:#000000;stroke-width:7.5;stroke-linecap:round;stroke-linejoin:round;stroke-miterlimit:10;stroke-dasharray:none;stroke-opacity:1"
           id="path4922"
           inkscape:connector-curvature="0" /><path
           d="m 823.2,1224 46.8,-92.4 h -92.4 l 45.6,92.4"
           style="fill:#000000;fill-opacity:1;fill-rule:evenodd;stroke:none"
           id="path4924"
           inkscape:connector-curvature="0" /><path
           d="m 823.2,1224 46.8,-92.4 h -92.4 l 45.6,92.4"
           style="fill:none;stroke:#000000;stroke-width:7.5;stroke-linecap:round;stroke-linejoin:round;stroke-miterlimit:10;stroke-dasharray:none;stroke-opacity:1"
           id="path4926"
           inkscape:connector-curvature="0" /><path
           d="m 824.4,1224 v -15.6 l -36,-70.8 h 72 l -36,70.8 v 15.6 l 46.8,-93.6 h -93.6 l 46.8,93.6"
           style="fill:#000000;fill-opacity:1;fill-rule:nonzero;stroke:none"
           id="path4928"
           inkscape:connector-curvature="0" /><path
           d="M 823.2,504 870,411.6 h -92.4 l 45.6,92.4"
           style="fill:#a0a0a4;fill-opacity:1;fill-rule:evenodd;stroke:none"
           id="path4930"
           inkscape:connector-curvature="0" /><path
           d="M 823.2,504 870,411.6 h -92.4 l 45.6,92.4"
           style="fill:none;stroke:#000000;stroke-width:7.5;stroke-linecap:round;stroke-linejoin:round;stroke-miterlimit:10;stroke-dasharray:none;stroke-opacity:1"
           id="path4932"
           inkscape:connector-curvature="0" /><path
           d="m 824.4,504 v -15.6 l -36,-70.8 h 72 l -36,70.8 V 504 l 46.8,-93.6 h -93.6 l 46.8,93.6"
           style="fill:#000000;fill-opacity:1;fill-rule:nonzero;stroke:none"
           id="path4934"
           inkscape:connector-curvature="0" /><g
           id="g4936"
           transform="scale(10)"><text
             transform="matrix(0.871795,0,0,-1,74.16,66.24)"
             style="font-style:italic;font-variant:normal;font-size:10px;font-family:'Times New Roman';-inkscape-font-specification:Times-Italic;writing-mode:lr-tb;fill:#000000;fill-opacity:1;fill-rule:nonzero;stroke:none"
             id="text4940"><tspan
               x="0 3.3299999 6.1099901 8.6099701 10.73648 13.51647 14.040012 17.370012"
               y="0"
               sodipodi:role="line"
               id="tspan4938">(i,j)</tspan></text>
</g></g></g></g></svg>