<?xml version="1.0" encoding="UTF-8" standalone="no"?>
<!-- Created with Inkscape (http://www.inkscape.org/) -->

<svg
   xmlns:dc="http://purl.org/dc/elements/1.1/"
   xmlns:cc="http://creativecommons.org/ns#"
   xmlns:rdf="http://www.w3.org/1999/02/22-rdf-syntax-ns#"
   xmlns:svg="http://www.w3.org/2000/svg"
   xmlns="http://www.w3.org/2000/svg"
   xmlns:sodipodi="http://sodipodi.sourceforge.net/DTD/sodipodi-0.dtd"
   xmlns:inkscape="http://www.inkscape.org/namespaces/inkscape"
   version="1.1"
   id="svg7340"
   xml:space="preserve"
   width="289.41428"
   height="288.77429"
   viewBox="0 0 289.41428 288.7743"
   sodipodi:docname="figStructStenc3.svg"
   inkscape:version="0.92.2 (5c3e80d, 2017-08-06)"><metadata
     id="metadata7346"><rdf:RDF><cc:Work
         rdf:about=""><dc:format>image/svg+xml</dc:format><dc:type
           rdf:resource="http://purl.org/dc/dcmitype/StillImage" /><dc:title></dc:title></cc:Work></rdf:RDF></metadata><defs
     id="defs7344" /><sodipodi:namedview
     pagecolor="#ffffff"
     bordercolor="#666666"
     borderopacity="1"
     objecttolerance="10"
     gridtolerance="10"
     guidetolerance="10"
     inkscape:pageopacity="0"
     inkscape:pageshadow="2"
     inkscape:window-width="1194"
     inkscape:window-height="943"
     id="namedview7342"
     showgrid="false"
     inkscape:zoom="2.5764065"
     inkscape:cx="144.70714"
     inkscape:cy="144.38715"
     inkscape:window-x="0"
     inkscape:window-y="0"
     inkscape:window-maximized="0"
     inkscape:current-layer="g7348" /><g
     id="g7348"
     inkscape:groupmode="layer"
     inkscape:label="figStructStenc3"
     transform="matrix(1.3333333,0,0,-1.3333333,-4.732357,293.50761)"><g
       id="g7350"
       transform="scale(0.1)"><g
         id="g7352"><path
           d="m 40.7998,35.9998 h 2164.8 v 2164.8 h -2164.8 z"
           style="fill:none;stroke:#000000;stroke-width:1;stroke-linecap:butt;stroke-linejoin:round;stroke-miterlimit:10;stroke-dasharray:none;stroke-opacity:1"
           id="path7354"
           inkscape:connector-curvature="0" /><path
           d="M 35.9998,760.8 H 2193.6"
           style="fill:none;stroke:#000000;stroke-width:1;stroke-linecap:round;stroke-linejoin:round;stroke-miterlimit:10;stroke-dasharray:none;stroke-opacity:1"
           id="path7356"
           inkscape:connector-curvature="0" /><path
           d="M 40.7998,1480.8 H 2193.6"
           style="fill:none;stroke:#000000;stroke-width:1;stroke-linecap:round;stroke-linejoin:round;stroke-miterlimit:10;stroke-dasharray:none;stroke-opacity:1"
           id="path7358"
           inkscape:connector-curvature="0" /><path
           d="M 759.6,2200.8 V 44.3999"
           style="fill:none;stroke:#000000;stroke-width:1;stroke-linecap:round;stroke-linejoin:round;stroke-miterlimit:10;stroke-dasharray:none;stroke-opacity:1"
           id="path7360"
           inkscape:connector-curvature="0" /><path
           d="M 1480.8,2198.4 V 41.9998"
           style="fill:none;stroke:#000000;stroke-width:1;stroke-linecap:round;stroke-linejoin:round;stroke-miterlimit:10;stroke-dasharray:none;stroke-opacity:1"
           id="path7362"
           inkscape:connector-curvature="0" /><g
           id="g7364"
           transform="scale(10)"><text
             transform="matrix(0.833333,0,0,-1,16.08,33.36)"
             style="font-style:italic;font-variant:normal;font-size:18px;font-family:'Times New Roman';-inkscape-font-specification:Times-Italic;writing-mode:lr-tb;fill:#000000;fill-opacity:1;fill-rule:nonzero;stroke:none"
             id="text7370"><tspan
               x="0 5.9939899 11.98798 20.98798 25.48798 31.48197 40.481972 46.47596"
               y="0"
               sodipodi:role="line"
               id="tspan7366">(-1,-1)</tspan><tspan
               x="22.463961 28.457951 37.457951 41.957951 50.957951 56.951939"
               y="-126.36"
               sodipodi:role="line"
               id="tspan7368">(0,0)</tspan></text>
</g><path
           d="m 1168.8,1124.51 c -0.11,34.18 -36.13,55.42 -64.85,38.31 -28.76,-17.15 -28.71,-59.82 0.1,-76.9 28.9,-17.02 64.8,4.41 64.75,38.58"
           style="fill:#a0a0a4;fill-opacity:1;fill-rule:evenodd;stroke:none"
           id="path7372"
           inkscape:connector-curvature="0" /><path
           d="m 1168.8,1124.51 c -0.11,34.18 -36.13,55.42 -64.85,38.31 -28.76,-17.15 -28.71,-59.82 0.1,-76.9 28.9,-17.02 64.8,4.41 64.75,38.58"
           style="fill:none;stroke:#a0a0a4;stroke-width:1;stroke-linecap:round;stroke-linejoin:round;stroke-miterlimit:10;stroke-dasharray:none;stroke-opacity:1"
           id="path7374"
           inkscape:connector-curvature="0" /><path
           d="M 405.6,1125.6 H 1116"
           style="fill:none;stroke:#a00000;stroke-width:42.5;stroke-linecap:round;stroke-linejoin:round;stroke-miterlimit:10;stroke-dasharray:none;stroke-opacity:1"
           id="path7376"
           inkscape:connector-curvature="0" /><path
           d="M 696,1545.6 979.2,1262.4"
           style="fill:none;stroke:#000000;stroke-width:15;stroke-linecap:round;stroke-linejoin:round;stroke-miterlimit:10;stroke-dasharray:none;stroke-opacity:1"
           id="path7378"
           inkscape:connector-curvature="0" /><path
           d="m 998.4,1243.2 -61.2,20.4 38.4,2.4 2.4,38.4 20.4,-61.2"
           style="fill:#000000;fill-opacity:1;fill-rule:evenodd;stroke:none"
           id="path7380"
           inkscape:connector-curvature="0" /><path
           d="m 998.4,1243.2 -61.2,20.4 38.4,2.4 2.4,38.4 20.4,-61.2"
           style="fill:none;stroke:#000000;stroke-width:7.5;stroke-linecap:round;stroke-linejoin:round;stroke-miterlimit:10;stroke-dasharray:none;stroke-opacity:1"
           id="path7382"
           inkscape:connector-curvature="0" /><path
           d="m 1230,1136.42 c -0.08,82.21 -88.99,133.52 -160.21,92.46 -71.222,-41.31 -71.091,-143.96 0.12,-185.04 71.29,-40.96 160.02,10.35 160.09,92.56"
           style="fill:#ffffff;fill-opacity:1;fill-rule:evenodd;stroke:none"
           id="path7384"
           inkscape:connector-curvature="0" /><g
           id="g7386"
           transform="scale(10)"><text
             transform="matrix(0.861111,0,0,-1,107.76,106.44)"
             style="font-style:italic;font-variant:normal;font-weight:bold;font-size:18px;font-family:'Times New Roman';-inkscape-font-specification:Times-BoldItalic;writing-mode:lr-tb;fill:#000000;fill-opacity:1;fill-rule:nonzero;stroke:none"
             id="text7390"><tspan
               x="0 9"
               y="0"
               sodipodi:role="line"
               id="tspan7388">0</tspan></text>
</g><path
           d="m 872.4,1140.02 c -0.081,82.21 -88.986,133.52 -160.211,92.46 -71.221,-41.31 -71.09,-143.96 0.126,-185.04 71.282,-40.96 160.02,10.35 160.085,92.56"
           style="fill:#ffffff;fill-opacity:1;fill-rule:evenodd;stroke:none"
           id="path7392"
           inkscape:connector-curvature="0" /><g
           id="g7394"
           transform="scale(10)"><text
             transform="matrix(0.861111,0,0,-1,72,106.8)"
             style="font-style:italic;font-variant:normal;font-weight:bold;font-size:18px;font-family:'Times New Roman';-inkscape-font-specification:Times-BoldItalic;writing-mode:lr-tb;fill:#a00000;fill-opacity:1;fill-rule:nonzero;stroke:none"
             id="text7398"><tspan
               x="0 9"
               y="0"
               sodipodi:role="line"
               id="tspan7396">1</tspan></text>
</g><path
           d="m 458.4,1126.87 c -0.089,40.65 -46.069,65.96 -82.859,45.62 -36.755,-20.4 -36.662,-71.22 0.169,-91.48 36.864,-20.21 82.751,5.27 82.69,45.85"
           style="fill:#a00000;fill-opacity:1;fill-rule:evenodd;stroke:none"
           id="path7400"
           inkscape:connector-curvature="0" /><path
           d="m 458.4,1126.87 c -0.089,40.65 -46.069,65.96 -82.859,45.62 -36.755,-20.4 -36.662,-71.22 0.169,-91.48 36.864,-20.21 82.751,5.27 82.69,45.85"
           style="fill:none;stroke:#a00000;stroke-width:7.5;stroke-linecap:round;stroke-linejoin:round;stroke-miterlimit:10;stroke-dasharray:none;stroke-opacity:1"
           id="path7402"
           inkscape:connector-curvature="0" /></g></g></g></svg>