<?xml version="1.0" encoding="UTF-8" standalone="no"?>
<!-- Created with Inkscape (http://www.inkscape.org/) -->

<svg
   xmlns:dc="http://purl.org/dc/elements/1.1/"
   xmlns:cc="http://creativecommons.org/ns#"
   xmlns:rdf="http://www.w3.org/1999/02/22-rdf-syntax-ns#"
   xmlns:svg="http://www.w3.org/2000/svg"
   xmlns="http://www.w3.org/2000/svg"
   xmlns:sodipodi="http://sodipodi.sourceforge.net/DTD/sodipodi-0.dtd"
   xmlns:inkscape="http://www.inkscape.org/namespaces/inkscape"
   version="1.1"
   id="svg1868"
   xml:space="preserve"
   width="386.66666"
   height="266.66666"
   viewBox="0 0 386.66666 266.66666"
   sodipodi:docname="figSStructGrid6.svg"
   inkscape:version="0.92.2 (5c3e80d, 2017-08-06)"><metadata
     id="metadata1874"><rdf:RDF><cc:Work
         rdf:about=""><dc:format>image/svg+xml</dc:format><dc:type
           rdf:resource="http://purl.org/dc/dcmitype/StillImage" /><dc:title></dc:title></cc:Work></rdf:RDF></metadata><defs
     id="defs1872" /><sodipodi:namedview
     pagecolor="#ffffff"
     bordercolor="#666666"
     borderopacity="1"
     objecttolerance="10"
     gridtolerance="10"
     guidetolerance="10"
     inkscape:pageopacity="0"
     inkscape:pageshadow="2"
     inkscape:window-width="1212"
     inkscape:window-height="958"
     id="namedview1870"
     showgrid="false"
     inkscape:zoom="2.811207"
     inkscape:cx="193.33333"
     inkscape:cy="133.33333"
     inkscape:window-x="0"
     inkscape:window-y="0"
     inkscape:window-maximized="0"
     inkscape:current-layer="g1876" /><g
     id="g1876"
     inkscape:groupmode="layer"
     inkscape:label="figSStructGrid6"
     transform="matrix(1.3333333,0,0,-1.3333333,0,266.66667)"><g
       id="g1878"
       transform="scale(0.1)"><g
         id="g1880"><path
           d="M 516,1682.4 H 696 L 1417.2,240 1054.8,242.4 516,1682.4"
           style="fill:#e0e0e0;fill-opacity:1;fill-rule:evenodd;stroke:none"
           id="path1882"
           inkscape:connector-curvature="0" /><path
           d="m 783.6,963.6 h 270"
           style="fill:none;stroke:#c0c0c0;stroke-width:5;stroke-linecap:round;stroke-linejoin:round;stroke-miterlimit:10;stroke-dasharray:none;stroke-opacity:1"
           id="path1884"
           inkscape:connector-curvature="0" /><path
           d="M 648,1323.6 H 873.6"
           style="fill:none;stroke:#c0c0c0;stroke-width:5;stroke-linecap:round;stroke-linejoin:round;stroke-miterlimit:10;stroke-dasharray:none;stroke-opacity:1"
           id="path1886"
           inkscape:connector-curvature="0" /><path
           d="m 916.8,603.6 h 315.6"
           style="fill:none;stroke:#c0c0c0;stroke-width:5;stroke-linecap:round;stroke-linejoin:round;stroke-miterlimit:10;stroke-dasharray:none;stroke-opacity:1"
           id="path1888"
           inkscape:connector-curvature="0" /><path
           d="m 696,1682.4 718.8,-1440"
           style="fill:none;stroke:#c0c0c0;stroke-width:20;stroke-linecap:round;stroke-linejoin:round;stroke-miterlimit:10;stroke-dasharray:none;stroke-opacity:1"
           id="path1890"
           inkscape:connector-curvature="0" /><path
           d="M 696,1682.4 1416,241.2"
           style="fill:none;stroke:#c0c0c0;stroke-width:20;stroke-linecap:round;stroke-linejoin:round;stroke-miterlimit:10;stroke-dasharray:none;stroke-opacity:1"
           id="path1892"
           inkscape:connector-curvature="0" /><path
           d="M 1753.2,48 1416,243.6 2316,1142.4 2493.6,1047.6 1753.2,48"
           style="fill:#e0e0e0;fill-opacity:1;fill-rule:evenodd;stroke:none"
           id="path1894"
           inkscape:connector-curvature="0" /><path
           d="M 1948.8,777.6 2181.6,632.4"
           style="fill:none;stroke:#c0c0c0;stroke-width:5;stroke-linecap:round;stroke-linejoin:round;stroke-miterlimit:10;stroke-dasharray:none;stroke-opacity:1"
           id="path1896"
           inkscape:connector-curvature="0" /><path
           d="M 2126.4,956.4 2331.6,835.2"
           style="fill:none;stroke:#c0c0c0;stroke-width:5;stroke-linecap:round;stroke-linejoin:round;stroke-miterlimit:10;stroke-dasharray:none;stroke-opacity:1"
           id="path1898"
           inkscape:connector-curvature="0" /><path
           d="M 1705.2,535.2 1983.6,360"
           style="fill:none;stroke:#c0c0c0;stroke-width:5;stroke-linecap:round;stroke-linejoin:round;stroke-miterlimit:10;stroke-dasharray:none;stroke-opacity:1"
           id="path1900"
           inkscape:connector-curvature="0" /><path
           d="m 1416,242.4 897.6,900"
           style="fill:none;stroke:#c0c0c0;stroke-width:20;stroke-linecap:round;stroke-linejoin:round;stroke-miterlimit:10;stroke-dasharray:none;stroke-opacity:1"
           id="path1902"
           inkscape:connector-curvature="0" /><path
           d="m 1413.6,246 895.2,891.6"
           style="fill:none;stroke:#c0c0c0;stroke-width:20;stroke-linecap:round;stroke-linejoin:round;stroke-miterlimit:10;stroke-dasharray:none;stroke-opacity:1"
           id="path1904"
           inkscape:connector-curvature="0" /><g
           id="g1906"
           transform="scale(10)"><text
             transform="matrix(0.871795,0,0,-1,163.32,25.32)"
             style="font-style:italic;font-variant:normal;font-size:10px;font-family:'Times New Roman';-inkscape-font-specification:Times-Italic;writing-mode:lr-tb;fill:#c0c0c0;fill-opacity:1;fill-rule:nonzero;stroke:none"
             id="text1910"><tspan
               x="0 3.3299999 8.3299999 10.82998 15.82998 19.159981"
               y="0"
               sodipodi:role="line"
               id="tspan1908">(1,1)</tspan></text>
</g><g
           id="g1912"
           transform="scale(10)"><text
             transform="matrix(0.871795,0,0,-1,258.6,125.28)"
             style="font-style:italic;font-variant:normal;font-size:10px;font-family:'Times New Roman';-inkscape-font-specification:Times-Italic;writing-mode:lr-tb;fill:#c0c0c0;fill-opacity:1;fill-rule:nonzero;stroke:none"
             id="text1916"><tspan
               x="0 3.3299999 8.3299999 10.82998 15.82998 19.159981"
               y="0"
               sodipodi:role="line"
               id="tspan1914">(1,4)</tspan></text>
</g><g
           id="g1918"
           transform="scale(10)"><text
             transform="matrix(0.871795,0,0,-1,107.52,37.56)"
             style="font-style:italic;font-variant:normal;font-size:10px;font-family:'Times New Roman';-inkscape-font-specification:Times-Italic;writing-mode:lr-tb;fill:#c0c0c0;fill-opacity:1;fill-rule:nonzero;stroke:none"
             id="text1922"><tspan
               x="0 3.3299999 8.3299999 10.82998 15.82998 19.159981"
               y="0"
               sodipodi:role="line"
               id="tspan1920">(4,1)</tspan></text>
</g><g
           id="g1924"
           transform="scale(10)"><text
             transform="matrix(0.871795,0,0,-1,47.16,185.04)"
             style="font-style:italic;font-variant:normal;font-size:10px;font-family:'Times New Roman';-inkscape-font-specification:Times-Italic;writing-mode:lr-tb;fill:#c0c0c0;fill-opacity:1;fill-rule:nonzero;stroke:none"
             id="text1928"><tspan
               x="0 3.3299999 8.3299999 10.82998 15.82998 19.159981"
               y="0"
               sodipodi:role="line"
               id="tspan1926">(4,4)</tspan></text>
</g><path
           d="M 1350,1776 1953.6,782.4"
           style="fill:none;stroke:#c0c0c0;stroke-width:5;stroke-linecap:round;stroke-linejoin:round;stroke-miterlimit:10;stroke-dasharray:none;stroke-opacity:1"
           id="path1930"
           inkscape:connector-curvature="0" /><path
           d="M 1652.4,1820.4 2133.6,961.2"
           style="fill:none;stroke:#c0c0c0;stroke-width:5;stroke-linecap:round;stroke-linejoin:round;stroke-miterlimit:10;stroke-dasharray:none;stroke-opacity:1"
           id="path1932"
           inkscape:connector-curvature="0" /><path
           d="M 1053.6,1734 1716,547.2"
           style="fill:none;stroke:#c0c0c0;stroke-width:5;stroke-linecap:round;stroke-linejoin:round;stroke-miterlimit:10;stroke-dasharray:none;stroke-opacity:1"
           id="path1934"
           inkscape:connector-curvature="0" /><path
           d="m 874.8,1324.8 1165.2,360"
           style="fill:none;stroke:#c0c0c0;stroke-width:5;stroke-linecap:round;stroke-linejoin:round;stroke-miterlimit:10;stroke-dasharray:none;stroke-opacity:1"
           id="path1936"
           inkscape:connector-curvature="0" /><path
           d="M 1054.8,964.8 2125.2,1512"
           style="fill:none;stroke:#c0c0c0;stroke-width:5;stroke-linecap:round;stroke-linejoin:round;stroke-miterlimit:10;stroke-dasharray:none;stroke-opacity:1"
           id="path1938"
           inkscape:connector-curvature="0" /><path
           d="m 1234.8,604.8 978,727.2"
           style="fill:none;stroke:#c0c0c0;stroke-width:5;stroke-linecap:round;stroke-linejoin:round;stroke-miterlimit:10;stroke-dasharray:none;stroke-opacity:1"
           id="path1940"
           inkscape:connector-curvature="0" /><path
           d="m 696,1682.4 1258.8,180"
           style="fill:none;stroke:#c0c0c0;stroke-width:20;stroke-linecap:round;stroke-linejoin:round;stroke-miterlimit:10;stroke-dasharray:none;stroke-opacity:1"
           id="path1942"
           inkscape:connector-curvature="0" /><path
           d="m 1954.8,1862.4 354,-724.8"
           style="fill:none;stroke:#c0c0c0;stroke-width:20;stroke-linecap:round;stroke-linejoin:round;stroke-miterlimit:10;stroke-dasharray:none;stroke-opacity:1"
           id="path1944"
           inkscape:connector-curvature="0" /><g
           id="g1946"
           transform="scale(10)"><text
             transform="matrix(0.871795,0,0,-1,138.12,50.4)"
             style="font-style:italic;font-variant:normal;font-size:10px;font-family:'Times New Roman';-inkscape-font-specification:Times-Italic;writing-mode:lr-tb;fill:#c0c0c0;fill-opacity:1;fill-rule:nonzero;stroke:none"
             id="text1950"><tspan
               x="0 3.3299999 8.3299999 10.82998 15.82998 19.159981"
               y="0"
               sodipodi:role="line"
               id="tspan1948">(1,1)</tspan></text>
</g><g
           id="g1952"
           transform="scale(10)"><text
             transform="matrix(0.871795,0,0,-1,176.52,169.92)"
             style="font-style:italic;font-variant:normal;font-size:10px;font-family:'Times New Roman';-inkscape-font-specification:Times-Italic;writing-mode:lr-tb;fill:#c0c0c0;fill-opacity:1;fill-rule:nonzero;stroke:none"
             id="text1956"><tspan
               x="0 3.3299999 8.3299999 10.82998 15.82998 19.159981"
               y="0"
               sodipodi:role="line"
               id="tspan1954">(4,4)</tspan></text>
</g><path
           d="m 2494.8,603.6 h 37.2 l 18,-2.4 18,-1.2 18,-2.4 16.8,-2.4 18,-3.6 15.6,-2.4 16.8,-4.8 15.6,-3.6 15.6,-4.8 14.4,-4.8 14.4,-6 14.4,-6 13.2,-6 12,-6 12,-7.2 12,-7.2 10.8,-7.2 10.8,-7.2 9.6,-8.4 8.4,-8.4 8.4,-8.4 7.2,-8.4 6,-8.4 6,-9.6 4.8,-9.6 4.8,-8.4 2.4,-9.6 2.4,-10.8 1.2,-9.6 2.4,-9.6 -2.4,-10.8 -1.2,-9.6 -2.4,-9.6 -2.4,-9.6 -4.8,-9.6 -4.8,-8.4 -6,-9.6 -6,-8.4 -7.2,-9.6 -8.4,-8.4 -8.4,-7.2 -9.6,-8.4 -10.8,-7.2 -10.8,-8.4 -12,-6 -12,-7.2 -12,-6 -13.2,-7.2 -14.4,-4.8 -14.4,-6 -14.4,-4.8 -15.6,-4.8 -15.6,-4.8 -16.8,-3.6 -15.6,-3.6 -18,-2.4 -16.8,-3.6 -18,-1.2 -18,-2.4 -18,-1.2 h -19.2 l -18,-1.2 -19.2,1.2 h -19.2 l -18,1.2 -18,2.4 -18,1.2 -16.8,3.6 -16.8,2.4 -16.8,3.6 -16.8,3.6 -15.6,4.8 -15.6,4.8 -14.4,4.8 -14.4,6 -14.4,4.8 -13.2,7.2 -12,6 -12,7.2 -12,6 -10.8,8.4 -9.6,7.2 -9.6,8.4 -9.6,7.2 -8.4,8.4 -7.2,9.6 -6,8.4 -6,9.6 -4.8,8.4 -3.6,9.6 -3.6,9.6 -2.4,9.6 -1.2,9.6 -1.2,10.8 1.2,9.6 1.2,9.6 2.4,10.8 3.6,9.6 3.6,8.4 4.8,9.6 6,9.6 6,8.4 7.2,8.4 8.4,8.4 9.6,8.4 9.6,8.4 9.6,7.2 10.8,7.2 12,7.2 12,7.2 12,6 13.2,6 14.4,6 14.4,6 14.4,4.8 15.6,4.8 15.6,3.6 16.8,4.8 16.8,2.4 16.8,3.6 16.8,2.4 18,2.4 18,1.2 18,2.4 h 38.4"
           style="fill:#ffffff;fill-opacity:1;fill-rule:evenodd;stroke:none"
           id="path1958"
           inkscape:connector-curvature="0" /><g
           id="g1960"
           transform="scale(10)"><text
             transform="matrix(0.873418,0,0,-1,226.44,34.8)"
             style="font-style:italic;font-variant:normal;font-weight:bold;font-size:19.75px;font-family:'Times New Roman';-inkscape-font-specification:Times-BoldItalic;writing-mode:lr-tb;fill:#c0c0c0;fill-opacity:1;fill-rule:nonzero;stroke:none"
             id="text1964"><tspan
               x="0 9.875 19.75 27.43273 32.92321 37.86071 47.73571"
               y="0"
               sodipodi:role="line"
               id="tspan1962">part 2</tspan></text>
</g><path
           d="m 1594.8,1381.2 h 18 l 19.2,-1.2 18,-1.2 18,-1.2 18,-2.4 16.8,-2.4 18,-3.6 15.6,-2.4 16.8,-4.8 15.6,-3.6 15.6,-4.8 14.4,-4.8 14.4,-6 14.4,-6 13.2,-6 12,-6 12,-7.2 12,-7.2 10.8,-7.2 10.8,-7.2 9.6,-8.4 8.4,-8.4 8.4,-8.4 7.2,-8.4 6,-8.4 6,-9.6 4.8,-9.6 4.8,-8.4 2.4,-9.6 2.4,-10.8 1.2,-9.6 2.4,-9.6 -2.4,-10.8 -1.2,-9.6 -2.4,-9.6 -2.4,-9.6 -4.8,-9.6 -4.8,-9.6 -6,-8.4 -6,-8.4 -7.2,-9.6 -8.4,-8.4 -8.4,-7.2 -9.6,-8.4 -10.8,-7.2 -10.8,-8.4 -12,-6 -12,-7.2 -12,-7.2 -13.2,-6 -14.4,-4.8 -14.4,-6 -14.4,-4.8 -15.6,-4.8 -15.6,-4.8 -16.8,-3.6 -15.6,-3.6 -18,-2.4 -16.8,-3.6 -18,-1.2 -18,-2.4 -18,-1.2 -19.2,-1.2 h -37.2 l -19.2,1.2 -18,1.2 -18,2.4 -18,1.2 -16.8,3.6 -16.8,2.4 -15.6,3.6 -16.8,3.6 -15.6,4.8 -15.6,4.8 -14.4,4.8 -14.4,6 -14.4,4.8 -13.2,6 -12,7.2 -12,7.2 -12,6 -10.8,8.4 -9.6,7.2 -9.6,8.4 -9.6,7.2 -8.4,8.4 -7.2,9.6 -6,8.4 -6,8.4 -4.8,9.6 -3.6,9.6 -3.6,9.6 -2.4,9.6 -1.2,9.6 -1.2,10.8 1.2,9.6 1.2,9.6 2.4,10.8 3.6,9.6 3.6,8.4 4.8,9.6 6,9.6 6,8.4 7.2,8.4 8.4,8.4 9.6,8.4 9.6,8.4 9.6,7.2 10.8,7.2 12,7.2 12,7.2 12,6 13.2,6 14.4,6 14.4,6 14.4,4.8 15.6,4.8 15.6,3.6 16.8,4.8 15.6,2.4 16.8,3.6 16.8,2.4 18,2.4 18,1.2 18,1.2 19.2,1.2 h 19.2"
           style="fill:#ffffff;fill-opacity:1;fill-rule:evenodd;stroke:none"
           id="path1966"
           inkscape:connector-curvature="0" /><g
           id="g1968"
           transform="scale(10)"><text
             transform="matrix(0.873418,0,0,-1,136.56,112.56)"
             style="font-style:italic;font-variant:normal;font-weight:bold;font-size:19.75px;font-family:'Times New Roman';-inkscape-font-specification:Times-BoldItalic;writing-mode:lr-tb;fill:#c0c0c0;fill-opacity:1;fill-rule:nonzero;stroke:none"
             id="text1972"><tspan
               x="0 9.875 19.75 27.43273 32.92321 37.86071 47.73571"
               y="0"
               sodipodi:role="line"
               id="tspan1970">part 3</tspan></text>
</g><path
           d="m 400.8,1078.8 h 18 l 19.2,-1.2 18,-1.2 18,-1.2 18,-2.4 18,-2.4 16.8,-3.6 16.8,-3.6 15.6,-3.6 15.6,-3.6 15.6,-4.8 14.4,-6 14.4,-4.8 14.4,-6 13.2,-6 13.2,-6 12,-7.2 10.8,-7.2 10.8,-7.2 10.8,-7.2 9.6,-8.4 8.4,-8.4 8.4,-8.4 7.2,-8.4 7.2,-8.4 4.8,-9.6 4.8,-9.6 4.8,-9.6 3.6,-9.6 1.2,-9.6 3.6,-9.6 v -20.4 l -3.6,-9.6 -2.4,-9.6 -2.4,-9.6 -4.8,-9.6 -4.8,-9.6 -6,-8.4 -6,-9.6 -7.2,-8.4 -8.4,-8.4 -8.4,-8.4 -9.6,-7.2 -10.8,-7.2 -10.8,-8.4 -10.8,-7.2 -12,-6 -13.2,-7.2 -13.2,-6 -14.4,-4.8 -14.4,-6 -14.4,-4.8 -15.6,-4.8 -15.6,-4.8 -15.6,-3.6 -16.8,-3.6 -16.8,-2.4 -18,-3.6 -18,-1.2 -18,-2.4 -18,-1.2 -19.2,-1.2 h -37.2 l -18,1.2 -19.2,1.2 -18,2.4 -16.8,1.2 -18,3.6 -16.8,2.4 -16.8,3.6 -16.8,3.6 -15.6,4.8 -14.4,4.8 -15.6,4.8 -14.4,6 -13.2,4.8 -13.2,6 -13.2,7.2 -12,6 -12,7.2 -10.8,8.4 -9.6,7.2 -9.6001,7.2 -9.5999,8.4 -7.2002,8.4 -7.1999,8.4 -7.2,9.6 -6,8.4 -4.8,9.6 -3.6001,9.6 -3.5999,9.6 -2.4001,9.6 v 39.6 l 2.4001,9.6 3.5999,9.6 3.6001,9.6 4.8,9.6 6,9.6 7.2,8.4 7.1999,8.4 7.2002,8.4 9.5999,8.4 9.6001,8.4 9.6,7.2 10.8,7.2 12,7.2 12,7.2 13.2,6 13.2,6 13.2,6 14.4,4.8 15.6,6 14.4,4.8 15.6,3.6 16.8,3.6 16.8,3.6 16.8,3.6 18,2.4 16.8,2.4 18,1.2 19.2,1.2 18,1.2 h 19.2"
           style="fill:#ffffff;fill-opacity:1;fill-rule:evenodd;stroke:none"
           id="path1974"
           inkscape:connector-curvature="0" /><g
           id="g1976"
           transform="scale(10)"><text
             transform="matrix(0.873418,0,0,-1,17.04,82.32)"
             style="font-style:italic;font-variant:normal;font-weight:bold;font-size:19.75px;font-family:'Times New Roman';-inkscape-font-specification:Times-BoldItalic;writing-mode:lr-tb;fill:#c0c0c0;fill-opacity:1;fill-rule:nonzero;stroke:none"
             id="text1980"><tspan
               x="0 9.875 19.75 27.43273 32.92321 37.86071 47.73571"
               y="0"
               sodipodi:role="line"
               id="tspan1978">part 4</tspan></text>
</g><path
           d="m 2336.4,1008 222,220.8"
           style="fill:none;stroke:#c0c0c0;stroke-width:5;stroke-linecap:round;stroke-linejoin:round;stroke-miterlimit:10;stroke-dasharray:none;stroke-opacity:1"
           id="path1982"
           inkscape:connector-curvature="0" /><path
           d="m 2320.8,990 54,22.8 -34.8,-2.4 2.4,34.8 -21.6,-55.2"
           style="fill:#c0c0c0;fill-opacity:1;fill-rule:evenodd;stroke:none"
           id="path1984"
           inkscape:connector-curvature="0" /><path
           d="M 565.2,1804.8 679.2,1524"
           style="fill:none;stroke:#c0c0c0;stroke-width:5;stroke-linecap:round;stroke-linejoin:round;stroke-miterlimit:10;stroke-dasharray:none;stroke-opacity:1"
           id="path1986"
           inkscape:connector-curvature="0" /><path
           d="m 688.8,1502.4 v 56.4 l -12,-30 -28.8,14.4 40.8,-40.8"
           style="fill:#c0c0c0;fill-opacity:1;fill-rule:evenodd;stroke:none"
           id="path1988"
           inkscape:connector-curvature="0" /><path
           d="M 516,1682.4 H 696 L 1416,241.2 1054.8,242.4 516,1682.4"
           style="fill:#dddddd;fill-opacity:1;fill-rule:evenodd;stroke:none"
           id="path1990"
           inkscape:connector-curvature="0" /><path
           d="M 516,1682.4 H 696 L 1416,241.2 1054.8,242.4 516,1682.4"
           style="fill:none;stroke:#000000;stroke-width:7.5;stroke-linecap:round;stroke-linejoin:round;stroke-miterlimit:10;stroke-dasharray:none;stroke-opacity:1"
           id="path1992"
           inkscape:connector-curvature="0" /><path
           d="m 783.6,963.6 h 270"
           style="fill:none;stroke:#000000;stroke-width:5;stroke-linecap:round;stroke-linejoin:round;stroke-miterlimit:10;stroke-dasharray:none;stroke-opacity:1"
           id="path1994"
           inkscape:connector-curvature="0" /><path
           d="M 648,1323.6 H 873.6"
           style="fill:none;stroke:#000000;stroke-width:5;stroke-linecap:round;stroke-linejoin:round;stroke-miterlimit:10;stroke-dasharray:none;stroke-opacity:1"
           id="path1996"
           inkscape:connector-curvature="0" /><path
           d="m 916.8,603.6 h 315.6"
           style="fill:none;stroke:#000000;stroke-width:5;stroke-linecap:round;stroke-linejoin:round;stroke-miterlimit:10;stroke-dasharray:none;stroke-opacity:1"
           id="path1998"
           inkscape:connector-curvature="0" /><path
           d="m 696,1682.4 718.8,-1440"
           style="fill:none;stroke:#000000;stroke-width:20;stroke-linecap:round;stroke-linejoin:round;stroke-miterlimit:10;stroke-dasharray:none;stroke-opacity:1"
           id="path2000"
           inkscape:connector-curvature="0" /><path
           d="M 1753.2,49.2 1416,243.6 2316,1142.4 2492.4,1047.6 1753.2,49.2"
           style="fill:#dddddd;fill-opacity:1;fill-rule:evenodd;stroke:none"
           id="path2002"
           inkscape:connector-curvature="0" /><path
           d="M 1753.2,49.2 1416,243.6 2316,1142.4 2492.4,1047.6 1753.2,49.2"
           style="fill:none;stroke:#000000;stroke-width:7.5;stroke-linecap:round;stroke-linejoin:round;stroke-miterlimit:10;stroke-dasharray:none;stroke-opacity:1"
           id="path2004"
           inkscape:connector-curvature="0" /><path
           d="M 1948.8,777.6 2181.6,632.4"
           style="fill:none;stroke:#000000;stroke-width:5;stroke-linecap:round;stroke-linejoin:round;stroke-miterlimit:10;stroke-dasharray:none;stroke-opacity:1"
           id="path2006"
           inkscape:connector-curvature="0" /><path
           d="M 2126.4,956.4 2331.6,835.2"
           style="fill:none;stroke:#000000;stroke-width:5;stroke-linecap:round;stroke-linejoin:round;stroke-miterlimit:10;stroke-dasharray:none;stroke-opacity:1"
           id="path2008"
           inkscape:connector-curvature="0" /><path
           d="M 1705.2,535.2 1983.6,360"
           style="fill:none;stroke:#000000;stroke-width:5;stroke-linecap:round;stroke-linejoin:round;stroke-miterlimit:10;stroke-dasharray:none;stroke-opacity:1"
           id="path2010"
           inkscape:connector-curvature="0" /><path
           d="m 1416,242.4 897.6,900"
           style="fill:none;stroke:#000000;stroke-width:20;stroke-linecap:round;stroke-linejoin:round;stroke-miterlimit:10;stroke-dasharray:none;stroke-opacity:1"
           id="path2012"
           inkscape:connector-curvature="0" /><g
           id="g2014"
           transform="scale(10)"><text
             transform="matrix(0.871795,0,0,-1,163.32,25.32)"
             style="font-style:italic;font-variant:normal;font-size:10px;font-family:'Times New Roman';-inkscape-font-specification:Times-Italic;writing-mode:lr-tb;fill:#000000;fill-opacity:1;fill-rule:nonzero;stroke:none"
             id="text2024"><tspan
               x="0 3.3299999 8.3299999 10.82998 15.82998 19.159981"
               y="0"
               sodipodi:role="line"
               id="tspan2016">(1,1)</tspan><tspan
               x="109.29178 112.62178 117.62178 120.12176 125.12176 128.45177"
               y="-99.959999"
               sodipodi:role="line"
               id="tspan2018">(1,4)</tspan><tspan
               x="-64.006241 -60.676239 -55.676239 -53.176262 -48.176262 -44.84626"
               y="-12.24"
               sodipodi:role="line"
               id="tspan2020">(4,1)</tspan><tspan
               x="-133.24266 -129.91266 -124.91266 -122.41268 -117.41268 -114.08268"
               y="-159.72"
               sodipodi:role="line"
               id="tspan2022">(4,4)</tspan></text>
</g><path
           d="M 696,1682.4 1416,241.2"
           style="fill:none;stroke:#000000;stroke-width:20;stroke-linecap:round;stroke-linejoin:round;stroke-miterlimit:10;stroke-dasharray:none;stroke-opacity:1"
           id="path2026"
           inkscape:connector-curvature="0" /><path
           d="m 1413.6,246 895.2,891.6"
           style="fill:none;stroke:#000000;stroke-width:20;stroke-linecap:round;stroke-linejoin:round;stroke-miterlimit:10;stroke-dasharray:none;stroke-opacity:1"
           id="path2028"
           inkscape:connector-curvature="0" /><path
           d="M 1350,1776 1953.6,782.4"
           style="fill:none;stroke:#000000;stroke-width:5;stroke-linecap:round;stroke-linejoin:round;stroke-miterlimit:10;stroke-dasharray:none;stroke-opacity:1"
           id="path2030"
           inkscape:connector-curvature="0" /><path
           d="M 1652.4,1820.4 2133.6,961.2"
           style="fill:none;stroke:#000000;stroke-width:5;stroke-linecap:round;stroke-linejoin:round;stroke-miterlimit:10;stroke-dasharray:none;stroke-opacity:1"
           id="path2032"
           inkscape:connector-curvature="0" /><path
           d="M 1053.6,1734 1716,547.2"
           style="fill:none;stroke:#000000;stroke-width:5;stroke-linecap:round;stroke-linejoin:round;stroke-miterlimit:10;stroke-dasharray:none;stroke-opacity:1"
           id="path2034"
           inkscape:connector-curvature="0" /><path
           d="m 874.8,1324.8 1165.2,360"
           style="fill:none;stroke:#000000;stroke-width:5;stroke-linecap:round;stroke-linejoin:round;stroke-miterlimit:10;stroke-dasharray:none;stroke-opacity:1"
           id="path2036"
           inkscape:connector-curvature="0" /><path
           d="M 1054.8,964.8 2125.2,1512"
           style="fill:none;stroke:#000000;stroke-width:5;stroke-linecap:round;stroke-linejoin:round;stroke-miterlimit:10;stroke-dasharray:none;stroke-opacity:1"
           id="path2038"
           inkscape:connector-curvature="0" /><path
           d="m 1234.8,604.8 978,727.2"
           style="fill:none;stroke:#000000;stroke-width:5;stroke-linecap:round;stroke-linejoin:round;stroke-miterlimit:10;stroke-dasharray:none;stroke-opacity:1"
           id="path2040"
           inkscape:connector-curvature="0" /><path
           d="m 696,1682.4 1258.8,180"
           style="fill:none;stroke:#000000;stroke-width:20;stroke-linecap:round;stroke-linejoin:round;stroke-miterlimit:10;stroke-dasharray:none;stroke-opacity:1"
           id="path2042"
           inkscape:connector-curvature="0" /><path
           d="m 1954.8,1862.4 354,-724.8"
           style="fill:none;stroke:#000000;stroke-width:20;stroke-linecap:round;stroke-linejoin:round;stroke-miterlimit:10;stroke-dasharray:none;stroke-opacity:1"
           id="path2044"
           inkscape:connector-curvature="0" /><g
           id="g2046"
           transform="scale(10)"><text
             transform="matrix(0.871795,0,0,-1,138.12,50.4)"
             style="font-style:italic;font-variant:normal;font-size:10px;font-family:'Times New Roman';-inkscape-font-specification:Times-Italic;writing-mode:lr-tb;fill:#000000;fill-opacity:1;fill-rule:nonzero;stroke:none"
             id="text2052"><tspan
               x="0 3.3299999 8.3299999 10.82998 15.82998 19.159981"
               y="0"
               sodipodi:role="line"
               id="tspan2048">(1,1)</tspan><tspan
               x="44.047081 47.377079 52.377079 54.87706 59.87706 63.207062"
               y="-119.52"
               sodipodi:role="line"
               id="tspan2050">(4,4)</tspan></text>
</g><path
           d="m 2494.8,603.6 h 37.2 l 18,-2.4 18,-1.2 18,-2.4 16.8,-2.4 18,-3.6 15.6,-2.4 16.8,-4.8 15.6,-3.6 15.6,-4.8 14.4,-4.8 14.4,-6 14.4,-6 13.2,-6 12,-6 12,-7.2 12,-7.2 10.8,-7.2 10.8,-7.2 9.6,-8.4 8.4,-8.4 8.4,-8.4 7.2,-8.4 6,-8.4 6,-9.6 4.8,-9.6 4.8,-8.4 2.4,-9.6 2.4,-10.8 1.2,-9.6 2.4,-9.6 -2.4,-10.8 -1.2,-9.6 -2.4,-9.6 -2.4,-9.6 -4.8,-9.6 -4.8,-8.4 -6,-9.6 -6,-8.4 -7.2,-9.6 -8.4,-8.4 -8.4,-7.2 -9.6,-8.4 -10.8,-7.2 -10.8,-8.4 -12,-6 -12,-7.2 -12,-6 -13.2,-7.2 -14.4,-4.8 -14.4,-6 -14.4,-4.8 -15.6,-4.8 -15.6,-4.8 -16.8,-3.6 -15.6,-3.6 -18,-2.4 -16.8,-3.6 -18,-1.2 -18,-2.4 -18,-1.2 h -19.2 l -18,-1.2 -19.2,1.2 h -19.2 l -18,1.2 -18,2.4 -18,1.2 -16.8,3.6 -16.8,2.4 -16.8,3.6 -16.8,3.6 -15.6,4.8 -15.6,4.8 -14.4,4.8 -14.4,6 -14.4,4.8 -13.2,7.2 -12,6 -12,7.2 -12,6 -10.8,8.4 -9.6,7.2 -9.6,8.4 -9.6,7.2 -8.4,8.4 -7.2,9.6 -6,8.4 -6,9.6 -4.8,8.4 -3.6,9.6 -3.6,9.6 -2.4,9.6 -1.2,9.6 -1.2,10.8 1.2,9.6 1.2,9.6 2.4,10.8 3.6,9.6 3.6,8.4 4.8,9.6 6,9.6 6,8.4 7.2,8.4 8.4,8.4 9.6,8.4 9.6,8.4 9.6,7.2 10.8,7.2 12,7.2 12,7.2 12,6 13.2,6 14.4,6 14.4,6 14.4,4.8 15.6,4.8 15.6,3.6 16.8,4.8 16.8,2.4 16.8,3.6 16.8,2.4 18,2.4 18,1.2 18,2.4 h 38.4"
           style="fill:#ffffff;fill-opacity:1;fill-rule:evenodd;stroke:none"
           id="path2054"
           inkscape:connector-curvature="0" /><g
           id="g2056"
           transform="scale(10)"><text
             transform="matrix(0.873418,0,0,-1,226.44,34.8)"
             style="font-style:italic;font-variant:normal;font-weight:bold;font-size:19.75px;font-family:'Times New Roman';-inkscape-font-specification:Times-BoldItalic;writing-mode:lr-tb;fill:#000000;fill-opacity:1;fill-rule:nonzero;stroke:none"
             id="text2060"><tspan
               x="0 9.875 19.75 27.43273 32.92321 37.86071 47.73571"
               y="0"
               sodipodi:role="line"
               id="tspan2058">part 2</tspan></text>
</g><path
           d="m 1594.8,1381.2 h 18 l 19.2,-1.2 18,-1.2 18,-1.2 18,-2.4 16.8,-2.4 18,-3.6 15.6,-2.4 16.8,-4.8 15.6,-3.6 15.6,-4.8 14.4,-4.8 14.4,-6 14.4,-6 13.2,-6 12,-6 12,-7.2 12,-7.2 10.8,-7.2 10.8,-7.2 9.6,-8.4 8.4,-8.4 8.4,-8.4 7.2,-8.4 6,-8.4 6,-9.6 4.8,-9.6 4.8,-8.4 2.4,-9.6 2.4,-10.8 1.2,-9.6 2.4,-9.6 -2.4,-10.8 -1.2,-9.6 -2.4,-9.6 -2.4,-9.6 -4.8,-9.6 -4.8,-9.6 -6,-8.4 -6,-8.4 -7.2,-9.6 -8.4,-8.4 -8.4,-7.2 -9.6,-8.4 -10.8,-7.2 -10.8,-8.4 -12,-6 -12,-7.2 -12,-7.2 -13.2,-6 -14.4,-4.8 -14.4,-6 -14.4,-4.8 -15.6,-4.8 -15.6,-4.8 -16.8,-3.6 -15.6,-3.6 -18,-2.4 -16.8,-3.6 -18,-1.2 -18,-2.4 -18,-1.2 -19.2,-1.2 h -37.2 l -19.2,1.2 -18,1.2 -18,2.4 -18,1.2 -16.8,3.6 -16.8,2.4 -15.6,3.6 -16.8,3.6 -15.6,4.8 -15.6,4.8 -14.4,4.8 -14.4,6 -14.4,4.8 -13.2,6 -12,7.2 -12,7.2 -12,6 -10.8,8.4 -9.6,7.2 -9.6,8.4 -9.6,7.2 -8.4,8.4 -7.2,9.6 -6,8.4 -6,8.4 -4.8,9.6 -3.6,9.6 -3.6,9.6 -2.4,9.6 -1.2,9.6 -1.2,10.8 1.2,9.6 1.2,9.6 2.4,10.8 3.6,9.6 3.6,8.4 4.8,9.6 6,9.6 6,8.4 7.2,8.4 8.4,8.4 9.6,8.4 9.6,8.4 9.6,7.2 10.8,7.2 12,7.2 12,7.2 12,6 13.2,6 14.4,6 14.4,6 14.4,4.8 15.6,4.8 15.6,3.6 16.8,4.8 15.6,2.4 16.8,3.6 16.8,2.4 18,2.4 18,1.2 18,1.2 19.2,1.2 h 19.2"
           style="fill:#ffffff;fill-opacity:1;fill-rule:evenodd;stroke:none"
           id="path2062"
           inkscape:connector-curvature="0" /><g
           id="g2064"
           transform="scale(10)"><text
             transform="matrix(0.873418,0,0,-1,136.56,112.56)"
             style="font-style:italic;font-variant:normal;font-weight:bold;font-size:19.75px;font-family:'Times New Roman';-inkscape-font-specification:Times-BoldItalic;writing-mode:lr-tb;fill:#000000;fill-opacity:1;fill-rule:nonzero;stroke:none"
             id="text2068"><tspan
               x="0 9.875 19.75 27.43273 32.92321 37.86071 47.73571"
               y="0"
               sodipodi:role="line"
               id="tspan2066">part 3</tspan></text>
</g><path
           d="m 400.8,1078.8 h 18 l 19.2,-1.2 18,-1.2 18,-1.2 18,-2.4 18,-2.4 16.8,-3.6 16.8,-3.6 15.6,-3.6 15.6,-3.6 15.6,-4.8 14.4,-6 14.4,-4.8 14.4,-6 13.2,-6 13.2,-6 12,-7.2 10.8,-7.2 10.8,-7.2 10.8,-7.2 9.6,-8.4 8.4,-8.4 8.4,-8.4 7.2,-8.4 7.2,-8.4 4.8,-9.6 4.8,-9.6 4.8,-9.6 3.6,-9.6 1.2,-9.6 3.6,-9.6 v -20.4 l -3.6,-9.6 -2.4,-9.6 -2.4,-9.6 -4.8,-9.6 -4.8,-9.6 -6,-8.4 -6,-9.6 -7.2,-8.4 -8.4,-8.4 -8.4,-8.4 -9.6,-7.2 -10.8,-7.2 -10.8,-8.4 -10.8,-7.2 -12,-6 -13.2,-7.2 -13.2,-6 -14.4,-4.8 -14.4,-6 -14.4,-4.8 -15.6,-4.8 -15.6,-4.8 -15.6,-3.6 -16.8,-3.6 -16.8,-2.4 -18,-3.6 -18,-1.2 -18,-2.4 -18,-1.2 -19.2,-1.2 h -37.2 l -18,1.2 -19.2,1.2 -18,2.4 -16.8,1.2 -18,3.6 -16.8,2.4 -16.8,3.6 -16.8,3.6 -15.6,4.8 -14.4,4.8 -15.6,4.8 -14.4,6 -13.2,4.8 -13.2,6 -13.2,7.2 -12,6 -12,7.2 -10.8,8.4 -9.6,7.2 -9.6001,7.2 -9.5999,8.4 -7.2002,8.4 -7.1999,8.4 -7.2,9.6 -6,8.4 -4.8,9.6 -3.6001,9.6 -3.5999,9.6 -2.4001,9.6 v 39.6 l 2.4001,9.6 3.5999,9.6 3.6001,9.6 4.8,9.6 6,9.6 7.2,8.4 7.1999,8.4 7.2002,8.4 9.5999,8.4 9.6001,8.4 9.6,7.2 10.8,7.2 12,7.2 12,7.2 13.2,6 13.2,6 13.2,6 14.4,4.8 15.6,6 14.4,4.8 15.6,3.6 16.8,3.6 16.8,3.6 16.8,3.6 18,2.4 16.8,2.4 18,1.2 19.2,1.2 18,1.2 h 19.2"
           style="fill:#ffffff;fill-opacity:1;fill-rule:evenodd;stroke:none"
           id="path2070"
           inkscape:connector-curvature="0" /><g
           id="g2072"
           transform="scale(10)"><text
             transform="matrix(0.873418,0,0,-1,17.04,82.32)"
             style="font-style:italic;font-variant:normal;font-weight:bold;font-size:19.75px;font-family:'Times New Roman';-inkscape-font-specification:Times-BoldItalic;writing-mode:lr-tb;fill:#000000;fill-opacity:1;fill-rule:nonzero;stroke:none"
             id="text2076"><tspan
               x="0 9.875 19.75 27.43273 32.92321 37.86071 47.73571"
               y="0"
               sodipodi:role="line"
               id="tspan2074">part 4</tspan></text>
</g><path
           d="m 2336.4,1008 222,220.8"
           style="fill:none;stroke:#000000;stroke-width:5;stroke-linecap:round;stroke-linejoin:round;stroke-miterlimit:10;stroke-dasharray:none;stroke-opacity:1"
           id="path2078"
           inkscape:connector-curvature="0" /><path
           d="m 2320.8,990 54,22.8 -34.8,-2.4 2.4,34.8 -21.6,-55.2"
           style="fill:#000000;fill-opacity:1;fill-rule:evenodd;stroke:none"
           id="path2080"
           inkscape:connector-curvature="0" /><path
           d="M 565.2,1804.8 679.2,1524"
           style="fill:none;stroke:#000000;stroke-width:5;stroke-linecap:round;stroke-linejoin:round;stroke-miterlimit:10;stroke-dasharray:none;stroke-opacity:1"
           id="path2082"
           inkscape:connector-curvature="0" /><path
           d="m 688.8,1502.4 v 56.4 l -12,-30 -28.8,14.4 40.8,-40.8"
           style="fill:#000000;fill-opacity:1;fill-rule:evenodd;stroke:none"
           id="path2084"
           inkscape:connector-curvature="0" /><path
           d="m 1282.8,1644 h 6 l 4.8,-2.4 4.8,-2.4 4.8,-3.6 3.6,-4.8 2.4,-4.8 3.6,-6 v -12 l -3.6,-6 -2.4,-4.8 -3.6,-4.8 -4.8,-3.6 -4.8,-2.4 -4.8,-1.2 -3.6,-2.4 h -6 l -2.4,2.4 -6,1.2 -4.8,2.4 -4.8,3.6 -3.6,4.8 -2.4,4.8 -1.2,6 -1.2,2.4 v 7.2 l 1.2,2.4 1.2,6 2.4,4.8 3.6,4.8 4.8,3.6 4.8,2.4 6,2.4 h 6"
           style="fill:#000000;fill-opacity:1;fill-rule:evenodd;stroke:none"
           id="path2086"
           inkscape:connector-curvature="0" /><path
           d="m 1282.8,1644 h 6 l 4.8,-2.4 4.8,-2.4 4.8,-3.6 3.6,-4.8 2.4,-4.8 2.4,-6 v -12 l -2.4,-6 -2.4,-4.8 -3.6,-4.8 -4.8,-3.6 -4.8,-2.4 -4.8,-1.2 -3.6,-1.2 h -6 l -2.4,1.2 -6,1.2 -4.8,2.4 -4.8,3.6 -3.6,4.8 -2.4,4.8 -1.2,6 -1.2,2.4 v 7.2 l 1.2,2.4 1.2,6 2.4,4.8 3.6,4.8 4.8,3.6 4.8,2.4 6,2.4 z"
           style="fill:none;stroke:#000000;stroke-width:5;stroke-linecap:round;stroke-linejoin:round;stroke-miterlimit:10;stroke-dasharray:none;stroke-opacity:1"
           id="path2088"
           inkscape:connector-curvature="0" /><path
           d="m 1282.8,1644 h 6 l 4.8,-2.4 4.8,-2.4 4.8,-3.6 3.6,-4.8 2.4,-4.8 2.4,-6 v -12 l -2.4,-6 -2.4,-4.8 -3.6,-4.8 -4.8,-3.6 -4.8,-2.4 -4.8,-1.2 -3.6,-1.2 h -6 l -2.4,1.2 -6,1.2 -4.8,2.4 -4.8,3.6 -3.6,4.8 -2.4,4.8 -1.2,6 -1.2,2.4 v 7.2 l 1.2,2.4 1.2,6 2.4,4.8 3.6,4.8 4.8,3.6 4.8,2.4 6,2.4 z"
           style="fill:none;stroke:#000000;stroke-width:5;stroke-linecap:round;stroke-linejoin:round;stroke-miterlimit:10;stroke-dasharray:none;stroke-opacity:1"
           id="path2090"
           inkscape:connector-curvature="0" /><path
           d="m 1401.6,1615.2 69.6,34.8 -69.6,34.8 v -69.6"
           style="fill:#000000;fill-opacity:1;fill-rule:evenodd;stroke:none"
           id="path2092"
           inkscape:connector-curvature="0" /><path
           d="m 1114.8,1539.6 69.6,34.8 -69.6,34.8 v -69.6"
           style="fill:#000000;fill-opacity:1;fill-rule:evenodd;stroke:none"
           id="path2094"
           inkscape:connector-curvature="0" /><path
           d="m 1363.2,1518 -33.6,-69.6 h 69.6 l -36,69.6"
           style="fill:#000000;fill-opacity:1;fill-rule:evenodd;stroke:none"
           id="path2096"
           inkscape:connector-curvature="0" /><path
           d="m 1233.6,1797.6 -34.8,-69.6 h 69.6 l -34.8,69.6"
           style="fill:#000000;fill-opacity:1;fill-rule:evenodd;stroke:none"
           id="path2098"
           inkscape:connector-curvature="0" /></g></g></g></svg>