<?xml version="1.0" encoding="UTF-8" standalone="no"?>
<!-- Created with Inkscape (http://www.inkscape.org/) -->

<svg
   xmlns:dc="http://purl.org/dc/elements/1.1/"
   xmlns:cc="http://creativecommons.org/ns#"
   xmlns:rdf="http://www.w3.org/1999/02/22-rdf-syntax-ns#"
   xmlns:svg="http://www.w3.org/2000/svg"
   xmlns="http://www.w3.org/2000/svg"
   xmlns:sodipodi="http://sodipodi.sourceforge.net/DTD/sodipodi-0.dtd"
   xmlns:inkscape="http://www.inkscape.org/namespaces/inkscape"
   version="1.1"
   id="svg4950"
   xml:space="preserve"
   width="176.7002"
   height="224.79999"
   viewBox="0 0 176.7002 224.79999"
   sodipodi:docname="figSStructStenc0.svg"
   inkscape:version="0.92.2 (5c3e80d, 2017-08-06)"><metadata
     id="metadata4956"><rdf:RDF><cc:Work
         rdf:about=""><dc:format>image/svg+xml</dc:format><dc:type
           rdf:resource="http://purl.org/dc/dcmitype/StillImage" /><dc:title></dc:title></cc:Work></rdf:RDF></metadata><defs
     id="defs4954" /><sodipodi:namedview
     pagecolor="#ffffff"
     bordercolor="#666666"
     borderopacity="1"
     objecttolerance="10"
     gridtolerance="10"
     guidetolerance="10"
     inkscape:pageopacity="0"
     inkscape:pageshadow="2"
     inkscape:window-width="1304"
     inkscape:window-height="957"
     id="namedview4952"
     showgrid="false"
     inkscape:zoom="3.3718862"
     inkscape:cx="88.350094"
     inkscape:cy="112.4"
     inkscape:window-x="0"
     inkscape:window-y="0"
     inkscape:window-maximized="0"
     inkscape:current-layer="g4958" /><g
     id="g4958"
     inkscape:groupmode="layer"
     inkscape:label="figSStructStenc0"
     transform="matrix(1.3333333,0,0,-1.3333333,-5.9835415,229.43997)"><g
       id="g4960"
       transform="scale(0.1)"><g
         id="g4962"><path
           d="M 698.4,34.7998 H 1182 v 1686 H 698.4 Z"
           style="fill:#e0e0e0;fill-opacity:1;fill-rule:evenodd;stroke:none"
           id="path4964"
           inkscape:connector-curvature="0" /><path
           d="m 216,34.7998 h 182.4 v 1686 H 216 Z"
           style="fill:#e0e0e0;fill-opacity:1;fill-rule:evenodd;stroke:none"
           id="path4966"
           inkscape:connector-curvature="0" /><g
           id="g4968"
           transform="scale(10)"><text
             transform="matrix(0.893617,0,0,-1,28.8,155.88)"
             style="font-style:italic;font-variant:normal;font-weight:bold;font-size:12px;font-family:'Times New Roman';-inkscape-font-specification:Times-BoldItalic;writing-mode:lr-tb;fill:#000000;fill-opacity:1;fill-rule:nonzero;stroke:none"
             id="text4972"><tspan
               x="0 6"
               y="0"
               sodipodi:role="line"
               id="tspan4970">0</tspan></text>
</g><path
           d="M 478.8,1598.4 H 621.6"
           style="fill:none;stroke:#000000;stroke-width:5;stroke-linecap:round;stroke-linejoin:round;stroke-miterlimit:10;stroke-dasharray:none;stroke-opacity:1"
           id="path4974"
           inkscape:connector-curvature="0" /><path
           d="m 460.8,1599.6 52.8,-21.6 -24,21.6 24,19.2 -52.8,-19.2"
           style="fill:#000000;fill-opacity:1;fill-rule:evenodd;stroke:none"
           id="path4976"
           inkscape:connector-curvature="0" /><path
           d="m 642,1599.6 -54,19.2 24,-19.2 -24,-21.6 54,21.6"
           style="fill:#000000;fill-opacity:1;fill-rule:evenodd;stroke:none"
           id="path4978"
           inkscape:connector-curvature="0" /><g
           id="g4980"
           transform="scale(10)"><text
             transform="matrix(0.893617,0,0,-1,28.8,137.88)"
             style="font-style:italic;font-variant:normal;font-weight:bold;font-size:12px;font-family:'Times New Roman';-inkscape-font-specification:Times-BoldItalic;writing-mode:lr-tb;fill:#000000;fill-opacity:1;fill-rule:nonzero;stroke:none"
             id="text4984"><tspan
               x="0 6"
               y="0"
               sodipodi:role="line"
               id="tspan4982">1</tspan></text>
</g><path
           d="M 478.8,1418.4 H 621.6"
           style="fill:none;stroke:#000000;stroke-width:5;stroke-linecap:round;stroke-linejoin:round;stroke-miterlimit:10;stroke-dasharray:none;stroke-opacity:1"
           id="path4986"
           inkscape:connector-curvature="0" /><path
           d="m 460.8,1419.6 52.8,-21.6 -24,21.6 24,19.2 -52.8,-19.2"
           style="fill:#000000;fill-opacity:1;fill-rule:evenodd;stroke:none"
           id="path4988"
           inkscape:connector-curvature="0" /><path
           d="m 642,1419.6 -54,19.2 24,-19.2 -24,-21.6 54,21.6"
           style="fill:#000000;fill-opacity:1;fill-rule:evenodd;stroke:none"
           id="path4990"
           inkscape:connector-curvature="0" /><g
           id="g4992"
           transform="scale(10)"><text
             transform="matrix(0.893617,0,0,-1,28.8,119.88)"
             style="font-style:italic;font-variant:normal;font-weight:bold;font-size:12px;font-family:'Times New Roman';-inkscape-font-specification:Times-BoldItalic;writing-mode:lr-tb;fill:#000000;fill-opacity:1;fill-rule:nonzero;stroke:none"
             id="text4996"><tspan
               x="0 6"
               y="0"
               sodipodi:role="line"
               id="tspan4994">2</tspan></text>
</g><path
           d="M 478.8,1238.4 H 621.6"
           style="fill:none;stroke:#000000;stroke-width:5;stroke-linecap:round;stroke-linejoin:round;stroke-miterlimit:10;stroke-dasharray:none;stroke-opacity:1"
           id="path4998"
           inkscape:connector-curvature="0" /><path
           d="m 460.8,1239.6 52.8,-21.6 -24,21.6 24,19.2 -52.8,-19.2"
           style="fill:#000000;fill-opacity:1;fill-rule:evenodd;stroke:none"
           id="path5000"
           inkscape:connector-curvature="0" /><path
           d="m 642,1239.6 -54,19.2 24,-19.2 -24,-21.6 54,21.6"
           style="fill:#000000;fill-opacity:1;fill-rule:evenodd;stroke:none"
           id="path5002"
           inkscape:connector-curvature="0" /><g
           id="g5004"
           transform="scale(10)"><text
             transform="matrix(0.893617,0,0,-1,28.8,101.88)"
             style="font-style:italic;font-variant:normal;font-weight:bold;font-size:12px;font-family:'Times New Roman';-inkscape-font-specification:Times-BoldItalic;writing-mode:lr-tb;fill:#000000;fill-opacity:1;fill-rule:nonzero;stroke:none"
             id="text5008"><tspan
               x="0 6"
               y="0"
               sodipodi:role="line"
               id="tspan5006">3</tspan></text>
</g><path
           d="M 478.8,1058.4 H 621.6"
           style="fill:none;stroke:#000000;stroke-width:5;stroke-linecap:round;stroke-linejoin:round;stroke-miterlimit:10;stroke-dasharray:none;stroke-opacity:1"
           id="path5010"
           inkscape:connector-curvature="0" /><path
           d="m 460.8,1059.6 52.8,-21.6 -24,21.6 24,19.2 -52.8,-19.2"
           style="fill:#000000;fill-opacity:1;fill-rule:evenodd;stroke:none"
           id="path5012"
           inkscape:connector-curvature="0" /><path
           d="m 642,1059.6 -54,19.2 24,-19.2 -24,-21.6 54,21.6"
           style="fill:#000000;fill-opacity:1;fill-rule:evenodd;stroke:none"
           id="path5014"
           inkscape:connector-curvature="0" /><g
           id="g5016"
           transform="scale(10)"><text
             transform="matrix(0.893617,0,0,-1,28.8,83.88)"
             style="font-style:italic;font-variant:normal;font-weight:bold;font-size:12px;font-family:'Times New Roman';-inkscape-font-specification:Times-BoldItalic;writing-mode:lr-tb;fill:#000000;fill-opacity:1;fill-rule:nonzero;stroke:none"
             id="text5020"><tspan
               x="0 6"
               y="0"
               sodipodi:role="line"
               id="tspan5018">4</tspan></text>
</g><path
           d="M 478.8,878.4 H 621.6"
           style="fill:none;stroke:#000000;stroke-width:5;stroke-linecap:round;stroke-linejoin:round;stroke-miterlimit:10;stroke-dasharray:none;stroke-opacity:1"
           id="path5022"
           inkscape:connector-curvature="0" /><path
           d="m 460.8,879.6 52.8,-21.6 -24,21.6 24,19.2 -52.8,-19.2"
           style="fill:#000000;fill-opacity:1;fill-rule:evenodd;stroke:none"
           id="path5024"
           inkscape:connector-curvature="0" /><path
           d="m 642,879.6 -54,19.2 24,-19.2 -24,-21.6 54,21.6"
           style="fill:#000000;fill-opacity:1;fill-rule:evenodd;stroke:none"
           id="path5026"
           inkscape:connector-curvature="0" /><g
           id="g5028"
           transform="scale(10)"><text
             transform="matrix(0.893617,0,0,-1,28.8,65.88)"
             style="font-style:italic;font-variant:normal;font-weight:bold;font-size:12px;font-family:'Times New Roman';-inkscape-font-specification:Times-BoldItalic;writing-mode:lr-tb;fill:#000000;fill-opacity:1;fill-rule:nonzero;stroke:none"
             id="text5032"><tspan
               x="0 6"
               y="0"
               sodipodi:role="line"
               id="tspan5030">5</tspan></text>
</g><path
           d="M 478.8,698.4 H 621.6"
           style="fill:none;stroke:#000000;stroke-width:5;stroke-linecap:round;stroke-linejoin:round;stroke-miterlimit:10;stroke-dasharray:none;stroke-opacity:1"
           id="path5034"
           inkscape:connector-curvature="0" /><path
           d="m 460.8,699.6 52.8,-21.6 -24,21.6 24,19.2 -52.8,-19.2"
           style="fill:#000000;fill-opacity:1;fill-rule:evenodd;stroke:none"
           id="path5036"
           inkscape:connector-curvature="0" /><path
           d="m 642,699.6 -54,19.2 24,-19.2 -24,-21.6 54,21.6"
           style="fill:#000000;fill-opacity:1;fill-rule:evenodd;stroke:none"
           id="path5038"
           inkscape:connector-curvature="0" /><g
           id="g5040"
           transform="scale(10)"><text
             transform="matrix(0.893617,0,0,-1,28.8,47.88)"
             style="font-style:italic;font-variant:normal;font-weight:bold;font-size:12px;font-family:'Times New Roman';-inkscape-font-specification:Times-BoldItalic;writing-mode:lr-tb;fill:#000000;fill-opacity:1;fill-rule:nonzero;stroke:none"
             id="text5044"><tspan
               x="0 6"
               y="0"
               sodipodi:role="line"
               id="tspan5042">6</tspan></text>
</g><path
           d="M 478.8,518.4 H 621.6"
           style="fill:none;stroke:#000000;stroke-width:5;stroke-linecap:round;stroke-linejoin:round;stroke-miterlimit:10;stroke-dasharray:none;stroke-opacity:1"
           id="path5046"
           inkscape:connector-curvature="0" /><path
           d="m 460.8,519.6 52.8,-21.6 -24,21.6 24,19.2 -52.8,-19.2"
           style="fill:#000000;fill-opacity:1;fill-rule:evenodd;stroke:none"
           id="path5048"
           inkscape:connector-curvature="0" /><path
           d="m 642,519.6 -54,19.2 24,-19.2 -24,-21.6 54,21.6"
           style="fill:#000000;fill-opacity:1;fill-rule:evenodd;stroke:none"
           id="path5050"
           inkscape:connector-curvature="0" /><g
           id="g5052"
           transform="scale(10)"><text
             transform="matrix(0.893617,0,0,-1,28.8,29.88)"
             style="font-style:italic;font-variant:normal;font-weight:bold;font-size:12px;font-family:'Times New Roman';-inkscape-font-specification:Times-BoldItalic;writing-mode:lr-tb;fill:#000000;fill-opacity:1;fill-rule:nonzero;stroke:none"
             id="text5056"><tspan
               x="0 6"
               y="0"
               sodipodi:role="line"
               id="tspan5054">7</tspan></text>
</g><path
           d="M 478.8,338.4 H 621.6"
           style="fill:none;stroke:#000000;stroke-width:5;stroke-linecap:round;stroke-linejoin:round;stroke-miterlimit:10;stroke-dasharray:none;stroke-opacity:1"
           id="path5058"
           inkscape:connector-curvature="0" /><path
           d="m 460.8,338.4 52.8,-21.6 -24,21.6 24,20.4 -52.8,-20.4"
           style="fill:#000000;fill-opacity:1;fill-rule:evenodd;stroke:none"
           id="path5060"
           inkscape:connector-curvature="0" /><path
           d="m 642,338.4 -54,20.4 24,-20.4 -24,-21.6 54,21.6"
           style="fill:#000000;fill-opacity:1;fill-rule:evenodd;stroke:none"
           id="path5062"
           inkscape:connector-curvature="0" /><g
           id="g5064"
           transform="scale(10)"><text
             transform="matrix(0.893617,0,0,-1,28.8,11.88)"
             style="font-style:italic;font-variant:normal;font-weight:bold;font-size:12px;font-family:'Times New Roman';-inkscape-font-specification:Times-BoldItalic;writing-mode:lr-tb;fill:#000000;fill-opacity:1;fill-rule:nonzero;stroke:none"
             id="text5068"><tspan
               x="0 6"
               y="0"
               sodipodi:role="line"
               id="tspan5066">8</tspan></text>
</g><path
           d="M 478.8,158.4 H 621.6"
           style="fill:none;stroke:#000000;stroke-width:5;stroke-linecap:round;stroke-linejoin:round;stroke-miterlimit:10;stroke-dasharray:none;stroke-opacity:1"
           id="path5070"
           inkscape:connector-curvature="0" /><path
           d="m 460.8,158.4 52.8,-21.6 -24,21.6 24,20.4 -52.8,-20.4"
           style="fill:#000000;fill-opacity:1;fill-rule:evenodd;stroke:none"
           id="path5072"
           inkscape:connector-curvature="0" /><path
           d="m 642,158.4 -54,20.4 24,-20.4 -24,-21.6 54,21.6"
           style="fill:#000000;fill-opacity:1;fill-rule:evenodd;stroke:none"
           id="path5074"
           inkscape:connector-curvature="0" /><g
           id="g5076"
           transform="scale(10)"><text
             transform="matrix(0.87234,0,0,-1,75.6,155.28)"
             style="font-style:italic;font-variant:normal;font-size:12px;font-family:'Times New Roman';-inkscape-font-specification:Times-Italic;writing-mode:lr-tb;fill:#000000;fill-opacity:1;fill-rule:nonzero;stroke:none"
             id="text5080"><tspan
               x="0 3.99599 9.9959898 12.99599 18.995991 22.99198 26.98797"
               y="0"
               sodipodi:role="line"
               id="tspan5078">(0,0);</tspan></text>
<text
             transform="matrix(0.837209,0,0,-1,75,138.36)"
             style="font-style:italic;font-variant:normal;font-size:11px;font-family:'Times New Roman';-inkscape-font-specification:Times-Italic;writing-mode:lr-tb;fill:#000000;fill-opacity:1;fill-rule:nonzero;stroke:none"
             id="text5084"><tspan
               x="0 3.6629701 9.1629496 11.91294 12.89999 16.56296 18.776649 24.27663 27.9396 31.60257"
               y="0"
               sodipodi:role="line"
               id="tspan5082">(0,-1);</tspan></text>
<text
             transform="matrix(0.87234,0,0,-1,75.6,119.28)"
             style="font-style:italic;font-variant:normal;font-size:12px;font-family:'Times New Roman';-inkscape-font-specification:Times-Italic;writing-mode:lr-tb;fill:#000000;fill-opacity:1;fill-rule:nonzero;stroke:none"
             id="text5092"><tspan
               x="0 3.99599 9.9959898 12.99599 18.995991 22.99198 26.98797"
               y="0"
               sodipodi:role="line"
               id="tspan5086">(0,1);</tspan><tspan
               x="7.0000002e-005 3.9960599 9.9960604 12.99606 18.996059 22.99205 26.988041"
               y="18"
               sodipodi:role="line"
               id="tspan5088">(0,0);</tspan><tspan
               x="0.00014 3.99613 9.99613 12.99613 18.99613 22.992121 26.98811"
               y="36"
               sodipodi:role="line"
               id="tspan5090">(0,1);</tspan></text>
<text
             transform="matrix(0.837209,0,0,-1,73.92,66.36)"
             style="font-style:italic;font-variant:normal;font-size:11px;font-family:'Times New Roman';-inkscape-font-specification:Times-Italic;writing-mode:lr-tb;fill:#000000;fill-opacity:1;fill-rule:nonzero;stroke:none"
             id="text5096"><tspan
               x="0 3.6629701 4.2999969 7.9629669 9.7466774 15.246657 17.996647 23.496628 27.159597 30.822567"
               y="0"
               sodipodi:role="line"
               id="tspan5094">(-1,0);</tspan></text>
<text
             transform="matrix(0.87234,0,0,-1,75.6,47.28)"
             style="font-style:italic;font-variant:normal;font-size:12px;font-family:'Times New Roman';-inkscape-font-specification:Times-Italic;writing-mode:lr-tb;fill:#000000;fill-opacity:1;fill-rule:nonzero;stroke:none"
             id="text5100"><tspan
               x="0 3.99599 9.9959898 12.99599 18.995991 22.99198 26.98797"
               y="0"
               sodipodi:role="line"
               id="tspan5098">(0,0);</tspan></text>
<text
             transform="matrix(0.837209,0,0,-1,73.92,30.36)"
             style="font-style:italic;font-variant:normal;font-size:11px;font-family:'Times New Roman';-inkscape-font-specification:Times-Italic;writing-mode:lr-tb;fill:#000000;fill-opacity:1;fill-rule:nonzero;stroke:none"
             id="text5104"><tspan
               x="0 3.6629701 4.2999969 7.9629669 9.7466774 15.246657 17.996647 23.496628 27.159597 30.822567"
               y="0"
               sodipodi:role="line"
               id="tspan5102">(-1,1);</tspan></text>
<text
             transform="matrix(0.87234,0,0,-1,75.6,11.28)"
             style="font-style:italic;font-variant:normal;font-size:12px;font-family:'Times New Roman';-inkscape-font-specification:Times-Italic;writing-mode:lr-tb;fill:#000000;fill-opacity:1;fill-rule:nonzero;stroke:none"
             id="text5108"><tspan
               x="0 3.99599 9.9959898 12.99599 18.995991 22.99198 26.98797"
               y="0"
               sodipodi:role="line"
               id="tspan5106">(0,1);</tspan></text>
</g><path
           d="m 1101.6,1092 h 3.6 l 4.8,-1.2 3.6,-1.2 3.6,-1.2 3.6,-1.2 2.4,-2.4 6,-4.8 4.8,-6 2.4,-2.4 1.2,-3.6 1.2,-3.6 1.2,-3.6 2.4,-4.8 v -7.2 l -2.4,-4.8 -1.2,-3.6 -1.2,-3.6 -1.2,-3.6 -2.4,-2.4 -4.8,-6 -6,-4.8 -2.4,-2.4 -3.6,-1.2 -3.6,-1.2 -3.6,-1.2 -4.8,-2.4 h -7.2 l -4.8,2.4 -3.6,1.2 -3.6,1.2 -3.6,1.2 -2.4,2.4 -6,4.8 -4.8,6 -2.4,2.4 -1.2,3.6 -1.2,3.6 -1.2,3.6 -1.2,4.8 v 7.2 l 1.2,4.8 1.2,3.6 1.2,3.6 1.2,3.6 2.4,2.4 4.8,6 6,4.8 2.4,2.4 3.6,1.2 3.6,1.2 3.6,1.2 4.8,1.2 h 3.6"
           style="fill:#000000;fill-opacity:1;fill-rule:evenodd;stroke:none"
           id="path5110"
           inkscape:connector-curvature="0" /><path
           d="m 1101.6,1092 h 3.6 l 4.8,-1.2 3.6,-1.2 3.6,-1.2 3.6,-1.2 2.4,-2.4 6,-4.8 4.8,-6 2.4,-2.4 1.2,-3.6 1.2,-3.6 1.2,-3.6 1.2,-4.8 v -7.2 l -1.2,-4.8 -1.2,-3.6 -1.2,-3.6 -1.2,-3.6 -2.4,-2.4 -4.8,-6 -6,-4.8 -2.4,-2.4 -3.6,-1.2 -3.6,-1.2 -3.6,-1.2 -4.8,-1.2 h -7.2 l -4.8,1.2 -3.6,1.2 -3.6,1.2 -3.6,1.2 -2.4,2.4 -6,4.8 -4.8,6 -2.4,2.4 -1.2,3.6 -1.2,3.6 -1.2,3.6 -1.2,4.8 v 7.2 l 1.2,4.8 1.2,3.6 1.2,3.6 1.2,3.6 2.4,2.4 4.8,6 6,4.8 2.4,2.4 3.6,1.2 3.6,1.2 3.6,1.2 4.8,1.2 z"
           style="fill:none;stroke:#000000;stroke-width:5;stroke-linecap:round;stroke-linejoin:round;stroke-miterlimit:10;stroke-dasharray:none;stroke-opacity:1"
           id="path5112"
           inkscape:connector-curvature="0" /><path
           d="m 1101.6,1092 h 3.6 l 4.8,-1.2 3.6,-1.2 3.6,-1.2 3.6,-1.2 2.4,-2.4 6,-4.8 4.8,-6 2.4,-2.4 1.2,-3.6 1.2,-3.6 1.2,-3.6 1.2,-4.8 v -7.2 l -1.2,-4.8 -1.2,-3.6 -1.2,-3.6 -1.2,-3.6 -2.4,-2.4 -4.8,-6 -6,-4.8 -2.4,-2.4 -3.6,-1.2 -3.6,-1.2 -3.6,-1.2 -4.8,-1.2 h -7.2 l -4.8,1.2 -3.6,1.2 -3.6,1.2 -3.6,1.2 -2.4,2.4 -6,4.8 -4.8,6 -2.4,2.4 -1.2,3.6 -1.2,3.6 -1.2,3.6 -1.2,4.8 v 7.2 l 1.2,4.8 1.2,3.6 1.2,3.6 1.2,3.6 2.4,2.4 4.8,6 6,4.8 2.4,2.4 3.6,1.2 3.6,1.2 3.6,1.2 4.8,1.2 z"
           style="fill:none;stroke:#000000;stroke-width:5;stroke-linecap:round;stroke-linejoin:round;stroke-miterlimit:10;stroke-dasharray:none;stroke-opacity:1"
           id="path5114"
           inkscape:connector-curvature="0" /><path
           d="m 1101.6,912 h 3.6 l 4.8,-1.2 3.6,-1.2 3.6,-1.2 3.6,-1.2 2.4,-2.4 6,-4.8 4.8,-6 2.4,-2.4 1.2,-3.6 1.2,-3.6 1.2,-3.6 2.4,-4.8 v -7.2 l -2.4,-4.8 -1.2,-3.6 -1.2,-3.6 -1.2,-3.6 -2.4,-2.4 -4.8,-6 -6,-4.8 -2.4,-2.4 -3.6,-1.2 -3.6,-1.2 -3.6,-1.2 -4.8,-2.4 h -7.2 l -4.8,2.4 -3.6,1.2 -3.6,1.2 -3.6,1.2 -2.4,2.4 -6,4.8 -4.8,6 -2.4,2.4 -1.2,3.6 -1.2,3.6 -1.2,3.6 -1.2,4.8 v 7.2 l 1.2,4.8 1.2,3.6 1.2,3.6 1.2,3.6 2.4,2.4 4.8,6 6,4.8 2.4,2.4 3.6,1.2 3.6,1.2 3.6,1.2 4.8,1.2 h 3.6"
           style="fill:#000000;fill-opacity:1;fill-rule:evenodd;stroke:none"
           id="path5116"
           inkscape:connector-curvature="0" /><path
           d="m 1101.6,912 h 3.6 l 4.8,-1.2 3.6,-1.2 3.6,-1.2 3.6,-1.2 2.4,-2.4 6,-4.8 4.8,-6 2.4,-2.4 1.2,-3.6 1.2,-3.6 1.2,-3.6 1.2,-4.8 v -7.2 l -1.2,-4.8 -1.2,-3.6 -1.2,-3.6 -1.2,-3.6 -2.4,-2.4 -4.8,-6 -6,-4.8 -2.4,-2.4 -3.6,-1.2 -3.6,-1.2 -3.6,-1.2 -4.8,-1.2 h -7.2 l -4.8,1.2 -3.6,1.2 -3.6,1.2 -3.6,1.2 -2.4,2.4 -6,4.8 -4.8,6 -2.4,2.4 -1.2,3.6 -1.2,3.6 -1.2,3.6 -1.2,4.8 v 7.2 l 1.2,4.8 1.2,3.6 1.2,3.6 1.2,3.6 2.4,2.4 4.8,6 6,4.8 2.4,2.4 3.6,1.2 3.6,1.2 3.6,1.2 4.8,1.2 z"
           style="fill:none;stroke:#000000;stroke-width:5;stroke-linecap:round;stroke-linejoin:round;stroke-miterlimit:10;stroke-dasharray:none;stroke-opacity:1"
           id="path5118"
           inkscape:connector-curvature="0" /><path
           d="m 1101.6,912 h 3.6 l 4.8,-1.2 3.6,-1.2 3.6,-1.2 3.6,-1.2 2.4,-2.4 6,-4.8 4.8,-6 2.4,-2.4 1.2,-3.6 1.2,-3.6 1.2,-3.6 1.2,-4.8 v -7.2 l -1.2,-4.8 -1.2,-3.6 -1.2,-3.6 -1.2,-3.6 -2.4,-2.4 -4.8,-6 -6,-4.8 -2.4,-2.4 -3.6,-1.2 -3.6,-1.2 -3.6,-1.2 -4.8,-1.2 h -7.2 l -4.8,1.2 -3.6,1.2 -3.6,1.2 -3.6,1.2 -2.4,2.4 -6,4.8 -4.8,6 -2.4,2.4 -1.2,3.6 -1.2,3.6 -1.2,3.6 -1.2,4.8 v 7.2 l 1.2,4.8 1.2,3.6 1.2,3.6 1.2,3.6 2.4,2.4 4.8,6 6,4.8 2.4,2.4 3.6,1.2 3.6,1.2 3.6,1.2 4.8,1.2 z"
           style="fill:none;stroke:#000000;stroke-width:5;stroke-linecap:round;stroke-linejoin:round;stroke-miterlimit:10;stroke-dasharray:none;stroke-opacity:1"
           id="path5120"
           inkscape:connector-curvature="0" /><path
           d="m 1093.2,1645.2 -45.6,-92.4 h 92.4 l -46.8,92.4"
           style="fill:#000000;fill-opacity:1;fill-rule:evenodd;stroke:none"
           id="path5122"
           inkscape:connector-curvature="0" /><path
           d="m 1093.2,1465.2 -45.6,-92.4 h 92.4 l -46.8,92.4"
           style="fill:#000000;fill-opacity:1;fill-rule:evenodd;stroke:none"
           id="path5124"
           inkscape:connector-curvature="0" /><path
           d="m 1093.2,1285.2 -45.6,-92.4 h 92.4 l -46.8,92.4"
           style="fill:#000000;fill-opacity:1;fill-rule:evenodd;stroke:none"
           id="path5126"
           inkscape:connector-curvature="0" /><path
           d="m 1054.8,650.4 94.8,48 -94.8,46.8 v -94.8"
           style="fill:#000000;fill-opacity:1;fill-rule:evenodd;stroke:none"
           id="path5128"
           inkscape:connector-curvature="0" /><path
           d="m 1054.8,290.4 94.8,48 -94.8,46.8 v -94.8"
           style="fill:#000000;fill-opacity:1;fill-rule:evenodd;stroke:none"
           id="path5130"
           inkscape:connector-curvature="0" /><path
           d="m 1054.8,470.4 94.8,48 -94.8,46.8 v -94.8"
           style="fill:#000000;fill-opacity:1;fill-rule:evenodd;stroke:none"
           id="path5132"
           inkscape:connector-curvature="0" /><path
           d="m 1054.8,110.4 94.8,48 -94.8,46.8 v -94.8"
           style="fill:#000000;fill-opacity:1;fill-rule:evenodd;stroke:none"
           id="path5134"
           inkscape:connector-curvature="0" /><g
           id="g5136"
           transform="scale(10)"><text
             transform="matrix(0,0.95745,1,0,13.0775,49.56)"
             style="font-style:italic;font-variant:normal;font-size:12px;font-family:Helvetica;-inkscape-font-specification:Helvetica-Oblique;writing-mode:lr-tb;fill:#000000;fill-opacity:1;fill-rule:nonzero;stroke:none"
             id="text5140"><tspan
               x="0 6 9.3359756 16.007952 22.679928 28.679928 31.343927 34.007927 37.343903 44.015881 50.687855 54.02383 58.019833 60.68383 67.355804 73.355804"
               y="0"
               sodipodi:role="line"
               id="tspan5138">stencil entries</tspan></text>
<text
             transform="matrix(-7.6595728e-4,-0.95744972,-0.99999971,7.9999977e-4,128.282,104.88)"
             style="font-style:italic;font-variant:normal;font-size:12.00000381px;font-family:Helvetica;-inkscape-font-specification:Helvetica-Oblique;writing-mode:lr-tb;fill:#000000;fill-opacity:1;fill-rule:nonzero;stroke:none"
             id="text5144"><tspan
               x="0 6.671978 10.007955 13.343932 19.343933 26.015911 29.351889 35.351891"
               y="0"
               sodipodi:role="line"
               id="tspan5142">offsets</tspan></text>
</g></g></g></g></svg>