<?xml version="1.0" encoding="UTF-8" standalone="no"?>
<!-- Created with Inkscape (http://www.inkscape.org/) -->

<svg
   xmlns:dc="http://purl.org/dc/elements/1.1/"
   xmlns:cc="http://creativecommons.org/ns#"
   xmlns:rdf="http://www.w3.org/1999/02/22-rdf-syntax-ns#"
   xmlns:svg="http://www.w3.org/2000/svg"
   xmlns="http://www.w3.org/2000/svg"
   xmlns:sodipodi="http://sodipodi.sourceforge.net/DTD/sodipodi-0.dtd"
   xmlns:inkscape="http://www.inkscape.org/namespaces/inkscape"
   version="1.1"
   id="svg2046"
   xml:space="preserve"
   width="419.42401"
   height="215.90401"
   viewBox="0 0 419.42401 215.90401"
   sodipodi:docname="figSStructGridFEM3.svg"
   inkscape:version="0.92.2 (5c3e80d, 2017-08-06)"><metadata
     id="metadata2052"><rdf:RDF><cc:Work
         rdf:about=""><dc:format>image/svg+xml</dc:format><dc:type
           rdf:resource="http://purl.org/dc/dcmitype/StillImage" /><dc:title></dc:title></cc:Work></rdf:RDF></metadata><defs
     id="defs2050"><clipPath
       clipPathUnits="userSpaceOnUse"
       id="clipPath2170"><path
         d="M 0,0 H 720 V 540 H 0 Z"
         id="path2168"
         inkscape:connector-curvature="0" /></clipPath><clipPath
       clipPathUnits="userSpaceOnUse"
       id="clipPath2186"><path
         d="M 0,0 H 720 V 540 H 0 Z"
         id="path2184"
         inkscape:connector-curvature="0" /></clipPath><clipPath
       clipPathUnits="userSpaceOnUse"
       id="clipPath2202"><path
         d="M 0,0 H 720 V 540 H 0 Z"
         id="path2200"
         inkscape:connector-curvature="0" /></clipPath><clipPath
       clipPathUnits="userSpaceOnUse"
       id="clipPath2218"><path
         d="M 0,0 H 720 V 540 H 0 Z"
         id="path2216"
         inkscape:connector-curvature="0" /></clipPath></defs><sodipodi:namedview
     pagecolor="#ffffff"
     bordercolor="#666666"
     borderopacity="1"
     objecttolerance="10"
     gridtolerance="10"
     guidetolerance="10"
     inkscape:pageopacity="0"
     inkscape:pageshadow="2"
     inkscape:window-width="1368"
     inkscape:window-height="975"
     id="namedview2048"
     showgrid="false"
     inkscape:zoom="2.9635881"
     inkscape:cx="209.71201"
     inkscape:cy="107.952"
     inkscape:window-x="0"
     inkscape:window-y="0"
     inkscape:window-maximized="0"
     inkscape:current-layer="g2054" /><g
     id="g2054"
     inkscape:groupmode="layer"
     inkscape:label="figSStructGridFEM3"
     transform="matrix(1.3333333,0,0,-1.3333333,-218.592,386.496)"><g
       id="g2056"
       transform="translate(387.2999,154.2346)"><path
         d="M 0,0 10.2,106.2"
         style="fill:none;stroke:#a50021;stroke-width:0.5;stroke-linecap:butt;stroke-linejoin:round;stroke-miterlimit:10;stroke-dasharray:2, 1.5;stroke-dashoffset:0;stroke-opacity:1"
         id="path2058"
         inkscape:connector-curvature="0" /></g><g
       id="g2060"
       transform="translate(459.5999,195.9346)"><path
         d="M 0,0 -45.6,74.1"
         style="fill:none;stroke:#a50021;stroke-width:0.5;stroke-linecap:butt;stroke-linejoin:round;stroke-miterlimit:10;stroke-dasharray:2, 1.5;stroke-dashoffset:0;stroke-opacity:1"
         id="path2062"
         inkscape:connector-curvature="0" /></g><g
       id="g2064"
       transform="translate(411.8998,195.9346)"><path
         d="M 0,0 -9.3,74.1"
         style="fill:none;stroke:#a50021;stroke-width:0.5;stroke-linecap:butt;stroke-linejoin:round;stroke-miterlimit:10;stroke-dasharray:2, 1.5;stroke-dashoffset:0;stroke-opacity:1"
         id="path2066"
         inkscape:connector-curvature="0" /></g><g
       id="g2068"
       transform="translate(434.64,155.31461)"><path
         d="M 0,0 -26.64,105.12"
         style="fill:none;stroke:#a50021;stroke-width:0.5;stroke-linecap:butt;stroke-linejoin:round;stroke-miterlimit:10;stroke-dasharray:2, 1.5;stroke-dashoffset:0;stroke-opacity:1"
         id="path2070"
         inkscape:connector-curvature="0" /></g><g
       id="g2072"
       transform="translate(258.72121,187.2346)"><path
         d="M 0,0 H 108"
         style="fill:none;stroke:#000000;stroke-width:2.5;stroke-linecap:butt;stroke-linejoin:round;stroke-miterlimit:10;stroke-dasharray:none;stroke-opacity:1"
         id="path2074"
         inkscape:connector-curvature="0" /></g><g
       id="g2076"
       transform="translate(366.72121,187.2346)"><path
         d="M 0,0 54,93.531"
         style="fill:none;stroke:#000000;stroke-width:2.5;stroke-linecap:butt;stroke-linejoin:round;stroke-miterlimit:10;stroke-dasharray:none;stroke-opacity:1"
         id="path2078"
         inkscape:connector-curvature="0" /></g><g
       id="g2080"
       transform="translate(258.72121,187.2346)"><path
         d="M 0,0 54,93.531"
         style="fill:none;stroke:#000000;stroke-width:2.5;stroke-linecap:butt;stroke-linejoin:round;stroke-miterlimit:10;stroke-dasharray:none;stroke-opacity:1"
         id="path2082"
         inkscape:connector-curvature="0" /></g><g
       id="g2084"
       transform="translate(312.72121,280.2547)"><path
         d="M 0,0 H 108"
         style="fill:none;stroke:#000000;stroke-width:2.5;stroke-linecap:butt;stroke-linejoin:round;stroke-miterlimit:10;stroke-dasharray:none;stroke-opacity:1"
         id="path2086"
         inkscape:connector-curvature="0" /></g><g
       id="g2088"
       transform="translate(264.72121,197.4194)"><path
         d="M 0,0 H 18"
         style="fill:none;stroke:#000000;stroke-width:0.75;stroke-linecap:butt;stroke-linejoin:round;stroke-miterlimit:10;stroke-dasharray:none;stroke-opacity:1"
         id="path2090"
         inkscape:connector-curvature="0" /></g><g
       id="g2092"
       transform="translate(270.72121,187.23441)"><path
         d="M 0,0 9,15.588"
         style="fill:none;stroke:#000000;stroke-width:0.75;stroke-linecap:butt;stroke-linejoin:round;stroke-miterlimit:10;stroke-dasharray:none;stroke-opacity:1"
         id="path2094"
         inkscape:connector-curvature="0" /></g><g
       id="g2096"
       transform="translate(282.72121,187.2346)"><path
         d="M 0,0 3.6,6.235"
         style="fill:none;stroke:#000000;stroke-width:0.75;stroke-linecap:butt;stroke-linejoin:round;stroke-miterlimit:10;stroke-dasharray:none;stroke-opacity:1"
         id="path2098"
         inkscape:connector-curvature="0" /></g><g
       id="g2100"
       transform="translate(270.72121,207.60429)"><path
         d="M 0,0 H 7.2"
         style="fill:none;stroke:#000000;stroke-width:0.75;stroke-linecap:butt;stroke-linejoin:round;stroke-miterlimit:10;stroke-dasharray:none;stroke-opacity:1"
         id="path2102"
         inkscape:connector-curvature="0" /></g><g
       id="g2104"
       transform="translate(414.72121,270.01939)"><path
         d="M 0,0 H -18"
         style="fill:none;stroke:#000000;stroke-width:0.75;stroke-linecap:butt;stroke-linejoin:round;stroke-miterlimit:10;stroke-dasharray:none;stroke-opacity:1"
         id="path2106"
         inkscape:connector-curvature="0" /></g><g
       id="g2108"
       transform="translate(408.72121,280.2045)"><path
         d="M 0,0 -9,-15.588"
         style="fill:none;stroke:#000000;stroke-width:0.75;stroke-linecap:butt;stroke-linejoin:round;stroke-miterlimit:10;stroke-dasharray:none;stroke-opacity:1"
         id="path2110"
         inkscape:connector-curvature="0" /></g><g
       id="g2112"
       transform="translate(396.72121,280.2043)"><path
         d="M 0,0 -3.6,-6.235"
         style="fill:none;stroke:#000000;stroke-width:0.75;stroke-linecap:butt;stroke-linejoin:round;stroke-miterlimit:10;stroke-dasharray:none;stroke-opacity:1"
         id="path2114"
         inkscape:connector-curvature="0" /></g><g
       id="g2116"
       transform="translate(408.72121,259.83459)"><path
         d="M 0,0 H -7.2"
         style="fill:none;stroke:#000000;stroke-width:0.75;stroke-linecap:butt;stroke-linejoin:round;stroke-miterlimit:10;stroke-dasharray:none;stroke-opacity:1"
         id="path2118"
         inkscape:connector-curvature="0" /></g><text
       transform="matrix(1,0,0,-1,312.6158,227.9146)"
       style="font-style:italic;font-variant:normal;font-weight:bold;font-stretch:normal;font-size:20.04000092px;font-family:'Times New Roman';-inkscape-font-specification:TimesNewRomanPS-BoldItalicMT;writing-mode:lr-tb;fill:#000000;fill-opacity:1;fill-rule:nonzero;stroke:none"
       id="text2122"><tspan
         x="0 10.08012 20.16024 27.955799 33.466801 38.156158"
         y="0"
         sodipodi:role="line"
         id="tspan2120">part 0</tspan></text>
<text
       transform="matrix(1,0,0,-1,439.4749,275.1744)"
       style="font-style:italic;font-variant:normal;font-weight:normal;font-stretch:normal;font-size:12px;font-family:'Times New Roman';-inkscape-font-specification:TimesNewRomanPS-ItalicMT;writing-mode:lr-tb;fill:#000000;fill-opacity:1;fill-rule:nonzero;stroke:none"
       id="text2126"><tspan
         x="0 3.8399999 9.8400002 12.84 18.84"
         y="0"
         sodipodi:role="line"
         id="tspan2124">(9,9)</tspan></text>
<g
       id="g2128"
       transform="translate(437.51109,279.6512)"><path
         d="M 0,0 -25.421,-4.406"
         style="fill:none;stroke:#000000;stroke-width:1;stroke-linecap:butt;stroke-linejoin:round;stroke-miterlimit:10;stroke-dasharray:none;stroke-opacity:1"
         id="path2130"
         inkscape:connector-curvature="0" /></g><g
       id="g2132"
       transform="translate(413.5876,272.46069)"><path
         d="m 0,0 -4.454,2.273 3.429,3.639 z"
         style="fill:#000000;fill-opacity:1;fill-rule:evenodd;stroke:none"
         id="path2134"
         inkscape:connector-curvature="0" /></g><text
       transform="matrix(1,0,0,-1,296.7354,193.6045)"
       style="font-style:italic;font-variant:normal;font-weight:normal;font-stretch:normal;font-size:12px;font-family:'Times New Roman';-inkscape-font-specification:TimesNewRomanPS-ItalicMT;writing-mode:lr-tb;fill:#000000;fill-opacity:1;fill-rule:nonzero;stroke:none"
       id="text2138"><tspan
         x="0 3.8399999 9.8400002 12.84 18.84"
         y="0"
         sodipodi:role="line"
         id="tspan2136">(1,1)</tspan></text>
<g
       id="g2140"
       transform="translate(295.3262,197.76019)"><path
         d="M 0,0 -25.421,-4.406"
         style="fill:none;stroke:#000000;stroke-width:1;stroke-linecap:butt;stroke-linejoin:round;stroke-miterlimit:10;stroke-dasharray:none;stroke-opacity:1"
         id="path2142"
         inkscape:connector-curvature="0" /></g><g
       id="g2144"
       transform="translate(271.40269,190.56979)"><path
         d="m 0,0 -4.454,2.273 3.429,3.639 z"
         style="fill:#000000;fill-opacity:1;fill-rule:evenodd;stroke:none"
         id="path2146"
         inkscape:connector-curvature="0" /></g><g
       id="g2148"
       transform="translate(387.3,154.0192)"><path
         d="M 0,0 H 48"
         style="fill:none;stroke:#a50021;stroke-width:0.75;stroke-linecap:butt;stroke-linejoin:round;stroke-miterlimit:10;stroke-dasharray:none;stroke-opacity:1"
         id="path2150"
         inkscape:connector-curvature="0" /></g><g
       id="g2152"
       transform="translate(435.3,154.45)"><path
         d="M 0,0 24,41.569"
         style="fill:none;stroke:#a50021;stroke-width:0.75;stroke-linecap:butt;stroke-linejoin:round;stroke-miterlimit:10;stroke-dasharray:none;stroke-opacity:1"
         id="path2154"
         inkscape:connector-curvature="0" /></g><g
       id="g2156"
       transform="translate(387.3,154.45)"><path
         d="M 0,0 24,41.569"
         style="fill:none;stroke:#a50021;stroke-width:0.75;stroke-linecap:butt;stroke-linejoin:round;stroke-miterlimit:10;stroke-dasharray:none;stroke-opacity:1"
         id="path2158"
         inkscape:connector-curvature="0" /></g><g
       id="g2160"
       transform="translate(411.3,196.0192)"><path
         d="M 0,0 H 48"
         style="fill:none;stroke:#a50021;stroke-width:0.75;stroke-linecap:butt;stroke-linejoin:round;stroke-miterlimit:10;stroke-dasharray:none;stroke-opacity:1"
         id="path2162"
         inkscape:connector-curvature="0" /></g><g
       id="g2164"><g
         id="g2166"
         clip-path="url(#clipPath2170)"><g
           id="g2172"
           transform="translate(408.8,196.08411)"><path
             d="M 0,0 C 0,1.455 1.161,2.635 2.594,2.635 4.027,2.635 5.188,1.455 5.188,0 5.188,-1.455 4.027,-2.635 2.594,-2.635 1.161,-2.635 0,-1.455 0,0"
             style="fill:#a50021;fill-opacity:1;fill-rule:evenodd;stroke:none"
             id="path2174"
             inkscape:connector-curvature="0" /></g><g
           id="g2176"
           transform="translate(408.8,196.08411)"><path
             d="M 0,0 C 0,1.455 1.161,2.635 2.594,2.635 4.027,2.635 5.188,1.455 5.188,0 5.188,-1.455 4.027,-2.635 2.594,-2.635 1.161,-2.635 0,-1.455 0,0 Z"
             style="fill:none;stroke:#a50021;stroke-width:0.75;stroke-linecap:butt;stroke-linejoin:round;stroke-miterlimit:10;stroke-dasharray:none;stroke-opacity:1"
             id="path2178"
             inkscape:connector-curvature="0" /></g></g></g><g
       id="g2180"><g
         id="g2182"
         clip-path="url(#clipPath2186)"><g
           id="g2188"
           transform="translate(456.81219,196.08411)"><path
             d="M 0,0 C 0,1.455 1.161,2.635 2.594,2.635 4.027,2.635 5.188,1.455 5.188,0 5.188,-1.455 4.027,-2.635 2.594,-2.635 1.161,-2.635 0,-1.455 0,0"
             style="fill:#a50021;fill-opacity:1;fill-rule:evenodd;stroke:none"
             id="path2190"
             inkscape:connector-curvature="0" /></g><g
           id="g2192"
           transform="translate(456.81219,196.08411)"><path
             d="M 0,0 C 0,1.455 1.161,2.635 2.594,2.635 4.027,2.635 5.188,1.455 5.188,0 5.188,-1.455 4.027,-2.635 2.594,-2.635 1.161,-2.635 0,-1.455 0,0 Z"
             style="fill:none;stroke:#a50021;stroke-width:0.75;stroke-linecap:butt;stroke-linejoin:round;stroke-miterlimit:10;stroke-dasharray:none;stroke-opacity:1"
             id="path2194"
             inkscape:connector-curvature="0" /></g></g></g><g
       id="g2196"><g
         id="g2198"
         clip-path="url(#clipPath2202)"><g
           id="g2204"
           transform="translate(384.3,154.08411)"><path
             d="M 0,0 C 0,1.455 1.161,2.635 2.594,2.635 4.027,2.635 5.188,1.455 5.188,0 5.188,-1.455 4.027,-2.635 2.594,-2.635 1.161,-2.635 0,-1.455 0,0"
             style="fill:#a50021;fill-opacity:1;fill-rule:evenodd;stroke:none"
             id="path2206"
             inkscape:connector-curvature="0" /></g><g
           id="g2208"
           transform="translate(384.3,154.08411)"><path
             d="M 0,0 C 0,1.455 1.161,2.635 2.594,2.635 4.027,2.635 5.188,1.455 5.188,0 5.188,-1.455 4.027,-2.635 2.594,-2.635 1.161,-2.635 0,-1.455 0,0 Z"
             style="fill:none;stroke:#a50021;stroke-width:0.75;stroke-linecap:butt;stroke-linejoin:round;stroke-miterlimit:10;stroke-dasharray:none;stroke-opacity:1"
             id="path2210"
             inkscape:connector-curvature="0" /></g></g></g><g
       id="g2212"><g
         id="g2214"
         clip-path="url(#clipPath2218)"><g
           id="g2220"
           transform="translate(432.31219,154.08411)"><path
             d="M 0,0 C 0,1.455 1.161,2.635 2.594,2.635 4.027,2.635 5.188,1.455 5.188,0 5.188,-1.455 4.027,-2.635 2.594,-2.635 1.161,-2.635 0,-1.455 0,0"
             style="fill:#a50021;fill-opacity:1;fill-rule:evenodd;stroke:none"
             id="path2222"
             inkscape:connector-curvature="0" /></g><g
           id="g2224"
           transform="translate(432.31219,154.08411)"><path
             d="M 0,0 C 0,1.455 1.161,2.635 2.594,2.635 4.027,2.635 5.188,1.455 5.188,0 5.188,-1.455 4.027,-2.635 2.594,-2.635 1.161,-2.635 0,-1.455 0,0 Z"
             style="fill:none;stroke:#a50021;stroke-width:0.75;stroke-linecap:butt;stroke-linejoin:round;stroke-miterlimit:10;stroke-dasharray:none;stroke-opacity:1"
             id="path2226"
             inkscape:connector-curvature="0" /></g></g></g></g></svg>