<?xml version="1.0" encoding="UTF-8" standalone="no"?>
<!-- Created with Inkscape (http://www.inkscape.org/) -->

<svg
   xmlns:dc="http://purl.org/dc/elements/1.1/"
   xmlns:cc="http://creativecommons.org/ns#"
   xmlns:rdf="http://www.w3.org/1999/02/22-rdf-syntax-ns#"
   xmlns:svg="http://www.w3.org/2000/svg"
   xmlns="http://www.w3.org/2000/svg"
   xmlns:sodipodi="http://sodipodi.sourceforge.net/DTD/sodipodi-0.dtd"
   xmlns:inkscape="http://www.inkscape.org/namespaces/inkscape"
   version="1.1"
   id="svg1752"
   xml:space="preserve"
   width="493.00632"
   height="205.32639"
   viewBox="0 0 493.00632 205.32638"
   sodipodi:docname="figSStructExample1b.svg"
   inkscape:version="0.92.2 (5c3e80d, 2017-08-06)"><metadata
     id="metadata1758"><rdf:RDF><cc:Work
         rdf:about=""><dc:format>image/svg+xml</dc:format><dc:type
           rdf:resource="http://purl.org/dc/dcmitype/StillImage" /><dc:title></dc:title></cc:Work></rdf:RDF></metadata><defs
     id="defs1756" /><sodipodi:namedview
     pagecolor="#ffffff"
     bordercolor="#666666"
     borderopacity="1"
     objecttolerance="10"
     gridtolerance="10"
     guidetolerance="10"
     inkscape:pageopacity="0"
     inkscape:pageshadow="2"
     inkscape:window-width="1432"
     inkscape:window-height="985"
     id="namedview1754"
     showgrid="false"
     inkscape:zoom="2.6510816"
     inkscape:cx="246.50316"
     inkscape:cy="102.66319"
     inkscape:window-x="29"
     inkscape:window-y="32"
     inkscape:window-maximized="0"
     inkscape:current-layer="g1760" /><g
     id="g1760"
     inkscape:groupmode="layer"
     inkscape:label="figSStructExample1b"
     transform="matrix(1.3333333,0,0,-1.3333333,-4.2935985,209.78639)"><g
       id="g1762"
       transform="scale(0.1)"><g
         id="g1764"><path
           d="M 432,795.6 H 792"
           style="fill:none;stroke:#a0a0a4;stroke-width:15;stroke-linecap:round;stroke-linejoin:round;stroke-miterlimit:10;stroke-dasharray:none;stroke-opacity:1"
           id="path1766"
           inkscape:connector-curvature="0" /><path
           d="M 71.9998,795.6 H 432"
           style="fill:none;stroke:#a0a0a4;stroke-width:15;stroke-linecap:round;stroke-linejoin:round;stroke-miterlimit:10;stroke-dasharray:none;stroke-opacity:1"
           id="path1768"
           inkscape:connector-curvature="0" /><path
           d="m 432,1155.6 v -360"
           style="fill:none;stroke:#a0a0a4;stroke-width:15;stroke-linecap:round;stroke-linejoin:round;stroke-miterlimit:10;stroke-dasharray:none;stroke-opacity:1"
           id="path1770"
           inkscape:connector-curvature="0" /><path
           d="m 432,795.6 v -360"
           style="fill:none;stroke:#a0a0a4;stroke-width:15;stroke-linecap:round;stroke-linejoin:round;stroke-miterlimit:10;stroke-dasharray:none;stroke-opacity:1"
           id="path1772"
           inkscape:connector-curvature="0" /><path
           d="m 71.9998,1155.6 v -720"
           style="fill:none;stroke:#000000;stroke-width:7.5;stroke-linecap:round;stroke-linejoin:round;stroke-miterlimit:10;stroke-dasharray:10, 20;stroke-dashoffset:0;stroke-opacity:1"
           id="path1774"
           inkscape:connector-curvature="0" /><path
           d="m 792,1155.6 v -720"
           style="fill:none;stroke:#000000;stroke-width:7.5;stroke-linecap:round;stroke-linejoin:round;stroke-miterlimit:10;stroke-dasharray:10, 20;stroke-dashoffset:0;stroke-opacity:1"
           id="path1776"
           inkscape:connector-curvature="0" /><path
           d="M 71.9998,1155.6 H 792"
           style="fill:none;stroke:#000000;stroke-width:7.5;stroke-linecap:round;stroke-linejoin:round;stroke-miterlimit:10;stroke-dasharray:10, 20;stroke-dashoffset:0;stroke-opacity:1"
           id="path1778"
           inkscape:connector-curvature="0" /><path
           d="M 71.9998,435.6 H 792"
           style="fill:none;stroke:#000000;stroke-width:7.5;stroke-linecap:round;stroke-linejoin:round;stroke-miterlimit:10;stroke-dasharray:10, 20;stroke-dashoffset:0;stroke-opacity:1"
           id="path1780"
           inkscape:connector-curvature="0" /><path
           d="m 475.2,795.608 c -0.033,33.254 -35.994,54.009 -64.805,37.402 -28.808,-16.714 -28.755,-58.235 0.052,-74.849 28.833,-16.568 64.727,4.185 64.753,37.439"
           style="fill:#a0a0a4;fill-opacity:1;fill-rule:evenodd;stroke:none"
           id="path1782"
           inkscape:connector-curvature="0" /><path
           d="m 475.2,795.608 c -0.033,33.254 -35.994,54.009 -64.805,37.402 -28.808,-16.714 -28.755,-58.235 0.052,-74.849 28.833,-16.568 64.727,4.185 64.753,37.439"
           style="fill:none;stroke:#000000;stroke-width:7.5;stroke-linecap:round;stroke-linejoin:round;stroke-miterlimit:10;stroke-dasharray:none;stroke-opacity:1"
           id="path1784"
           inkscape:connector-curvature="0" /><path
           d="M 756,752.4 V 846 L 849.6,799.2 756,752.4"
           style="fill:#000000;fill-opacity:1;fill-rule:evenodd;stroke:none"
           id="path1786"
           inkscape:connector-curvature="0" /><path
           d="M 756,752.4 V 846 L 849.6,799.2 756,752.4"
           style="fill:none;stroke:#000000;stroke-width:7.5;stroke-linecap:round;stroke-linejoin:round;stroke-miterlimit:10;stroke-dasharray:none;stroke-opacity:1"
           id="path1788"
           inkscape:connector-curvature="0" /><path
           d="M 35.9998,752.4 V 846 L 129.6,799.2 35.9998,752.4"
           style="fill:#000000;fill-opacity:1;fill-rule:evenodd;stroke:none"
           id="path1790"
           inkscape:connector-curvature="0" /><path
           d="M 35.9998,752.4 V 846 L 129.6,799.2 35.9998,752.4"
           style="fill:none;stroke:#000000;stroke-width:7.5;stroke-linecap:round;stroke-linejoin:round;stroke-miterlimit:10;stroke-dasharray:none;stroke-opacity:1"
           id="path1792"
           inkscape:connector-curvature="0" /><path
           d="m 434.4,1206 46.8,-92.4 h -92.4 l 45.6,92.4"
           style="fill:#000000;fill-opacity:1;fill-rule:evenodd;stroke:none"
           id="path1794"
           inkscape:connector-curvature="0" /><path
           d="m 434.4,1206 46.8,-92.4 h -92.4 l 45.6,92.4"
           style="fill:none;stroke:#000000;stroke-width:7.5;stroke-linecap:round;stroke-linejoin:round;stroke-miterlimit:10;stroke-dasharray:none;stroke-opacity:1"
           id="path1796"
           inkscape:connector-curvature="0" /><path
           d="m 435.6,1206 v -15.6 l -36,-70.8 h 72 l -36,70.8 v 15.6 l 46.8,-93.6 h -93.6 l 46.8,93.6"
           style="fill:#000000;fill-opacity:1;fill-rule:nonzero;stroke:none"
           id="path1798"
           inkscape:connector-curvature="0" /><path
           d="m 434.4,486 46.8,-92.4 h -92.4 l 45.6,92.4"
           style="fill:#000000;fill-opacity:1;fill-rule:evenodd;stroke:none"
           id="path1800"
           inkscape:connector-curvature="0" /><path
           d="m 434.4,486 46.8,-92.4 h -92.4 l 45.6,92.4"
           style="fill:none;stroke:#000000;stroke-width:7.5;stroke-linecap:round;stroke-linejoin:round;stroke-miterlimit:10;stroke-dasharray:none;stroke-opacity:1"
           id="path1802"
           inkscape:connector-curvature="0" /><path
           d="m 435.6,486 v -15.6 l -36,-70.8 h 72 l -36,70.8 V 486 l 46.8,-93.6 h -93.6 l 46.8,93.6"
           style="fill:#000000;fill-opacity:1;fill-rule:nonzero;stroke:none"
           id="path1804"
           inkscape:connector-curvature="0" /><path
           d="m 3308.4,799.2 360,360"
           style="fill:none;stroke:#a0a0a4;stroke-width:15;stroke-linecap:round;stroke-linejoin:round;stroke-miterlimit:10;stroke-dasharray:none;stroke-opacity:1"
           id="path1806"
           inkscape:connector-curvature="0" /><path
           d="m 2948.4,1159.2 360,-360"
           style="fill:none;stroke:#a0a0a4;stroke-width:15;stroke-linecap:round;stroke-linejoin:round;stroke-miterlimit:10;stroke-dasharray:none;stroke-opacity:1"
           id="path1808"
           inkscape:connector-curvature="0" /><path
           d="m 2948.4,439.2 360,360"
           style="fill:none;stroke:#a0a0a4;stroke-width:15;stroke-linecap:round;stroke-linejoin:round;stroke-miterlimit:10;stroke-dasharray:none;stroke-opacity:1"
           id="path1810"
           inkscape:connector-curvature="0" /><path
           d="m 3308.4,799.2 360,-360"
           style="fill:none;stroke:#a0a0a4;stroke-width:15;stroke-linecap:round;stroke-linejoin:round;stroke-miterlimit:10;stroke-dasharray:none;stroke-opacity:1"
           id="path1812"
           inkscape:connector-curvature="0" /><path
           d="m 3308.4,1159.2 v -360"
           style="fill:none;stroke:#a0a0a4;stroke-width:15;stroke-linecap:round;stroke-linejoin:round;stroke-miterlimit:10;stroke-dasharray:none;stroke-opacity:1"
           id="path1814"
           inkscape:connector-curvature="0" /><path
           d="m 3308.4,799.2 v -360"
           style="fill:none;stroke:#a0a0a4;stroke-width:15;stroke-linecap:round;stroke-linejoin:round;stroke-miterlimit:10;stroke-dasharray:none;stroke-opacity:1"
           id="path1816"
           inkscape:connector-curvature="0" /><path
           d="m 3306.72,1518.98 c -124.67,-224.32 -123.77,-497.9 2.38,-721.397"
           style="fill:none;stroke:#a0a0a4;stroke-width:15;stroke-linecap:round;stroke-linejoin:round;stroke-miterlimit:10;stroke-dasharray:none;stroke-opacity:1"
           id="path1818"
           inkscape:connector-curvature="0" /><path
           d="M 3306.72,791.777 C 3182.05,567.456 3182.95,293.879 3309.1,70.3828"
           style="fill:none;stroke:#a0a0a4;stroke-width:15;stroke-linecap:round;stroke-linejoin:round;stroke-miterlimit:10;stroke-dasharray:none;stroke-opacity:1"
           id="path1820"
           inkscape:connector-curvature="0" /><path
           d="M 2948.4,1519.2 V 79.2"
           style="fill:none;stroke:#000000;stroke-width:7.5;stroke-linecap:round;stroke-linejoin:round;stroke-miterlimit:10;stroke-dasharray:10, 20;stroke-dashoffset:0;stroke-opacity:1"
           id="path1822"
           inkscape:connector-curvature="0" /><path
           d="M 3668.4,1519.2 V 79.2"
           style="fill:none;stroke:#000000;stroke-width:7.5;stroke-linecap:round;stroke-linejoin:round;stroke-miterlimit:10;stroke-dasharray:10, 20;stroke-dashoffset:0;stroke-opacity:1"
           id="path1824"
           inkscape:connector-curvature="0" /><path
           d="m 2948.4,799.2 h 720"
           style="fill:none;stroke:#000000;stroke-width:7.5;stroke-linecap:round;stroke-linejoin:round;stroke-miterlimit:10;stroke-dasharray:10, 20;stroke-dashoffset:0;stroke-opacity:1"
           id="path1826"
           inkscape:connector-curvature="0" /><path
           d="m 2948.4,79.2 h 720"
           style="fill:none;stroke:#000000;stroke-width:7.5;stroke-linecap:round;stroke-linejoin:round;stroke-miterlimit:10;stroke-dasharray:10, 20;stroke-dashoffset:0;stroke-opacity:1"
           id="path1828"
           inkscape:connector-curvature="0" /><path
           d="m 3351.6,439.208 c -0.03,33.254 -35.99,54.009 -64.81,37.402 -28.8,-16.714 -28.75,-58.235 0.06,-74.849 28.83,-16.568 64.72,4.185 64.75,37.439"
           style="fill:#000000;fill-opacity:1;fill-rule:evenodd;stroke:none"
           id="path1830"
           inkscape:connector-curvature="0" /><path
           d="m 3351.6,439.208 c -0.03,33.254 -35.99,54.009 -64.81,37.402 -28.8,-16.714 -28.75,-58.235 0.06,-74.849 28.83,-16.568 64.72,4.185 64.75,37.439"
           style="fill:none;stroke:#000000;stroke-width:7.5;stroke-linecap:round;stroke-linejoin:round;stroke-miterlimit:10;stroke-dasharray:none;stroke-opacity:1"
           id="path1832"
           inkscape:connector-curvature="0" /><path
           d="m 3632.4,396 v 93.6 L 3726,442.8 3632.4,396"
           style="fill:#000000;fill-opacity:1;fill-rule:evenodd;stroke:none"
           id="path1834"
           inkscape:connector-curvature="0" /><path
           d="m 3632.4,396 v 93.6 L 3726,442.8 3632.4,396"
           style="fill:none;stroke:#000000;stroke-width:7.5;stroke-linecap:round;stroke-linejoin:round;stroke-miterlimit:10;stroke-dasharray:none;stroke-opacity:1"
           id="path1836"
           inkscape:connector-curvature="0" /><path
           d="m 2912.4,396 v 93.6 L 3006,442.8 2912.4,396"
           style="fill:#000000;fill-opacity:1;fill-rule:evenodd;stroke:none"
           id="path1838"
           inkscape:connector-curvature="0" /><path
           d="m 2912.4,396 v 93.6 L 3006,442.8 2912.4,396"
           style="fill:none;stroke:#000000;stroke-width:7.5;stroke-linecap:round;stroke-linejoin:round;stroke-miterlimit:10;stroke-dasharray:none;stroke-opacity:1"
           id="path1840"
           inkscape:connector-curvature="0" /><path
           d="m 3310.8,849.6 46.8,-92.4 h -92.4 l 45.6,92.4"
           style="fill:#a0a0a4;fill-opacity:1;fill-rule:evenodd;stroke:none"
           id="path1842"
           inkscape:connector-curvature="0" /><path
           d="m 3310.8,849.6 46.8,-92.4 h -92.4 l 45.6,92.4"
           style="fill:none;stroke:#000000;stroke-width:7.5;stroke-linecap:round;stroke-linejoin:round;stroke-miterlimit:10;stroke-dasharray:none;stroke-opacity:1"
           id="path1844"
           inkscape:connector-curvature="0" /><path
           d="M 3312,849.6 V 834 l -36,-70.8 h 72 l -36,70.8 v 15.6 l 46.8,-93.6 h -93.6 l 46.8,93.6"
           style="fill:#000000;fill-opacity:1;fill-rule:nonzero;stroke:none"
           id="path1846"
           inkscape:connector-curvature="0" /><path
           d="m 3310.8,129.6 46.8,-92.4 h -92.4 l 45.6,92.4"
           style="fill:#000000;fill-opacity:1;fill-rule:evenodd;stroke:none"
           id="path1848"
           inkscape:connector-curvature="0" /><path
           d="m 3310.8,129.6 46.8,-92.4 h -92.4 l 45.6,92.4"
           style="fill:none;stroke:#000000;stroke-width:7.5;stroke-linecap:round;stroke-linejoin:round;stroke-miterlimit:10;stroke-dasharray:none;stroke-opacity:1"
           id="path1850"
           inkscape:connector-curvature="0" /><path
           d="M 3312,129.6 V 114 l -36,-70.8 h 72 l -36,70.8 v 15.6 l 46.8,-93.6002 h -93.6 L 3312,129.6"
           style="fill:#000000;fill-opacity:1;fill-rule:nonzero;stroke:none"
           id="path1852"
           inkscape:connector-curvature="0" /><path
           d="m 2948.4,1519.2 h 720"
           style="fill:none;stroke:#000000;stroke-width:7.5;stroke-linecap:round;stroke-linejoin:round;stroke-miterlimit:10;stroke-dasharray:10, 20;stroke-dashoffset:0;stroke-opacity:1"
           id="path1854"
           inkscape:connector-curvature="0" /><path
           d="m 3632.4,1116 v 93.6 l 93.6,-46.8 -93.6,-46.8"
           style="fill:#000000;fill-opacity:1;fill-rule:evenodd;stroke:none"
           id="path1856"
           inkscape:connector-curvature="0" /><path
           d="m 3632.4,1116 v 93.6 l 93.6,-46.8 -93.6,-46.8"
           style="fill:none;stroke:#000000;stroke-width:7.5;stroke-linecap:round;stroke-linejoin:round;stroke-miterlimit:10;stroke-dasharray:none;stroke-opacity:1"
           id="path1858"
           inkscape:connector-curvature="0" /><path
           d="m 2912.4,1116 v 93.6 l 93.6,-46.8 -93.6,-46.8"
           style="fill:#000000;fill-opacity:1;fill-rule:evenodd;stroke:none"
           id="path1860"
           inkscape:connector-curvature="0" /><path
           d="m 2912.4,1116 v 93.6 l 93.6,-46.8 -93.6,-46.8"
           style="fill:none;stroke:#000000;stroke-width:7.5;stroke-linecap:round;stroke-linejoin:round;stroke-miterlimit:10;stroke-dasharray:none;stroke-opacity:1"
           id="path1862"
           inkscape:connector-curvature="0" /><path
           d="m 3310.8,1569.6 46.8,-92.4 h -92.4 l 45.6,92.4"
           style="fill:#000000;fill-opacity:1;fill-rule:evenodd;stroke:none"
           id="path1864"
           inkscape:connector-curvature="0" /><path
           d="m 3310.8,1569.6 46.8,-92.4 h -92.4 l 45.6,92.4"
           style="fill:none;stroke:#000000;stroke-width:7.5;stroke-linecap:round;stroke-linejoin:round;stroke-miterlimit:10;stroke-dasharray:none;stroke-opacity:1"
           id="path1866"
           inkscape:connector-curvature="0" /><path
           d="M 3312,1569.6 V 1554 l -36,-70.8 h 72 l -36,70.8 v 15.6 l 46.8,-93.6 h -93.6 l 46.8,93.6"
           style="fill:#000000;fill-opacity:1;fill-rule:nonzero;stroke:none"
           id="path1868"
           inkscape:connector-curvature="0" /><path
           d="m 3351.6,1159.21 c -0.03,33.25 -35.99,54.01 -64.81,37.4 -28.8,-16.71 -28.75,-58.23 0.06,-74.85 28.83,-16.57 64.72,4.19 64.75,37.44"
           style="fill:#000000;fill-opacity:1;fill-rule:evenodd;stroke:none"
           id="path1870"
           inkscape:connector-curvature="0" /><path
           d="m 3351.6,1159.21 c -0.03,33.25 -35.99,54.01 -64.81,37.4 -28.8,-16.71 -28.75,-58.23 0.06,-74.85 28.83,-16.57 64.72,4.19 64.75,37.44"
           style="fill:none;stroke:#000000;stroke-width:7.5;stroke-linecap:round;stroke-linejoin:round;stroke-miterlimit:10;stroke-dasharray:none;stroke-opacity:1"
           id="path1872"
           inkscape:connector-curvature="0" /><path
           d="m 1868.4,799.2 360,360"
           style="fill:none;stroke:#a0a0a4;stroke-width:15;stroke-linecap:round;stroke-linejoin:round;stroke-miterlimit:10;stroke-dasharray:none;stroke-opacity:1"
           id="path1874"
           inkscape:connector-curvature="0" /><path
           d="m 1868.4,799.2 360,-360"
           style="fill:none;stroke:#a0a0a4;stroke-width:15;stroke-linecap:round;stroke-linejoin:round;stroke-miterlimit:10;stroke-dasharray:none;stroke-opacity:1"
           id="path1876"
           inkscape:connector-curvature="0" /><path
           d="m 1508.4,1159.2 360,-360"
           style="fill:none;stroke:#a0a0a4;stroke-width:15;stroke-linecap:round;stroke-linejoin:round;stroke-miterlimit:10;stroke-dasharray:none;stroke-opacity:1"
           id="path1878"
           inkscape:connector-curvature="0" /><path
           d="m 1508.4,439.2 360,360"
           style="fill:none;stroke:#a0a0a4;stroke-width:15;stroke-linecap:round;stroke-linejoin:round;stroke-miterlimit:10;stroke-dasharray:none;stroke-opacity:1"
           id="path1880"
           inkscape:connector-curvature="0" /><path
           d="m 1868.4,799.2 h 360"
           style="fill:none;stroke:#a0a0a4;stroke-width:15;stroke-linecap:round;stroke-linejoin:round;stroke-miterlimit:10;stroke-dasharray:none;stroke-opacity:1"
           id="path1882"
           inkscape:connector-curvature="0" /><path
           d="m 1508.4,799.2 h 360"
           style="fill:none;stroke:#a0a0a4;stroke-width:15;stroke-linecap:round;stroke-linejoin:round;stroke-miterlimit:10;stroke-dasharray:none;stroke-opacity:1"
           id="path1884"
           inkscape:connector-curvature="0" /><path
           d="m 2594.62,799.243 c -223.89,124.505 -496.19,124.568 -720.14,0.167"
           style="fill:none;stroke:#a0a0a4;stroke-width:15;stroke-linecap:round;stroke-linejoin:round;stroke-miterlimit:10;stroke-dasharray:none;stroke-opacity:1"
           id="path1886"
           inkscape:connector-curvature="0" /><path
           d="m 1874.62,799.243 c -223.89,124.505 -496.19,124.568 -720.14,0.167"
           style="fill:none;stroke:#a0a0a4;stroke-width:15;stroke-linecap:round;stroke-linejoin:round;stroke-miterlimit:10;stroke-dasharray:none;stroke-opacity:1"
           id="path1888"
           inkscape:connector-curvature="0" /><path
           d="m 1148.4,1159.2 v -720"
           style="fill:none;stroke:#000000;stroke-width:7.5;stroke-linecap:round;stroke-linejoin:round;stroke-miterlimit:10;stroke-dasharray:10, 20;stroke-dashoffset:0;stroke-opacity:1"
           id="path1890"
           inkscape:connector-curvature="0" /><path
           d="m 1868.4,1159.2 v -720"
           style="fill:none;stroke:#000000;stroke-width:7.5;stroke-linecap:round;stroke-linejoin:round;stroke-miterlimit:10;stroke-dasharray:10, 20;stroke-dashoffset:0;stroke-opacity:1"
           id="path1892"
           inkscape:connector-curvature="0" /><path
           d="m 1148.4,1159.2 h 1440"
           style="fill:none;stroke:#000000;stroke-width:7.5;stroke-linecap:round;stroke-linejoin:round;stroke-miterlimit:10;stroke-dasharray:10, 20;stroke-dashoffset:0;stroke-opacity:1"
           id="path1894"
           inkscape:connector-curvature="0" /><path
           d="m 1148.4,439.2 h 1440"
           style="fill:none;stroke:#000000;stroke-width:7.5;stroke-linecap:round;stroke-linejoin:round;stroke-miterlimit:10;stroke-dasharray:10, 20;stroke-dashoffset:0;stroke-opacity:1"
           id="path1896"
           inkscape:connector-curvature="0" /><path
           d="m 1551.6,799.208 c -0.03,33.254 -35.99,54.009 -64.81,37.402 -28.8,-16.714 -28.75,-58.235 0.06,-74.849 28.83,-16.568 64.72,4.185 64.75,37.439"
           style="fill:#000000;fill-opacity:1;fill-rule:evenodd;stroke:none"
           id="path1898"
           inkscape:connector-curvature="0" /><path
           d="m 1551.6,799.208 c -0.03,33.254 -35.99,54.009 -64.81,37.402 -28.8,-16.714 -28.75,-58.235 0.06,-74.849 28.83,-16.568 64.72,4.185 64.75,37.439"
           style="fill:none;stroke:#000000;stroke-width:7.5;stroke-linecap:round;stroke-linejoin:round;stroke-miterlimit:10;stroke-dasharray:none;stroke-opacity:1"
           id="path1900"
           inkscape:connector-curvature="0" /><path
           d="m 1832.4,756 v 93.6 L 1926,802.8 1832.4,756"
           style="fill:#a0a0a4;fill-opacity:1;fill-rule:evenodd;stroke:none"
           id="path1902"
           inkscape:connector-curvature="0" /><path
           d="m 1832.4,756 v 93.6 L 1926,802.8 1832.4,756"
           style="fill:none;stroke:#000000;stroke-width:7.5;stroke-linecap:round;stroke-linejoin:round;stroke-miterlimit:10;stroke-dasharray:none;stroke-opacity:1"
           id="path1904"
           inkscape:connector-curvature="0" /><path
           d="m 1112.4,756 v 93.6 L 1206,802.8 1112.4,756"
           style="fill:#000000;fill-opacity:1;fill-rule:evenodd;stroke:none"
           id="path1906"
           inkscape:connector-curvature="0" /><path
           d="m 1112.4,756 v 93.6 L 1206,802.8 1112.4,756"
           style="fill:none;stroke:#000000;stroke-width:7.5;stroke-linecap:round;stroke-linejoin:round;stroke-miterlimit:10;stroke-dasharray:none;stroke-opacity:1"
           id="path1908"
           inkscape:connector-curvature="0" /><path
           d="m 1510.8,1209.6 46.8,-92.4 h -92.4 l 45.6,92.4"
           style="fill:#000000;fill-opacity:1;fill-rule:evenodd;stroke:none"
           id="path1910"
           inkscape:connector-curvature="0" /><path
           d="m 1510.8,1209.6 46.8,-92.4 h -92.4 l 45.6,92.4"
           style="fill:none;stroke:#000000;stroke-width:7.5;stroke-linecap:round;stroke-linejoin:round;stroke-miterlimit:10;stroke-dasharray:none;stroke-opacity:1"
           id="path1912"
           inkscape:connector-curvature="0" /><path
           d="M 1512,1209.6 V 1194 l -36,-70.8 h 72 l -36,70.8 v 15.6 l 46.8,-93.6 h -93.6 l 46.8,93.6"
           style="fill:#000000;fill-opacity:1;fill-rule:nonzero;stroke:none"
           id="path1914"
           inkscape:connector-curvature="0" /><path
           d="m 1510.8,489.6 46.8,-92.4 h -92.4 l 45.6,92.4"
           style="fill:#000000;fill-opacity:1;fill-rule:evenodd;stroke:none"
           id="path1916"
           inkscape:connector-curvature="0" /><path
           d="m 1510.8,489.6 46.8,-92.4 h -92.4 l 45.6,92.4"
           style="fill:none;stroke:#000000;stroke-width:7.5;stroke-linecap:round;stroke-linejoin:round;stroke-miterlimit:10;stroke-dasharray:none;stroke-opacity:1"
           id="path1918"
           inkscape:connector-curvature="0" /><path
           d="M 1512,489.6 V 474 l -36,-70.8 h 72 l -36,70.8 v 15.6 l 46.8,-93.6 h -93.6 l 46.8,93.6"
           style="fill:#000000;fill-opacity:1;fill-rule:nonzero;stroke:none"
           id="path1920"
           inkscape:connector-curvature="0" /><path
           d="m 2588.4,1159.2 v -720"
           style="fill:none;stroke:#000000;stroke-width:7.5;stroke-linecap:round;stroke-linejoin:round;stroke-miterlimit:10;stroke-dasharray:10, 20;stroke-dashoffset:0;stroke-opacity:1"
           id="path1922"
           inkscape:connector-curvature="0" /><path
           d="m 2230.8,1209.6 46.8,-92.4 h -92.4 l 45.6,92.4"
           style="fill:#000000;fill-opacity:1;fill-rule:evenodd;stroke:none"
           id="path1924"
           inkscape:connector-curvature="0" /><path
           d="m 2230.8,1209.6 46.8,-92.4 h -92.4 l 45.6,92.4"
           style="fill:none;stroke:#000000;stroke-width:7.5;stroke-linecap:round;stroke-linejoin:round;stroke-miterlimit:10;stroke-dasharray:none;stroke-opacity:1"
           id="path1926"
           inkscape:connector-curvature="0" /><path
           d="M 2232,1209.6 V 1194 l -36,-70.8 h 72 l -36,70.8 v 15.6 l 46.8,-93.6 h -93.6 l 46.8,93.6"
           style="fill:#000000;fill-opacity:1;fill-rule:nonzero;stroke:none"
           id="path1928"
           inkscape:connector-curvature="0" /><path
           d="m 2230.8,489.6 46.8,-92.4 h -92.4 l 45.6,92.4"
           style="fill:#000000;fill-opacity:1;fill-rule:evenodd;stroke:none"
           id="path1930"
           inkscape:connector-curvature="0" /><path
           d="m 2230.8,489.6 46.8,-92.4 h -92.4 l 45.6,92.4"
           style="fill:none;stroke:#000000;stroke-width:7.5;stroke-linecap:round;stroke-linejoin:round;stroke-miterlimit:10;stroke-dasharray:none;stroke-opacity:1"
           id="path1932"
           inkscape:connector-curvature="0" /><path
           d="M 2232,489.6 V 474 l -36,-70.8 h 72 l -36,70.8 v 15.6 l 46.8,-93.6 h -93.6 l 46.8,93.6"
           style="fill:#000000;fill-opacity:1;fill-rule:nonzero;stroke:none"
           id="path1934"
           inkscape:connector-curvature="0" /><path
           d="m 2552.4,748.8 v 93.6 l 93.6,-46.8 -93.6,-46.8"
           style="fill:#000000;fill-opacity:1;fill-rule:evenodd;stroke:none"
           id="path1936"
           inkscape:connector-curvature="0" /><path
           d="m 2552.4,748.8 v 93.6 l 93.6,-46.8 -93.6,-46.8"
           style="fill:none;stroke:#000000;stroke-width:7.5;stroke-linecap:round;stroke-linejoin:round;stroke-miterlimit:10;stroke-dasharray:none;stroke-opacity:1"
           id="path1938"
           inkscape:connector-curvature="0" /><path
           d="m 2278.8,799.208 c -0.03,33.254 -35.99,54.009 -64.81,37.402 -28.8,-16.714 -28.75,-58.235 0.06,-74.849 28.83,-16.568 64.72,4.185 64.75,37.439"
           style="fill:#000000;fill-opacity:1;fill-rule:evenodd;stroke:none"
           id="path1940"
           inkscape:connector-curvature="0" /><path
           d="m 2278.8,799.208 c -0.03,33.254 -35.99,54.009 -64.81,37.402 -28.8,-16.714 -28.75,-58.235 0.06,-74.849 28.83,-16.568 64.72,4.185 64.75,37.439"
           style="fill:none;stroke:#000000;stroke-width:7.5;stroke-linecap:round;stroke-linejoin:round;stroke-miterlimit:10;stroke-dasharray:none;stroke-opacity:1"
           id="path1942"
           inkscape:connector-curvature="0" /></g></g></g></svg>