<?xml version="1.0" encoding="UTF-8" standalone="no"?>
<!-- Created with Inkscape (http://www.inkscape.org/) -->

<svg
   xmlns:dc="http://purl.org/dc/elements/1.1/"
   xmlns:cc="http://creativecommons.org/ns#"
   xmlns:rdf="http://www.w3.org/1999/02/22-rdf-syntax-ns#"
   xmlns:svg="http://www.w3.org/2000/svg"
   xmlns="http://www.w3.org/2000/svg"
   xmlns:sodipodi="http://sodipodi.sourceforge.net/DTD/sodipodi-0.dtd"
   xmlns:inkscape="http://www.inkscape.org/namespaces/inkscape"
   version="1.1"
   id="svg2620"
   xml:space="preserve"
   width="413.75998"
   height="230.08"
   viewBox="0 0 413.75998 230.08"
   sodipodi:docname="figSStructGraph1.svg"
   inkscape:version="0.92.2 (5c3e80d, 2017-08-06)"><metadata
     id="metadata2626"><rdf:RDF><cc:Work
         rdf:about=""><dc:format>image/svg+xml</dc:format><dc:type
           rdf:resource="http://purl.org/dc/dcmitype/StillImage" /><dc:title></dc:title></cc:Work></rdf:RDF></metadata><defs
     id="defs2624" /><sodipodi:namedview
     pagecolor="#ffffff"
     bordercolor="#666666"
     borderopacity="1"
     objecttolerance="10"
     gridtolerance="10"
     guidetolerance="10"
     inkscape:pageopacity="0"
     inkscape:pageshadow="2"
     inkscape:window-width="1362"
     inkscape:window-height="972"
     id="namedview2622"
     showgrid="false"
     inkscape:zoom="2.9896559"
     inkscape:cx="206.87999"
     inkscape:cy="115.04"
     inkscape:window-x="22"
     inkscape:window-y="23"
     inkscape:window-maximized="0"
     inkscape:current-layer="g2628" /><g
     id="g2628"
     inkscape:groupmode="layer"
     inkscape:label="figSStructGraph1"
     transform="matrix(1.3333333,0,0,-1.3333333,-13.76,245.27999)"><g
       id="g2630"
       transform="scale(0.1)"><g
         id="g2632"><path
           d="M 450,1112.4 1119.6,784.8"
           style="fill:none;stroke:#000000;stroke-width:1;stroke-linecap:round;stroke-linejoin:round;stroke-miterlimit:10;stroke-dasharray:10, 20;stroke-dashoffset:0;stroke-opacity:1"
           id="path2634"
           inkscape:connector-curvature="0" /><path
           d="M 118.8,1112.4 968.4,777.6"
           style="fill:none;stroke:#000000;stroke-width:1;stroke-linecap:round;stroke-linejoin:round;stroke-miterlimit:10;stroke-dasharray:10, 20;stroke-dashoffset:0;stroke-opacity:1"
           id="path2636"
           inkscape:connector-curvature="0" /><path
           d="m 442.8,792 684,-180"
           style="fill:none;stroke:#000000;stroke-width:1;stroke-linecap:round;stroke-linejoin:round;stroke-miterlimit:10;stroke-dasharray:10, 20;stroke-dashoffset:0;stroke-opacity:1"
           id="path2638"
           inkscape:connector-curvature="0" /><path
           d="M 118.8,784.8 957.6,615.6"
           style="fill:none;stroke:#000000;stroke-width:1;stroke-linecap:round;stroke-linejoin:round;stroke-miterlimit:10;stroke-dasharray:10, 20;stroke-dashoffset:0;stroke-opacity:1"
           id="path2640"
           inkscape:connector-curvature="0" /><path
           d="M 784.8,613.2 H 1452"
           style="fill:none;stroke:#000000;stroke-width:5;stroke-linecap:round;stroke-linejoin:round;stroke-miterlimit:10;stroke-dasharray:none;stroke-opacity:1"
           id="path2642"
           inkscape:connector-curvature="0" /><path
           d="M 784.8,781.2 H 1452"
           style="fill:none;stroke:#000000;stroke-width:5;stroke-linecap:round;stroke-linejoin:round;stroke-miterlimit:10;stroke-dasharray:none;stroke-opacity:1"
           id="path2644"
           inkscape:connector-curvature="0" /><path
           d="M 784.8,446.4 H 1452"
           style="fill:none;stroke:#000000;stroke-width:5;stroke-linecap:round;stroke-linejoin:round;stroke-miterlimit:10;stroke-dasharray:none;stroke-opacity:1"
           id="path2646"
           inkscape:connector-curvature="0" /><path
           d="m 952.8,946.8 v -666"
           style="fill:none;stroke:#000000;stroke-width:5;stroke-linecap:round;stroke-linejoin:round;stroke-miterlimit:10;stroke-dasharray:none;stroke-opacity:1"
           id="path2648"
           inkscape:connector-curvature="0" /><path
           d="m 1118.4,946.8 v -666"
           style="fill:none;stroke:#000000;stroke-width:5;stroke-linecap:round;stroke-linejoin:round;stroke-miterlimit:10;stroke-dasharray:none;stroke-opacity:1"
           id="path2650"
           inkscape:connector-curvature="0" /><path
           d="m 1286.4,946.8 v -666"
           style="fill:none;stroke:#000000;stroke-width:5;stroke-linecap:round;stroke-linejoin:round;stroke-miterlimit:10;stroke-dasharray:none;stroke-opacity:1"
           id="path2652"
           inkscape:connector-curvature="0" /><path
           d="m 786,946.8 v -666"
           style="fill:none;stroke:#000000;stroke-width:20;stroke-linecap:round;stroke-linejoin:round;stroke-miterlimit:10;stroke-dasharray:none;stroke-opacity:1"
           id="path2654"
           inkscape:connector-curvature="0" /><path
           d="m 1453.2,946.8 v -666"
           style="fill:none;stroke:#000000;stroke-width:20;stroke-linecap:round;stroke-linejoin:round;stroke-miterlimit:10;stroke-dasharray:none;stroke-opacity:1"
           id="path2656"
           inkscape:connector-curvature="0" /><path
           d="M 784.8,945.6 H 1452"
           style="fill:none;stroke:#000000;stroke-width:20;stroke-linecap:round;stroke-linejoin:round;stroke-miterlimit:10;stroke-dasharray:none;stroke-opacity:1"
           id="path2658"
           inkscape:connector-curvature="0" /><path
           d="m 784.8,279.6 h 668.4"
           style="fill:none;stroke:#000000;stroke-width:20;stroke-linecap:round;stroke-linejoin:round;stroke-miterlimit:10;stroke-dasharray:none;stroke-opacity:1"
           id="path2660"
           inkscape:connector-curvature="0" /><path
           d="m 1453.2,613.2 666,-164.4"
           style="fill:none;stroke:#000000;stroke-width:5;stroke-linecap:round;stroke-linejoin:round;stroke-miterlimit:10;stroke-dasharray:none;stroke-opacity:1"
           id="path2662"
           inkscape:connector-curvature="0" /><path
           d="m 1453.2,781.2 666,-249.6"
           style="fill:none;stroke:#000000;stroke-width:5;stroke-linecap:round;stroke-linejoin:round;stroke-miterlimit:10;stroke-dasharray:none;stroke-opacity:1"
           id="path2664"
           inkscape:connector-curvature="0" /><path
           d="m 1453.2,446.4 666,-81.6"
           style="fill:none;stroke:#000000;stroke-width:5;stroke-linecap:round;stroke-linejoin:round;stroke-miterlimit:10;stroke-dasharray:none;stroke-opacity:1"
           id="path2666"
           inkscape:connector-curvature="0" /><path
           d="M 1617.6,865.2 V 280.8"
           style="fill:none;stroke:#000000;stroke-width:5;stroke-linecap:round;stroke-linejoin:round;stroke-miterlimit:10;stroke-dasharray:none;stroke-opacity:1"
           id="path2668"
           inkscape:connector-curvature="0" /><path
           d="M 1784.4,782.4 V 280.8"
           style="fill:none;stroke:#000000;stroke-width:5;stroke-linecap:round;stroke-linejoin:round;stroke-miterlimit:10;stroke-dasharray:none;stroke-opacity:1"
           id="path2670"
           inkscape:connector-curvature="0" /><path
           d="M 1951.2,698.4 V 280.8"
           style="fill:none;stroke:#000000;stroke-width:5;stroke-linecap:round;stroke-linejoin:round;stroke-miterlimit:10;stroke-dasharray:none;stroke-opacity:1"
           id="path2672"
           inkscape:connector-curvature="0" /><path
           d="m 1453.2,945.6 v -666"
           style="fill:none;stroke:#000000;stroke-width:20;stroke-linecap:round;stroke-linejoin:round;stroke-miterlimit:10;stroke-dasharray:none;stroke-opacity:1"
           id="path2674"
           inkscape:connector-curvature="0" /><path
           d="M 2119.2,614.4 V 279.6"
           style="fill:none;stroke:#000000;stroke-width:20;stroke-linecap:round;stroke-linejoin:round;stroke-miterlimit:10;stroke-dasharray:none;stroke-opacity:1"
           id="path2676"
           inkscape:connector-curvature="0" /><path
           d="m 1453.2,945.6 666,-331.2"
           style="fill:none;stroke:#000000;stroke-width:20;stroke-linecap:round;stroke-linejoin:round;stroke-miterlimit:10;stroke-dasharray:none;stroke-opacity:1"
           id="path2678"
           inkscape:connector-curvature="0" /><path
           d="m 1453.2,279.6 h 666"
           style="fill:none;stroke:#000000;stroke-width:20;stroke-linecap:round;stroke-linejoin:round;stroke-miterlimit:10;stroke-dasharray:none;stroke-opacity:1"
           id="path2680"
           inkscape:connector-curvature="0" /><path
           d="m 784.8,1280.4 h 500.4"
           style="fill:none;stroke:#000000;stroke-width:5;stroke-linecap:round;stroke-linejoin:round;stroke-miterlimit:10;stroke-dasharray:none;stroke-opacity:1"
           id="path2682"
           inkscape:connector-curvature="0" /><path
           d="m 784.8,1447.2 h 416.4"
           style="fill:none;stroke:#000000;stroke-width:5;stroke-linecap:round;stroke-linejoin:round;stroke-miterlimit:10;stroke-dasharray:none;stroke-opacity:1"
           id="path2684"
           inkscape:connector-curvature="0" /><path
           d="M 784.8,1113.6 H 1368"
           style="fill:none;stroke:#000000;stroke-width:5;stroke-linecap:round;stroke-linejoin:round;stroke-miterlimit:10;stroke-dasharray:none;stroke-opacity:1"
           id="path2686"
           inkscape:connector-curvature="0" /><path
           d="m 868.8,1612.8 82.8,-666"
           style="fill:none;stroke:#000000;stroke-width:5;stroke-linecap:round;stroke-linejoin:round;stroke-miterlimit:10;stroke-dasharray:none;stroke-opacity:1"
           id="path2688"
           inkscape:connector-curvature="0" /><path
           d="M 952.8,1612.8 1118.4,945.6"
           style="fill:none;stroke:#000000;stroke-width:5;stroke-linecap:round;stroke-linejoin:round;stroke-miterlimit:10;stroke-dasharray:none;stroke-opacity:1"
           id="path2690"
           inkscape:connector-curvature="0" /><path
           d="M 1035.6,1612.8 1285.2,945.6"
           style="fill:none;stroke:#000000;stroke-width:5;stroke-linecap:round;stroke-linejoin:round;stroke-miterlimit:10;stroke-dasharray:none;stroke-opacity:1"
           id="path2692"
           inkscape:connector-curvature="0" /><path
           d="M 786,1612.8 V 945.6"
           style="fill:none;stroke:#000000;stroke-width:20;stroke-linecap:round;stroke-linejoin:round;stroke-miterlimit:10;stroke-dasharray:none;stroke-opacity:1"
           id="path2694"
           inkscape:connector-curvature="0" /><path
           d="M 1118.4,1612.8 1452,946.8"
           style="fill:none;stroke:#000000;stroke-width:20;stroke-linecap:round;stroke-linejoin:round;stroke-miterlimit:10;stroke-dasharray:none;stroke-opacity:1"
           id="path2696"
           inkscape:connector-curvature="0" /><path
           d="m 784.8,1612.8 h 333.6"
           style="fill:none;stroke:#000000;stroke-width:20;stroke-linecap:round;stroke-linejoin:round;stroke-miterlimit:10;stroke-dasharray:none;stroke-opacity:1"
           id="path2698"
           inkscape:connector-curvature="0" /><path
           d="m 784.8,945.6 h 668.4"
           style="fill:none;stroke:#000000;stroke-width:20;stroke-linecap:round;stroke-linejoin:round;stroke-miterlimit:10;stroke-dasharray:none;stroke-opacity:1"
           id="path2700"
           inkscape:connector-curvature="0" /><path
           d="m 1453.2,946.8 415.2,416.4"
           style="fill:none;stroke:#000000;stroke-width:20;stroke-linecap:round;stroke-linejoin:round;stroke-miterlimit:10;stroke-dasharray:none;stroke-opacity:1"
           id="path2702"
           inkscape:connector-curvature="0" /><path
           d="m 1700.4,1195.2 462,-276"
           style="fill:none;stroke:#000000;stroke-width:5;stroke-linecap:round;stroke-linejoin:round;stroke-miterlimit:10;stroke-dasharray:none;stroke-opacity:1"
           id="path2704"
           inkscape:connector-curvature="0" /><path
           d="m 1785.6,1279.2 387.6,-219.6"
           style="fill:none;stroke:#000000;stroke-width:5;stroke-linecap:round;stroke-linejoin:round;stroke-miterlimit:10;stroke-dasharray:none;stroke-opacity:1"
           id="path2706"
           inkscape:connector-curvature="0" /><path
           d="M 1575.6,1089.6 2142,780"
           style="fill:none;stroke:#000000;stroke-width:5;stroke-linecap:round;stroke-linejoin:round;stroke-miterlimit:10;stroke-dasharray:none;stroke-opacity:1"
           id="path2708"
           inkscape:connector-curvature="0" /><path
           d="M 1618.8,864 1956,1320"
           style="fill:none;stroke:#000000;stroke-width:5;stroke-linecap:round;stroke-linejoin:round;stroke-miterlimit:10;stroke-dasharray:none;stroke-opacity:1"
           id="path2710"
           inkscape:connector-curvature="0" /><path
           d="m 1785.6,782.4 249.6,498"
           style="fill:none;stroke:#000000;stroke-width:5;stroke-linecap:round;stroke-linejoin:round;stroke-miterlimit:10;stroke-dasharray:none;stroke-opacity:1"
           id="path2712"
           inkscape:connector-curvature="0" /><path
           d="m 1951.2,698.4 168,541.2"
           style="fill:none;stroke:#000000;stroke-width:5;stroke-linecap:round;stroke-linejoin:round;stroke-miterlimit:10;stroke-dasharray:none;stroke-opacity:1"
           id="path2714"
           inkscape:connector-curvature="0" /><path
           d="m 2119.2,614.4 84,583.2"
           style="fill:none;stroke:#000000;stroke-width:20;stroke-linecap:round;stroke-linejoin:round;stroke-miterlimit:10;stroke-dasharray:none;stroke-opacity:1"
           id="path2716"
           inkscape:connector-curvature="0" /><path
           d="m 1868.4,1363.2 334.8,-165.6"
           style="fill:none;stroke:#000000;stroke-width:20;stroke-linecap:round;stroke-linejoin:round;stroke-miterlimit:10;stroke-dasharray:none;stroke-opacity:1"
           id="path2718"
           inkscape:connector-curvature="0" /><path
           d="m 1453.2,946.8 666,-332.4"
           style="fill:none;stroke:#000000;stroke-width:20;stroke-linecap:round;stroke-linejoin:round;stroke-miterlimit:10;stroke-dasharray:none;stroke-opacity:1"
           id="path2720"
           inkscape:connector-curvature="0" /><path
           d="M 1423.2,1657.2 1694.4,1188"
           style="fill:none;stroke:#000000;stroke-width:5;stroke-linecap:round;stroke-linejoin:round;stroke-miterlimit:10;stroke-dasharray:none;stroke-opacity:1"
           id="path2722"
           inkscape:connector-curvature="0" /><path
           d="m 1562.4,1677.6 222,-399.6"
           style="fill:none;stroke:#000000;stroke-width:5;stroke-linecap:round;stroke-linejoin:round;stroke-miterlimit:10;stroke-dasharray:none;stroke-opacity:1"
           id="path2724"
           inkscape:connector-curvature="0" /><path
           d="m 1285.2,1636.8 296.4,-559.2"
           style="fill:none;stroke:#000000;stroke-width:5;stroke-linecap:round;stroke-linejoin:round;stroke-miterlimit:10;stroke-dasharray:none;stroke-opacity:1"
           id="path2726"
           inkscape:connector-curvature="0" /><path
           d="M 1201.2,1448.4 1742.4,1614"
           style="fill:none;stroke:#000000;stroke-width:5;stroke-linecap:round;stroke-linejoin:round;stroke-miterlimit:10;stroke-dasharray:none;stroke-opacity:1"
           id="path2728"
           inkscape:connector-curvature="0" /><path
           d="m 1285.2,1280.4 498,254.4"
           style="fill:none;stroke:#000000;stroke-width:5;stroke-linecap:round;stroke-linejoin:round;stroke-miterlimit:10;stroke-dasharray:none;stroke-opacity:1"
           id="path2730"
           inkscape:connector-curvature="0" /><path
           d="m 1369.2,1114.8 453.6,336"
           style="fill:none;stroke:#000000;stroke-width:5;stroke-linecap:round;stroke-linejoin:round;stroke-miterlimit:10;stroke-dasharray:none;stroke-opacity:1"
           id="path2732"
           inkscape:connector-curvature="0" /><path
           d="m 1118.4,1612.8 584.4,84"
           style="fill:none;stroke:#000000;stroke-width:20;stroke-linecap:round;stroke-linejoin:round;stroke-miterlimit:10;stroke-dasharray:none;stroke-opacity:1"
           id="path2734"
           inkscape:connector-curvature="0" /><path
           d="m 1452,948 414,412.8"
           style="fill:none;stroke:#000000;stroke-width:20;stroke-linecap:round;stroke-linejoin:round;stroke-miterlimit:10;stroke-dasharray:none;stroke-opacity:1"
           id="path2736"
           inkscape:connector-curvature="0" /><path
           d="m 1702.8,1696.8 163.2,-336"
           style="fill:none;stroke:#000000;stroke-width:20;stroke-linecap:round;stroke-linejoin:round;stroke-miterlimit:10;stroke-dasharray:none;stroke-opacity:1"
           id="path2738"
           inkscape:connector-curvature="0" /><path
           d="M 1118.4,1612.8 1453.2,945.6"
           style="fill:none;stroke:#000000;stroke-width:20;stroke-linecap:round;stroke-linejoin:round;stroke-miterlimit:10;stroke-dasharray:none;stroke-opacity:1"
           id="path2740"
           inkscape:connector-curvature="0" /><path
           d="m 121.2,783.6 h 330 v 328.8 h -330 z"
           style="fill:#ffffff;fill-opacity:1;fill-rule:evenodd;stroke:none"
           id="path2742"
           inkscape:connector-curvature="0" /><path
           d="m 121.2,783.6 h 330 v 328.8 h -330 z"
           style="fill:none;stroke:#000000;stroke-width:7.5;stroke-linecap:round;stroke-linejoin:round;stroke-miterlimit:10;stroke-dasharray:none;stroke-opacity:1"
           id="path2744"
           inkscape:connector-curvature="0" /><path
           d="m 285.6,966 h 3.6 l 3.6,-1.2 3.6,-2.4 2.4,-2.4 2.4,-2.4 1.2,-3.6 2.4,-3.6 v -7.2 l -2.4,-3.6 -1.2,-3.6 -2.4,-1.2 -2.4,-2.4 -3.6,-1.2 -3.6,-2.4 H 282 l -3.6,2.4 -2.4,1.2 -3.6,2.4 -1.2,1.2 -2.4,3.6 -1.2,3.6 v 7.2 l 1.2,3.6 2.4,3.6 1.2,2.4 3.6,2.4 2.4,2.4 3.6,1.2 h 3.6"
           style="fill:#000000;fill-opacity:1;fill-rule:evenodd;stroke:none"
           id="path2746"
           inkscape:connector-curvature="0" /><path
           d="m 285.6,966 h 3.6 l 3.6,-1.2 3.6,-2.4 2.4,-2.4 2.4,-2.4 1.2,-3.6 1.2,-3.6 v -7.2 l -1.2,-3.6 -1.2,-3.6 -2.4,-1.2 -2.4,-2.4 -3.6,-1.2 -3.6,-1.2 H 282 l -3.6,1.2 -2.4,1.2 -3.6,2.4 -1.2,1.2 -2.4,3.6 -1.2,3.6 v 7.2 l 1.2,3.6 2.4,3.6 1.2,2.4 3.6,2.4 2.4,2.4 3.6,1.2 z"
           style="fill:none;stroke:#000000;stroke-width:5;stroke-linecap:round;stroke-linejoin:round;stroke-miterlimit:10;stroke-dasharray:none;stroke-opacity:1"
           id="path2748"
           inkscape:connector-curvature="0" /><path
           d="m 285.6,966 h 3.6 l 3.6,-1.2 3.6,-2.4 2.4,-2.4 2.4,-2.4 1.2,-3.6 1.2,-3.6 v -7.2 l -1.2,-3.6 -1.2,-3.6 -2.4,-1.2 -2.4,-2.4 -3.6,-1.2 -3.6,-1.2 H 282 l -3.6,1.2 -2.4,1.2 -3.6,2.4 -1.2,1.2 -2.4,3.6 -1.2,3.6 v 7.2 l 1.2,3.6 2.4,3.6 1.2,2.4 3.6,2.4 2.4,2.4 3.6,1.2 z"
           style="fill:none;stroke:#000000;stroke-width:5;stroke-linecap:round;stroke-linejoin:round;stroke-miterlimit:10;stroke-dasharray:none;stroke-opacity:1"
           id="path2750"
           inkscape:connector-curvature="0" /><path
           d="m 436.8,922.8 43.2,22.8 -43.2,21.6 v -44.4"
           style="fill:#000000;fill-opacity:1;fill-rule:evenodd;stroke:none"
           id="path2752"
           inkscape:connector-curvature="0" /><path
           d="m 103.2,922.8 44.4,22.8 -44.4,21.6 v -44.4"
           style="fill:#000000;fill-opacity:1;fill-rule:evenodd;stroke:none"
           id="path2754"
           inkscape:connector-curvature="0" /><path
           d="m 286.8,1137.6 -20.4,-44.4 h 43.2 l -22.8,44.4"
           style="fill:#000000;fill-opacity:1;fill-rule:evenodd;stroke:none"
           id="path2756"
           inkscape:connector-curvature="0" /><path
           d="m 288,804 -21.6,-43.2 h 43.2 L 288,804"
           style="fill:#000000;fill-opacity:1;fill-rule:evenodd;stroke:none"
           id="path2758"
           inkscape:connector-curvature="0" /><path
           d="m 2638.8,493.2 h 363.6"
           style="fill:none;stroke:#c0c0c0;stroke-width:7.5;stroke-linecap:round;stroke-linejoin:round;stroke-miterlimit:10;stroke-dasharray:none;stroke-opacity:1"
           id="path2760"
           inkscape:connector-curvature="0" /><path
           d="M 2820,1333.2 V 969.6"
           style="fill:none;stroke:#c0c0c0;stroke-width:7.5;stroke-linecap:round;stroke-linejoin:round;stroke-miterlimit:10;stroke-dasharray:none;stroke-opacity:1"
           id="path2762"
           inkscape:connector-curvature="0" /><path
           d="m 2640,130.8 h 363.6 V 854.4 H 2640 Z"
           style="fill:none;stroke:#c0c0c0;stroke-width:7.5;stroke-linecap:round;stroke-linejoin:round;stroke-miterlimit:10;stroke-dasharray:none;stroke-opacity:1"
           id="path2764"
           inkscape:connector-curvature="0" /><path
           d="M 2463.6,966 H 3180 v 363.6 h -716.4 z"
           style="fill:none;stroke:#c0c0c0;stroke-width:7.5;stroke-linecap:round;stroke-linejoin:round;stroke-miterlimit:10;stroke-dasharray:none;stroke-opacity:1"
           id="path2766"
           inkscape:connector-curvature="0" /><path
           d="m 2640,1448.4 h 360 V 1812 h -360 z"
           style="fill:none;stroke:#c0c0c0;stroke-width:7.5;stroke-linecap:round;stroke-linejoin:round;stroke-miterlimit:10;stroke-dasharray:none;stroke-opacity:1"
           id="path2768"
           inkscape:connector-curvature="0" /><path
           d="m 2820,1628.4 v -180"
           style="fill:none;stroke:#c0c0c0;stroke-width:15;stroke-linecap:round;stroke-linejoin:round;stroke-miterlimit:10;stroke-dasharray:none;stroke-opacity:1"
           id="path2770"
           inkscape:connector-curvature="0" /><path
           d="M 2619.6,1154.4 H 2820"
           style="fill:none;stroke:#c0c0c0;stroke-width:15;stroke-linecap:round;stroke-linejoin:round;stroke-miterlimit:10;stroke-dasharray:none;stroke-opacity:1"
           id="path2772"
           inkscape:connector-curvature="0" /><path
           d="m 2817.6,1634.4 h 180"
           style="fill:none;stroke:#c0c0c0;stroke-width:15;stroke-linecap:round;stroke-linejoin:round;stroke-miterlimit:10;stroke-dasharray:none;stroke-opacity:1"
           id="path2774"
           inkscape:connector-curvature="0" /><path
           d="m 2637.6,1634.4 h 180"
           style="fill:none;stroke:#c0c0c0;stroke-width:15;stroke-linecap:round;stroke-linejoin:round;stroke-miterlimit:10;stroke-dasharray:none;stroke-opacity:1"
           id="path2776"
           inkscape:connector-curvature="0" /><path
           d="m 2818.8,1814.4 v -180"
           style="fill:none;stroke:#c0c0c0;stroke-width:15;stroke-linecap:round;stroke-linejoin:round;stroke-miterlimit:10;stroke-dasharray:none;stroke-opacity:1"
           id="path2778"
           inkscape:connector-curvature="0" /><path
           d="m 2979.6,1611.6 48,25.2 -48,22.8 v -48"
           style="fill:#c0c0c0;fill-opacity:1;fill-rule:evenodd;stroke:none"
           id="path2780"
           inkscape:connector-curvature="0" /><path
           d="m 2620.8,1611.6 46.8,25.2 -46.8,22.8 v -48"
           style="fill:#c0c0c0;fill-opacity:1;fill-rule:evenodd;stroke:none"
           id="path2782"
           inkscape:connector-curvature="0" /><path
           d="m 2820,1839.6 -24,-48 h 48 l -24,48"
           style="fill:#c0c0c0;fill-opacity:1;fill-rule:evenodd;stroke:none"
           id="path2784"
           inkscape:connector-curvature="0" /><path
           d="m 2820,1480.8 -24,-48 h 48 l -24,48"
           style="fill:#c0c0c0;fill-opacity:1;fill-rule:evenodd;stroke:none"
           id="path2786"
           inkscape:connector-curvature="0" /><path
           d="m 2817.6,496.8 178.8,178.8"
           style="fill:none;stroke:#c0c0c0;stroke-width:15;stroke-linecap:round;stroke-linejoin:round;stroke-miterlimit:10;stroke-dasharray:none;stroke-opacity:1"
           id="path2788"
           inkscape:connector-curvature="0" /><path
           d="m 2637.6,675.6 180,-178.8"
           style="fill:none;stroke:#c0c0c0;stroke-width:15;stroke-linecap:round;stroke-linejoin:round;stroke-miterlimit:10;stroke-dasharray:none;stroke-opacity:1"
           id="path2790"
           inkscape:connector-curvature="0" /><path
           d="m 2637.6,316.8 180,180"
           style="fill:none;stroke:#c0c0c0;stroke-width:15;stroke-linecap:round;stroke-linejoin:round;stroke-miterlimit:10;stroke-dasharray:none;stroke-opacity:1"
           id="path2792"
           inkscape:connector-curvature="0" /><path
           d="m 2817.6,496.8 178.8,-180"
           style="fill:none;stroke:#c0c0c0;stroke-width:15;stroke-linecap:round;stroke-linejoin:round;stroke-miterlimit:10;stroke-dasharray:none;stroke-opacity:1"
           id="path2794"
           inkscape:connector-curvature="0" /><path
           d="M 2817.6,675.6 V 496.8"
           style="fill:none;stroke:#c0c0c0;stroke-width:15;stroke-linecap:round;stroke-linejoin:round;stroke-miterlimit:10;stroke-dasharray:none;stroke-opacity:1"
           id="path2796"
           inkscape:connector-curvature="0" /><path
           d="m 2817.6,646.8 v -336"
           style="fill:none;stroke:#c0c0c0;stroke-width:15;stroke-linecap:round;stroke-linejoin:round;stroke-miterlimit:10;stroke-dasharray:none;stroke-opacity:1"
           id="path2798"
           inkscape:connector-curvature="0" /><path
           d="m 2979.6,294 46.8,25.2 -46.8,22.8 v -48"
           style="fill:#c0c0c0;fill-opacity:1;fill-rule:evenodd;stroke:none"
           id="path2800"
           inkscape:connector-curvature="0" /><path
           d="m 2620.8,294 46.8,25.2 -46.8,22.8 v -48"
           style="fill:#c0c0c0;fill-opacity:1;fill-rule:evenodd;stroke:none"
           id="path2802"
           inkscape:connector-curvature="0" /><path
           d="M 2818.8,162 2796,114 h 46.8 l -24,48"
           style="fill:#c0c0c0;fill-opacity:1;fill-rule:evenodd;stroke:none"
           id="path2804"
           inkscape:connector-curvature="0" /><path
           d="m 2979.6,652.8 46.8,25.2 -46.8,22.8 v -48"
           style="fill:#c0c0c0;fill-opacity:1;fill-rule:evenodd;stroke:none"
           id="path2806"
           inkscape:connector-curvature="0" /><path
           d="m 2620.8,652.8 46.8,25.2 -46.8,22.8 v -48"
           style="fill:#c0c0c0;fill-opacity:1;fill-rule:evenodd;stroke:none"
           id="path2808"
           inkscape:connector-curvature="0" /><path
           d="m 2818.8,880.8 -22.8,-48 h 46.8 l -24,48"
           style="fill:#c0c0c0;fill-opacity:1;fill-rule:evenodd;stroke:none"
           id="path2810"
           inkscape:connector-curvature="0" /><path
           d="m 2817.6,696 4.8,-1.2 3.6,-1.2 2.4,-1.2 3.6,-2.4 2.4,-3.6 1.2,-2.4 1.2,-4.8 2.4,-3.6 -2.4,-3.6 -1.2,-3.6 -1.2,-3.6 -2.4,-3.6 -3.6,-2.4 -2.4,-1.2 -3.6,-1.2 -4.8,-2.4 -3.6,2.4 -3.6,1.2 -3.6,1.2 -3.6,2.4 -2.4,3.6 -1.2,3.6 -1.2,3.6 v 7.2 l 1.2,4.8 1.2,2.4 2.4,3.6 3.6,2.4 3.6,1.2 3.6,1.2 3.6,1.2"
           style="fill:#c0c0c0;fill-opacity:1;fill-rule:evenodd;stroke:none"
           id="path2812"
           inkscape:connector-curvature="0" /><path
           d="m 2817.6,696 4.8,-1.2 3.6,-1.2 2.4,-1.2 3.6,-2.4 2.4,-3.6 1.2,-2.4 1.2,-4.8 2.4,-3.6 -2.4,-3.6 -1.2,-3.6 -1.2,-3.6 -2.4,-3.6 -3.6,-2.4 -2.4,-1.2 -3.6,-1.2 -4.8,-2.4 -3.6,2.4 -3.6,1.2 -3.6,1.2 -3.6,2.4 -2.4,3.6 -1.2,3.6 -1.2,3.6 v 7.2 l 1.2,4.8 1.2,2.4 2.4,3.6 3.6,2.4 3.6,1.2 3.6,1.2 3.6,1.2"
           style="fill:#c0c0c0;fill-opacity:1;fill-rule:evenodd;stroke:none"
           id="path2814"
           inkscape:connector-curvature="0" /><path
           d="m 2817.6,696 4.8,-1.2 3.6,-1.2 2.4,-1.2 3.6,-2.4 2.4,-3.6 1.2,-2.4 1.2,-4.8 2.4,-3.6 -2.4,-3.6 -1.2,-3.6 -1.2,-3.6 -2.4,-3.6 -3.6,-2.4 -2.4,-1.2 -3.6,-1.2 -4.8,-2.4 -3.6,2.4 -3.6,1.2 -3.6,1.2 -3.6,2.4 -2.4,3.6 -1.2,3.6 -1.2,3.6 v 7.2 l 1.2,4.8 1.2,2.4 2.4,3.6 3.6,2.4 3.6,1.2 3.6,1.2 3.6,1.2"
           style="fill:#c0c0c0;fill-opacity:1;fill-rule:evenodd;stroke:none"
           id="path2816"
           inkscape:connector-curvature="0" /><path
           d="m 2817.6,1155.6 180,178.8"
           style="fill:none;stroke:#c0c0c0;stroke-width:15;stroke-linecap:round;stroke-linejoin:round;stroke-miterlimit:10;stroke-dasharray:none;stroke-opacity:1"
           id="path2818"
           inkscape:connector-curvature="0" /><path
           d="m 2817.6,1155.6 180,-180"
           style="fill:none;stroke:#c0c0c0;stroke-width:15;stroke-linecap:round;stroke-linejoin:round;stroke-miterlimit:10;stroke-dasharray:none;stroke-opacity:1"
           id="path2820"
           inkscape:connector-curvature="0" /><path
           d="m 2637.6,1334.4 180,-178.8"
           style="fill:none;stroke:#c0c0c0;stroke-width:15;stroke-linecap:round;stroke-linejoin:round;stroke-miterlimit:10;stroke-dasharray:none;stroke-opacity:1"
           id="path2822"
           inkscape:connector-curvature="0" /><path
           d="m 2637.6,975.6 180,180"
           style="fill:none;stroke:#c0c0c0;stroke-width:15;stroke-linecap:round;stroke-linejoin:round;stroke-miterlimit:10;stroke-dasharray:none;stroke-opacity:1"
           id="path2824"
           inkscape:connector-curvature="0" /><path
           d="m 2817.6,1154.4 h 180"
           style="fill:none;stroke:#c0c0c0;stroke-width:15;stroke-linecap:round;stroke-linejoin:round;stroke-miterlimit:10;stroke-dasharray:none;stroke-opacity:1"
           id="path2826"
           inkscape:connector-curvature="0" /><path
           d="m 2800.8,1132.8 46.8,24 -46.8,22.8 v -46.8"
           style="fill:#c0c0c0;fill-opacity:1;fill-rule:evenodd;stroke:none"
           id="path2828"
           inkscape:connector-curvature="0" /><path
           d="m 2440.8,1132.8 48,24 -48,22.8 v -46.8"
           style="fill:#c0c0c0;fill-opacity:1;fill-rule:evenodd;stroke:none"
           id="path2830"
           inkscape:connector-curvature="0" /><path
           d="m 2640,1359.6 -24,-48 h 48 l -24,48"
           style="fill:#c0c0c0;fill-opacity:1;fill-rule:evenodd;stroke:none"
           id="path2832"
           inkscape:connector-curvature="0" /><path
           d="m 2640,1000.8 -24,-48 h 48 l -24,48"
           style="fill:#c0c0c0;fill-opacity:1;fill-rule:evenodd;stroke:none"
           id="path2834"
           inkscape:connector-curvature="0" /><path
           d="m 2997.6,1359.6 -22.8,-48 h 48 l -25.2,48"
           style="fill:#c0c0c0;fill-opacity:1;fill-rule:evenodd;stroke:none"
           id="path2836"
           inkscape:connector-curvature="0" /><path
           d="m 2997.6,1000.8 -22.8,-48 h 48 l -25.2,48"
           style="fill:#c0c0c0;fill-opacity:1;fill-rule:evenodd;stroke:none"
           id="path2838"
           inkscape:connector-curvature="0" /><path
           d="m 3159.6,1129.2 46.8,24 -46.8,24 v -48"
           style="fill:#c0c0c0;fill-opacity:1;fill-rule:evenodd;stroke:none"
           id="path2840"
           inkscape:connector-curvature="0" /><path
           d="m 3001.2,1174.8 3.6,-1.2 3.6,-1.2 3.6,-1.2 2.4,-2.4 2.4,-2.4 2.4,-3.6 2.4,-3.6 v -8.4 l -2.4,-3.6 -2.4,-2.4 -2.4,-3.6 -2.4,-2.4 -3.6,-1.2 -3.6,-1.2 -3.6,-2.4 -3.6,2.4 -3.6,1.2 -3.6,1.2 -3.6,2.4 -2.4,3.6 -1.2,2.4 -1.2,3.6 v 8.4 l 1.2,3.6 1.2,3.6 2.4,2.4 3.6,2.4 3.6,1.2 3.6,1.2 3.6,1.2"
           style="fill:#c0c0c0;fill-opacity:1;fill-rule:evenodd;stroke:none"
           id="path2842"
           inkscape:connector-curvature="0" /><path
           d="m 3001.2,1174.8 3.6,-1.2 3.6,-1.2 3.6,-1.2 2.4,-2.4 2.4,-2.4 2.4,-3.6 2.4,-3.6 v -8.4 l -2.4,-3.6 -2.4,-2.4 -2.4,-3.6 -2.4,-2.4 -3.6,-1.2 -3.6,-1.2 -3.6,-2.4 -3.6,2.4 -3.6,1.2 -3.6,1.2 -3.6,2.4 -2.4,3.6 -1.2,2.4 -1.2,3.6 v 8.4 l 1.2,3.6 1.2,3.6 2.4,2.4 3.6,2.4 3.6,1.2 3.6,1.2 3.6,1.2"
           style="fill:#c0c0c0;fill-opacity:1;fill-rule:evenodd;stroke:none"
           id="path2844"
           inkscape:connector-curvature="0" /><path
           d="m 3001.2,1174.8 3.6,-1.2 3.6,-1.2 3.6,-1.2 2.4,-2.4 2.4,-2.4 2.4,-3.6 2.4,-3.6 v -8.4 l -2.4,-3.6 -2.4,-2.4 -2.4,-3.6 -2.4,-2.4 -3.6,-1.2 -3.6,-1.2 -3.6,-2.4 -3.6,2.4 -3.6,1.2 -3.6,1.2 -3.6,2.4 -2.4,3.6 -1.2,2.4 -1.2,3.6 v 8.4 l 1.2,3.6 1.2,3.6 2.4,2.4 3.6,2.4 3.6,1.2 3.6,1.2 3.6,1.2"
           style="fill:#c0c0c0;fill-opacity:1;fill-rule:evenodd;stroke:none"
           id="path2846"
           inkscape:connector-curvature="0" /><path
           d="M 2818.8,520.8 2796,474 h 46.8 l -24,46.8"
           style="fill:#c0c0c0;fill-opacity:1;fill-rule:evenodd;stroke:none"
           id="path2848"
           inkscape:connector-curvature="0" /><path
           d="m 2814,339.6 3.6,-1.2 3.6,-1.2 3.6,-1.2 2.4,-2.4 2.4,-2.4 2.4,-3.6 2.4,-3.6 v -8.4 l -2.4,-3.6 -2.4,-2.4 -2.4,-3.6 -2.4,-2.4 -3.6,-1.2 -3.6,-1.2 -3.6,-2.4 -3.6,2.4 -3.6,1.2 -3.6,1.2 -3.6,2.4 -2.4,3.6 -1.2,2.4 -1.2,3.6 v 8.4 l 1.2,3.6 1.2,3.6 2.4,2.4 3.6,2.4 3.6,1.2 3.6,1.2 3.6,1.2"
           style="fill:#c0c0c0;fill-opacity:1;fill-rule:evenodd;stroke:none"
           id="path2850"
           inkscape:connector-curvature="0" /><path
           d="m 2641.2,1171.2 3.6,-1.2 3.6,-1.2 3.6,-1.2 2.4,-2.4 2.4,-2.4 2.4,-3.6 2.4,-3.6 v -8.4 l -2.4,-3.6 -2.4,-2.4 -2.4,-3.6 -2.4,-2.4 -3.6,-1.2 -3.6,-1.2 -3.6,-2.4 -3.6,2.4 -3.6,1.2 -3.6,1.2 -3.6,2.4 -2.4,3.6 -1.2,2.4 -1.2,3.6 v 8.4 l 1.2,3.6 1.2,3.6 2.4,2.4 3.6,2.4 3.6,1.2 3.6,1.2 3.6,1.2"
           style="fill:#c0c0c0;fill-opacity:1;fill-rule:evenodd;stroke:none"
           id="path2852"
           inkscape:connector-curvature="0" /><path
           d="m 2817.6,1653.6 3.6,-1.2 3.6,-1.2 3.6,-1.2 2.4,-2.4 2.4,-2.4 2.4,-3.6 2.4,-3.6 v -8.4 l -2.4,-3.6 -2.4,-2.4 -2.4,-3.6 -2.4,-2.4 -3.6,-1.2 -3.6,-1.2 -3.6,-2.4 -3.6,2.4 -3.6,1.2 -3.6,1.2 -3.6,2.4 -2.4,3.6 -1.2,2.4 -1.2,3.6 v 8.4 l 1.2,3.6 1.2,3.6 2.4,2.4 3.6,2.4 3.6,1.2 3.6,1.2 3.6,1.2"
           style="fill:#c0c0c0;fill-opacity:1;fill-rule:evenodd;stroke:none"
           id="path2854"
           inkscape:connector-curvature="0" /><path
           d="m 3174.77,1155.68 c -108.11,62.17 -241.2,62.21 -349.35,0.1"
           style="fill:none;stroke:#c0c0c0;stroke-width:15;stroke-linecap:round;stroke-linejoin:round;stroke-miterlimit:10;stroke-dasharray:none;stroke-opacity:1"
           id="path2856"
           inkscape:connector-curvature="0" /><path
           d="m 2814.77,1155.68 c -108.11,62.17 -241.2,62.21 -349.35,0.1"
           style="fill:none;stroke:#c0c0c0;stroke-width:15;stroke-linecap:round;stroke-linejoin:round;stroke-miterlimit:10;stroke-dasharray:none;stroke-opacity:1"
           id="path2858"
           inkscape:connector-curvature="0" /><path
           d="m 2818.21,854.001 c -62.08,-108.548 -61.49,-241.904 1.56,-349.894"
           style="fill:none;stroke:#c0c0c0;stroke-width:15;stroke-linecap:round;stroke-linejoin:round;stroke-miterlimit:10;stroke-dasharray:none;stroke-opacity:1"
           id="path2860"
           inkscape:connector-curvature="0" /><path
           d="m 2813.41,489.201 c -62.08,-108.548 -61.48,-241.904 1.56,-349.894"
           style="fill:none;stroke:#c0c0c0;stroke-width:15;stroke-linecap:round;stroke-linejoin:round;stroke-miterlimit:10;stroke-dasharray:none;stroke-opacity:1"
           id="path2862"
           inkscape:connector-curvature="0" /></g></g></g></svg>