<?xml version="1.0" encoding="UTF-8" standalone="no"?>
<!-- Created with Inkscape (http://www.inkscape.org/) -->

<svg
   xmlns:dc="http://purl.org/dc/elements/1.1/"
   xmlns:cc="http://creativecommons.org/ns#"
   xmlns:rdf="http://www.w3.org/1999/02/22-rdf-syntax-ns#"
   xmlns:svg="http://www.w3.org/2000/svg"
   xmlns="http://www.w3.org/2000/svg"
   xmlns:sodipodi="http://sodipodi.sourceforge.net/DTD/sodipodi-0.dtd"
   xmlns:inkscape="http://www.inkscape.org/namespaces/inkscape"
   version="1.1"
   id="svg2518"
   xml:space="preserve"
   width="241.01427"
   height="241.01427"
   viewBox="0 0 241.01427 241.01427"
   sodipodi:docname="figSStructExample2b.svg"
   inkscape:version="0.92.2 (5c3e80d, 2017-08-06)"><metadata
     id="metadata2524"><rdf:RDF><cc:Work
         rdf:about=""><dc:format>image/svg+xml</dc:format><dc:type
           rdf:resource="http://purl.org/dc/dcmitype/StillImage" /><dc:title></dc:title></cc:Work></rdf:RDF></metadata><defs
     id="defs2522" /><sodipodi:namedview
     pagecolor="#ffffff"
     bordercolor="#666666"
     borderopacity="1"
     objecttolerance="10"
     gridtolerance="10"
     guidetolerance="10"
     inkscape:pageopacity="0"
     inkscape:pageshadow="2"
     inkscape:window-width="1352"
     inkscape:window-height="964"
     id="namedview2520"
     showgrid="false"
     inkscape:zoom="3.174086"
     inkscape:cx="120.50713"
     inkscape:cy="120.50713"
     inkscape:window-x="0"
     inkscape:window-y="0"
     inkscape:window-maximized="0"
     inkscape:current-layer="g2526" /><g
     id="g2526"
     inkscape:groupmode="layer"
     inkscape:label="figSStructExample2b"
     transform="matrix(1.3333333,0,0,-1.3333333,-4.292852,245.30712)"><g
       id="g2528"
       transform="scale(0.1)"><g
         id="g2530"><path
           d="m 35.9998,34.7998 h 901.2 v 901.2 h -901.2 z"
           style="fill:#e0e0e0;fill-opacity:1;fill-rule:evenodd;stroke:none"
           id="path2532"
           inkscape:connector-curvature="0" /><path
           d="m 35.9998,934.8 h 1621.2 V 1836 h -1621.2 z"
           style="fill:#e0e0e0;fill-opacity:1;fill-rule:evenodd;stroke:none"
           id="path2534"
           inkscape:connector-curvature="0" /><path
           d="m 1108.8,1116 h 374.4"
           style="fill:none;stroke:#000000;stroke-width:22.5;stroke-linecap:round;stroke-linejoin:round;stroke-miterlimit:10;stroke-dasharray:none;stroke-opacity:1"
           id="path2536"
           inkscape:connector-curvature="0" /><path
           d="M 1116,1476 V 1116"
           style="fill:none;stroke:#000000;stroke-width:22.5;stroke-linecap:round;stroke-linejoin:round;stroke-miterlimit:10;stroke-dasharray:none;stroke-opacity:1"
           id="path2538"
           inkscape:connector-curvature="0" /><path
           d="M 1116,1116 V 756"
           style="fill:none;stroke:#000000;stroke-width:7.5;stroke-linecap:round;stroke-linejoin:round;stroke-miterlimit:10;stroke-dasharray:10, 20;stroke-dashoffset:0;stroke-opacity:1"
           id="path2540"
           inkscape:connector-curvature="0" /><path
           d="m 756,1116 h 360"
           style="fill:none;stroke:#000000;stroke-width:7.5;stroke-linecap:round;stroke-linejoin:round;stroke-miterlimit:10;stroke-dasharray:10, 20;stroke-dashoffset:0;stroke-opacity:1"
           id="path2542"
           inkscape:connector-curvature="0" /><path
           d="M 1116,1116 1296,576"
           style="fill:none;stroke:#a0a0a4;stroke-width:22.5;stroke-linecap:round;stroke-linejoin:round;stroke-miterlimit:10;stroke-dasharray:none;stroke-opacity:1"
           id="path2544"
           inkscape:connector-curvature="0" /><path
           d="m 576,1296 540,-180"
           style="fill:none;stroke:#a0a0a4;stroke-width:22.5;stroke-linecap:round;stroke-linejoin:round;stroke-miterlimit:10;stroke-dasharray:none;stroke-opacity:1"
           id="path2546"
           inkscape:connector-curvature="0" /><path
           d="M 35.9998,1656 H 1836"
           style="fill:none;stroke:#000000;stroke-width:7.5;stroke-linecap:round;stroke-linejoin:round;stroke-miterlimit:10;stroke-dasharray:none;stroke-opacity:1"
           id="path2548"
           inkscape:connector-curvature="0" /><path
           d="M 35.9998,216 H 1836"
           style="fill:none;stroke:#000000;stroke-width:7.5;stroke-linecap:round;stroke-linejoin:round;stroke-miterlimit:10;stroke-dasharray:none;stroke-opacity:1"
           id="path2550"
           inkscape:connector-curvature="0" /><path
           d="M 216,1836 V 35.9998"
           style="fill:none;stroke:#000000;stroke-width:7.5;stroke-linecap:round;stroke-linejoin:round;stroke-miterlimit:10;stroke-dasharray:none;stroke-opacity:1"
           id="path2552"
           inkscape:connector-curvature="0" /><path
           d="M 35.9998,936 H 936"
           style="fill:none;stroke:#000000;stroke-width:7.5;stroke-linecap:round;stroke-linejoin:round;stroke-miterlimit:10;stroke-dasharray:none;stroke-opacity:1"
           id="path2554"
           inkscape:connector-curvature="0" /><path
           d="m 936,1296 h 900"
           style="fill:none;stroke:#000000;stroke-width:7.5;stroke-linecap:round;stroke-linejoin:round;stroke-miterlimit:10;stroke-dasharray:none;stroke-opacity:1"
           id="path2556"
           inkscape:connector-curvature="0" /><path
           d="M 1656,1836 V 35.9998"
           style="fill:none;stroke:#000000;stroke-width:7.5;stroke-linecap:round;stroke-linejoin:round;stroke-miterlimit:10;stroke-dasharray:none;stroke-opacity:1"
           id="path2558"
           inkscape:connector-curvature="0" /><path
           d="m 1321.2,576.005 c -0.02,19.398 -21,31.505 -37.8,21.817 -16.81,-9.749 -16.78,-33.97 0.03,-43.662 16.82,-9.664 37.75,2.442 37.77,21.84"
           style="fill:#000000;fill-opacity:1;fill-rule:evenodd;stroke:none"
           id="path2560"
           inkscape:connector-curvature="0" /><path
           d="m 1321.2,576.005 c -0.02,19.398 -21,31.505 -37.8,21.817 -16.81,-9.749 -16.78,-33.97 0.03,-43.662 16.82,-9.664 37.75,2.442 37.77,21.84"
           style="fill:none;stroke:#000000;stroke-width:7.5;stroke-linecap:round;stroke-linejoin:round;stroke-miterlimit:10;stroke-dasharray:none;stroke-opacity:1"
           id="path2562"
           inkscape:connector-curvature="0" /><path
           d="M 936,936 V 35.9998"
           style="fill:none;stroke:#000000;stroke-width:7.5;stroke-linecap:round;stroke-linejoin:round;stroke-miterlimit:10;stroke-dasharray:none;stroke-opacity:1"
           id="path2564"
           inkscape:connector-curvature="0" /><path
           d="M 1296,1836 V 936"
           style="fill:none;stroke:#000000;stroke-width:7.5;stroke-linecap:round;stroke-linejoin:round;stroke-miterlimit:10;stroke-dasharray:none;stroke-opacity:1"
           id="path2566"
           inkscape:connector-curvature="0" /><path
           d="m 604.8,1292.4 c -0.019,19.4 -20.997,31.51 -37.803,21.82 -16.804,-9.75 -16.774,-33.97 0.03,-43.66 16.819,-9.66 37.758,2.44 37.773,21.84"
           style="fill:#000000;fill-opacity:1;fill-rule:evenodd;stroke:none"
           id="path2568"
           inkscape:connector-curvature="0" /><path
           d="m 604.8,1292.4 c -0.019,19.4 -20.997,31.51 -37.803,21.82 -16.804,-9.75 -16.774,-33.97 0.03,-43.66 16.819,-9.66 37.758,2.44 37.773,21.84"
           style="fill:none;stroke:#000000;stroke-width:7.5;stroke-linecap:round;stroke-linejoin:round;stroke-miterlimit:10;stroke-dasharray:none;stroke-opacity:1"
           id="path2570"
           inkscape:connector-curvature="0" /><path
           d="m 1144.8,1112.4 c -0.02,19.4 -21,31.51 -37.8,21.82 -16.81,-9.75 -16.78,-33.97 0.03,-43.66 16.82,-9.66 37.75,2.44 37.77,21.84"
           style="fill:#000000;fill-opacity:1;fill-rule:evenodd;stroke:none"
           id="path2572"
           inkscape:connector-curvature="0" /><path
           d="m 1144.8,1112.4 c -0.02,19.4 -21,31.51 -37.8,21.82 -16.81,-9.75 -16.78,-33.97 0.03,-43.66 16.82,-9.66 37.75,2.44 37.77,21.84"
           style="fill:none;stroke:#000000;stroke-width:7.5;stroke-linecap:round;stroke-linejoin:round;stroke-miterlimit:10;stroke-dasharray:none;stroke-opacity:1"
           id="path2574"
           inkscape:connector-curvature="0" /><path
           d="m 1504.8,1112.4 c -0.02,19.4 -21,31.51 -37.8,21.82 -16.81,-9.75 -16.78,-33.97 0.03,-43.66 16.82,-9.66 37.75,2.44 37.77,21.84"
           style="fill:#000000;fill-opacity:1;fill-rule:evenodd;stroke:none"
           id="path2576"
           inkscape:connector-curvature="0" /><path
           d="m 1504.8,1112.4 c -0.02,19.4 -21,31.51 -37.8,21.82 -16.81,-9.75 -16.78,-33.97 0.03,-43.66 16.82,-9.66 37.75,2.44 37.77,21.84"
           style="fill:none;stroke:#000000;stroke-width:7.5;stroke-linecap:round;stroke-linejoin:round;stroke-miterlimit:10;stroke-dasharray:none;stroke-opacity:1"
           id="path2578"
           inkscape:connector-curvature="0" /><path
           d="m 1144.8,1472.4 c -0.02,19.4 -21,31.51 -37.8,21.82 -16.81,-9.75 -16.78,-33.97 0.03,-43.66 16.82,-9.66 37.75,2.44 37.77,21.84"
           style="fill:#000000;fill-opacity:1;fill-rule:evenodd;stroke:none"
           id="path2580"
           inkscape:connector-curvature="0" /><path
           d="m 1144.8,1472.4 c -0.02,19.4 -21,31.51 -37.8,21.82 -16.81,-9.75 -16.78,-33.97 0.03,-43.66 16.82,-9.66 37.75,2.44 37.77,21.84"
           style="fill:none;stroke:#000000;stroke-width:7.5;stroke-linecap:round;stroke-linejoin:round;stroke-miterlimit:10;stroke-dasharray:none;stroke-opacity:1"
           id="path2582"
           inkscape:connector-curvature="0" /><g
           id="g2584"
           transform="scale(10)"><text
             transform="matrix(0.871795,0,0,-1,120.24,42.48)"
             style="font-style:italic;font-variant:normal;font-size:10px;font-family:'Times New Roman';-inkscape-font-specification:Times-Italic;writing-mode:lr-tb;fill:#000000;fill-opacity:1;fill-rule:nonzero;stroke:none"
             id="text2592"><tspan
               x="0 3.3299999 8.3299999 10.82998 15.82998 19.159981"
               y="0"
               sodipodi:role="line"
               id="tspan2586">(3,2)</tspan><tspan
               x="-82.58802 -79.258018 -74.258018 -71.758041 -66.758041 -63.42804"
               y="-96.480003"
               sodipodi:role="line"
               id="tspan2588">(2,3)</tspan><tspan
               x="19.821461 23.151461 28.151461 30.65144 35.65144 38.981441"
               y="-100.8"
               sodipodi:role="line"
               id="tspan2590">(6,6)</tspan></text>
</g><path
           d="m 1182,1182 207.6,207.6"
           style="fill:none;stroke:#000000;stroke-width:7.5;stroke-linecap:round;stroke-linejoin:round;stroke-miterlimit:10;stroke-dasharray:none;stroke-opacity:1"
           id="path2594"
           inkscape:connector-curvature="0" /><path
           d="m 1166.4,1166.4 21.6,52.8 -2.4,-33.6 33.6,2.4 -52.8,-21.6"
           style="fill:#000000;fill-opacity:1;fill-rule:evenodd;stroke:none"
           id="path2596"
           inkscape:connector-curvature="0" /><path
           d="m 1166.4,1166.4 21.6,52.8 -2.4,-33.6 33.6,2.4 -52.8,-21.6"
           style="fill:none;stroke:#000000;stroke-width:7.5;stroke-linecap:round;stroke-linejoin:round;stroke-miterlimit:10;stroke-dasharray:none;stroke-opacity:1"
           id="path2598"
           inkscape:connector-curvature="0" /><path
           d="m 727.2,1087.2 57.6,57.6"
           style="fill:none;stroke:#000000;stroke-width:7.5;stroke-linecap:round;stroke-linejoin:round;stroke-miterlimit:10;stroke-dasharray:none;stroke-opacity:1"
           id="path2600"
           inkscape:connector-curvature="0" /><path
           d="m 727.2,1144.8 57.6,-57.6"
           style="fill:none;stroke:#000000;stroke-width:7.5;stroke-linecap:round;stroke-linejoin:round;stroke-miterlimit:10;stroke-dasharray:none;stroke-opacity:1"
           id="path2602"
           inkscape:connector-curvature="0" /><path
           d="m 1087.2,727.2 57.6,57.6"
           style="fill:none;stroke:#000000;stroke-width:7.5;stroke-linecap:round;stroke-linejoin:round;stroke-miterlimit:10;stroke-dasharray:none;stroke-opacity:1"
           id="path2604"
           inkscape:connector-curvature="0" /><path
           d="m 1087.2,784.8 57.6,-57.6"
           style="fill:none;stroke:#000000;stroke-width:7.5;stroke-linecap:round;stroke-linejoin:round;stroke-miterlimit:10;stroke-dasharray:none;stroke-opacity:1"
           id="path2606"
           inkscape:connector-curvature="0" /><path
           d="m 936,936 h 900"
           style="fill:none;stroke:#000000;stroke-width:7.5;stroke-linecap:round;stroke-linejoin:round;stroke-miterlimit:10;stroke-dasharray:none;stroke-opacity:1"
           id="path2608"
           inkscape:connector-curvature="0" /><path
           d="M 936,1836 V 936"
           style="fill:none;stroke:#000000;stroke-width:7.5;stroke-linecap:round;stroke-linejoin:round;stroke-miterlimit:10;stroke-dasharray:none;stroke-opacity:1"
           id="path2610"
           inkscape:connector-curvature="0" /></g></g></g></svg>