<?xml version="1.0" encoding="UTF-8" standalone="no"?>
<!-- Created with Inkscape (http://www.inkscape.org/) -->

<svg
   xmlns:dc="http://purl.org/dc/elements/1.1/"
   xmlns:cc="http://creativecommons.org/ns#"
   xmlns:rdf="http://www.w3.org/1999/02/22-rdf-syntax-ns#"
   xmlns:svg="http://www.w3.org/2000/svg"
   xmlns="http://www.w3.org/2000/svg"
   xmlns:sodipodi="http://sodipodi.sourceforge.net/DTD/sodipodi-0.dtd"
   xmlns:inkscape="http://www.inkscape.org/namespaces/inkscape"
   version="1.1"
   id="svg5154"
   xml:space="preserve"
   width="200.06764"
   height="294.78668"
   viewBox="0 0 200.06764 294.78668"
   sodipodi:docname="figSStructStenc1.svg"
   inkscape:version="0.92.2 (5c3e80d, 2017-08-06)"><metadata
     id="metadata5160"><rdf:RDF><cc:Work
         rdf:about=""><dc:format>image/svg+xml</dc:format><dc:type
           rdf:resource="http://purl.org/dc/dcmitype/StillImage" /><dc:title></dc:title></cc:Work></rdf:RDF></metadata><defs
     id="defs5158" /><sodipodi:namedview
     pagecolor="#ffffff"
     bordercolor="#666666"
     borderopacity="1"
     objecttolerance="10"
     gridtolerance="10"
     guidetolerance="10"
     inkscape:pageopacity="0"
     inkscape:pageshadow="2"
     inkscape:window-width="1276"
     inkscape:window-height="988"
     id="namedview5156"
     showgrid="false"
     inkscape:zoom="2.6765116"
     inkscape:cx="100.03382"
     inkscape:cy="147.39335"
     inkscape:window-x="0"
     inkscape:window-y="0"
     inkscape:window-maximized="0"
     inkscape:current-layer="g5162" /><g
     id="g5162"
     inkscape:groupmode="layer"
     inkscape:label="figSStructStenc1"
     transform="matrix(1.3333333,0,0,-1.3333333,-4.732357,299.35999)"><g
       id="g5164"
       transform="scale(0.1)"><g
         id="g5166"><path
           d="M 35.9998,754.8 H 1477.2"
           style="fill:none;stroke:#000000;stroke-width:1;stroke-linecap:round;stroke-linejoin:round;stroke-miterlimit:10;stroke-dasharray:none;stroke-opacity:1"
           id="path5168"
           inkscape:connector-curvature="0" /><path
           d="M 40.7998,1474.8 H 1480.8"
           style="fill:none;stroke:#000000;stroke-width:1;stroke-linecap:round;stroke-linejoin:round;stroke-miterlimit:10;stroke-dasharray:none;stroke-opacity:1"
           id="path5170"
           inkscape:connector-curvature="0" /><path
           d="M 759.6,2194.8 V 38.3999"
           style="fill:none;stroke:#000000;stroke-width:1;stroke-linecap:round;stroke-linejoin:round;stroke-miterlimit:10;stroke-dasharray:none;stroke-opacity:1"
           id="path5172"
           inkscape:connector-curvature="0" /><path
           d="M 1480.8,2192.4 V 35.9998"
           style="fill:none;stroke:#000000;stroke-width:1;stroke-linecap:round;stroke-linejoin:round;stroke-miterlimit:10;stroke-dasharray:none;stroke-opacity:1"
           id="path5174"
           inkscape:connector-curvature="0" /><path
           d="M 44.3999,2194.8 H 1480.8"
           style="fill:none;stroke:#000000;stroke-width:1;stroke-linecap:round;stroke-linejoin:round;stroke-miterlimit:10;stroke-dasharray:none;stroke-opacity:1"
           id="path5176"
           inkscape:connector-curvature="0" /><path
           d="M 40.7998,2191.2 V 758.4"
           style="fill:none;stroke:#000000;stroke-width:1;stroke-linecap:round;stroke-linejoin:round;stroke-miterlimit:10;stroke-dasharray:none;stroke-opacity:1"
           id="path5178"
           inkscape:connector-curvature="0" /><path
           d="m 760.8,34.7998 h 724.8"
           style="fill:none;stroke:#000000;stroke-width:1;stroke-linecap:round;stroke-linejoin:round;stroke-miterlimit:10;stroke-dasharray:none;stroke-opacity:1"
           id="path5180"
           inkscape:connector-curvature="0" /><path
           d="M 1120.8,1834.8 V 1471.2"
           style="fill:none;stroke:#a0a0a4;stroke-width:30;stroke-linecap:round;stroke-linejoin:round;stroke-miterlimit:10;stroke-dasharray:none;stroke-opacity:1"
           id="path5182"
           inkscape:connector-curvature="0" /><path
           d="M 1124.4,1464 V 1100.4"
           style="fill:none;stroke:#a0a0a4;stroke-width:30;stroke-linecap:round;stroke-linejoin:round;stroke-miterlimit:10;stroke-dasharray:none;stroke-opacity:1"
           id="path5184"
           inkscape:connector-curvature="0" /><path
           d="m 1122,1470 361.2,362.4"
           style="fill:none;stroke:#a0a0a4;stroke-width:30;stroke-linecap:round;stroke-linejoin:round;stroke-miterlimit:10;stroke-dasharray:none;stroke-opacity:1"
           id="path5186"
           inkscape:connector-curvature="0" /><path
           d="M 765.6,1113.6 1126.8,1476"
           style="fill:none;stroke:#a0a0a4;stroke-width:30;stroke-linecap:round;stroke-linejoin:round;stroke-miterlimit:10;stroke-dasharray:none;stroke-opacity:1"
           id="path5188"
           inkscape:connector-curvature="0" /><path
           d="m 764.4,1826.4 362.4,-361.2"
           style="fill:none;stroke:#a0a0a4;stroke-width:30;stroke-linecap:round;stroke-linejoin:round;stroke-miterlimit:10;stroke-dasharray:none;stroke-opacity:1"
           id="path5190"
           inkscape:connector-curvature="0" /><path
           d="m 1124.4,1467.6 362.4,-361.2"
           style="fill:none;stroke:#a0a0a4;stroke-width:30;stroke-linecap:round;stroke-linejoin:round;stroke-miterlimit:10;stroke-dasharray:none;stroke-opacity:1"
           id="path5192"
           inkscape:connector-curvature="0" /><path
           d="m 1119.6,1878 h 3.6 l 6,-1.2 3.6,-1.2 3.6,-1.2 4.8,-1.2 2.4,-2.4 7.2,-6 6,-6 2.4,-2.4 1.2,-4.8 1.2,-3.6 1.2,-3.6 2.4,-6 v -7.2 l -2.4,-6 -1.2,-3.6 -1.2,-3.6 -1.2,-4.8 -2.4,-2.4 -6,-6 -7.2,-6 -2.4,-2.4 -4.8,-1.2 -3.6,-1.2 -3.6,-1.2 -6,-2.4 h -8.4 l -6,2.4 -3.6,1.2 -3.6,1.2 -4.8,1.2 -2.4,2.4 -7.2,6 -6,6 -2.4,2.4 -1.2,4.8 -1.2,3.6 -1.2,3.6 -1.2,6 v 7.2 l 1.2,6 1.2,3.6 1.2,3.6 1.2,4.8 2.4,2.4 6,6 7.2,6 2.4,2.4 4.8,1.2 3.6,1.2 3.6,1.2 6,1.2 h 4.8"
           style="fill:#000000;fill-opacity:1;fill-rule:evenodd;stroke:none"
           id="path5194"
           inkscape:connector-curvature="0" /><path
           d="m 1123.2,1154.4 h 3.6 l 6,-1.2 3.6,-1.2 3.6,-1.2 4.8,-1.2 2.4,-2.4 7.2,-6 6,-6 2.4,-2.4 1.2,-4.8 1.2,-3.6 1.2,-3.6 2.4,-6 v -7.2 l -2.4,-6 -1.2,-3.6 -1.2,-3.6 -1.2,-4.8 -2.4,-2.4 -6,-6 -7.2,-6 -2.4,-2.4 -4.8,-1.2 -3.6,-1.2 -3.6,-1.2 -6,-2.4 h -8.4 l -6,2.4 -3.6,1.2 -3.6,1.2 -4.8,1.2 -2.4,2.4 -7.2,6 -6,6 -2.4,2.4 -1.2,4.8 -1.2,3.6 -1.2,3.6 -1.2,6 v 7.2 l 1.2,6 1.2,3.6 1.2,3.6 1.2,4.8 2.4,2.4 6,6 7.2,6 2.4,2.4 4.8,1.2 3.6,1.2 3.6,1.2 6,1.2 h 4.8"
           style="fill:#000000;fill-opacity:1;fill-rule:evenodd;stroke:none"
           id="path5196"
           inkscape:connector-curvature="0" /><path
           d="M 1119.03,1459.02 C 966.772,1246.49 968.079,960.431 1122.28,749.302"
           style="fill:none;stroke:#a0a0a4;stroke-width:30;stroke-linecap:round;stroke-linejoin:round;stroke-miterlimit:10;stroke-dasharray:none;stroke-opacity:1"
           id="path5198"
           inkscape:connector-curvature="0" /><path
           d="M 1119.03,2179.02 C 966.772,1966.49 968.079,1680.43 1122.28,1469.3"
           style="fill:none;stroke:#a0a0a4;stroke-width:30;stroke-linecap:round;stroke-linejoin:round;stroke-miterlimit:10;stroke-dasharray:none;stroke-opacity:1"
           id="path5200"
           inkscape:connector-curvature="0" /><path
           d="m 1123.2,1510.8 h 3.6 l 6,-1.2 3.6,-1.2 3.6,-1.2 4.8,-1.2 2.4,-2.4 7.2,-6 6,-6 2.4,-2.4 1.2,-4.8 1.2,-3.6 1.2,-3.6 2.4,-6 v -7.2 l -2.4,-6 -1.2,-3.6 -1.2,-3.6 -1.2,-4.8 -2.4,-2.4 -6,-6 -7.2,-6 -2.4,-2.4 -4.8,-1.2 -3.6,-1.2 -3.6,-1.2 -6,-2.4 h -8.4 l -6,2.4 -3.6,1.2 -3.6,1.2 -4.8,1.2 -2.4,2.4 -7.2,6 -6,6 -2.4,2.4 -1.2,4.8 -1.2,3.6 -1.2,3.6 -1.2,6 v 7.2 l 1.2,6 1.2,3.6 1.2,3.6 1.2,4.8 2.4,2.4 6,6 7.2,6 2.4,2.4 4.8,1.2 3.6,1.2 3.6,1.2 6,1.2 h 4.8"
           style="fill:#000000;fill-opacity:1;fill-rule:evenodd;stroke:none"
           id="path5202"
           inkscape:connector-curvature="0" /><path
           d="m 1441.2,1783.2 94.8,48 -94.8,46.8 v -94.8"
           style="fill:#000000;fill-opacity:1;fill-rule:evenodd;stroke:none"
           id="path5204"
           inkscape:connector-curvature="0" /><path
           d="m 721.2,1786.8 94.8,48 -94.8,46.8 v -94.8"
           style="fill:#000000;fill-opacity:1;fill-rule:evenodd;stroke:none"
           id="path5206"
           inkscape:connector-curvature="0" /><path
           d="m 1441.2,1066.8 94.8,48 -94.8,46.8 v -94.8"
           style="fill:#000000;fill-opacity:1;fill-rule:evenodd;stroke:none"
           id="path5208"
           inkscape:connector-curvature="0" /><path
           d="m 721.2,1066.8 94.8,48 -94.8,46.8 v -94.8"
           style="fill:#000000;fill-opacity:1;fill-rule:evenodd;stroke:none"
           id="path5210"
           inkscape:connector-curvature="0" /><path
           d="m 1119.6,2245.2 -45.6,-92.4 h 92.4 l -46.8,92.4"
           style="fill:#000000;fill-opacity:1;fill-rule:evenodd;stroke:none"
           id="path5212"
           inkscape:connector-curvature="0" /><path
           d="M 1119.6,808.8 1074,716.4 h 92.4 l -46.8,92.4"
           style="fill:#000000;fill-opacity:1;fill-rule:evenodd;stroke:none"
           id="path5214"
           inkscape:connector-curvature="0" /><g
           id="g5216"
           transform="scale(10)"><text
             transform="matrix(0.836364,0,0,-1,24.6,179.52)"
             style="font-style:italic;font-variant:normal;font-size:13.75px;font-family:'Times New Roman';-inkscape-font-specification:Times-Italic;writing-mode:lr-tb;fill:#000000;fill-opacity:1;fill-rule:nonzero;stroke:none"
             id="text5224"><tspan
               x="0 4.5787401 9.1574802 16.03248 19.46998 26.34498 30.923719"
               y="0"
               sodipodi:role="line"
               id="tspan5218">(-1,1)</tspan><tspan
               x="1.9999999e-005 4.5787601 9.1575003 16.032499 19.469999 26.344999 30.92374"
               y="71.279999"
               sodipodi:role="line"
               id="tspan5220">(-1,0)</tspan><tspan
               x="86.086937 90.66568 97.54068 100.97818 105.55692 112.43192 117.01066"
               y="143.64"
               sodipodi:role="line"
               id="tspan5222">(0,-1)</tspan></text>
</g><path
           d="m 1196.4,1473.61 c -0.06,57.28 -61.99,93.02 -111.61,64.42 -49.61,-28.79 -49.52,-100.3 0.09,-128.91 49.66,-28.53 111.47,7.21 111.52,64.48"
           style="fill:#ffffff;fill-opacity:1;fill-rule:evenodd;stroke:none"
           id="path5226"
           inkscape:connector-curvature="0" /><g
           id="g5228"
           transform="scale(10)"><text
             transform="matrix(0.854545,0,0,-1,108.6,143.28)"
             style="font-style:italic;font-variant:normal;font-weight:bold;font-size:13.75px;font-family:'Times New Roman';-inkscape-font-specification:Times-BoldItalic;writing-mode:lr-tb;fill:#000000;fill-opacity:1;fill-rule:nonzero;stroke:none"
             id="text5232"><tspan
               x="0 6.875"
               y="0"
               sodipodi:role="line"
               id="tspan5230">0</tspan></text>
</g><path
           d="m 1117.2,904.814 c -0.06,57.271 -61.99,93.016 -111.61,64.414 -49.612,-28.784 -49.521,-100.293 0.09,-128.907 49.66,-28.534 111.47,7.208 111.52,64.479"
           style="fill:#ffffff;fill-opacity:1;fill-rule:evenodd;stroke:none"
           id="path5234"
           inkscape:connector-curvature="0" /><g
           id="g5236"
           transform="scale(10)"><text
             transform="matrix(0.854545,0,0,-1,100.68,86.4)"
             style="font-style:italic;font-variant:normal;font-weight:bold;font-size:13.75px;font-family:'Times New Roman';-inkscape-font-specification:Times-BoldItalic;writing-mode:lr-tb;fill:#000000;fill-opacity:1;fill-rule:nonzero;stroke:none"
             id="text5240"><tspan
               x="0 6.875"
               y="0"
               sodipodi:role="line"
               id="tspan5238">1</tspan></text>
</g><path
           d="m 1117.2,2024.41 c -0.06,57.27 -61.99,93.02 -111.61,64.42 -49.612,-28.79 -49.521,-100.3 0.09,-128.91 49.66,-28.53 111.47,7.21 111.52,64.48"
           style="fill:#ffffff;fill-opacity:1;fill-rule:evenodd;stroke:none"
           id="path5242"
           inkscape:connector-curvature="0" /><g
           id="g5244"
           transform="scale(10)"><text
             transform="matrix(0.854545,0,0,-1,100.68,198.36)"
             style="font-style:italic;font-variant:normal;font-weight:bold;font-size:13.75px;font-family:'Times New Roman';-inkscape-font-specification:Times-BoldItalic;writing-mode:lr-tb;fill:#000000;fill-opacity:1;fill-rule:nonzero;stroke:none"
             id="text5248"><tspan
               x="0 6.875"
               y="0"
               sodipodi:role="line"
               id="tspan5246">2</tspan></text>
</g><path
           d="m 1196.4,1268.41 c -0.06,57.27 -61.99,93.02 -111.61,64.42 -49.61,-28.79 -49.52,-100.3 0.09,-128.91 49.66,-28.53 111.47,7.21 111.52,64.48"
           style="fill:#ffffff;fill-opacity:1;fill-rule:evenodd;stroke:none"
           id="path5250"
           inkscape:connector-curvature="0" /><g
           id="g5252"
           transform="scale(10)"><text
             transform="matrix(0.854545,0,0,-1,108.6,122.76)"
             style="font-style:italic;font-variant:normal;font-weight:bold;font-size:13.75px;font-family:'Times New Roman';-inkscape-font-specification:Times-BoldItalic;writing-mode:lr-tb;fill:#000000;fill-opacity:1;fill-rule:nonzero;stroke:none"
             id="text5256"><tspan
               x="0 6.875"
               y="0"
               sodipodi:role="line"
               id="tspan5254">3</tspan></text>
</g><path
           d="m 1192.8,1671.61 c -0.06,57.28 -61.99,93.02 -111.61,64.42 -49.61,-28.79 -49.52,-100.3 0.09,-128.91 49.66,-28.53 111.47,7.21 111.52,64.48"
           style="fill:#ffffff;fill-opacity:1;fill-rule:evenodd;stroke:none"
           id="path5258"
           inkscape:connector-curvature="0" /><g
           id="g5260"
           transform="scale(10)"><text
             transform="matrix(0.854545,0,0,-1,108.24,163.08)"
             style="font-style:italic;font-variant:normal;font-weight:bold;font-size:13.75px;font-family:'Times New Roman';-inkscape-font-specification:Times-BoldItalic;writing-mode:lr-tb;fill:#000000;fill-opacity:1;fill-rule:nonzero;stroke:none"
             id="text5264"><tspan
               x="0 6.875"
               y="0"
               sodipodi:role="line"
               id="tspan5262">4</tspan></text>
</g><path
           d="m 955.2,1232.41 c -0.056,57.28 -61.99,93.02 -111.608,64.42 -49.614,-28.79 -49.523,-100.3 0.088,-128.91 49.657,-28.53 111.474,7.21 111.52,64.48"
           style="fill:#ffffff;fill-opacity:1;fill-rule:evenodd;stroke:none"
           id="path5266"
           inkscape:connector-curvature="0" /><g
           id="g5268"
           transform="scale(10)"><text
             transform="matrix(0.854545,0,0,-1,84.48,119.16)"
             style="font-style:italic;font-variant:normal;font-weight:bold;font-size:13.75px;font-family:'Times New Roman';-inkscape-font-specification:Times-BoldItalic;writing-mode:lr-tb;fill:#000000;fill-opacity:1;fill-rule:nonzero;stroke:none"
             id="text5272"><tspan
               x="0 6.875"
               y="0"
               sodipodi:role="line"
               id="tspan5270">5</tspan></text>
</g><path
           d="m 1430.4,1236.01 c -0.06,57.27 -61.99,93.02 -111.61,64.42 -49.61,-28.79 -49.52,-100.3 0.09,-128.91 49.66,-28.53 111.47,7.21 111.52,64.48"
           style="fill:#ffffff;fill-opacity:1;fill-rule:evenodd;stroke:none"
           id="path5274"
           inkscape:connector-curvature="0" /><g
           id="g5276"
           transform="scale(10)"><text
             transform="matrix(0.854545,0,0,-1,132,119.52)"
             style="font-style:italic;font-variant:normal;font-weight:bold;font-size:13.75px;font-family:'Times New Roman';-inkscape-font-specification:Times-BoldItalic;writing-mode:lr-tb;fill:#000000;fill-opacity:1;fill-rule:nonzero;stroke:none"
             id="text5280"><tspan
               x="0 6.875"
               y="0"
               sodipodi:role="line"
               id="tspan5278">6</tspan></text>
</g><path
           d="m 955.2,1696.81 c -0.056,57.27 -61.99,93.02 -111.608,64.42 -49.614,-28.79 -49.523,-100.29 0.088,-128.91 49.657,-28.53 111.474,7.21 111.52,64.48"
           style="fill:#ffffff;fill-opacity:1;fill-rule:evenodd;stroke:none"
           id="path5282"
           inkscape:connector-curvature="0" /><g
           id="g5284"
           transform="scale(10)"><text
             transform="matrix(0.854545,0,0,-1,84.48,165.6)"
             style="font-style:italic;font-variant:normal;font-weight:bold;font-size:13.75px;font-family:'Times New Roman';-inkscape-font-specification:Times-BoldItalic;writing-mode:lr-tb;fill:#000000;fill-opacity:1;fill-rule:nonzero;stroke:none"
             id="text5288"><tspan
               x="0 6.875"
               y="0"
               sodipodi:role="line"
               id="tspan5286">7</tspan></text>
</g><path
           d="m 1423.2,1696.81 c -0.06,57.27 -61.99,93.02 -111.61,64.42 -49.61,-28.79 -49.52,-100.29 0.09,-128.91 49.66,-28.53 111.47,7.21 111.52,64.48"
           style="fill:#ffffff;fill-opacity:1;fill-rule:evenodd;stroke:none"
           id="path5290"
           inkscape:connector-curvature="0" /><g
           id="g5292"
           transform="scale(10)"><text
             transform="matrix(0.854545,0,0,-1,131.28,165.6)"
             style="font-style:italic;font-variant:normal;font-weight:bold;font-size:13.75px;font-family:'Times New Roman';-inkscape-font-specification:Times-BoldItalic;writing-mode:lr-tb;fill:#000000;fill-opacity:1;fill-rule:nonzero;stroke:none"
             id="text5296"><tspan
               x="0 6.875"
               y="0"
               sodipodi:role="line"
               id="tspan5294">8</tspan></text>
</g></g></g></g></svg>