<?xml version="1.0" encoding="UTF-8" standalone="no"?>
<!-- Created with Inkscape (http://www.inkscape.org/) -->

<svg
   xmlns:dc="http://purl.org/dc/elements/1.1/"
   xmlns:cc="http://creativecommons.org/ns#"
   xmlns:rdf="http://www.w3.org/1999/02/22-rdf-syntax-ns#"
   xmlns:svg="http://www.w3.org/2000/svg"
   xmlns="http://www.w3.org/2000/svg"
   xmlns:sodipodi="http://sodipodi.sourceforge.net/DTD/sodipodi-0.dtd"
   xmlns:inkscape="http://www.inkscape.org/namespaces/inkscape"
   version="1.1"
   id="svg6560"
   xml:space="preserve"
   width="243.3532"
   height="240.81041"
   viewBox="0 0 243.3532 240.81041"
   sodipodi:docname="figStructGrid4.svg"
   inkscape:version="0.92.2 (5c3e80d, 2017-08-06)"><metadata
     id="metadata6566"><rdf:RDF><cc:Work
         rdf:about=""><dc:format>image/svg+xml</dc:format><dc:type
           rdf:resource="http://purl.org/dc/dcmitype/StillImage" /><dc:title></dc:title></cc:Work></rdf:RDF></metadata><defs
     id="defs6564" /><sodipodi:namedview
     pagecolor="#ffffff"
     bordercolor="#666666"
     borderopacity="1"
     objecttolerance="10"
     gridtolerance="10"
     guidetolerance="10"
     inkscape:pageopacity="0"
     inkscape:pageshadow="2"
     inkscape:window-width="1191"
     inkscape:window-height="966"
     id="namedview6562"
     showgrid="false"
     inkscape:zoom="3.1850782"
     inkscape:cx="121.6766"
     inkscape:cy="120.40521"
     inkscape:window-x="0"
     inkscape:window-y="0"
     inkscape:window-maximized="0"
     inkscape:current-layer="g6568" /><g
     id="g6568"
     inkscape:groupmode="layer"
     inkscape:label="figStructGrid4"
     transform="matrix(1.3333333,0,0,-1.3333333,-6.1681641,247.92949)"><g
       id="g6570"
       transform="scale(0.1)"><g
         id="g6572"><g
           id="g6574"
           transform="scale(10)"><text
             transform="matrix(0.836364,0,0,-1,3.83999,8.27998)"
             style="font-style:italic;font-variant:normal;font-size:13.75px;font-family:'Times New Roman';-inkscape-font-specification:Times-Italic;writing-mode:lr-tb;fill:#000000;fill-opacity:1;fill-rule:nonzero;stroke:none"
             id="text6578"><tspan
               x="0 4.5787401 9.1574802 16.03248 19.46998 26.34498 30.923719"
               y="0"
               sodipodi:role="line"
               id="tspan6576">(-3,1)</tspan></text>
</g><path
           d="M 360,956.4 V 357.6"
           style="fill:none;stroke:#000000;stroke-width:7.5;stroke-linecap:round;stroke-linejoin:round;stroke-miterlimit:10;stroke-dasharray:none;stroke-opacity:1"
           id="path6580"
           inkscape:connector-curvature="0" /><path
           d="M 660,956.4 V 357.6"
           style="fill:none;stroke:#000000;stroke-width:7.5;stroke-linecap:round;stroke-linejoin:round;stroke-miterlimit:10;stroke-dasharray:none;stroke-opacity:1"
           id="path6582"
           inkscape:connector-curvature="0" /><path
           d="M 960,956.4 V 357.6"
           style="fill:none;stroke:#000000;stroke-width:7.5;stroke-linecap:round;stroke-linejoin:round;stroke-miterlimit:10;stroke-dasharray:none;stroke-opacity:1"
           id="path6584"
           inkscape:connector-curvature="0" /><path
           d="M 1260,1556.4 V 357.6"
           style="fill:none;stroke:#000000;stroke-width:7.5;stroke-linecap:round;stroke-linejoin:round;stroke-miterlimit:10;stroke-dasharray:none;stroke-opacity:1"
           id="path6586"
           inkscape:connector-curvature="0" /><path
           d="M 1560,1556.4 V 357.6"
           style="fill:none;stroke:#000000;stroke-width:7.5;stroke-linecap:round;stroke-linejoin:round;stroke-miterlimit:10;stroke-dasharray:none;stroke-opacity:1"
           id="path6588"
           inkscape:connector-curvature="0" /><path
           d="M 1860,1556.4 V 357.6"
           style="fill:none;stroke:#000000;stroke-width:7.5;stroke-linecap:round;stroke-linejoin:round;stroke-miterlimit:10;stroke-dasharray:none;stroke-opacity:1"
           id="path6590"
           inkscape:connector-curvature="0" /><path
           d="M 60,657.6 H 960"
           style="fill:none;stroke:#000000;stroke-width:7.5;stroke-linecap:round;stroke-linejoin:round;stroke-miterlimit:10;stroke-dasharray:none;stroke-opacity:1"
           id="path6592"
           inkscape:connector-curvature="0" /><path
           d="m 960,357.6 h 900"
           style="fill:none;stroke:#000000;stroke-width:22.5;stroke-linecap:round;stroke-linejoin:round;stroke-miterlimit:10;stroke-dasharray:none;stroke-opacity:1"
           id="path6594"
           inkscape:connector-curvature="0" /><path
           d="m 960,1256.4 h 900"
           style="fill:none;stroke:#000000;stroke-width:7.5;stroke-linecap:round;stroke-linejoin:round;stroke-miterlimit:10;stroke-dasharray:none;stroke-opacity:1"
           id="path6596"
           inkscape:connector-curvature="0" /><path
           d="m 960,956.4 h 900"
           style="fill:none;stroke:#000000;stroke-width:7.5;stroke-linecap:round;stroke-linejoin:round;stroke-miterlimit:10;stroke-dasharray:none;stroke-opacity:1"
           id="path6598"
           inkscape:connector-curvature="0" /><path
           d="m 961.2,657.6 h 897.6"
           style="fill:none;stroke:#000000;stroke-width:7.5;stroke-linecap:round;stroke-linejoin:round;stroke-miterlimit:10;stroke-dasharray:none;stroke-opacity:1"
           id="path6600"
           inkscape:connector-curvature="0" /><path
           d="m 1106.4,537.6 h 3.6"
           style="fill:none;stroke:#000000;stroke-width:7.5;stroke-linecap:round;stroke-linejoin:round;stroke-miterlimit:10;stroke-dasharray:none;stroke-opacity:1"
           id="path6602"
           inkscape:connector-curvature="0" /><path
           d="m 1110,537.6 3.6,-1.2"
           style="fill:none;stroke:#000000;stroke-width:7.5;stroke-linecap:round;stroke-linejoin:round;stroke-miterlimit:10;stroke-dasharray:none;stroke-opacity:1"
           id="path6604"
           inkscape:connector-curvature="0" /><path
           d="m 1113.6,536.4 2.4,-1.2"
           style="fill:none;stroke:#000000;stroke-width:7.5;stroke-linecap:round;stroke-linejoin:round;stroke-miterlimit:10;stroke-dasharray:none;stroke-opacity:1"
           id="path6606"
           inkscape:connector-curvature="0" /><path
           d="m 1116,535.2 3.6,-2.4"
           style="fill:none;stroke:#000000;stroke-width:7.5;stroke-linecap:round;stroke-linejoin:round;stroke-miterlimit:10;stroke-dasharray:none;stroke-opacity:1"
           id="path6608"
           inkscape:connector-curvature="0" /><path
           d="m 1702.8,532.8 1.2,-2.4"
           style="fill:none;stroke:#000000;stroke-width:7.5;stroke-linecap:round;stroke-linejoin:round;stroke-miterlimit:10;stroke-dasharray:none;stroke-opacity:1"
           id="path6610"
           inkscape:connector-curvature="0" /><path
           d="m 1704,530.4 2.4,-2.4"
           style="fill:none;stroke:#000000;stroke-width:7.5;stroke-linecap:round;stroke-linejoin:round;stroke-miterlimit:10;stroke-dasharray:none;stroke-opacity:1"
           id="path6612"
           inkscape:connector-curvature="0" /><path
           d="m 1706.4,528 1.2,-3.6"
           style="fill:none;stroke:#000000;stroke-width:7.5;stroke-linecap:round;stroke-linejoin:round;stroke-miterlimit:10;stroke-dasharray:none;stroke-opacity:1"
           id="path6614"
           inkscape:connector-curvature="0" /><path
           d="m 1707.6,524.4 v -3.6"
           style="fill:none;stroke:#000000;stroke-width:7.5;stroke-linecap:round;stroke-linejoin:round;stroke-miterlimit:10;stroke-dasharray:none;stroke-opacity:1"
           id="path6616"
           inkscape:connector-curvature="0" /><path
           d="m 1707.6,520.8 v -3.6"
           style="fill:none;stroke:#000000;stroke-width:7.5;stroke-linecap:round;stroke-linejoin:round;stroke-miterlimit:10;stroke-dasharray:none;stroke-opacity:1"
           id="path6618"
           inkscape:connector-curvature="0" /><path
           d="m 1707.6,517.2 -1.2,-3.6"
           style="fill:none;stroke:#000000;stroke-width:7.5;stroke-linecap:round;stroke-linejoin:round;stroke-miterlimit:10;stroke-dasharray:none;stroke-opacity:1"
           id="path6620"
           inkscape:connector-curvature="0" /><path
           d="m 1706.4,513.6 -2.4,-2.4"
           style="fill:none;stroke:#000000;stroke-width:7.5;stroke-linecap:round;stroke-linejoin:round;stroke-miterlimit:10;stroke-dasharray:none;stroke-opacity:1"
           id="path6622"
           inkscape:connector-curvature="0" /><path
           d="m 1704,511.2 -1.2,-3.6"
           style="fill:none;stroke:#000000;stroke-width:7.5;stroke-linecap:round;stroke-linejoin:round;stroke-miterlimit:10;stroke-dasharray:none;stroke-opacity:1"
           id="path6624"
           inkscape:connector-curvature="0" /><g
           id="g6626"
           transform="scale(10)"><text
             transform="matrix(0.836364,0,0,-1,156.24,176.4)"
             style="font-style:italic;font-variant:normal;font-size:13.75px;font-family:'Times New Roman';-inkscape-font-specification:Times-Italic;writing-mode:lr-tb;fill:#000000;fill-opacity:1;fill-rule:nonzero;stroke:none"
             id="text6630"><tspan
               x="0 4.5787401 11.45374 14.89124 21.766239 26.34498"
               y="0"
               sodipodi:role="line"
               id="tspan6628">(2,4)</tspan></text>
</g><path
           d="m 198,537.6 h 3.6 l 3.6,-1.2 2.4,-1.2 3.6,-2.4 1.2,-2.4 2.4,-2.4 2.4,-3.6 v -7.2 l -2.4,-3.6 -2.4,-2.4 -1.2,-3.6 -3.6,-1.2 -2.4,-2.4 h -3.6 l -3.6,-2.4 -3.6,2.4 h -3.6 l -2.4,2.4 -3.6,1.2 -2.4,3.6 -1.2,2.4 -1.2,3.6 v 7.2 l 1.2,3.6 1.2,2.4 2.4,2.4 3.6,2.4 2.4,1.2 3.6,1.2 h 3.6"
           style="fill:#000000;fill-opacity:1;fill-rule:evenodd;stroke:none"
           id="path6632"
           inkscape:connector-curvature="0" /><path
           d="m 198,537.6 h 3.6 l 3.6,-1.2 2.4,-1.2 3.6,-2.4 1.2,-2.4 2.4,-2.4 1.2,-3.6 v -7.2 l -1.2,-3.6 -2.4,-2.4 -1.2,-3.6 -3.6,-1.2 -2.4,-2.4 h -3.6 l -3.6,-1.2 -3.6,1.2 h -3.6 l -2.4,2.4 -3.6,1.2 -2.4,3.6 -1.2,2.4 -1.2,3.6 v 7.2 l 1.2,3.6 1.2,2.4 2.4,2.4 3.6,2.4 2.4,1.2 3.6,1.2 z"
           style="fill:none;stroke:#000000;stroke-width:7.5;stroke-linecap:round;stroke-linejoin:round;stroke-miterlimit:10;stroke-dasharray:none;stroke-opacity:1"
           id="path6634"
           inkscape:connector-curvature="0" /><path
           d="m 198,537.6 h 3.6 l 3.6,-1.2 2.4,-1.2 3.6,-2.4 1.2,-2.4 2.4,-2.4 1.2,-3.6 v -7.2 l -1.2,-3.6 -2.4,-2.4 -1.2,-3.6 -3.6,-1.2 -2.4,-2.4 h -3.6 l -3.6,-1.2 -3.6,1.2 h -3.6 l -2.4,2.4 -3.6,1.2 -2.4,3.6 -1.2,2.4 -1.2,3.6 v 7.2 l 1.2,3.6 1.2,2.4 2.4,2.4 3.6,2.4 2.4,1.2 3.6,1.2 z"
           style="fill:none;stroke:#000000;stroke-width:7.5;stroke-linecap:round;stroke-linejoin:round;stroke-miterlimit:10;stroke-dasharray:none;stroke-opacity:1"
           id="path6636"
           inkscape:connector-curvature="0" /><path
           d="m 498,537.6 h 3.6 l 3.6,-1.2 2.4,-1.2 3.6,-2.4 1.2,-2.4 2.4,-2.4 2.4,-3.6 v -7.2 l -2.4,-3.6 -2.4,-2.4 -1.2,-3.6 -3.6,-1.2 -2.4,-2.4 h -3.6 l -3.6,-2.4 -3.6,2.4 h -3.6 l -2.4,2.4 -3.6,1.2 -2.4,3.6 -1.2,2.4 -1.2,3.6 v 7.2 l 1.2,3.6 1.2,2.4 2.4,2.4 3.6,2.4 2.4,1.2 3.6,1.2 h 3.6"
           style="fill:#000000;fill-opacity:1;fill-rule:evenodd;stroke:none"
           id="path6638"
           inkscape:connector-curvature="0" /><path
           d="m 498,537.6 h 3.6 l 3.6,-1.2 2.4,-1.2 3.6,-2.4 1.2,-2.4 2.4,-2.4 1.2,-3.6 v -7.2 l -1.2,-3.6 -2.4,-2.4 -1.2,-3.6 -3.6,-1.2 -2.4,-2.4 h -3.6 l -3.6,-1.2 -3.6,1.2 h -3.6 l -2.4,2.4 -3.6,1.2 -2.4,3.6 -1.2,2.4 -1.2,3.6 v 7.2 l 1.2,3.6 1.2,2.4 2.4,2.4 3.6,2.4 2.4,1.2 3.6,1.2 z"
           style="fill:none;stroke:#000000;stroke-width:7.5;stroke-linecap:round;stroke-linejoin:round;stroke-miterlimit:10;stroke-dasharray:none;stroke-opacity:1"
           id="path6640"
           inkscape:connector-curvature="0" /><path
           d="m 498,537.6 h 3.6 l 3.6,-1.2 2.4,-1.2 3.6,-2.4 1.2,-2.4 2.4,-2.4 1.2,-3.6 v -7.2 l -1.2,-3.6 -2.4,-2.4 -1.2,-3.6 -3.6,-1.2 -2.4,-2.4 h -3.6 l -3.6,-1.2 -3.6,1.2 h -3.6 l -2.4,2.4 -3.6,1.2 -2.4,3.6 -1.2,2.4 -1.2,3.6 v 7.2 l 1.2,3.6 1.2,2.4 2.4,2.4 3.6,2.4 2.4,1.2 3.6,1.2 z"
           style="fill:none;stroke:#000000;stroke-width:7.5;stroke-linecap:round;stroke-linejoin:round;stroke-miterlimit:10;stroke-dasharray:none;stroke-opacity:1"
           id="path6642"
           inkscape:connector-curvature="0" /><path
           d="m 1098,537.6 h 3.6 l 3.6,-1.2 2.4,-1.2 3.6,-2.4 1.2,-2.4 2.4,-2.4 2.4,-3.6 v -7.2 l -2.4,-3.6 -2.4,-2.4 -1.2,-3.6 -3.6,-1.2 -2.4,-2.4 h -3.6 l -3.6,-2.4 -3.6,2.4 h -3.6 l -2.4,2.4 -3.6,1.2 -2.4,3.6 -1.2,2.4 -1.2,3.6 v 7.2 l 1.2,3.6 1.2,2.4 2.4,2.4 3.6,2.4 2.4,1.2 3.6,1.2 h 3.6"
           style="fill:#000000;fill-opacity:1;fill-rule:evenodd;stroke:none"
           id="path6644"
           inkscape:connector-curvature="0" /><path
           d="m 1098,537.6 h 3.6 l 3.6,-1.2 2.4,-1.2 3.6,-2.4 1.2,-2.4 2.4,-2.4 1.2,-3.6 v -7.2 l -1.2,-3.6 -2.4,-2.4 -1.2,-3.6 -3.6,-1.2 -2.4,-2.4 h -3.6 l -3.6,-1.2 -3.6,1.2 h -3.6 l -2.4,2.4 -3.6,1.2 -2.4,3.6 -1.2,2.4 -1.2,3.6 v 7.2 l 1.2,3.6 1.2,2.4 2.4,2.4 3.6,2.4 2.4,1.2 3.6,1.2 z"
           style="fill:none;stroke:#000000;stroke-width:7.5;stroke-linecap:round;stroke-linejoin:round;stroke-miterlimit:10;stroke-dasharray:none;stroke-opacity:1"
           id="path6646"
           inkscape:connector-curvature="0" /><path
           d="m 1098,537.6 h -3.6 l -3.6,-1.2 -2.4,-1.2 -3.6,-2.4 -2.4,-2.4 -1.2,-2.4 -1.2,-3.6 v -7.2 l 1.2,-3.6 1.2,-2.4 2.4,-3.6 3.6,-1.2 2.4,-2.4 h 3.6 l 3.6,-1.2 3.6,1.2 h 3.6 l 2.4,2.4 3.6,1.2 1.2,3.6 2.4,2.4 1.2,3.6 v 7.2 l -1.2,3.6 -2.4,2.4 -1.2,2.4"
           style="fill:none;stroke:#000000;stroke-width:7.5;stroke-linecap:round;stroke-linejoin:round;stroke-miterlimit:10;stroke-dasharray:none;stroke-opacity:1"
           id="path6648"
           inkscape:connector-curvature="0" /><path
           d="m 1398,537.6 h 3.6 l 3.6,-1.2 2.4,-1.2 3.6,-2.4 1.2,-2.4 2.4,-2.4 2.4,-3.6 v -7.2 l -2.4,-3.6 -2.4,-2.4 -1.2,-3.6 -3.6,-1.2 -2.4,-2.4 h -3.6 l -3.6,-2.4 -3.6,2.4 h -3.6 l -2.4,2.4 -3.6,1.2 -2.4,3.6 -1.2,2.4 -1.2,3.6 v 7.2 l 1.2,3.6 1.2,2.4 2.4,2.4 3.6,2.4 2.4,1.2 3.6,1.2 h 3.6"
           style="fill:#000000;fill-opacity:1;fill-rule:evenodd;stroke:none"
           id="path6650"
           inkscape:connector-curvature="0" /><path
           d="m 1398,537.6 h 3.6 l 3.6,-1.2 2.4,-1.2 3.6,-2.4 1.2,-2.4 2.4,-2.4 1.2,-3.6 v -7.2 l -1.2,-3.6 -2.4,-2.4 -1.2,-3.6 -3.6,-1.2 -2.4,-2.4 h -3.6 l -3.6,-1.2 -3.6,1.2 h -3.6 l -2.4,2.4 -3.6,1.2 -2.4,3.6 -1.2,2.4 -1.2,3.6 v 7.2 l 1.2,3.6 1.2,2.4 2.4,2.4 3.6,2.4 2.4,1.2 3.6,1.2 z"
           style="fill:none;stroke:#000000;stroke-width:7.5;stroke-linecap:round;stroke-linejoin:round;stroke-miterlimit:10;stroke-dasharray:none;stroke-opacity:1"
           id="path6652"
           inkscape:connector-curvature="0" /><path
           d="m 1398,537.6 h 3.6 l 3.6,-1.2 2.4,-1.2 3.6,-2.4 1.2,-2.4 2.4,-2.4 1.2,-3.6 v -7.2 l -1.2,-3.6 -2.4,-2.4 -1.2,-3.6 -3.6,-1.2 -2.4,-2.4 h -3.6 l -3.6,-1.2 -3.6,1.2 h -3.6 l -2.4,2.4 -3.6,1.2 -2.4,3.6 -1.2,2.4 -1.2,3.6 v 7.2 l 1.2,3.6 1.2,2.4 2.4,2.4 3.6,2.4 2.4,1.2 3.6,1.2 z"
           style="fill:none;stroke:#000000;stroke-width:7.5;stroke-linecap:round;stroke-linejoin:round;stroke-miterlimit:10;stroke-dasharray:none;stroke-opacity:1"
           id="path6654"
           inkscape:connector-curvature="0" /><path
           d="m 798,537.6 h 3.6 l 3.6,-1.2 2.4,-1.2 3.6,-2.4 1.2,-2.4 2.4,-2.4 2.4,-3.6 v -7.2 l -2.4,-3.6 -2.4,-2.4 -1.2,-3.6 -3.6,-1.2 -2.4,-2.4 h -3.6 l -3.6,-2.4 -3.6,2.4 h -3.6 l -2.4,2.4 -3.6,1.2 -2.4,3.6 -1.2,2.4 -1.2,3.6 v 7.2 l 1.2,3.6 1.2,2.4 2.4,2.4 3.6,2.4 2.4,1.2 3.6,1.2 h 3.6"
           style="fill:#000000;fill-opacity:1;fill-rule:evenodd;stroke:none"
           id="path6656"
           inkscape:connector-curvature="0" /><path
           d="m 798,537.6 h 3.6 l 3.6,-1.2 2.4,-1.2 3.6,-2.4 1.2,-2.4 2.4,-2.4 1.2,-3.6 v -7.2 l -1.2,-3.6 -2.4,-2.4 -1.2,-3.6 -3.6,-1.2 -2.4,-2.4 h -3.6 l -3.6,-1.2 -3.6,1.2 h -3.6 l -2.4,2.4 -3.6,1.2 -2.4,3.6 -1.2,2.4 -1.2,3.6 v 7.2 l 1.2,3.6 1.2,2.4 2.4,2.4 3.6,2.4 2.4,1.2 3.6,1.2 z"
           style="fill:none;stroke:#000000;stroke-width:7.5;stroke-linecap:round;stroke-linejoin:round;stroke-miterlimit:10;stroke-dasharray:none;stroke-opacity:1"
           id="path6658"
           inkscape:connector-curvature="0" /><path
           d="m 798,537.6 h 3.6 l 3.6,-1.2 2.4,-1.2 3.6,-2.4 1.2,-2.4 2.4,-2.4 1.2,-3.6 v -7.2 l -1.2,-3.6 -2.4,-2.4 -1.2,-3.6 -3.6,-1.2 -2.4,-2.4 h -3.6 l -3.6,-1.2 -3.6,1.2 h -3.6 l -2.4,2.4 -3.6,1.2 -2.4,3.6 -1.2,2.4 -1.2,3.6 v 7.2 l 1.2,3.6 1.2,2.4 2.4,2.4 3.6,2.4 2.4,1.2 3.6,1.2 z"
           style="fill:none;stroke:#000000;stroke-width:7.5;stroke-linecap:round;stroke-linejoin:round;stroke-miterlimit:10;stroke-dasharray:none;stroke-opacity:1"
           id="path6660"
           inkscape:connector-curvature="0" /><path
           d="m 1698,537.6 h 3.6 l 3.6,-1.2 2.4,-1.2 3.6,-2.4 1.2,-2.4 2.4,-2.4 2.4,-3.6 v -7.2 l -2.4,-3.6 -2.4,-2.4 -1.2,-3.6 -3.6,-1.2 -2.4,-2.4 h -3.6 l -3.6,-2.4 -3.6,2.4 h -3.6 l -2.4,2.4 -3.6,1.2 -2.4,3.6 -1.2,2.4 -1.2,3.6 v 7.2 l 1.2,3.6 1.2,2.4 2.4,2.4 3.6,2.4 2.4,1.2 3.6,1.2 h 3.6"
           style="fill:#000000;fill-opacity:1;fill-rule:evenodd;stroke:none"
           id="path6662"
           inkscape:connector-curvature="0" /><path
           d="m 1698,537.6 h 3.6 l 3.6,-1.2 2.4,-1.2 3.6,-2.4 1.2,-2.4 2.4,-2.4 1.2,-3.6 v -7.2 l -1.2,-3.6 -2.4,-2.4 -1.2,-3.6 -3.6,-1.2 -2.4,-2.4 h -3.6 l -3.6,-1.2 -3.6,1.2 h -3.6 l -2.4,2.4 -3.6,1.2 -2.4,3.6 -1.2,2.4 -1.2,3.6 v 7.2 l 1.2,3.6 1.2,2.4 2.4,2.4 3.6,2.4 2.4,1.2 3.6,1.2 z"
           style="fill:none;stroke:#000000;stroke-width:7.5;stroke-linecap:round;stroke-linejoin:round;stroke-miterlimit:10;stroke-dasharray:none;stroke-opacity:1"
           id="path6664"
           inkscape:connector-curvature="0" /><path
           d="m 1698,537.6 h -3.6 l -3.6,-1.2 -2.4,-1.2 -3.6,-2.4 -2.4,-2.4 -1.2,-2.4 -1.2,-3.6 v -7.2 l 1.2,-3.6 1.2,-2.4 2.4,-3.6 3.6,-1.2 2.4,-2.4 h 3.6 l 3.6,-1.2 3.6,1.2 h 3.6 l 2.4,2.4 3.6,1.2"
           style="fill:none;stroke:#000000;stroke-width:7.5;stroke-linecap:round;stroke-linejoin:round;stroke-miterlimit:10;stroke-dasharray:none;stroke-opacity:1"
           id="path6666"
           inkscape:connector-curvature="0" /><path
           d="m 198,837.6 h 3.6 l 3.6,-1.2 2.4,-1.2 3.6,-2.4 1.2,-2.4 2.4,-2.4 2.4,-3.6 v -7.2 l -2.4,-3.6 -2.4,-2.4 -1.2,-2.4 -3.6,-2.4 -2.4,-2.4 h -3.6 l -3.6,-2.4 -3.6,2.4 h -3.6 l -2.4,2.4 -3.6,2.4 -2.4,2.4 -1.2,2.4 -1.2,3.6 v 7.2 l 1.2,3.6 1.2,2.4 2.4,2.4 3.6,2.4 2.4,1.2 3.6,1.2 h 3.6"
           style="fill:#000000;fill-opacity:1;fill-rule:evenodd;stroke:none"
           id="path6668"
           inkscape:connector-curvature="0" /><path
           d="m 198,837.6 h 3.6 l 3.6,-1.2 2.4,-1.2 3.6,-2.4 1.2,-2.4 2.4,-2.4 1.2,-3.6 v -7.2 l -1.2,-3.6 -2.4,-2.4 -1.2,-2.4 -3.6,-2.4 -2.4,-2.4 h -3.6 l -3.6,-1.2 -3.6,1.2 h -3.6 l -2.4,2.4 -3.6,2.4 -2.4,2.4 -1.2,2.4 -1.2,3.6 v 7.2 l 1.2,3.6 1.2,2.4 2.4,2.4 3.6,2.4 2.4,1.2 3.6,1.2 z"
           style="fill:none;stroke:#000000;stroke-width:7.5;stroke-linecap:round;stroke-linejoin:round;stroke-miterlimit:10;stroke-dasharray:none;stroke-opacity:1"
           id="path6670"
           inkscape:connector-curvature="0" /><path
           d="m 198,837.6 h 3.6 l 3.6,-1.2 2.4,-1.2 3.6,-2.4 1.2,-2.4 2.4,-2.4 1.2,-3.6 v -7.2 l -1.2,-3.6 -2.4,-2.4 -1.2,-2.4 -3.6,-2.4 -2.4,-2.4 h -3.6 l -3.6,-1.2 -3.6,1.2 h -3.6 l -2.4,2.4 -3.6,2.4 -2.4,2.4 -1.2,2.4 -1.2,3.6 v 7.2 l 1.2,3.6 1.2,2.4 2.4,2.4 3.6,2.4 2.4,1.2 3.6,1.2 z"
           style="fill:none;stroke:#000000;stroke-width:7.5;stroke-linecap:round;stroke-linejoin:round;stroke-miterlimit:10;stroke-dasharray:none;stroke-opacity:1"
           id="path6672"
           inkscape:connector-curvature="0" /><path
           d="m 498,837.6 h 3.6 l 3.6,-1.2 2.4,-1.2 3.6,-2.4 1.2,-2.4 2.4,-2.4 2.4,-3.6 v -7.2 l -2.4,-3.6 -2.4,-2.4 -1.2,-2.4 -3.6,-2.4 -2.4,-2.4 h -3.6 l -3.6,-2.4 -3.6,2.4 h -3.6 l -2.4,2.4 -3.6,2.4 -2.4,2.4 -1.2,2.4 -1.2,3.6 v 7.2 l 1.2,3.6 1.2,2.4 2.4,2.4 3.6,2.4 2.4,1.2 3.6,1.2 h 3.6"
           style="fill:#000000;fill-opacity:1;fill-rule:evenodd;stroke:none"
           id="path6674"
           inkscape:connector-curvature="0" /><path
           d="m 498,837.6 h 3.6 l 3.6,-1.2 2.4,-1.2 3.6,-2.4 1.2,-2.4 2.4,-2.4 1.2,-3.6 v -7.2 l -1.2,-3.6 -2.4,-2.4 -1.2,-2.4 -3.6,-2.4 -2.4,-2.4 h -3.6 l -3.6,-1.2 -3.6,1.2 h -3.6 l -2.4,2.4 -3.6,2.4 -2.4,2.4 -1.2,2.4 -1.2,3.6 v 7.2 l 1.2,3.6 1.2,2.4 2.4,2.4 3.6,2.4 2.4,1.2 3.6,1.2 z"
           style="fill:none;stroke:#000000;stroke-width:7.5;stroke-linecap:round;stroke-linejoin:round;stroke-miterlimit:10;stroke-dasharray:none;stroke-opacity:1"
           id="path6676"
           inkscape:connector-curvature="0" /><path
           d="m 498,837.6 h 3.6 l 3.6,-1.2 2.4,-1.2 3.6,-2.4 1.2,-2.4 2.4,-2.4 1.2,-3.6 v -7.2 l -1.2,-3.6 -2.4,-2.4 -1.2,-2.4 -3.6,-2.4 -2.4,-2.4 h -3.6 l -3.6,-1.2 -3.6,1.2 h -3.6 l -2.4,2.4 -3.6,2.4 -2.4,2.4 -1.2,2.4 -1.2,3.6 v 7.2 l 1.2,3.6 1.2,2.4 2.4,2.4 3.6,2.4 2.4,1.2 3.6,1.2 z"
           style="fill:none;stroke:#000000;stroke-width:7.5;stroke-linecap:round;stroke-linejoin:round;stroke-miterlimit:10;stroke-dasharray:none;stroke-opacity:1"
           id="path6678"
           inkscape:connector-curvature="0" /><path
           d="m 1098,837.6 h 3.6 l 3.6,-1.2 2.4,-1.2 3.6,-2.4 1.2,-2.4 2.4,-2.4 2.4,-3.6 v -7.2 l -2.4,-3.6 -2.4,-2.4 -1.2,-2.4 -3.6,-2.4 -2.4,-2.4 h -3.6 l -3.6,-2.4 -3.6,2.4 h -3.6 l -2.4,2.4 -3.6,2.4 -2.4,2.4 -1.2,2.4 -1.2,3.6 v 7.2 l 1.2,3.6 1.2,2.4 2.4,2.4 3.6,2.4 2.4,1.2 3.6,1.2 h 3.6"
           style="fill:#000000;fill-opacity:1;fill-rule:evenodd;stroke:none"
           id="path6680"
           inkscape:connector-curvature="0" /><path
           d="m 1098,837.6 h 3.6 l 3.6,-1.2 2.4,-1.2 3.6,-2.4 1.2,-2.4 2.4,-2.4 1.2,-3.6 v -7.2 l -1.2,-3.6 -2.4,-2.4 -1.2,-2.4 -3.6,-2.4 -2.4,-2.4 h -3.6 l -3.6,-1.2 -3.6,1.2 h -3.6 l -2.4,2.4 -3.6,2.4 -2.4,2.4 -1.2,2.4 -1.2,3.6 v 7.2 l 1.2,3.6 1.2,2.4 2.4,2.4 3.6,2.4 2.4,1.2 3.6,1.2 z"
           style="fill:none;stroke:#000000;stroke-width:7.5;stroke-linecap:round;stroke-linejoin:round;stroke-miterlimit:10;stroke-dasharray:none;stroke-opacity:1"
           id="path6682"
           inkscape:connector-curvature="0" /><path
           d="m 1098,837.6 h 3.6 l 3.6,-1.2 2.4,-1.2 3.6,-2.4 1.2,-2.4 2.4,-2.4 1.2,-3.6 v -7.2 l -1.2,-3.6 -2.4,-2.4 -1.2,-2.4 -3.6,-2.4 -2.4,-2.4 h -3.6 l -3.6,-1.2 -3.6,1.2 h -3.6 l -2.4,2.4 -3.6,2.4 -2.4,2.4 -1.2,2.4 -1.2,3.6 v 7.2 l 1.2,3.6 1.2,2.4 2.4,2.4 3.6,2.4 2.4,1.2 3.6,1.2 z"
           style="fill:none;stroke:#000000;stroke-width:7.5;stroke-linecap:round;stroke-linejoin:round;stroke-miterlimit:10;stroke-dasharray:none;stroke-opacity:1"
           id="path6684"
           inkscape:connector-curvature="0" /><path
           d="m 1398,837.6 h 3.6 l 3.6,-1.2 2.4,-1.2 3.6,-2.4 1.2,-2.4 2.4,-2.4 2.4,-3.6 v -7.2 l -2.4,-3.6 -2.4,-2.4 -1.2,-2.4 -3.6,-2.4 -2.4,-2.4 h -3.6 l -3.6,-2.4 -3.6,2.4 h -3.6 l -2.4,2.4 -3.6,2.4 -2.4,2.4 -1.2,2.4 -1.2,3.6 v 7.2 l 1.2,3.6 1.2,2.4 2.4,2.4 3.6,2.4 2.4,1.2 3.6,1.2 h 3.6"
           style="fill:#000000;fill-opacity:1;fill-rule:evenodd;stroke:none"
           id="path6686"
           inkscape:connector-curvature="0" /><path
           d="m 1398,837.6 h 3.6 l 3.6,-1.2 2.4,-1.2 3.6,-2.4 1.2,-2.4 2.4,-2.4 1.2,-3.6 v -7.2 l -1.2,-3.6 -2.4,-2.4 -1.2,-2.4 -3.6,-2.4 -2.4,-2.4 h -3.6 l -3.6,-1.2 -3.6,1.2 h -3.6 l -2.4,2.4 -3.6,2.4 -2.4,2.4 -1.2,2.4 -1.2,3.6 v 7.2 l 1.2,3.6 1.2,2.4 2.4,2.4 3.6,2.4 2.4,1.2 3.6,1.2 z"
           style="fill:none;stroke:#000000;stroke-width:7.5;stroke-linecap:round;stroke-linejoin:round;stroke-miterlimit:10;stroke-dasharray:none;stroke-opacity:1"
           id="path6688"
           inkscape:connector-curvature="0" /><path
           d="m 1398,837.6 h 3.6 l 3.6,-1.2 2.4,-1.2 3.6,-2.4 1.2,-2.4 2.4,-2.4 1.2,-3.6 v -7.2 l -1.2,-3.6 -2.4,-2.4 -1.2,-2.4 -3.6,-2.4 -2.4,-2.4 h -3.6 l -3.6,-1.2 -3.6,1.2 h -3.6 l -2.4,2.4 -3.6,2.4 -2.4,2.4 -1.2,2.4 -1.2,3.6 v 7.2 l 1.2,3.6 1.2,2.4 2.4,2.4 3.6,2.4 2.4,1.2 3.6,1.2 z"
           style="fill:none;stroke:#000000;stroke-width:7.5;stroke-linecap:round;stroke-linejoin:round;stroke-miterlimit:10;stroke-dasharray:none;stroke-opacity:1"
           id="path6690"
           inkscape:connector-curvature="0" /><path
           d="m 798,837.6 h 3.6 l 3.6,-1.2 2.4,-1.2 3.6,-2.4 1.2,-2.4 2.4,-2.4 2.4,-3.6 v -7.2 l -2.4,-3.6 -2.4,-2.4 -1.2,-2.4 -3.6,-2.4 -2.4,-2.4 h -3.6 l -3.6,-2.4 -3.6,2.4 h -3.6 l -2.4,2.4 -3.6,2.4 -2.4,2.4 -1.2,2.4 -1.2,3.6 v 7.2 l 1.2,3.6 1.2,2.4 2.4,2.4 3.6,2.4 2.4,1.2 3.6,1.2 h 3.6"
           style="fill:#000000;fill-opacity:1;fill-rule:evenodd;stroke:none"
           id="path6692"
           inkscape:connector-curvature="0" /><path
           d="m 798,837.6 h 3.6 l 3.6,-1.2 2.4,-1.2 3.6,-2.4 1.2,-2.4 2.4,-2.4 1.2,-3.6 v -7.2 l -1.2,-3.6 -2.4,-2.4 -1.2,-2.4 -3.6,-2.4 -2.4,-2.4 h -3.6 l -3.6,-1.2 -3.6,1.2 h -3.6 l -2.4,2.4 -3.6,2.4 -2.4,2.4 -1.2,2.4 -1.2,3.6 v 7.2 l 1.2,3.6 1.2,2.4 2.4,2.4 3.6,2.4 2.4,1.2 3.6,1.2 z"
           style="fill:none;stroke:#000000;stroke-width:7.5;stroke-linecap:round;stroke-linejoin:round;stroke-miterlimit:10;stroke-dasharray:none;stroke-opacity:1"
           id="path6694"
           inkscape:connector-curvature="0" /><path
           d="m 798,837.6 h 3.6 l 3.6,-1.2 2.4,-1.2 3.6,-2.4 1.2,-2.4 2.4,-2.4 1.2,-3.6 v -7.2 l -1.2,-3.6 -2.4,-2.4 -1.2,-2.4 -3.6,-2.4 -2.4,-2.4 h -3.6 l -3.6,-1.2 -3.6,1.2 h -3.6 l -2.4,2.4 -3.6,2.4 -2.4,2.4 -1.2,2.4 -1.2,3.6 v 7.2 l 1.2,3.6 1.2,2.4 2.4,2.4 3.6,2.4 2.4,1.2 3.6,1.2 z"
           style="fill:none;stroke:#000000;stroke-width:7.5;stroke-linecap:round;stroke-linejoin:round;stroke-miterlimit:10;stroke-dasharray:none;stroke-opacity:1"
           id="path6696"
           inkscape:connector-curvature="0" /><path
           d="m 1698,837.6 h 3.6 l 3.6,-1.2 2.4,-1.2 3.6,-2.4 1.2,-2.4 2.4,-2.4 2.4,-3.6 v -7.2 l -2.4,-3.6 -2.4,-2.4 -1.2,-3.6 -3.6,-1.2 -2.4,-2.4 h -3.6 l -3.6,-2.4 -3.6,2.4 h -3.6 l -2.4,2.4 -3.6,1.2 -2.4,3.6 -1.2,2.4 -1.2,3.6 v 7.2 l 1.2,3.6 1.2,2.4 2.4,2.4 3.6,2.4 2.4,1.2 3.6,1.2 h 3.6"
           style="fill:#000000;fill-opacity:1;fill-rule:evenodd;stroke:none"
           id="path6698"
           inkscape:connector-curvature="0" /><path
           d="m 1698,837.6 h 3.6 l 3.6,-1.2 2.4,-1.2 3.6,-2.4 1.2,-2.4 2.4,-2.4 1.2,-3.6 v -7.2 l -1.2,-3.6 -2.4,-2.4 -1.2,-3.6 -3.6,-1.2 -2.4,-2.4 h -3.6 l -3.6,-1.2 -3.6,1.2 h -3.6 l -2.4,2.4 -3.6,1.2 -2.4,3.6 -1.2,2.4 -1.2,3.6 v 7.2 l 1.2,3.6 1.2,2.4 2.4,2.4 3.6,2.4 2.4,1.2 3.6,1.2 z"
           style="fill:none;stroke:#000000;stroke-width:7.5;stroke-linecap:round;stroke-linejoin:round;stroke-miterlimit:10;stroke-dasharray:none;stroke-opacity:1"
           id="path6700"
           inkscape:connector-curvature="0" /><path
           d="m 1698,837.6 h 3.6 l 3.6,-1.2 2.4,-1.2 3.6,-2.4 1.2,-2.4 2.4,-2.4 1.2,-3.6 v -7.2 l -1.2,-3.6 -2.4,-2.4 -1.2,-3.6 -3.6,-1.2 -2.4,-2.4 h -3.6 l -3.6,-1.2 -3.6,1.2 h -3.6 l -2.4,2.4 -3.6,1.2 -2.4,3.6 -1.2,2.4 -1.2,3.6 v 7.2 l 1.2,3.6 1.2,2.4 2.4,2.4 3.6,2.4 2.4,1.2 3.6,1.2 z"
           style="fill:none;stroke:#000000;stroke-width:7.5;stroke-linecap:round;stroke-linejoin:round;stroke-miterlimit:10;stroke-dasharray:none;stroke-opacity:1"
           id="path6702"
           inkscape:connector-curvature="0" /><path
           d="m 1098,1136.4 h 3.6 l 3.6,-1.2 2.4,-1.2 3.6,-2.4 1.2,-2.4 2.4,-2.4 2.4,-3.6 v -7.2 l -2.4,-3.6 -2.4,-2.4 -1.2,-2.4 -3.6,-2.4 -2.4,-2.4 h -3.6 l -3.6,-2.4 -3.6,2.4 h -3.6 l -2.4,2.4 -3.6,2.4 -2.4,2.4 -1.2,2.4 -1.2,3.6 v 7.2 l 1.2,3.6 1.2,2.4 2.4,2.4 3.6,2.4 2.4,1.2 3.6,1.2 h 3.6"
           style="fill:#000000;fill-opacity:1;fill-rule:evenodd;stroke:none"
           id="path6704"
           inkscape:connector-curvature="0" /><path
           d="m 1098,1136.4 h 3.6 l 3.6,-1.2 2.4,-1.2 3.6,-2.4 1.2,-2.4 2.4,-2.4 1.2,-3.6 v -7.2 l -1.2,-3.6 -2.4,-2.4 -1.2,-2.4 -3.6,-2.4 -2.4,-2.4 h -3.6 l -3.6,-1.2 -3.6,1.2 h -3.6 l -2.4,2.4 -3.6,2.4 -2.4,2.4 -1.2,2.4 -1.2,3.6 v 7.2 l 1.2,3.6 1.2,2.4 2.4,2.4 3.6,2.4 2.4,1.2 3.6,1.2 z"
           style="fill:none;stroke:#000000;stroke-width:7.5;stroke-linecap:round;stroke-linejoin:round;stroke-miterlimit:10;stroke-dasharray:none;stroke-opacity:1"
           id="path6706"
           inkscape:connector-curvature="0" /><path
           d="m 1098,1136.4 h 3.6 l 3.6,-1.2 2.4,-1.2 3.6,-2.4 1.2,-2.4 2.4,-2.4 1.2,-3.6 v -7.2 l -1.2,-3.6 -2.4,-2.4 -1.2,-2.4 -3.6,-2.4 -2.4,-2.4 h -3.6 l -3.6,-1.2 -3.6,1.2 h -3.6 l -2.4,2.4 -3.6,2.4 -2.4,2.4 -1.2,2.4 -1.2,3.6 v 7.2 l 1.2,3.6 1.2,2.4 2.4,2.4 3.6,2.4 2.4,1.2 3.6,1.2 z"
           style="fill:none;stroke:#000000;stroke-width:7.5;stroke-linecap:round;stroke-linejoin:round;stroke-miterlimit:10;stroke-dasharray:none;stroke-opacity:1"
           id="path6708"
           inkscape:connector-curvature="0" /><path
           d="m 1398,1136.4 h 3.6 l 3.6,-1.2 2.4,-1.2 3.6,-2.4 1.2,-2.4 2.4,-2.4 2.4,-3.6 v -7.2 l -2.4,-3.6 -2.4,-2.4 -1.2,-2.4 -3.6,-2.4 -2.4,-2.4 h -3.6 l -3.6,-2.4 -3.6,2.4 h -3.6 l -2.4,2.4 -3.6,2.4 -2.4,2.4 -1.2,2.4 -1.2,3.6 v 7.2 l 1.2,3.6 1.2,2.4 2.4,2.4 3.6,2.4 2.4,1.2 3.6,1.2 h 3.6"
           style="fill:#000000;fill-opacity:1;fill-rule:evenodd;stroke:none"
           id="path6710"
           inkscape:connector-curvature="0" /><path
           d="m 1398,1136.4 h 3.6 l 3.6,-1.2 2.4,-1.2 3.6,-2.4 1.2,-2.4 2.4,-2.4 1.2,-3.6 v -7.2 l -1.2,-3.6 -2.4,-2.4 -1.2,-2.4 -3.6,-2.4 -2.4,-2.4 h -3.6 l -3.6,-1.2 -3.6,1.2 h -3.6 l -2.4,2.4 -3.6,2.4 -2.4,2.4 -1.2,2.4 -1.2,3.6 v 7.2 l 1.2,3.6 1.2,2.4 2.4,2.4 3.6,2.4 2.4,1.2 3.6,1.2 z"
           style="fill:none;stroke:#000000;stroke-width:7.5;stroke-linecap:round;stroke-linejoin:round;stroke-miterlimit:10;stroke-dasharray:none;stroke-opacity:1"
           id="path6712"
           inkscape:connector-curvature="0" /><path
           d="m 1398,1136.4 h 3.6 l 3.6,-1.2 2.4,-1.2 3.6,-2.4 1.2,-2.4 2.4,-2.4 1.2,-3.6 v -7.2 l -1.2,-3.6 -2.4,-2.4 -1.2,-2.4 -3.6,-2.4 -2.4,-2.4 h -3.6 l -3.6,-1.2 -3.6,1.2 h -3.6 l -2.4,2.4 -3.6,2.4 -2.4,2.4 -1.2,2.4 -1.2,3.6 v 7.2 l 1.2,3.6 1.2,2.4 2.4,2.4 3.6,2.4 2.4,1.2 3.6,1.2 z"
           style="fill:none;stroke:#000000;stroke-width:7.5;stroke-linecap:round;stroke-linejoin:round;stroke-miterlimit:10;stroke-dasharray:none;stroke-opacity:1"
           id="path6714"
           inkscape:connector-curvature="0" /><path
           d="m 1698,1136.4 h 3.6 l 3.6,-1.2 2.4,-1.2 3.6,-2.4 1.2,-2.4 2.4,-2.4 2.4,-3.6 v -7.2 l -2.4,-3.6 -2.4,-2.4 -1.2,-3.6 -3.6,-1.2 -2.4,-2.4 h -3.6 l -3.6,-2.4 -3.6,2.4 h -3.6 l -2.4,2.4 -3.6,1.2 -2.4,3.6 -1.2,2.4 -1.2,3.6 v 7.2 l 1.2,3.6 1.2,2.4 2.4,2.4 3.6,2.4 2.4,1.2 3.6,1.2 h 3.6"
           style="fill:#000000;fill-opacity:1;fill-rule:evenodd;stroke:none"
           id="path6716"
           inkscape:connector-curvature="0" /><path
           d="m 1698,1136.4 h 3.6 l 3.6,-1.2 2.4,-1.2 3.6,-2.4 1.2,-2.4 2.4,-2.4 1.2,-3.6 v -7.2 l -1.2,-3.6 -2.4,-2.4 -1.2,-3.6 -3.6,-1.2 -2.4,-2.4 h -3.6 l -3.6,-1.2 -3.6,1.2 h -3.6 l -2.4,2.4 -3.6,1.2 -2.4,3.6 -1.2,2.4 -1.2,3.6 v 7.2 l 1.2,3.6 1.2,2.4 2.4,2.4 3.6,2.4 2.4,1.2 3.6,1.2 z"
           style="fill:none;stroke:#000000;stroke-width:7.5;stroke-linecap:round;stroke-linejoin:round;stroke-miterlimit:10;stroke-dasharray:none;stroke-opacity:1"
           id="path6718"
           inkscape:connector-curvature="0" /><path
           d="m 1698,1136.4 h 3.6 l 3.6,-1.2 2.4,-1.2 3.6,-2.4 1.2,-2.4 2.4,-2.4 1.2,-3.6 v -7.2 l -1.2,-3.6 -2.4,-2.4 -1.2,-3.6 -3.6,-1.2 -2.4,-2.4 h -3.6 l -3.6,-1.2 -3.6,1.2 h -3.6 l -2.4,2.4 -3.6,1.2 -2.4,3.6 -1.2,2.4 -1.2,3.6 v 7.2 l 1.2,3.6 1.2,2.4 2.4,2.4 3.6,2.4 2.4,1.2 3.6,1.2 z"
           style="fill:none;stroke:#000000;stroke-width:7.5;stroke-linecap:round;stroke-linejoin:round;stroke-miterlimit:10;stroke-dasharray:none;stroke-opacity:1"
           id="path6720"
           inkscape:connector-curvature="0" /><path
           d="m 1098,1436.4 h 3.6 l 3.6,-1.2 2.4,-1.2 3.6,-2.4 1.2,-2.4 2.4,-2.4 2.4,-3.6 v -7.2 l -2.4,-3.6 -2.4,-2.4 -1.2,-2.4 -3.6,-2.4 -2.4,-2.4 h -3.6 l -3.6,-2.4 -3.6,2.4 h -3.6 l -2.4,2.4 -3.6,2.4 -2.4,2.4 -1.2,2.4 -1.2,3.6 v 7.2 l 1.2,3.6 1.2,2.4 2.4,2.4 3.6,2.4 2.4,1.2 3.6,1.2 h 3.6"
           style="fill:#000000;fill-opacity:1;fill-rule:evenodd;stroke:none"
           id="path6722"
           inkscape:connector-curvature="0" /><path
           d="m 1098,1436.4 h 3.6 l 3.6,-1.2 2.4,-1.2 3.6,-2.4 1.2,-2.4 2.4,-2.4 1.2,-3.6 v -7.2 l -1.2,-3.6 -2.4,-2.4 -1.2,-2.4 -3.6,-2.4 -2.4,-2.4 h -3.6 l -3.6,-1.2 -3.6,1.2 h -3.6 l -2.4,2.4 -3.6,2.4 -2.4,2.4 -1.2,2.4 -1.2,3.6 v 7.2 l 1.2,3.6 1.2,2.4 2.4,2.4 3.6,2.4 2.4,1.2 3.6,1.2 z"
           style="fill:none;stroke:#000000;stroke-width:7.5;stroke-linecap:round;stroke-linejoin:round;stroke-miterlimit:10;stroke-dasharray:none;stroke-opacity:1"
           id="path6724"
           inkscape:connector-curvature="0" /><path
           d="m 1098,1436.4 h 3.6 l 3.6,-1.2 2.4,-1.2 3.6,-2.4 1.2,-2.4 2.4,-2.4 1.2,-3.6 v -7.2 l -1.2,-3.6 -2.4,-2.4 -1.2,-2.4 -3.6,-2.4 -2.4,-2.4 h -3.6 l -3.6,-1.2 -3.6,1.2 h -3.6 l -2.4,2.4 -3.6,2.4 -2.4,2.4 -1.2,2.4 -1.2,3.6 v 7.2 l 1.2,3.6 1.2,2.4 2.4,2.4 3.6,2.4 2.4,1.2 3.6,1.2 z"
           style="fill:none;stroke:#000000;stroke-width:7.5;stroke-linecap:round;stroke-linejoin:round;stroke-miterlimit:10;stroke-dasharray:none;stroke-opacity:1"
           id="path6726"
           inkscape:connector-curvature="0" /><path
           d="m 1398,1436.4 h 3.6 l 3.6,-1.2 2.4,-1.2 3.6,-2.4 1.2,-2.4 2.4,-2.4 2.4,-3.6 v -7.2 l -2.4,-3.6 -2.4,-2.4 -1.2,-2.4 -3.6,-2.4 -2.4,-2.4 h -3.6 l -3.6,-2.4 -3.6,2.4 h -3.6 l -2.4,2.4 -3.6,2.4 -2.4,2.4 -1.2,2.4 -1.2,3.6 v 7.2 l 1.2,3.6 1.2,2.4 2.4,2.4 3.6,2.4 2.4,1.2 3.6,1.2 h 3.6"
           style="fill:#000000;fill-opacity:1;fill-rule:evenodd;stroke:none"
           id="path6728"
           inkscape:connector-curvature="0" /><path
           d="m 1398,1436.4 h 3.6 l 3.6,-1.2 2.4,-1.2 3.6,-2.4 1.2,-2.4 2.4,-2.4 1.2,-3.6 v -7.2 l -1.2,-3.6 -2.4,-2.4 -1.2,-2.4 -3.6,-2.4 -2.4,-2.4 h -3.6 l -3.6,-1.2 -3.6,1.2 h -3.6 l -2.4,2.4 -3.6,2.4 -2.4,2.4 -1.2,2.4 -1.2,3.6 v 7.2 l 1.2,3.6 1.2,2.4 2.4,2.4 3.6,2.4 2.4,1.2 3.6,1.2 z"
           style="fill:none;stroke:#000000;stroke-width:7.5;stroke-linecap:round;stroke-linejoin:round;stroke-miterlimit:10;stroke-dasharray:none;stroke-opacity:1"
           id="path6730"
           inkscape:connector-curvature="0" /><path
           d="m 1398,1436.4 h 3.6 l 3.6,-1.2 2.4,-1.2 3.6,-2.4 1.2,-2.4 2.4,-2.4 1.2,-3.6 v -7.2 l -1.2,-3.6 -2.4,-2.4 -1.2,-2.4 -3.6,-2.4 -2.4,-2.4 h -3.6 l -3.6,-1.2 -3.6,1.2 h -3.6 l -2.4,2.4 -3.6,2.4 -2.4,2.4 -1.2,2.4 -1.2,3.6 v 7.2 l 1.2,3.6 1.2,2.4 2.4,2.4 3.6,2.4 2.4,1.2 3.6,1.2 z"
           style="fill:none;stroke:#000000;stroke-width:7.5;stroke-linecap:round;stroke-linejoin:round;stroke-miterlimit:10;stroke-dasharray:none;stroke-opacity:1"
           id="path6732"
           inkscape:connector-curvature="0" /><path
           d="m 1698,1436.4 h 3.6 l 3.6,-1.2 2.4,-1.2 3.6,-2.4 1.2,-2.4 2.4,-2.4 2.4,-3.6 v -7.2 l -2.4,-3.6 -2.4,-2.4 -1.2,-3.6 -3.6,-1.2 -2.4,-2.4 h -3.6 l -3.6,-2.4 -3.6,2.4 h -3.6 l -2.4,2.4 -3.6,1.2 -2.4,3.6 -1.2,2.4 -1.2,3.6 v 7.2 l 1.2,3.6 1.2,2.4 2.4,2.4 3.6,2.4 2.4,1.2 3.6,1.2 h 3.6"
           style="fill:#000000;fill-opacity:1;fill-rule:evenodd;stroke:none"
           id="path6734"
           inkscape:connector-curvature="0" /><path
           d="m 1698,1436.4 h 3.6 l 3.6,-1.2 2.4,-1.2 3.6,-2.4 1.2,-2.4 2.4,-2.4 1.2,-3.6 v -7.2 l -1.2,-3.6 -2.4,-2.4 -1.2,-3.6 -3.6,-1.2 -2.4,-2.4 h -3.6 l -3.6,-1.2 -3.6,1.2 h -3.6 l -2.4,2.4 -3.6,1.2 -2.4,3.6 -1.2,2.4 -1.2,3.6 v 7.2 l 1.2,3.6 1.2,2.4 2.4,2.4 3.6,2.4 2.4,1.2 3.6,1.2 z"
           style="fill:none;stroke:#000000;stroke-width:7.5;stroke-linecap:round;stroke-linejoin:round;stroke-miterlimit:10;stroke-dasharray:none;stroke-opacity:1"
           id="path6736"
           inkscape:connector-curvature="0" /><path
           d="m 1698,1436.4 h 3.6 l 3.6,-1.2 2.4,-1.2 3.6,-2.4 1.2,-2.4 2.4,-2.4 1.2,-3.6 v -7.2 l -1.2,-3.6 -2.4,-2.4 -1.2,-3.6 -3.6,-1.2 -2.4,-2.4 h -3.6 l -3.6,-1.2 -3.6,1.2 h -3.6 l -2.4,2.4 -3.6,1.2 -2.4,3.6 -1.2,2.4 -1.2,3.6 v 7.2 l 1.2,3.6 1.2,2.4 2.4,2.4 3.6,2.4 2.4,1.2 3.6,1.2 z"
           style="fill:none;stroke:#000000;stroke-width:7.5;stroke-linecap:round;stroke-linejoin:round;stroke-miterlimit:10;stroke-dasharray:none;stroke-opacity:1"
           id="path6738"
           inkscape:connector-curvature="0" /><path
           d="m 198,537.6 h 3.6 l 3.6,-1.2 2.4,-1.2 3.6,-2.4 1.2,-2.4 2.4,-2.4 2.4,-3.6 v -7.2 l -2.4,-3.6 -2.4,-2.4 -1.2,-3.6 -3.6,-1.2 -2.4,-2.4 h -3.6 l -3.6,-2.4 -3.6,2.4 h -3.6 l -2.4,2.4 -3.6,1.2 -2.4,3.6 -1.2,2.4 -1.2,3.6 v 7.2 l 1.2,3.6 1.2,2.4 2.4,2.4 3.6,2.4 2.4,1.2 3.6,1.2 h 3.6"
           style="fill:#000000;fill-opacity:1;fill-rule:evenodd;stroke:none"
           id="path6740"
           inkscape:connector-curvature="0" /><path
           d="m 198,537.6 h 3.6 l 3.6,-1.2 2.4,-1.2 3.6,-2.4 1.2,-2.4 2.4,-2.4 1.2,-3.6 v -7.2 l -1.2,-3.6 -2.4,-2.4 -1.2,-3.6 -3.6,-1.2 -2.4,-2.4 h -3.6 l -3.6,-1.2 -3.6,1.2 h -3.6 l -2.4,2.4 -3.6,1.2 -2.4,3.6 -1.2,2.4 -1.2,3.6 v 7.2 l 1.2,3.6 1.2,2.4 2.4,2.4 3.6,2.4 2.4,1.2 3.6,1.2 z"
           style="fill:none;stroke:#000000;stroke-width:7.5;stroke-linecap:round;stroke-linejoin:round;stroke-miterlimit:10;stroke-dasharray:none;stroke-opacity:1"
           id="path6742"
           inkscape:connector-curvature="0" /><path
           d="m 198,537.6 h 3.6 l 3.6,-1.2 2.4,-1.2 3.6,-2.4 1.2,-2.4 2.4,-2.4 1.2,-3.6 v -7.2 l -1.2,-3.6 -2.4,-2.4 -1.2,-3.6 -3.6,-1.2 -2.4,-2.4 h -3.6 l -3.6,-1.2 -3.6,1.2 h -3.6 l -2.4,2.4 -3.6,1.2 -2.4,3.6 -1.2,2.4 -1.2,3.6 v 7.2 l 1.2,3.6 1.2,2.4 2.4,2.4 3.6,2.4 2.4,1.2 3.6,1.2 z"
           style="fill:none;stroke:#000000;stroke-width:7.5;stroke-linecap:round;stroke-linejoin:round;stroke-miterlimit:10;stroke-dasharray:none;stroke-opacity:1"
           id="path6744"
           inkscape:connector-curvature="0" /><path
           d="m 498,537.6 h 3.6 l 3.6,-1.2 2.4,-1.2 3.6,-2.4 1.2,-2.4 2.4,-2.4 2.4,-3.6 v -7.2 l -2.4,-3.6 -2.4,-2.4 -1.2,-3.6 -3.6,-1.2 -2.4,-2.4 h -3.6 l -3.6,-2.4 -3.6,2.4 h -3.6 l -2.4,2.4 -3.6,1.2 -2.4,3.6 -1.2,2.4 -1.2,3.6 v 7.2 l 1.2,3.6 1.2,2.4 2.4,2.4 3.6,2.4 2.4,1.2 3.6,1.2 h 3.6"
           style="fill:#000000;fill-opacity:1;fill-rule:evenodd;stroke:none"
           id="path6746"
           inkscape:connector-curvature="0" /><path
           d="m 498,537.6 h 3.6 l 3.6,-1.2 2.4,-1.2 3.6,-2.4 1.2,-2.4 2.4,-2.4 1.2,-3.6 v -7.2 l -1.2,-3.6 -2.4,-2.4 -1.2,-3.6 -3.6,-1.2 -2.4,-2.4 h -3.6 l -3.6,-1.2 -3.6,1.2 h -3.6 l -2.4,2.4 -3.6,1.2 -2.4,3.6 -1.2,2.4 -1.2,3.6 v 7.2 l 1.2,3.6 1.2,2.4 2.4,2.4 3.6,2.4 2.4,1.2 3.6,1.2 z"
           style="fill:none;stroke:#000000;stroke-width:7.5;stroke-linecap:round;stroke-linejoin:round;stroke-miterlimit:10;stroke-dasharray:none;stroke-opacity:1"
           id="path6748"
           inkscape:connector-curvature="0" /><path
           d="m 498,537.6 h 3.6 l 3.6,-1.2 2.4,-1.2 3.6,-2.4 1.2,-2.4 2.4,-2.4 1.2,-3.6 v -7.2 l -1.2,-3.6 -2.4,-2.4 -1.2,-3.6 -3.6,-1.2 -2.4,-2.4 h -3.6 l -3.6,-1.2 -3.6,1.2 h -3.6 l -2.4,2.4 -3.6,1.2 -2.4,3.6 -1.2,2.4 -1.2,3.6 v 7.2 l 1.2,3.6 1.2,2.4 2.4,2.4 3.6,2.4 2.4,1.2 3.6,1.2 z"
           style="fill:none;stroke:#000000;stroke-width:7.5;stroke-linecap:round;stroke-linejoin:round;stroke-miterlimit:10;stroke-dasharray:none;stroke-opacity:1"
           id="path6750"
           inkscape:connector-curvature="0" /><path
           d="m 1098,537.6 h 3.6 l 3.6,-1.2 2.4,-1.2 3.6,-2.4 1.2,-2.4 2.4,-2.4 2.4,-3.6 v -7.2 l -2.4,-3.6 -2.4,-2.4 -1.2,-3.6 -3.6,-1.2 -2.4,-2.4 h -3.6 l -3.6,-2.4 -3.6,2.4 h -3.6 l -2.4,2.4 -3.6,1.2 -2.4,3.6 -1.2,2.4 -1.2,3.6 v 7.2 l 1.2,3.6 1.2,2.4 2.4,2.4 3.6,2.4 2.4,1.2 3.6,1.2 h 3.6"
           style="fill:#000000;fill-opacity:1;fill-rule:evenodd;stroke:none"
           id="path6752"
           inkscape:connector-curvature="0" /><path
           d="m 1098,537.6 h 3.6 l 3.6,-1.2 2.4,-1.2 3.6,-2.4 1.2,-2.4 2.4,-2.4 1.2,-3.6 v -7.2 l -1.2,-3.6 -2.4,-2.4 -1.2,-3.6 -3.6,-1.2 -2.4,-2.4 h -3.6 l -3.6,-1.2 -3.6,1.2 h -3.6 l -2.4,2.4 -3.6,1.2 -2.4,3.6 -1.2,2.4 -1.2,3.6 v 7.2 l 1.2,3.6 1.2,2.4 2.4,2.4 3.6,2.4 2.4,1.2 3.6,1.2 z"
           style="fill:none;stroke:#000000;stroke-width:7.5;stroke-linecap:round;stroke-linejoin:round;stroke-miterlimit:10;stroke-dasharray:none;stroke-opacity:1"
           id="path6754"
           inkscape:connector-curvature="0" /><path
           d="m 1098,537.6 h 3.6 l 3.6,-1.2 2.4,-1.2 3.6,-2.4 1.2,-2.4 2.4,-2.4 1.2,-3.6 v -7.2 l -1.2,-3.6 -2.4,-2.4 -1.2,-3.6 -3.6,-1.2 -2.4,-2.4 h -3.6 l -3.6,-1.2 -3.6,1.2 h -3.6 l -2.4,2.4 -3.6,1.2 -2.4,3.6 -1.2,2.4 -1.2,3.6 v 7.2 l 1.2,3.6 1.2,2.4 2.4,2.4 3.6,2.4 2.4,1.2 3.6,1.2 z"
           style="fill:none;stroke:#000000;stroke-width:7.5;stroke-linecap:round;stroke-linejoin:round;stroke-miterlimit:10;stroke-dasharray:none;stroke-opacity:1"
           id="path6756"
           inkscape:connector-curvature="0" /><path
           d="m 1398,537.6 h 3.6 l 3.6,-1.2 2.4,-1.2 3.6,-2.4 1.2,-2.4 2.4,-2.4 2.4,-3.6 v -7.2 l -2.4,-3.6 -2.4,-2.4 -1.2,-3.6 -3.6,-1.2 -2.4,-2.4 h -3.6 l -3.6,-2.4 -3.6,2.4 h -3.6 l -2.4,2.4 -3.6,1.2 -2.4,3.6 -1.2,2.4 -1.2,3.6 v 7.2 l 1.2,3.6 1.2,2.4 2.4,2.4 3.6,2.4 2.4,1.2 3.6,1.2 h 3.6"
           style="fill:#000000;fill-opacity:1;fill-rule:evenodd;stroke:none"
           id="path6758"
           inkscape:connector-curvature="0" /><path
           d="m 1398,537.6 h 3.6 l 3.6,-1.2 2.4,-1.2 3.6,-2.4 1.2,-2.4 2.4,-2.4 1.2,-3.6 v -7.2 l -1.2,-3.6 -2.4,-2.4 -1.2,-3.6 -3.6,-1.2 -2.4,-2.4 h -3.6 l -3.6,-1.2 -3.6,1.2 h -3.6 l -2.4,2.4 -3.6,1.2 -2.4,3.6 -1.2,2.4 -1.2,3.6 v 7.2 l 1.2,3.6 1.2,2.4 2.4,2.4 3.6,2.4 2.4,1.2 3.6,1.2 z"
           style="fill:none;stroke:#000000;stroke-width:7.5;stroke-linecap:round;stroke-linejoin:round;stroke-miterlimit:10;stroke-dasharray:none;stroke-opacity:1"
           id="path6760"
           inkscape:connector-curvature="0" /><path
           d="m 1398,537.6 h 3.6 l 3.6,-1.2 2.4,-1.2 3.6,-2.4 1.2,-2.4 2.4,-2.4 1.2,-3.6 v -7.2 l -1.2,-3.6 -2.4,-2.4 -1.2,-3.6 -3.6,-1.2 -2.4,-2.4 h -3.6 l -3.6,-1.2 -3.6,1.2 h -3.6 l -2.4,2.4 -3.6,1.2 -2.4,3.6 -1.2,2.4 -1.2,3.6 v 7.2 l 1.2,3.6 1.2,2.4 2.4,2.4 3.6,2.4 2.4,1.2 3.6,1.2 z"
           style="fill:none;stroke:#000000;stroke-width:7.5;stroke-linecap:round;stroke-linejoin:round;stroke-miterlimit:10;stroke-dasharray:none;stroke-opacity:1"
           id="path6762"
           inkscape:connector-curvature="0" /><path
           d="m 798,537.6 h 3.6 l 3.6,-1.2 2.4,-1.2 3.6,-2.4 1.2,-2.4 2.4,-2.4 2.4,-3.6 v -7.2 l -2.4,-3.6 -2.4,-2.4 -1.2,-3.6 -3.6,-1.2 -2.4,-2.4 h -3.6 l -3.6,-2.4 -3.6,2.4 h -3.6 l -2.4,2.4 -3.6,1.2 -2.4,3.6 -1.2,2.4 -1.2,3.6 v 7.2 l 1.2,3.6 1.2,2.4 2.4,2.4 3.6,2.4 2.4,1.2 3.6,1.2 h 3.6"
           style="fill:#000000;fill-opacity:1;fill-rule:evenodd;stroke:none"
           id="path6764"
           inkscape:connector-curvature="0" /><path
           d="m 798,537.6 h 3.6 l 3.6,-1.2 2.4,-1.2 3.6,-2.4 1.2,-2.4 2.4,-2.4 1.2,-3.6 v -7.2 l -1.2,-3.6 -2.4,-2.4 -1.2,-3.6 -3.6,-1.2 -2.4,-2.4 h -3.6 l -3.6,-1.2 -3.6,1.2 h -3.6 l -2.4,2.4 -3.6,1.2 -2.4,3.6 -1.2,2.4 -1.2,3.6 v 7.2 l 1.2,3.6 1.2,2.4 2.4,2.4 3.6,2.4 2.4,1.2 3.6,1.2 z"
           style="fill:none;stroke:#000000;stroke-width:7.5;stroke-linecap:round;stroke-linejoin:round;stroke-miterlimit:10;stroke-dasharray:none;stroke-opacity:1"
           id="path6766"
           inkscape:connector-curvature="0" /><path
           d="m 798,537.6 h 3.6 l 3.6,-1.2 2.4,-1.2 3.6,-2.4 1.2,-2.4 2.4,-2.4 1.2,-3.6 v -7.2 l -1.2,-3.6 -2.4,-2.4 -1.2,-3.6 -3.6,-1.2 -2.4,-2.4 h -3.6 l -3.6,-1.2 -3.6,1.2 h -3.6 l -2.4,2.4 -3.6,1.2 -2.4,3.6 -1.2,2.4 -1.2,3.6 v 7.2 l 1.2,3.6 1.2,2.4 2.4,2.4 3.6,2.4 2.4,1.2 3.6,1.2 z"
           style="fill:none;stroke:#000000;stroke-width:7.5;stroke-linecap:round;stroke-linejoin:round;stroke-miterlimit:10;stroke-dasharray:none;stroke-opacity:1"
           id="path6768"
           inkscape:connector-curvature="0" /><path
           d="m 1698,537.6 h 3.6 l 3.6,-1.2 2.4,-1.2 3.6,-2.4 1.2,-2.4 2.4,-2.4 2.4,-3.6 v -7.2 l -2.4,-3.6 -2.4,-2.4 -1.2,-3.6 -3.6,-1.2 -2.4,-2.4 h -3.6 l -3.6,-2.4 -3.6,2.4 h -3.6 l -2.4,2.4 -3.6,1.2 -2.4,3.6 -1.2,2.4 -1.2,3.6 v 7.2 l 1.2,3.6 1.2,2.4 2.4,2.4 3.6,2.4 2.4,1.2 3.6,1.2 h 3.6"
           style="fill:#000000;fill-opacity:1;fill-rule:evenodd;stroke:none"
           id="path6770"
           inkscape:connector-curvature="0" /><path
           d="m 1698,537.6 h 3.6 l 3.6,-1.2 2.4,-1.2 3.6,-2.4 1.2,-2.4 2.4,-2.4 1.2,-3.6 v -7.2 l -1.2,-3.6 -2.4,-2.4 -1.2,-3.6 -3.6,-1.2 -2.4,-2.4 h -3.6 l -3.6,-1.2 -3.6,1.2 h -3.6 l -2.4,2.4 -3.6,1.2 -2.4,3.6 -1.2,2.4 -1.2,3.6 v 7.2 l 1.2,3.6 1.2,2.4 2.4,2.4 3.6,2.4 2.4,1.2 3.6,1.2 z"
           style="fill:none;stroke:#000000;stroke-width:7.5;stroke-linecap:round;stroke-linejoin:round;stroke-miterlimit:10;stroke-dasharray:none;stroke-opacity:1"
           id="path6772"
           inkscape:connector-curvature="0" /><path
           d="m 1698,537.6 h 3.6 l 3.6,-1.2 2.4,-1.2 3.6,-2.4 1.2,-2.4 2.4,-2.4 1.2,-3.6 v -7.2 l -1.2,-3.6 -2.4,-2.4 -1.2,-3.6 -3.6,-1.2 -2.4,-2.4 h -3.6 l -3.6,-1.2 -3.6,1.2 h -3.6 l -2.4,2.4 -3.6,1.2 -2.4,3.6 -1.2,2.4 -1.2,3.6 v 7.2 l 1.2,3.6 1.2,2.4 2.4,2.4 3.6,2.4 2.4,1.2 3.6,1.2 z"
           style="fill:none;stroke:#000000;stroke-width:7.5;stroke-linecap:round;stroke-linejoin:round;stroke-miterlimit:10;stroke-dasharray:none;stroke-opacity:1"
           id="path6774"
           inkscape:connector-curvature="0" /><path
           d="m 198,837.6 h 3.6 l 3.6,-1.2 2.4,-1.2 3.6,-2.4 1.2,-2.4 2.4,-2.4 2.4,-3.6 v -7.2 l -2.4,-3.6 -2.4,-2.4 -1.2,-2.4 -3.6,-2.4 -2.4,-2.4 h -3.6 l -3.6,-2.4 -3.6,2.4 h -3.6 l -2.4,2.4 -3.6,2.4 -2.4,2.4 -1.2,2.4 -1.2,3.6 v 7.2 l 1.2,3.6 1.2,2.4 2.4,2.4 3.6,2.4 2.4,1.2 3.6,1.2 h 3.6"
           style="fill:#000000;fill-opacity:1;fill-rule:evenodd;stroke:none"
           id="path6776"
           inkscape:connector-curvature="0" /><path
           d="m 198,837.6 h 3.6 l 3.6,-1.2 2.4,-1.2 3.6,-2.4 1.2,-2.4 2.4,-2.4 1.2,-3.6 v -7.2 l -1.2,-3.6 -2.4,-2.4 -1.2,-2.4 -3.6,-2.4 -2.4,-2.4 h -3.6 l -3.6,-1.2 -3.6,1.2 h -3.6 l -2.4,2.4 -3.6,2.4 -2.4,2.4 -1.2,2.4 -1.2,3.6 v 7.2 l 1.2,3.6 1.2,2.4 2.4,2.4 3.6,2.4 2.4,1.2 3.6,1.2 z"
           style="fill:none;stroke:#000000;stroke-width:7.5;stroke-linecap:round;stroke-linejoin:round;stroke-miterlimit:10;stroke-dasharray:none;stroke-opacity:1"
           id="path6778"
           inkscape:connector-curvature="0" /><path
           d="m 198,837.6 h 3.6 l 3.6,-1.2 2.4,-1.2 3.6,-2.4 1.2,-2.4 2.4,-2.4 1.2,-3.6 v -7.2 l -1.2,-3.6 -2.4,-2.4 -1.2,-2.4 -3.6,-2.4 -2.4,-2.4 h -3.6 l -3.6,-1.2 -3.6,1.2 h -3.6 l -2.4,2.4 -3.6,2.4 -2.4,2.4 -1.2,2.4 -1.2,3.6 v 7.2 l 1.2,3.6 1.2,2.4 2.4,2.4 3.6,2.4 2.4,1.2 3.6,1.2 z"
           style="fill:none;stroke:#000000;stroke-width:7.5;stroke-linecap:round;stroke-linejoin:round;stroke-miterlimit:10;stroke-dasharray:none;stroke-opacity:1"
           id="path6780"
           inkscape:connector-curvature="0" /><path
           d="m 498,837.6 h 3.6 l 3.6,-1.2 2.4,-1.2 3.6,-2.4 1.2,-2.4 2.4,-2.4 2.4,-3.6 v -7.2 l -2.4,-3.6 -2.4,-2.4 -1.2,-2.4 -3.6,-2.4 -2.4,-2.4 h -3.6 l -3.6,-2.4 -3.6,2.4 h -3.6 l -2.4,2.4 -3.6,2.4 -2.4,2.4 -1.2,2.4 -1.2,3.6 v 7.2 l 1.2,3.6 1.2,2.4 2.4,2.4 3.6,2.4 2.4,1.2 3.6,1.2 h 3.6"
           style="fill:#000000;fill-opacity:1;fill-rule:evenodd;stroke:none"
           id="path6782"
           inkscape:connector-curvature="0" /><path
           d="m 498,837.6 h 3.6 l 3.6,-1.2 2.4,-1.2 3.6,-2.4 1.2,-2.4 2.4,-2.4 1.2,-3.6 v -7.2 l -1.2,-3.6 -2.4,-2.4 -1.2,-2.4 -3.6,-2.4 -2.4,-2.4 h -3.6 l -3.6,-1.2 -3.6,1.2 h -3.6 l -2.4,2.4 -3.6,2.4 -2.4,2.4 -1.2,2.4 -1.2,3.6 v 7.2 l 1.2,3.6 1.2,2.4 2.4,2.4 3.6,2.4 2.4,1.2 3.6,1.2 z"
           style="fill:none;stroke:#000000;stroke-width:7.5;stroke-linecap:round;stroke-linejoin:round;stroke-miterlimit:10;stroke-dasharray:none;stroke-opacity:1"
           id="path6784"
           inkscape:connector-curvature="0" /><path
           d="m 498,837.6 h 3.6 l 3.6,-1.2 2.4,-1.2 3.6,-2.4 1.2,-2.4 2.4,-2.4 1.2,-3.6 v -7.2 l -1.2,-3.6 -2.4,-2.4 -1.2,-2.4 -3.6,-2.4 -2.4,-2.4 h -3.6 l -3.6,-1.2 -3.6,1.2 h -3.6 l -2.4,2.4 -3.6,2.4 -2.4,2.4 -1.2,2.4 -1.2,3.6 v 7.2 l 1.2,3.6 1.2,2.4 2.4,2.4 3.6,2.4 2.4,1.2 3.6,1.2 z"
           style="fill:none;stroke:#000000;stroke-width:7.5;stroke-linecap:round;stroke-linejoin:round;stroke-miterlimit:10;stroke-dasharray:none;stroke-opacity:1"
           id="path6786"
           inkscape:connector-curvature="0" /><path
           d="m 1098,837.6 h 3.6 l 3.6,-1.2 2.4,-1.2 3.6,-2.4 1.2,-2.4 2.4,-2.4 2.4,-3.6 v -7.2 l -2.4,-3.6 -2.4,-2.4 -1.2,-2.4 -3.6,-2.4 -2.4,-2.4 h -3.6 l -3.6,-2.4 -3.6,2.4 h -3.6 l -2.4,2.4 -3.6,2.4 -2.4,2.4 -1.2,2.4 -1.2,3.6 v 7.2 l 1.2,3.6 1.2,2.4 2.4,2.4 3.6,2.4 2.4,1.2 3.6,1.2 h 3.6"
           style="fill:#000000;fill-opacity:1;fill-rule:evenodd;stroke:none"
           id="path6788"
           inkscape:connector-curvature="0" /><path
           d="m 1098,837.6 h 3.6 l 3.6,-1.2 2.4,-1.2 3.6,-2.4 1.2,-2.4 2.4,-2.4 1.2,-3.6 v -7.2 l -1.2,-3.6 -2.4,-2.4 -1.2,-2.4 -3.6,-2.4 -2.4,-2.4 h -3.6 l -3.6,-1.2 -3.6,1.2 h -3.6 l -2.4,2.4 -3.6,2.4 -2.4,2.4 -1.2,2.4 -1.2,3.6 v 7.2 l 1.2,3.6 1.2,2.4 2.4,2.4 3.6,2.4 2.4,1.2 3.6,1.2 z"
           style="fill:none;stroke:#000000;stroke-width:7.5;stroke-linecap:round;stroke-linejoin:round;stroke-miterlimit:10;stroke-dasharray:none;stroke-opacity:1"
           id="path6790"
           inkscape:connector-curvature="0" /><path
           d="m 1098,837.6 h 3.6 l 3.6,-1.2 2.4,-1.2 3.6,-2.4 1.2,-2.4 2.4,-2.4 1.2,-3.6 v -7.2 l -1.2,-3.6 -2.4,-2.4 -1.2,-2.4 -3.6,-2.4 -2.4,-2.4 h -3.6 l -3.6,-1.2 -3.6,1.2 h -3.6 l -2.4,2.4 -3.6,2.4 -2.4,2.4 -1.2,2.4 -1.2,3.6 v 7.2 l 1.2,3.6 1.2,2.4 2.4,2.4 3.6,2.4 2.4,1.2 3.6,1.2 z"
           style="fill:none;stroke:#000000;stroke-width:7.5;stroke-linecap:round;stroke-linejoin:round;stroke-miterlimit:10;stroke-dasharray:none;stroke-opacity:1"
           id="path6792"
           inkscape:connector-curvature="0" /><path
           d="m 1398,837.6 h 3.6 l 3.6,-1.2 2.4,-1.2 3.6,-2.4 1.2,-2.4 2.4,-2.4 2.4,-3.6 v -7.2 l -2.4,-3.6 -2.4,-2.4 -1.2,-2.4 -3.6,-2.4 -2.4,-2.4 h -3.6 l -3.6,-2.4 -3.6,2.4 h -3.6 l -2.4,2.4 -3.6,2.4 -2.4,2.4 -1.2,2.4 -1.2,3.6 v 7.2 l 1.2,3.6 1.2,2.4 2.4,2.4 3.6,2.4 2.4,1.2 3.6,1.2 h 3.6"
           style="fill:#000000;fill-opacity:1;fill-rule:evenodd;stroke:none"
           id="path6794"
           inkscape:connector-curvature="0" /><path
           d="m 1398,837.6 h 3.6 l 3.6,-1.2 2.4,-1.2 3.6,-2.4 1.2,-2.4 2.4,-2.4 1.2,-3.6 v -7.2 l -1.2,-3.6 -2.4,-2.4 -1.2,-2.4 -3.6,-2.4 -2.4,-2.4 h -3.6 l -3.6,-1.2 -3.6,1.2 h -3.6 l -2.4,2.4 -3.6,2.4 -2.4,2.4 -1.2,2.4 -1.2,3.6 v 7.2 l 1.2,3.6 1.2,2.4 2.4,2.4 3.6,2.4 2.4,1.2 3.6,1.2 z"
           style="fill:none;stroke:#000000;stroke-width:7.5;stroke-linecap:round;stroke-linejoin:round;stroke-miterlimit:10;stroke-dasharray:none;stroke-opacity:1"
           id="path6796"
           inkscape:connector-curvature="0" /><path
           d="m 1398,837.6 h 3.6 l 3.6,-1.2 2.4,-1.2 3.6,-2.4 1.2,-2.4 2.4,-2.4 1.2,-3.6 v -7.2 l -1.2,-3.6 -2.4,-2.4 -1.2,-2.4 -3.6,-2.4 -2.4,-2.4 h -3.6 l -3.6,-1.2 -3.6,1.2 h -3.6 l -2.4,2.4 -3.6,2.4 -2.4,2.4 -1.2,2.4 -1.2,3.6 v 7.2 l 1.2,3.6 1.2,2.4 2.4,2.4 3.6,2.4 2.4,1.2 3.6,1.2 z"
           style="fill:none;stroke:#000000;stroke-width:7.5;stroke-linecap:round;stroke-linejoin:round;stroke-miterlimit:10;stroke-dasharray:none;stroke-opacity:1"
           id="path6798"
           inkscape:connector-curvature="0" /><path
           d="m 798,837.6 h 3.6 l 3.6,-1.2 2.4,-1.2 3.6,-2.4 1.2,-2.4 2.4,-2.4 2.4,-3.6 v -7.2 l -2.4,-3.6 -2.4,-2.4 -1.2,-2.4 -3.6,-2.4 -2.4,-2.4 h -3.6 l -3.6,-2.4 -3.6,2.4 h -3.6 l -2.4,2.4 -3.6,2.4 -2.4,2.4 -1.2,2.4 -1.2,3.6 v 7.2 l 1.2,3.6 1.2,2.4 2.4,2.4 3.6,2.4 2.4,1.2 3.6,1.2 h 3.6"
           style="fill:#000000;fill-opacity:1;fill-rule:evenodd;stroke:none"
           id="path6800"
           inkscape:connector-curvature="0" /><path
           d="m 798,837.6 h 3.6 l 3.6,-1.2 2.4,-1.2 3.6,-2.4 1.2,-2.4 2.4,-2.4 1.2,-3.6 v -7.2 l -1.2,-3.6 -2.4,-2.4 -1.2,-2.4 -3.6,-2.4 -2.4,-2.4 h -3.6 l -3.6,-1.2 -3.6,1.2 h -3.6 l -2.4,2.4 -3.6,2.4 -2.4,2.4 -1.2,2.4 -1.2,3.6 v 7.2 l 1.2,3.6 1.2,2.4 2.4,2.4 3.6,2.4 2.4,1.2 3.6,1.2 z"
           style="fill:none;stroke:#000000;stroke-width:7.5;stroke-linecap:round;stroke-linejoin:round;stroke-miterlimit:10;stroke-dasharray:none;stroke-opacity:1"
           id="path6802"
           inkscape:connector-curvature="0" /><path
           d="m 798,837.6 h 3.6 l 3.6,-1.2 2.4,-1.2 3.6,-2.4 1.2,-2.4 2.4,-2.4 1.2,-3.6 v -7.2 l -1.2,-3.6 -2.4,-2.4 -1.2,-2.4 -3.6,-2.4 -2.4,-2.4 h -3.6 l -3.6,-1.2 -3.6,1.2 h -3.6 l -2.4,2.4 -3.6,2.4 -2.4,2.4 -1.2,2.4 -1.2,3.6 v 7.2 l 1.2,3.6 1.2,2.4 2.4,2.4 3.6,2.4 2.4,1.2 3.6,1.2 z"
           style="fill:none;stroke:#000000;stroke-width:7.5;stroke-linecap:round;stroke-linejoin:round;stroke-miterlimit:10;stroke-dasharray:none;stroke-opacity:1"
           id="path6804"
           inkscape:connector-curvature="0" /><path
           d="m 1698,837.6 h 3.6 l 3.6,-1.2 2.4,-1.2 3.6,-2.4 1.2,-2.4 2.4,-2.4 2.4,-3.6 v -7.2 l -2.4,-3.6 -2.4,-2.4 -1.2,-3.6 -3.6,-1.2 -2.4,-2.4 h -3.6 l -3.6,-2.4 -3.6,2.4 h -3.6 l -2.4,2.4 -3.6,1.2 -2.4,3.6 -1.2,2.4 -1.2,3.6 v 7.2 l 1.2,3.6 1.2,2.4 2.4,2.4 3.6,2.4 2.4,1.2 3.6,1.2 h 3.6"
           style="fill:#000000;fill-opacity:1;fill-rule:evenodd;stroke:none"
           id="path6806"
           inkscape:connector-curvature="0" /><path
           d="m 1698,837.6 h 3.6 l 3.6,-1.2 2.4,-1.2 3.6,-2.4 1.2,-2.4 2.4,-2.4 1.2,-3.6 v -7.2 l -1.2,-3.6 -2.4,-2.4 -1.2,-3.6 -3.6,-1.2 -2.4,-2.4 h -3.6 l -3.6,-1.2 -3.6,1.2 h -3.6 l -2.4,2.4 -3.6,1.2 -2.4,3.6 -1.2,2.4 -1.2,3.6 v 7.2 l 1.2,3.6 1.2,2.4 2.4,2.4 3.6,2.4 2.4,1.2 3.6,1.2 z"
           style="fill:none;stroke:#000000;stroke-width:7.5;stroke-linecap:round;stroke-linejoin:round;stroke-miterlimit:10;stroke-dasharray:none;stroke-opacity:1"
           id="path6808"
           inkscape:connector-curvature="0" /><path
           d="m 1698,837.6 h 3.6 l 3.6,-1.2 2.4,-1.2 3.6,-2.4 1.2,-2.4 2.4,-2.4 1.2,-3.6 v -7.2 l -1.2,-3.6 -2.4,-2.4 -1.2,-3.6 -3.6,-1.2 -2.4,-2.4 h -3.6 l -3.6,-1.2 -3.6,1.2 h -3.6 l -2.4,2.4 -3.6,1.2 -2.4,3.6 -1.2,2.4 -1.2,3.6 v 7.2 l 1.2,3.6 1.2,2.4 2.4,2.4 3.6,2.4 2.4,1.2 3.6,1.2 z"
           style="fill:none;stroke:#000000;stroke-width:7.5;stroke-linecap:round;stroke-linejoin:round;stroke-miterlimit:10;stroke-dasharray:none;stroke-opacity:1"
           id="path6810"
           inkscape:connector-curvature="0" /><path
           d="m 1098,1136.4 h 3.6 l 3.6,-1.2 2.4,-1.2 3.6,-2.4 1.2,-2.4 2.4,-2.4 2.4,-3.6 v -7.2 l -2.4,-3.6 -2.4,-2.4 -1.2,-2.4 -3.6,-2.4 -2.4,-2.4 h -3.6 l -3.6,-2.4 -3.6,2.4 h -3.6 l -2.4,2.4 -3.6,2.4 -2.4,2.4 -1.2,2.4 -1.2,3.6 v 7.2 l 1.2,3.6 1.2,2.4 2.4,2.4 3.6,2.4 2.4,1.2 3.6,1.2 h 3.6"
           style="fill:#000000;fill-opacity:1;fill-rule:evenodd;stroke:none"
           id="path6812"
           inkscape:connector-curvature="0" /><path
           d="m 1098,1136.4 h 3.6 l 3.6,-1.2 2.4,-1.2 3.6,-2.4 1.2,-2.4 2.4,-2.4 1.2,-3.6 v -7.2 l -1.2,-3.6 -2.4,-2.4 -1.2,-2.4 -3.6,-2.4 -2.4,-2.4 h -3.6 l -3.6,-1.2 -3.6,1.2 h -3.6 l -2.4,2.4 -3.6,2.4 -2.4,2.4 -1.2,2.4 -1.2,3.6 v 7.2 l 1.2,3.6 1.2,2.4 2.4,2.4 3.6,2.4 2.4,1.2 3.6,1.2 z"
           style="fill:none;stroke:#000000;stroke-width:7.5;stroke-linecap:round;stroke-linejoin:round;stroke-miterlimit:10;stroke-dasharray:none;stroke-opacity:1"
           id="path6814"
           inkscape:connector-curvature="0" /><path
           d="m 1098,1136.4 h 3.6 l 3.6,-1.2 2.4,-1.2 3.6,-2.4 1.2,-2.4 2.4,-2.4 1.2,-3.6 v -7.2 l -1.2,-3.6 -2.4,-2.4 -1.2,-2.4 -3.6,-2.4 -2.4,-2.4 h -3.6 l -3.6,-1.2 -3.6,1.2 h -3.6 l -2.4,2.4 -3.6,2.4 -2.4,2.4 -1.2,2.4 -1.2,3.6 v 7.2 l 1.2,3.6 1.2,2.4 2.4,2.4 3.6,2.4 2.4,1.2 3.6,1.2 z"
           style="fill:none;stroke:#000000;stroke-width:7.5;stroke-linecap:round;stroke-linejoin:round;stroke-miterlimit:10;stroke-dasharray:none;stroke-opacity:1"
           id="path6816"
           inkscape:connector-curvature="0" /><path
           d="m 1398,1136.4 h 3.6 l 3.6,-1.2 2.4,-1.2 3.6,-2.4 1.2,-2.4 2.4,-2.4 2.4,-3.6 v -7.2 l -2.4,-3.6 -2.4,-2.4 -1.2,-2.4 -3.6,-2.4 -2.4,-2.4 h -3.6 l -3.6,-2.4 -3.6,2.4 h -3.6 l -2.4,2.4 -3.6,2.4 -2.4,2.4 -1.2,2.4 -1.2,3.6 v 7.2 l 1.2,3.6 1.2,2.4 2.4,2.4 3.6,2.4 2.4,1.2 3.6,1.2 h 3.6"
           style="fill:#000000;fill-opacity:1;fill-rule:evenodd;stroke:none"
           id="path6818"
           inkscape:connector-curvature="0" /><path
           d="m 1398,1136.4 h 3.6 l 3.6,-1.2 2.4,-1.2 3.6,-2.4 1.2,-2.4 2.4,-2.4 1.2,-3.6 v -7.2 l -1.2,-3.6 -2.4,-2.4 -1.2,-2.4 -3.6,-2.4 -2.4,-2.4 h -3.6 l -3.6,-1.2 -3.6,1.2 h -3.6 l -2.4,2.4 -3.6,2.4 -2.4,2.4 -1.2,2.4 -1.2,3.6 v 7.2 l 1.2,3.6 1.2,2.4 2.4,2.4 3.6,2.4 2.4,1.2 3.6,1.2 z"
           style="fill:none;stroke:#000000;stroke-width:7.5;stroke-linecap:round;stroke-linejoin:round;stroke-miterlimit:10;stroke-dasharray:none;stroke-opacity:1"
           id="path6820"
           inkscape:connector-curvature="0" /><path
           d="m 1398,1136.4 h 3.6 l 3.6,-1.2 2.4,-1.2 3.6,-2.4 1.2,-2.4 2.4,-2.4 1.2,-3.6 v -7.2 l -1.2,-3.6 -2.4,-2.4 -1.2,-2.4 -3.6,-2.4 -2.4,-2.4 h -3.6 l -3.6,-1.2 -3.6,1.2 h -3.6 l -2.4,2.4 -3.6,2.4 -2.4,2.4 -1.2,2.4 -1.2,3.6 v 7.2 l 1.2,3.6 1.2,2.4 2.4,2.4 3.6,2.4 2.4,1.2 3.6,1.2 z"
           style="fill:none;stroke:#000000;stroke-width:7.5;stroke-linecap:round;stroke-linejoin:round;stroke-miterlimit:10;stroke-dasharray:none;stroke-opacity:1"
           id="path6822"
           inkscape:connector-curvature="0" /><path
           d="m 1698,1136.4 h 3.6 l 3.6,-1.2 2.4,-1.2 3.6,-2.4 1.2,-2.4 2.4,-2.4 2.4,-3.6 v -7.2 l -2.4,-3.6 -2.4,-2.4 -1.2,-3.6 -3.6,-1.2 -2.4,-2.4 h -3.6 l -3.6,-2.4 -3.6,2.4 h -3.6 l -2.4,2.4 -3.6,1.2 -2.4,3.6 -1.2,2.4 -1.2,3.6 v 7.2 l 1.2,3.6 1.2,2.4 2.4,2.4 3.6,2.4 2.4,1.2 3.6,1.2 h 3.6"
           style="fill:#000000;fill-opacity:1;fill-rule:evenodd;stroke:none"
           id="path6824"
           inkscape:connector-curvature="0" /><path
           d="m 1698,1136.4 h 3.6 l 3.6,-1.2 2.4,-1.2 3.6,-2.4 1.2,-2.4 2.4,-2.4 1.2,-3.6 v -7.2 l -1.2,-3.6 -2.4,-2.4 -1.2,-3.6 -3.6,-1.2 -2.4,-2.4 h -3.6 l -3.6,-1.2 -3.6,1.2 h -3.6 l -2.4,2.4 -3.6,1.2 -2.4,3.6 -1.2,2.4 -1.2,3.6 v 7.2 l 1.2,3.6 1.2,2.4 2.4,2.4 3.6,2.4 2.4,1.2 3.6,1.2 z"
           style="fill:none;stroke:#000000;stroke-width:7.5;stroke-linecap:round;stroke-linejoin:round;stroke-miterlimit:10;stroke-dasharray:none;stroke-opacity:1"
           id="path6826"
           inkscape:connector-curvature="0" /><path
           d="m 1698,1136.4 h 3.6 l 3.6,-1.2 2.4,-1.2 3.6,-2.4 1.2,-2.4 2.4,-2.4 1.2,-3.6 v -7.2 l -1.2,-3.6 -2.4,-2.4 -1.2,-3.6 -3.6,-1.2 -2.4,-2.4 h -3.6 l -3.6,-1.2 -3.6,1.2 h -3.6 l -2.4,2.4 -3.6,1.2 -2.4,3.6 -1.2,2.4 -1.2,3.6 v 7.2 l 1.2,3.6 1.2,2.4 2.4,2.4 3.6,2.4 2.4,1.2 3.6,1.2 z"
           style="fill:none;stroke:#000000;stroke-width:7.5;stroke-linecap:round;stroke-linejoin:round;stroke-miterlimit:10;stroke-dasharray:none;stroke-opacity:1"
           id="path6828"
           inkscape:connector-curvature="0" /><path
           d="m 1098,1436.4 h 3.6 l 3.6,-1.2 2.4,-1.2 3.6,-2.4 1.2,-2.4 2.4,-2.4 2.4,-3.6 v -7.2 l -2.4,-3.6 -2.4,-2.4 -1.2,-2.4 -3.6,-2.4 -2.4,-2.4 h -3.6 l -3.6,-2.4 -3.6,2.4 h -3.6 l -2.4,2.4 -3.6,2.4 -2.4,2.4 -1.2,2.4 -1.2,3.6 v 7.2 l 1.2,3.6 1.2,2.4 2.4,2.4 3.6,2.4 2.4,1.2 3.6,1.2 h 3.6"
           style="fill:#000000;fill-opacity:1;fill-rule:evenodd;stroke:none"
           id="path6830"
           inkscape:connector-curvature="0" /><path
           d="m 1098,1436.4 h 3.6 l 3.6,-1.2 2.4,-1.2 3.6,-2.4 1.2,-2.4 2.4,-2.4 1.2,-3.6 v -7.2 l -1.2,-3.6 -2.4,-2.4 -1.2,-2.4 -3.6,-2.4 -2.4,-2.4 h -3.6 l -3.6,-1.2 -3.6,1.2 h -3.6 l -2.4,2.4 -3.6,2.4 -2.4,2.4 -1.2,2.4 -1.2,3.6 v 7.2 l 1.2,3.6 1.2,2.4 2.4,2.4 3.6,2.4 2.4,1.2 3.6,1.2 z"
           style="fill:none;stroke:#000000;stroke-width:7.5;stroke-linecap:round;stroke-linejoin:round;stroke-miterlimit:10;stroke-dasharray:none;stroke-opacity:1"
           id="path6832"
           inkscape:connector-curvature="0" /><path
           d="m 1098,1436.4 h 3.6 l 3.6,-1.2 2.4,-1.2 3.6,-2.4 1.2,-2.4 2.4,-2.4 1.2,-3.6 v -7.2 l -1.2,-3.6 -2.4,-2.4 -1.2,-2.4 -3.6,-2.4 -2.4,-2.4 h -3.6 l -3.6,-1.2 -3.6,1.2 h -3.6 l -2.4,2.4 -3.6,2.4 -2.4,2.4 -1.2,2.4 -1.2,3.6 v 7.2 l 1.2,3.6 1.2,2.4 2.4,2.4 3.6,2.4 2.4,1.2 3.6,1.2 z"
           style="fill:none;stroke:#000000;stroke-width:7.5;stroke-linecap:round;stroke-linejoin:round;stroke-miterlimit:10;stroke-dasharray:none;stroke-opacity:1"
           id="path6834"
           inkscape:connector-curvature="0" /><path
           d="m 1398,1436.4 h 3.6 l 3.6,-1.2 2.4,-1.2 3.6,-2.4 1.2,-2.4 2.4,-2.4 2.4,-3.6 v -7.2 l -2.4,-3.6 -2.4,-2.4 -1.2,-2.4 -3.6,-2.4 -2.4,-2.4 h -3.6 l -3.6,-2.4 -3.6,2.4 h -3.6 l -2.4,2.4 -3.6,2.4 -2.4,2.4 -1.2,2.4 -1.2,3.6 v 7.2 l 1.2,3.6 1.2,2.4 2.4,2.4 3.6,2.4 2.4,1.2 3.6,1.2 h 3.6"
           style="fill:#000000;fill-opacity:1;fill-rule:evenodd;stroke:none"
           id="path6836"
           inkscape:connector-curvature="0" /><path
           d="m 1398,1436.4 h 3.6 l 3.6,-1.2 2.4,-1.2 3.6,-2.4 1.2,-2.4 2.4,-2.4 1.2,-3.6 v -7.2 l -1.2,-3.6 -2.4,-2.4 -1.2,-2.4 -3.6,-2.4 -2.4,-2.4 h -3.6 l -3.6,-1.2 -3.6,1.2 h -3.6 l -2.4,2.4 -3.6,2.4 -2.4,2.4 -1.2,2.4 -1.2,3.6 v 7.2 l 1.2,3.6 1.2,2.4 2.4,2.4 3.6,2.4 2.4,1.2 3.6,1.2 z"
           style="fill:none;stroke:#000000;stroke-width:7.5;stroke-linecap:round;stroke-linejoin:round;stroke-miterlimit:10;stroke-dasharray:none;stroke-opacity:1"
           id="path6838"
           inkscape:connector-curvature="0" /><path
           d="m 1398,1436.4 h 3.6 l 3.6,-1.2 2.4,-1.2 3.6,-2.4 1.2,-2.4 2.4,-2.4 1.2,-3.6 v -7.2 l -1.2,-3.6 -2.4,-2.4 -1.2,-2.4 -3.6,-2.4 -2.4,-2.4 h -3.6 l -3.6,-1.2 -3.6,1.2 h -3.6 l -2.4,2.4 -3.6,2.4 -2.4,2.4 -1.2,2.4 -1.2,3.6 v 7.2 l 1.2,3.6 1.2,2.4 2.4,2.4 3.6,2.4 2.4,1.2 3.6,1.2 z"
           style="fill:none;stroke:#000000;stroke-width:7.5;stroke-linecap:round;stroke-linejoin:round;stroke-miterlimit:10;stroke-dasharray:none;stroke-opacity:1"
           id="path6840"
           inkscape:connector-curvature="0" /><path
           d="m 1698,1436.4 h 3.6 l 3.6,-1.2 2.4,-1.2 3.6,-2.4 1.2,-2.4 2.4,-2.4 2.4,-3.6 v -7.2 l -2.4,-3.6 -2.4,-2.4 -1.2,-3.6 -3.6,-1.2 -2.4,-2.4 h -3.6 l -3.6,-2.4 -3.6,2.4 h -3.6 l -2.4,2.4 -3.6,1.2 -2.4,3.6 -1.2,2.4 -1.2,3.6 v 7.2 l 1.2,3.6 1.2,2.4 2.4,2.4 3.6,2.4 2.4,1.2 3.6,1.2 h 3.6"
           style="fill:#000000;fill-opacity:1;fill-rule:evenodd;stroke:none"
           id="path6842"
           inkscape:connector-curvature="0" /><path
           d="m 1698,1436.4 h 3.6 l 3.6,-1.2 2.4,-1.2 3.6,-2.4 1.2,-2.4 2.4,-2.4 1.2,-3.6 v -7.2 l -1.2,-3.6 -2.4,-2.4 -1.2,-3.6 -3.6,-1.2 -2.4,-2.4 h -3.6 l -3.6,-1.2 -3.6,1.2 h -3.6 l -2.4,2.4 -3.6,1.2 -2.4,3.6 -1.2,2.4 -1.2,3.6 v 7.2 l 1.2,3.6 1.2,2.4 2.4,2.4 3.6,2.4 2.4,1.2 3.6,1.2 z"
           style="fill:none;stroke:#000000;stroke-width:7.5;stroke-linecap:round;stroke-linejoin:round;stroke-miterlimit:10;stroke-dasharray:none;stroke-opacity:1"
           id="path6844"
           inkscape:connector-curvature="0" /><path
           d="m 1698,1436.4 h 3.6 l 3.6,-1.2 2.4,-1.2 3.6,-2.4 1.2,-2.4 2.4,-2.4 1.2,-3.6 v -7.2 l -1.2,-3.6 -2.4,-2.4 -1.2,-3.6 -3.6,-1.2 -2.4,-2.4 h -3.6 l -3.6,-1.2 -3.6,1.2 h -3.6 l -2.4,2.4 -3.6,1.2 -2.4,3.6 -1.2,2.4 -1.2,3.6 v 7.2 l 1.2,3.6 1.2,2.4 2.4,2.4 3.6,2.4 2.4,1.2 3.6,1.2 z"
           style="fill:none;stroke:#000000;stroke-width:7.5;stroke-linecap:round;stroke-linejoin:round;stroke-miterlimit:10;stroke-dasharray:none;stroke-opacity:1"
           id="path6846"
           inkscape:connector-curvature="0" /><path
           d="M 60,956.4 V 357.6"
           style="fill:none;stroke:#000000;stroke-width:22.5;stroke-linecap:round;stroke-linejoin:round;stroke-miterlimit:10;stroke-dasharray:none;stroke-opacity:1"
           id="path6848"
           inkscape:connector-curvature="0" /><path
           d="M 60,961.2 H 957.6"
           style="fill:none;stroke:#000000;stroke-width:22.5;stroke-linecap:round;stroke-linejoin:round;stroke-miterlimit:10;stroke-dasharray:none;stroke-opacity:1"
           id="path6850"
           inkscape:connector-curvature="0" /><path
           d="M 957.6,1540.8 V 961.2"
           style="fill:none;stroke:#000000;stroke-width:22.5;stroke-linecap:round;stroke-linejoin:round;stroke-miterlimit:10;stroke-dasharray:none;stroke-opacity:1"
           id="path6852"
           inkscape:connector-curvature="0" /><path
           d="M 60,357.6 H 960"
           style="fill:none;stroke:#000000;stroke-width:22.5;stroke-linecap:round;stroke-linejoin:round;stroke-miterlimit:10;stroke-dasharray:none;stroke-opacity:1"
           id="path6854"
           inkscape:connector-curvature="0" /><path
           d="m 960,1556.4 h 900"
           style="fill:none;stroke:#000000;stroke-width:22.5;stroke-linecap:round;stroke-linejoin:round;stroke-miterlimit:10;stroke-dasharray:none;stroke-opacity:1"
           id="path6856"
           inkscape:connector-curvature="0" /><path
           d="M 194.4,453.6 V 223.2"
           style="fill:none;stroke:#000000;stroke-width:15;stroke-linecap:round;stroke-linejoin:round;stroke-miterlimit:10;stroke-dasharray:none;stroke-opacity:1"
           id="path6858"
           inkscape:connector-curvature="0" /><path
           d="m 194.4,475.2 27.6,-57.6 -27.6,25.2 -28.8,-25.2 28.8,57.6"
           style="fill:#000000;fill-opacity:1;fill-rule:evenodd;stroke:none"
           id="path6860"
           inkscape:connector-curvature="0" /><path
           d="m 194.4,475.2 27.6,-57.6 -27.6,25.2 -28.8,-25.2 28.8,57.6"
           style="fill:none;stroke:#000000;stroke-width:7.5;stroke-linecap:round;stroke-linejoin:round;stroke-miterlimit:10;stroke-dasharray:none;stroke-opacity:1"
           id="path6862"
           inkscape:connector-curvature="0" /><path
           d="M 1692,1713.6 V 1483.2"
           style="fill:none;stroke:#000000;stroke-width:15;stroke-linecap:round;stroke-linejoin:round;stroke-miterlimit:10;stroke-dasharray:none;stroke-opacity:1"
           id="path6864"
           inkscape:connector-curvature="0" /><path
           d="m 1692,1461.6 -27.6,57.6 27.6,-25.2 28.8,25.2 -28.8,-57.6"
           style="fill:#000000;fill-opacity:1;fill-rule:evenodd;stroke:none"
           id="path6866"
           inkscape:connector-curvature="0" /><path
           d="m 1692,1461.6 -27.6,57.6 27.6,-25.2 28.8,25.2 -28.8,-57.6"
           style="fill:none;stroke:#000000;stroke-width:7.5;stroke-linecap:round;stroke-linejoin:round;stroke-miterlimit:10;stroke-dasharray:none;stroke-opacity:1"
           id="path6868"
           inkscape:connector-curvature="0" /></g></g></g></svg>