<?xml version="1.0" encoding="UTF-8" standalone="no"?>
<!-- Created with Inkscape (http://www.inkscape.org/) -->

<svg
   xmlns:dc="http://purl.org/dc/elements/1.1/"
   xmlns:cc="http://creativecommons.org/ns#"
   xmlns:rdf="http://www.w3.org/1999/02/22-rdf-syntax-ns#"
   xmlns:svg="http://www.w3.org/2000/svg"
   xmlns="http://www.w3.org/2000/svg"
   xmlns:sodipodi="http://sodipodi.sourceforge.net/DTD/sodipodi-0.dtd"
   xmlns:inkscape="http://www.inkscape.org/namespaces/inkscape"
   version="1.1"
   id="svg7208"
   xml:space="preserve"
   width="289.41428"
   height="288.77429"
   viewBox="0 0 289.41428 288.7743"
   sodipodi:docname="figStructStenc1.svg"
   inkscape:version="0.92.2 (5c3e80d, 2017-08-06)"><metadata
     id="metadata7214"><rdf:RDF><cc:Work
         rdf:about=""><dc:format>image/svg+xml</dc:format><dc:type
           rdf:resource="http://purl.org/dc/dcmitype/StillImage" /><dc:title></dc:title></cc:Work></rdf:RDF></metadata><defs
     id="defs7212" /><sodipodi:namedview
     pagecolor="#ffffff"
     bordercolor="#666666"
     borderopacity="1"
     objecttolerance="10"
     gridtolerance="10"
     guidetolerance="10"
     inkscape:pageopacity="0"
     inkscape:pageshadow="2"
     inkscape:window-width="1262"
     inkscape:window-height="894"
     id="namedview7210"
     showgrid="false"
     inkscape:zoom="2.4067238"
     inkscape:cx="144.70714"
     inkscape:cy="144.38715"
     inkscape:window-x="0"
     inkscape:window-y="0"
     inkscape:window-maximized="0"
     inkscape:current-layer="g7216" /><g
     id="g7216"
     inkscape:groupmode="layer"
     inkscape:label="figStructStenc1"
     transform="matrix(1.3333333,0,0,-1.3333333,-4.732357,293.50761)"><g
       id="g7218"
       transform="scale(0.1)"><g
         id="g7220"><path
           d="m 40.7998,35.9998 h 2164.8 v 2164.8 h -2164.8 z"
           style="fill:none;stroke:#000000;stroke-width:1;stroke-linecap:butt;stroke-linejoin:round;stroke-miterlimit:10;stroke-dasharray:none;stroke-opacity:1"
           id="path7222"
           inkscape:connector-curvature="0" /><path
           d="M 35.9998,760.8 H 2193.6"
           style="fill:none;stroke:#000000;stroke-width:1;stroke-linecap:round;stroke-linejoin:round;stroke-miterlimit:10;stroke-dasharray:none;stroke-opacity:1"
           id="path7224"
           inkscape:connector-curvature="0" /><path
           d="M 40.7998,1480.8 H 2193.6"
           style="fill:none;stroke:#000000;stroke-width:1;stroke-linecap:round;stroke-linejoin:round;stroke-miterlimit:10;stroke-dasharray:none;stroke-opacity:1"
           id="path7226"
           inkscape:connector-curvature="0" /><path
           d="M 759.6,2200.8 V 44.3999"
           style="fill:none;stroke:#000000;stroke-width:1;stroke-linecap:round;stroke-linejoin:round;stroke-miterlimit:10;stroke-dasharray:none;stroke-opacity:1"
           id="path7228"
           inkscape:connector-curvature="0" /><path
           d="M 1480.8,2198.4 V 41.9998"
           style="fill:none;stroke:#000000;stroke-width:1;stroke-linecap:round;stroke-linejoin:round;stroke-miterlimit:10;stroke-dasharray:none;stroke-opacity:1"
           id="path7230"
           inkscape:connector-curvature="0" /><g
           id="g7232"
           transform="scale(10)"><text
             transform="matrix(0.833333,0,0,-1,16.08,33.36)"
             style="font-style:italic;font-variant:normal;font-size:18px;font-family:'Times New Roman';-inkscape-font-specification:Times-Italic;writing-mode:lr-tb;fill:#000000;fill-opacity:1;fill-rule:nonzero;stroke:none"
             id="text7238"><tspan
               x="0 5.9939899 11.98798 20.98798 25.48798 31.48197 40.481972 46.47596"
               y="0"
               sodipodi:role="line"
               id="tspan7234">(-1,-1)</tspan><tspan
               x="22.463961 28.457951 37.457951 41.957951 50.957951 56.951939"
               y="-126.36"
               sodipodi:role="line"
               id="tspan7236">(0,0)</tspan></text>
</g><path
           d="m 1178.4,1123.27 c -0.09,40.65 -46.07,65.96 -82.86,45.62 -36.75,-20.4 -36.66,-71.22 0.17,-91.48 36.86,-20.21 82.75,5.27 82.69,45.85"
           style="fill:#c0c0c0;fill-opacity:1;fill-rule:evenodd;stroke:none"
           id="path7240"
           inkscape:connector-curvature="0" /><path
           d="m 1178.4,1123.27 c -0.09,40.65 -46.07,65.96 -82.86,45.62 -36.75,-20.4 -36.66,-71.22 0.17,-91.48 36.86,-20.21 82.75,5.27 82.69,45.85"
           style="fill:none;stroke:#c0c0c0;stroke-width:1;stroke-linecap:round;stroke-linejoin:round;stroke-miterlimit:10;stroke-dasharray:none;stroke-opacity:1"
           id="path7242"
           inkscape:connector-curvature="0" /><path
           d="M 1124.4,1845.6 V 1135.2"
           style="fill:none;stroke:#c0c0c0;stroke-width:42.5;stroke-linecap:round;stroke-linejoin:round;stroke-miterlimit:10;stroke-dasharray:none;stroke-opacity:1"
           id="path7244"
           inkscape:connector-curvature="0" /><path
           d="M 1124.4,1117.2 V 406.8"
           style="fill:none;stroke:#c0c0c0;stroke-width:42.5;stroke-linecap:round;stroke-linejoin:round;stroke-miterlimit:10;stroke-dasharray:none;stroke-opacity:1"
           id="path7246"
           inkscape:connector-curvature="0" /><path
           d="M 405.6,1125.6 H 1116"
           style="fill:none;stroke:#c0c0c0;stroke-width:42.5;stroke-linecap:round;stroke-linejoin:round;stroke-miterlimit:10;stroke-dasharray:none;stroke-opacity:1"
           id="path7248"
           inkscape:connector-curvature="0" /><path
           d="m 1128,1124.4 h 710.4"
           style="fill:none;stroke:#c0c0c0;stroke-width:42.5;stroke-linecap:round;stroke-linejoin:round;stroke-miterlimit:10;stroke-dasharray:none;stroke-opacity:1"
           id="path7250"
           inkscape:connector-curvature="0" /><path
           d="M 696,1545.6 979.2,1262.4"
           style="fill:none;stroke:#000000;stroke-width:15;stroke-linecap:round;stroke-linejoin:round;stroke-miterlimit:10;stroke-dasharray:none;stroke-opacity:1"
           id="path7252"
           inkscape:connector-curvature="0" /><path
           d="m 998.4,1243.2 -61.2,20.4 38.4,2.4 2.4,38.4 20.4,-61.2"
           style="fill:#000000;fill-opacity:1;fill-rule:evenodd;stroke:none"
           id="path7254"
           inkscape:connector-curvature="0" /><path
           d="m 998.4,1243.2 -61.2,20.4 38.4,2.4 2.4,38.4 20.4,-61.2"
           style="fill:none;stroke:#000000;stroke-width:7.5;stroke-linecap:round;stroke-linejoin:round;stroke-miterlimit:10;stroke-dasharray:none;stroke-opacity:1"
           id="path7256"
           inkscape:connector-curvature="0" /><path
           d="m 1178.4,398.54 c -0.14,42.491 -45.16,68.904 -81.06,47.628 -35.96,-21.323 -35.89,-74.378 0.12,-95.607 36.12,-21.16 81.01,5.477 80.94,47.968"
           style="fill:#c0c0c0;fill-opacity:1;fill-rule:evenodd;stroke:none"
           id="path7258"
           inkscape:connector-curvature="0" /><path
           d="m 1178.4,398.54 c -0.14,42.491 -45.16,68.904 -81.06,47.628 -35.96,-21.323 -35.89,-74.378 0.12,-95.607 36.12,-21.16 81.01,5.477 80.94,47.968"
           style="fill:none;stroke:#c0c0c0;stroke-width:7.5;stroke-linecap:round;stroke-linejoin:round;stroke-miterlimit:10;stroke-dasharray:none;stroke-opacity:1"
           id="path7260"
           inkscape:connector-curvature="0" /><path
           d="m 458.4,1126.87 c -0.089,40.65 -46.069,65.96 -82.859,45.62 -36.755,-20.4 -36.662,-71.22 0.169,-91.48 36.864,-20.21 82.751,5.27 82.69,45.85"
           style="fill:#c0c0c0;fill-opacity:1;fill-rule:evenodd;stroke:none"
           id="path7262"
           inkscape:connector-curvature="0" /><path
           d="m 458.4,1126.87 c -0.089,40.65 -46.069,65.96 -82.859,45.62 -36.755,-20.4 -36.662,-71.22 0.169,-91.48 36.864,-20.21 82.751,5.27 82.69,45.85"
           style="fill:none;stroke:#c0c0c0;stroke-width:7.5;stroke-linecap:round;stroke-linejoin:round;stroke-miterlimit:10;stroke-dasharray:none;stroke-opacity:1"
           id="path7264"
           inkscape:connector-curvature="0" /><path
           d="m 1178.4,1838.54 c -0.14,42.49 -44.16,68.9 -79.26,47.63 -35.16,-21.33 -35.09,-74.38 0.12,-95.61 35.32,-21.16 79.21,5.48 79.14,47.97"
           style="fill:#c0c0c0;fill-opacity:1;fill-rule:evenodd;stroke:none"
           id="path7266"
           inkscape:connector-curvature="0" /><path
           d="m 1178.4,1838.54 c -0.14,42.49 -44.16,68.9 -79.26,47.63 -35.16,-21.33 -35.09,-74.38 0.12,-95.61 35.32,-21.16 79.21,5.48 79.14,47.97"
           style="fill:none;stroke:#c0c0c0;stroke-width:7.5;stroke-linecap:round;stroke-linejoin:round;stroke-miterlimit:10;stroke-dasharray:none;stroke-opacity:1"
           id="path7268"
           inkscape:connector-curvature="0" /><path
           d="m 1898.4,1124.41 c -0.04,41.57 -44.99,67.51 -81.01,46.75 -36.01,-20.89 -35.94,-72.79 0.07,-93.56 36.04,-20.71 80.91,5.23 80.94,46.8"
           style="fill:#c0c0c0;fill-opacity:1;fill-rule:evenodd;stroke:none"
           id="path7270"
           inkscape:connector-curvature="0" /><path
           d="m 1898.4,1124.41 c -0.04,41.57 -44.99,67.51 -81.01,46.75 -36.01,-20.89 -35.94,-72.79 0.07,-93.56 36.04,-20.71 80.91,5.23 80.94,46.8"
           style="fill:none;stroke:#c0c0c0;stroke-width:7.5;stroke-linecap:round;stroke-linejoin:round;stroke-miterlimit:10;stroke-dasharray:none;stroke-opacity:1"
           id="path7272"
           inkscape:connector-curvature="0" /></g></g></g></svg>