<?xml version="1.0" encoding="UTF-8" standalone="no"?>
<!-- Created with Inkscape (http://www.inkscape.org/) -->

<svg
   xmlns:dc="http://purl.org/dc/elements/1.1/"
   xmlns:cc="http://creativecommons.org/ns#"
   xmlns:rdf="http://www.w3.org/1999/02/22-rdf-syntax-ns#"
   xmlns:svg="http://www.w3.org/2000/svg"
   xmlns="http://www.w3.org/2000/svg"
   xmlns:sodipodi="http://sodipodi.sourceforge.net/DTD/sodipodi-0.dtd"
   xmlns:inkscape="http://www.inkscape.org/namespaces/inkscape"
   version="1.1"
   id="svg2236"
   xml:space="preserve"
   width="419.42401"
   height="215.90401"
   viewBox="0 0 419.42401 215.90401"
   sodipodi:docname="figSStructGridFEM4.svg"
   inkscape:version="0.92.2 (5c3e80d, 2017-08-06)"><metadata
     id="metadata2242"><rdf:RDF><cc:Work
         rdf:about=""><dc:format>image/svg+xml</dc:format><dc:type
           rdf:resource="http://purl.org/dc/dcmitype/StillImage" /><dc:title></dc:title></cc:Work></rdf:RDF></metadata><defs
     id="defs2240"><clipPath
       clipPathUnits="userSpaceOnUse"
       id="clipPath2360"><path
         d="M 0,0 H 720 V 540 H 0 Z"
         id="path2358"
         inkscape:connector-curvature="0" /></clipPath><clipPath
       clipPathUnits="userSpaceOnUse"
       id="clipPath2376"><path
         d="M 0,0 H 720 V 540 H 0 Z"
         id="path2374"
         inkscape:connector-curvature="0" /></clipPath><clipPath
       clipPathUnits="userSpaceOnUse"
       id="clipPath2392"><path
         d="M 0,0 H 720 V 540 H 0 Z"
         id="path2390"
         inkscape:connector-curvature="0" /></clipPath><clipPath
       clipPathUnits="userSpaceOnUse"
       id="clipPath2408"><path
         d="M 0,0 H 720 V 540 H 0 Z"
         id="path2406"
         inkscape:connector-curvature="0" /></clipPath></defs><sodipodi:namedview
     pagecolor="#ffffff"
     bordercolor="#666666"
     borderopacity="1"
     objecttolerance="10"
     gridtolerance="10"
     guidetolerance="10"
     inkscape:pageopacity="0"
     inkscape:pageshadow="2"
     inkscape:window-width="1364"
     inkscape:window-height="981"
     id="namedview2238"
     showgrid="false"
     inkscape:zoom="2.9635881"
     inkscape:cx="209.71201"
     inkscape:cy="107.952"
     inkscape:window-x="0"
     inkscape:window-y="0"
     inkscape:window-maximized="0"
     inkscape:current-layer="g2244" /><g
     id="g2244"
     inkscape:groupmode="layer"
     inkscape:label="figSStructGridFEM4"
     transform="matrix(1.3333333,0,0,-1.3333333,-218.592,386.496)"><g
       id="g2246"
       transform="translate(387.2999,154.2346)"><path
         d="M 0,0 10.2,106.2"
         style="fill:none;stroke:#000000;stroke-width:0.5;stroke-linecap:butt;stroke-linejoin:round;stroke-miterlimit:10;stroke-dasharray:2, 1.5;stroke-dashoffset:0;stroke-opacity:1"
         id="path2248"
         inkscape:connector-curvature="0" /></g><g
       id="g2250"
       transform="translate(459.5999,195.9346)"><path
         d="M 0,0 -45.6,74.1"
         style="fill:none;stroke:#000000;stroke-width:0.5;stroke-linecap:butt;stroke-linejoin:round;stroke-miterlimit:10;stroke-dasharray:2, 1.5;stroke-dashoffset:0;stroke-opacity:1"
         id="path2252"
         inkscape:connector-curvature="0" /></g><g
       id="g2254"
       transform="translate(411.8998,195.9346)"><path
         d="M 0,0 -9.3,74.1"
         style="fill:none;stroke:#000000;stroke-width:0.5;stroke-linecap:butt;stroke-linejoin:round;stroke-miterlimit:10;stroke-dasharray:2, 1.5;stroke-dashoffset:0;stroke-opacity:1"
         id="path2256"
         inkscape:connector-curvature="0" /></g><g
       id="g2258"
       transform="translate(434.64,155.31461)"><path
         d="M 0,0 -26.64,105.12"
         style="fill:none;stroke:#000000;stroke-width:0.5;stroke-linecap:butt;stroke-linejoin:round;stroke-miterlimit:10;stroke-dasharray:2, 1.5;stroke-dashoffset:0;stroke-opacity:1"
         id="path2260"
         inkscape:connector-curvature="0" /></g><g
       id="g2262"
       transform="translate(258.72121,187.2346)"><path
         d="M 0,0 H 108"
         style="fill:none;stroke:#000000;stroke-width:2.5;stroke-linecap:butt;stroke-linejoin:round;stroke-miterlimit:10;stroke-dasharray:none;stroke-opacity:1"
         id="path2264"
         inkscape:connector-curvature="0" /></g><g
       id="g2266"
       transform="translate(366.72121,187.2346)"><path
         d="M 0,0 54,93.531"
         style="fill:none;stroke:#000000;stroke-width:2.5;stroke-linecap:butt;stroke-linejoin:round;stroke-miterlimit:10;stroke-dasharray:none;stroke-opacity:1"
         id="path2268"
         inkscape:connector-curvature="0" /></g><g
       id="g2270"
       transform="translate(258.72121,187.2346)"><path
         d="M 0,0 54,93.531"
         style="fill:none;stroke:#000000;stroke-width:2.5;stroke-linecap:butt;stroke-linejoin:round;stroke-miterlimit:10;stroke-dasharray:none;stroke-opacity:1"
         id="path2272"
         inkscape:connector-curvature="0" /></g><g
       id="g2274"
       transform="translate(312.72121,280.2547)"><path
         d="M 0,0 H 108"
         style="fill:none;stroke:#000000;stroke-width:2.5;stroke-linecap:butt;stroke-linejoin:round;stroke-miterlimit:10;stroke-dasharray:none;stroke-opacity:1"
         id="path2276"
         inkscape:connector-curvature="0" /></g><g
       id="g2278"
       transform="translate(264.72121,197.4194)"><path
         d="M 0,0 H 18"
         style="fill:none;stroke:#000000;stroke-width:0.75;stroke-linecap:butt;stroke-linejoin:round;stroke-miterlimit:10;stroke-dasharray:none;stroke-opacity:1"
         id="path2280"
         inkscape:connector-curvature="0" /></g><g
       id="g2282"
       transform="translate(270.72121,187.23441)"><path
         d="M 0,0 9,15.588"
         style="fill:none;stroke:#000000;stroke-width:0.75;stroke-linecap:butt;stroke-linejoin:round;stroke-miterlimit:10;stroke-dasharray:none;stroke-opacity:1"
         id="path2284"
         inkscape:connector-curvature="0" /></g><g
       id="g2286"
       transform="translate(282.72121,187.2346)"><path
         d="M 0,0 3.6,6.235"
         style="fill:none;stroke:#000000;stroke-width:0.75;stroke-linecap:butt;stroke-linejoin:round;stroke-miterlimit:10;stroke-dasharray:none;stroke-opacity:1"
         id="path2288"
         inkscape:connector-curvature="0" /></g><g
       id="g2290"
       transform="translate(270.72121,207.60429)"><path
         d="M 0,0 H 7.2"
         style="fill:none;stroke:#000000;stroke-width:0.75;stroke-linecap:butt;stroke-linejoin:round;stroke-miterlimit:10;stroke-dasharray:none;stroke-opacity:1"
         id="path2292"
         inkscape:connector-curvature="0" /></g><g
       id="g2294"
       transform="translate(414.72121,270.01939)"><path
         d="M 0,0 H -18"
         style="fill:none;stroke:#000000;stroke-width:0.75;stroke-linecap:butt;stroke-linejoin:round;stroke-miterlimit:10;stroke-dasharray:none;stroke-opacity:1"
         id="path2296"
         inkscape:connector-curvature="0" /></g><g
       id="g2298"
       transform="translate(408.72121,280.2045)"><path
         d="M 0,0 -9,-15.588"
         style="fill:none;stroke:#000000;stroke-width:0.75;stroke-linecap:butt;stroke-linejoin:round;stroke-miterlimit:10;stroke-dasharray:none;stroke-opacity:1"
         id="path2300"
         inkscape:connector-curvature="0" /></g><g
       id="g2302"
       transform="translate(396.72121,280.2043)"><path
         d="M 0,0 -3.6,-6.235"
         style="fill:none;stroke:#000000;stroke-width:0.75;stroke-linecap:butt;stroke-linejoin:round;stroke-miterlimit:10;stroke-dasharray:none;stroke-opacity:1"
         id="path2304"
         inkscape:connector-curvature="0" /></g><g
       id="g2306"
       transform="translate(408.72121,259.83459)"><path
         d="M 0,0 H -7.2"
         style="fill:none;stroke:#000000;stroke-width:0.75;stroke-linecap:butt;stroke-linejoin:round;stroke-miterlimit:10;stroke-dasharray:none;stroke-opacity:1"
         id="path2308"
         inkscape:connector-curvature="0" /></g><text
       transform="matrix(1,0,0,-1,312.6158,227.9146)"
       style="font-style:italic;font-variant:normal;font-weight:bold;font-stretch:normal;font-size:20.04000092px;font-family:'Times New Roman';-inkscape-font-specification:TimesNewRomanPS-BoldItalicMT;writing-mode:lr-tb;fill:#000000;fill-opacity:1;fill-rule:nonzero;stroke:none"
       id="text2312"><tspan
         x="0 10.08012 20.16024 27.955799 33.466801 38.156158"
         y="0"
         sodipodi:role="line"
         id="tspan2310">part 0</tspan></text>
<text
       transform="matrix(1,0,0,-1,439.4749,275.1744)"
       style="font-style:italic;font-variant:normal;font-weight:normal;font-stretch:normal;font-size:12px;font-family:'Times New Roman';-inkscape-font-specification:TimesNewRomanPS-ItalicMT;writing-mode:lr-tb;fill:#000000;fill-opacity:1;fill-rule:nonzero;stroke:none"
       id="text2316"><tspan
         x="0 3.8399999 9.8400002 12.84 18.84"
         y="0"
         sodipodi:role="line"
         id="tspan2314">(9,9)</tspan></text>
<g
       id="g2318"
       transform="translate(437.51109,279.6512)"><path
         d="M 0,0 -25.421,-4.406"
         style="fill:none;stroke:#000000;stroke-width:1;stroke-linecap:butt;stroke-linejoin:round;stroke-miterlimit:10;stroke-dasharray:none;stroke-opacity:1"
         id="path2320"
         inkscape:connector-curvature="0" /></g><g
       id="g2322"
       transform="translate(413.5876,272.46069)"><path
         d="m 0,0 -4.454,2.273 3.429,3.639 z"
         style="fill:#000000;fill-opacity:1;fill-rule:evenodd;stroke:none"
         id="path2324"
         inkscape:connector-curvature="0" /></g><text
       transform="matrix(1,0,0,-1,296.7354,193.6045)"
       style="font-style:italic;font-variant:normal;font-weight:normal;font-stretch:normal;font-size:12px;font-family:'Times New Roman';-inkscape-font-specification:TimesNewRomanPS-ItalicMT;writing-mode:lr-tb;fill:#000000;fill-opacity:1;fill-rule:nonzero;stroke:none"
       id="text2328"><tspan
         x="0 3.8399999 9.8400002 12.84 18.84"
         y="0"
         sodipodi:role="line"
         id="tspan2326">(1,1)</tspan></text>
<g
       id="g2330"
       transform="translate(295.3262,197.76019)"><path
         d="M 0,0 -25.421,-4.406"
         style="fill:none;stroke:#000000;stroke-width:1;stroke-linecap:butt;stroke-linejoin:round;stroke-miterlimit:10;stroke-dasharray:none;stroke-opacity:1"
         id="path2332"
         inkscape:connector-curvature="0" /></g><g
       id="g2334"
       transform="translate(271.40269,190.56979)"><path
         d="m 0,0 -4.454,2.273 3.429,3.639 z"
         style="fill:#000000;fill-opacity:1;fill-rule:evenodd;stroke:none"
         id="path2336"
         inkscape:connector-curvature="0" /></g><g
       id="g2338"
       transform="translate(387.3,154.0192)"><path
         d="M 0,0 H 48"
         style="fill:none;stroke:#000000;stroke-width:0.75;stroke-linecap:butt;stroke-linejoin:round;stroke-miterlimit:10;stroke-dasharray:none;stroke-opacity:1"
         id="path2340"
         inkscape:connector-curvature="0" /></g><g
       id="g2342"
       transform="translate(435.3,154.45)"><path
         d="M 0,0 24,41.569"
         style="fill:none;stroke:#000000;stroke-width:0.75;stroke-linecap:butt;stroke-linejoin:round;stroke-miterlimit:10;stroke-dasharray:none;stroke-opacity:1"
         id="path2344"
         inkscape:connector-curvature="0" /></g><g
       id="g2346"
       transform="translate(387.3,154.45)"><path
         d="M 0,0 24,41.569"
         style="fill:none;stroke:#000000;stroke-width:0.75;stroke-linecap:butt;stroke-linejoin:round;stroke-miterlimit:10;stroke-dasharray:none;stroke-opacity:1"
         id="path2348"
         inkscape:connector-curvature="0" /></g><g
       id="g2350"
       transform="translate(411.3,196.0192)"><path
         d="M 0,0 H 48"
         style="fill:none;stroke:#000000;stroke-width:0.75;stroke-linecap:butt;stroke-linejoin:round;stroke-miterlimit:10;stroke-dasharray:none;stroke-opacity:1"
         id="path2352"
         inkscape:connector-curvature="0" /></g><g
       id="g2354"><g
         id="g2356"
         clip-path="url(#clipPath2360)"><g
           id="g2362"
           transform="translate(408.8,196.08411)"><path
             d="M 0,0 C 0,1.455 1.161,2.635 2.594,2.635 4.027,2.635 5.188,1.455 5.188,0 5.188,-1.455 4.027,-2.635 2.594,-2.635 1.161,-2.635 0,-1.455 0,0"
             style="fill:#000000;fill-opacity:1;fill-rule:evenodd;stroke:none"
             id="path2364"
             inkscape:connector-curvature="0" /></g><g
           id="g2366"
           transform="translate(408.8,196.08411)"><path
             d="M 0,0 C 0,1.455 1.161,2.635 2.594,2.635 4.027,2.635 5.188,1.455 5.188,0 5.188,-1.455 4.027,-2.635 2.594,-2.635 1.161,-2.635 0,-1.455 0,0 Z"
             style="fill:none;stroke:#000000;stroke-width:0.75;stroke-linecap:butt;stroke-linejoin:round;stroke-miterlimit:10;stroke-dasharray:none;stroke-opacity:1"
             id="path2368"
             inkscape:connector-curvature="0" /></g></g></g><g
       id="g2370"><g
         id="g2372"
         clip-path="url(#clipPath2376)"><g
           id="g2378"
           transform="translate(456.81219,196.08411)"><path
             d="M 0,0 C 0,1.455 1.161,2.635 2.594,2.635 4.027,2.635 5.188,1.455 5.188,0 5.188,-1.455 4.027,-2.635 2.594,-2.635 1.161,-2.635 0,-1.455 0,0"
             style="fill:#000000;fill-opacity:1;fill-rule:evenodd;stroke:none"
             id="path2380"
             inkscape:connector-curvature="0" /></g><g
           id="g2382"
           transform="translate(456.81219,196.08411)"><path
             d="M 0,0 C 0,1.455 1.161,2.635 2.594,2.635 4.027,2.635 5.188,1.455 5.188,0 5.188,-1.455 4.027,-2.635 2.594,-2.635 1.161,-2.635 0,-1.455 0,0 Z"
             style="fill:none;stroke:#000000;stroke-width:0.75;stroke-linecap:butt;stroke-linejoin:round;stroke-miterlimit:10;stroke-dasharray:none;stroke-opacity:1"
             id="path2384"
             inkscape:connector-curvature="0" /></g></g></g><g
       id="g2386"><g
         id="g2388"
         clip-path="url(#clipPath2392)"><g
           id="g2394"
           transform="translate(384.3,154.08411)"><path
             d="M 0,0 C 0,1.455 1.161,2.635 2.594,2.635 4.027,2.635 5.188,1.455 5.188,0 5.188,-1.455 4.027,-2.635 2.594,-2.635 1.161,-2.635 0,-1.455 0,0"
             style="fill:#000000;fill-opacity:1;fill-rule:evenodd;stroke:none"
             id="path2396"
             inkscape:connector-curvature="0" /></g><g
           id="g2398"
           transform="translate(384.3,154.08411)"><path
             d="M 0,0 C 0,1.455 1.161,2.635 2.594,2.635 4.027,2.635 5.188,1.455 5.188,0 5.188,-1.455 4.027,-2.635 2.594,-2.635 1.161,-2.635 0,-1.455 0,0 Z"
             style="fill:none;stroke:#000000;stroke-width:0.75;stroke-linecap:butt;stroke-linejoin:round;stroke-miterlimit:10;stroke-dasharray:none;stroke-opacity:1"
             id="path2400"
             inkscape:connector-curvature="0" /></g></g></g><g
       id="g2402"><g
         id="g2404"
         clip-path="url(#clipPath2408)"><g
           id="g2410"
           transform="translate(432.31219,154.08411)"><path
             d="M 0,0 C 0,1.455 1.161,2.635 2.594,2.635 4.027,2.635 5.188,1.455 5.188,0 5.188,-1.455 4.027,-2.635 2.594,-2.635 1.161,-2.635 0,-1.455 0,0"
             style="fill:#000000;fill-opacity:1;fill-rule:evenodd;stroke:none"
             id="path2412"
             inkscape:connector-curvature="0" /></g><g
           id="g2414"
           transform="translate(432.31219,154.08411)"><path
             d="M 0,0 C 0,1.455 1.161,2.635 2.594,2.635 4.027,2.635 5.188,1.455 5.188,0 5.188,-1.455 4.027,-2.635 2.594,-2.635 1.161,-2.635 0,-1.455 0,0 Z"
             style="fill:none;stroke:#000000;stroke-width:0.75;stroke-linecap:butt;stroke-linejoin:round;stroke-miterlimit:10;stroke-dasharray:none;stroke-opacity:1"
             id="path2416"
             inkscape:connector-curvature="0" /></g></g></g><text
       transform="matrix(1,0,0,-1,389.5245,139.8289)"
       style="font-style:italic;font-variant:normal;font-weight:normal;font-stretch:normal;font-size:12px;font-family:'Times New Roman';-inkscape-font-specification:TimesNewRomanPS-ItalicMT;writing-mode:lr-tb;fill:#a50021;fill-opacity:1;fill-rule:nonzero;stroke:none"
       id="text2426"><tspan
         x="0"
         y="0"
         id="tspan2418">0</tspan><tspan
         x="48"
         y="0.12"
         id="tspan2420">1</tspan><tspan
         x="72.599998"
         y="-41.880001"
         id="tspan2422">2</tspan><tspan
         x="24.6"
         y="-42"
         id="tspan2424">3</tspan></text>
</g></svg>