<?xml version="1.0" encoding="UTF-8" standalone="no"?>
<!-- Created with Inkscape (http://www.inkscape.org/) -->

<svg
   xmlns:dc="http://purl.org/dc/elements/1.1/"
   xmlns:cc="http://creativecommons.org/ns#"
   xmlns:rdf="http://www.w3.org/1999/02/22-rdf-syntax-ns#"
   xmlns:svg="http://www.w3.org/2000/svg"
   xmlns="http://www.w3.org/2000/svg"
   xmlns:sodipodi="http://sodipodi.sourceforge.net/DTD/sodipodi-0.dtd"
   xmlns:inkscape="http://www.inkscape.org/namespaces/inkscape"
   version="1.1"
   id="svg2656"
   xml:space="preserve"
   width="419.42401"
   height="215.90401"
   viewBox="0 0 419.42401 215.90401"
   sodipodi:docname="figSStructGridFEM6.svg"
   inkscape:version="0.92.2 (5c3e80d, 2017-08-06)"><metadata
     id="metadata2662"><rdf:RDF><cc:Work
         rdf:about=""><dc:format>image/svg+xml</dc:format><dc:type
           rdf:resource="http://purl.org/dc/dcmitype/StillImage" /><dc:title></dc:title></cc:Work></rdf:RDF></metadata><defs
     id="defs2660"><clipPath
       clipPathUnits="userSpaceOnUse"
       id="clipPath2732"><path
         d="M 0,0 H 720 V 540 H 0 Z"
         id="path2730"
         inkscape:connector-curvature="0" /></clipPath><clipPath
       clipPathUnits="userSpaceOnUse"
       id="clipPath2748"><path
         d="M 0,0 H 720 V 540 H 0 Z"
         id="path2746"
         inkscape:connector-curvature="0" /></clipPath><clipPath
       clipPathUnits="userSpaceOnUse"
       id="clipPath2764"><path
         d="M 0,0 H 720 V 540 H 0 Z"
         id="path2762"
         inkscape:connector-curvature="0" /></clipPath><clipPath
       clipPathUnits="userSpaceOnUse"
       id="clipPath2780"><path
         d="M 0,0 H 720 V 540 H 0 Z"
         id="path2778"
         inkscape:connector-curvature="0" /></clipPath><clipPath
       clipPathUnits="userSpaceOnUse"
       id="clipPath2796"><path
         d="M 0,0 H 720 V 540 H 0 Z"
         id="path2794"
         inkscape:connector-curvature="0" /></clipPath><clipPath
       clipPathUnits="userSpaceOnUse"
       id="clipPath2816"><path
         d="M 0,0 H 720 V 540 H 0 Z"
         id="path2814"
         inkscape:connector-curvature="0" /></clipPath><clipPath
       clipPathUnits="userSpaceOnUse"
       id="clipPath2836"><path
         d="M 0,0 H 720 V 540 H 0 Z"
         id="path2834"
         inkscape:connector-curvature="0" /></clipPath><clipPath
       clipPathUnits="userSpaceOnUse"
       id="clipPath2856"><path
         d="M 0,0 H 720 V 540 H 0 Z"
         id="path2854"
         inkscape:connector-curvature="0" /></clipPath><clipPath
       clipPathUnits="userSpaceOnUse"
       id="clipPath2868"><path
         d="M 0,0 H 720 V 540 H 0 Z"
         id="path2866"
         inkscape:connector-curvature="0" /></clipPath><clipPath
       clipPathUnits="userSpaceOnUse"
       id="clipPath2880"><path
         d="M 0,0 H 720 V 540 H 0 Z"
         id="path2878"
         inkscape:connector-curvature="0" /></clipPath><clipPath
       clipPathUnits="userSpaceOnUse"
       id="clipPath2892"><path
         d="M 0,0 H 720 V 540 H 0 Z"
         id="path2890"
         inkscape:connector-curvature="0" /></clipPath><clipPath
       clipPathUnits="userSpaceOnUse"
       id="clipPath2904"><path
         d="M 0,0 H 720 V 540 H 0 Z"
         id="path2902"
         inkscape:connector-curvature="0" /></clipPath><clipPath
       clipPathUnits="userSpaceOnUse"
       id="clipPath2916"><path
         d="M 0,0 H 720 V 540 H 0 Z"
         id="path2914"
         inkscape:connector-curvature="0" /></clipPath><clipPath
       clipPathUnits="userSpaceOnUse"
       id="clipPath2928"><path
         d="M 0,0 H 720 V 540 H 0 Z"
         id="path2926"
         inkscape:connector-curvature="0" /></clipPath><clipPath
       clipPathUnits="userSpaceOnUse"
       id="clipPath2940"><path
         d="M 0,0 H 720 V 540 H 0 Z"
         id="path2938"
         inkscape:connector-curvature="0" /></clipPath><clipPath
       clipPathUnits="userSpaceOnUse"
       id="clipPath2952"><path
         d="M 0,0 H 720 V 540 H 0 Z"
         id="path2950"
         inkscape:connector-curvature="0" /></clipPath><clipPath
       clipPathUnits="userSpaceOnUse"
       id="clipPath2964"><path
         d="M 0,0 H 720 V 540 H 0 Z"
         id="path2962"
         inkscape:connector-curvature="0" /></clipPath><clipPath
       clipPathUnits="userSpaceOnUse"
       id="clipPath2976"><path
         d="M 0,0 H 720 V 540 H 0 Z"
         id="path2974"
         inkscape:connector-curvature="0" /></clipPath><clipPath
       clipPathUnits="userSpaceOnUse"
       id="clipPath2988"><path
         d="M 0,0 H 720 V 540 H 0 Z"
         id="path2986"
         inkscape:connector-curvature="0" /></clipPath><clipPath
       clipPathUnits="userSpaceOnUse"
       id="clipPath3044"><path
         d="M 0,0 H 720 V 540 H 0 Z"
         id="path3042"
         inkscape:connector-curvature="0" /></clipPath><clipPath
       clipPathUnits="userSpaceOnUse"
       id="clipPath3060"><path
         d="M 0,0 H 720 V 540 H 0 Z"
         id="path3058"
         inkscape:connector-curvature="0" /></clipPath><clipPath
       clipPathUnits="userSpaceOnUse"
       id="clipPath3076"><path
         d="M 0,0 H 720 V 540 H 0 Z"
         id="path3074"
         inkscape:connector-curvature="0" /></clipPath><clipPath
       clipPathUnits="userSpaceOnUse"
       id="clipPath3092"><path
         d="M 0,0 H 720 V 540 H 0 Z"
         id="path3090"
         inkscape:connector-curvature="0" /></clipPath></defs><sodipodi:namedview
     pagecolor="#ffffff"
     bordercolor="#666666"
     borderopacity="1"
     objecttolerance="10"
     gridtolerance="10"
     guidetolerance="10"
     inkscape:pageopacity="0"
     inkscape:pageshadow="2"
     inkscape:window-width="1350"
     inkscape:window-height="1021"
     id="namedview2658"
     showgrid="false"
     inkscape:zoom="2.9206721"
     inkscape:cx="209.71201"
     inkscape:cy="107.952"
     inkscape:window-x="0"
     inkscape:window-y="0"
     inkscape:window-maximized="0"
     inkscape:current-layer="g2664" /><g
     id="g2664"
     inkscape:groupmode="layer"
     inkscape:label="figSStructGridFEM6"
     transform="matrix(1.3333333,0,0,-1.3333333,-218.592,386.496)"><g
       id="g2666"
       transform="translate(387.2999,154.2346)"><path
         d="M 0,0 10.2,106.2"
         style="fill:none;stroke:#000000;stroke-width:0.5;stroke-linecap:butt;stroke-linejoin:round;stroke-miterlimit:10;stroke-dasharray:2, 1.5;stroke-dashoffset:0;stroke-opacity:1"
         id="path2668"
         inkscape:connector-curvature="0" /></g><g
       id="g2670"
       transform="translate(459.5999,195.9346)"><path
         d="M 0,0 -45.6,74.1"
         style="fill:none;stroke:#000000;stroke-width:0.5;stroke-linecap:butt;stroke-linejoin:round;stroke-miterlimit:10;stroke-dasharray:2, 1.5;stroke-dashoffset:0;stroke-opacity:1"
         id="path2672"
         inkscape:connector-curvature="0" /></g><g
       id="g2674"
       transform="translate(411.8998,195.9346)"><path
         d="M 0,0 -9.3,74.1"
         style="fill:none;stroke:#000000;stroke-width:0.5;stroke-linecap:butt;stroke-linejoin:round;stroke-miterlimit:10;stroke-dasharray:2, 1.5;stroke-dashoffset:0;stroke-opacity:1"
         id="path2676"
         inkscape:connector-curvature="0" /></g><g
       id="g2678"
       transform="translate(434.64,155.31461)"><path
         d="M 0,0 -26.64,105.12"
         style="fill:none;stroke:#000000;stroke-width:0.5;stroke-linecap:butt;stroke-linejoin:round;stroke-miterlimit:10;stroke-dasharray:2, 1.5;stroke-dashoffset:0;stroke-opacity:1"
         id="path2680"
         inkscape:connector-curvature="0" /></g><g
       id="g2682"
       transform="translate(249.98669,190.8519)"><path
         d="M 0,0 54,93.531"
         style="fill:none;stroke:#000000;stroke-width:2.5;stroke-linecap:butt;stroke-linejoin:round;stroke-miterlimit:10;stroke-dasharray:none;stroke-opacity:1"
         id="path2684"
         inkscape:connector-curvature="0" /></g><g
       id="g2686"
       transform="translate(258.72121,178.7899)"><path
         d="M 0,0 H 108"
         style="fill:none;stroke:#000000;stroke-width:2.5;stroke-linecap:butt;stroke-linejoin:round;stroke-miterlimit:10;stroke-dasharray:none;stroke-opacity:1"
         id="path2688"
         inkscape:connector-curvature="0" /></g><text
       transform="matrix(1,0,0,-1,222.8768,234.149)"
       style="font-style:italic;font-variant:normal;font-weight:bold;font-stretch:normal;font-size:20.04000092px;font-family:'Times New Roman';-inkscape-font-specification:TimesNewRomanPS-BoldItalicMT;writing-mode:lr-tb;fill:#000000;fill-opacity:1;fill-rule:nonzero;stroke:none"
       id="text2700"><tspan
         x="0 10.08012 20.16024 27.955799 33.466801 38.156158"
         y="0"
         sodipodi:role="line"
         id="tspan2690">part 1</tspan><tspan
         x="-42.003841 -31.923719 -21.843599 -14.04804 -8.5370398 -3.8476801"
         y="42.24432"
         sodipodi:role="line"
         id="tspan2692">part 2</tspan><tspan
         x="-42.725281 -32.645161 -22.565041 -14.76948 -9.2584801 -4.5691199"
         y="72.003723"
         sodipodi:role="line"
         id="tspan2694">part 3</tspan><tspan
         x="0 10.08012 20.16024 27.955799 33.466801 38.156158"
         y="96.011642"
         sodipodi:role="line"
         id="tspan2696">part 4</tspan><tspan
         x="65.991722 76.071838 86.151962 93.947517 99.458519 104.14788"
         y="78.23616"
         sodipodi:role="line"
         id="tspan2698">part 5</tspan></text>
<g
       id="g2702"
       transform="translate(312.72121,184.8497)"><path
         d="M 0,0 V -3.36"
         style="fill:none;stroke:#000000;stroke-width:1;stroke-linecap:butt;stroke-linejoin:round;stroke-miterlimit:10;stroke-dasharray:none;stroke-opacity:1"
         id="path2704"
         inkscape:connector-curvature="0" /></g><g
       id="g2706"
       transform="translate(314.72121,182.4897)"><path
         d="M 0,0 -2,-4 -4,0 Z"
         style="fill:#000000;fill-opacity:1;fill-rule:evenodd;stroke:none"
         id="path2708"
         inkscape:connector-curvature="0" /></g><g
       id="g2710"
       transform="translate(310.72079,183.8499)"><path
         d="M 0,0 2,4 4,0 Z"
         style="fill:#000000;fill-opacity:1;fill-rule:evenodd;stroke:none"
         id="path2712"
         inkscape:connector-curvature="0" /></g><g
       id="g2714"
       transform="translate(277.2132,232.04449)"><path
         d="M 0,0 2.91,-1.68"
         style="fill:none;stroke:#000000;stroke-width:1;stroke-linecap:butt;stroke-linejoin:round;stroke-miterlimit:10;stroke-dasharray:none;stroke-opacity:1"
         id="path2716"
         inkscape:connector-curvature="0" /></g><g
       id="g2718"
       transform="translate(280.2572,232.5966)"><path
         d="M 0,0 2.464,-3.732 -2,-3.464 Z"
         style="fill:#000000;fill-opacity:1;fill-rule:evenodd;stroke:none"
         id="path2720"
         inkscape:connector-curvature="0" /></g><g
       id="g2722"
       transform="translate(277.07941,229.81261)"><path
         d="M 0,0 -2.464,3.732 2,3.464 Z"
         style="fill:#000000;fill-opacity:1;fill-rule:evenodd;stroke:none"
         id="path2724"
         inkscape:connector-curvature="0" /></g><g
       id="g2726"><g
         id="g2728"
         clip-path="url(#clipPath2732)"><g
           id="g2734"
           transform="translate(255.9334,187.5995)"><path
             d="M 0,0 C 0,1.455 1.161,2.635 2.594,2.635 4.027,2.635 5.188,1.455 5.188,0 5.188,-1.455 4.027,-2.635 2.594,-2.635 1.161,-2.635 0,-1.455 0,0"
             style="fill:#000000;fill-opacity:1;fill-rule:evenodd;stroke:none"
             id="path2736"
             inkscape:connector-curvature="0" /></g><g
           id="g2738"
           transform="translate(255.9334,187.5995)"><path
             d="M 0,0 C 0,1.455 1.161,2.635 2.594,2.635 4.027,2.635 5.188,1.455 5.188,0 5.188,-1.455 4.027,-2.635 2.594,-2.635 1.161,-2.635 0,-1.455 0,0 Z"
             style="fill:none;stroke:#000000;stroke-width:0.75;stroke-linecap:butt;stroke-linejoin:round;stroke-miterlimit:10;stroke-dasharray:none;stroke-opacity:1"
             id="path2740"
             inkscape:connector-curvature="0" /></g></g></g><g
       id="g2742"><g
         id="g2744"
         clip-path="url(#clipPath2748)"><g
           id="g2750"
           transform="translate(247.2334,173.79939)"><path
             d="M 0,0 C 0,1.455 1.161,2.635 2.594,2.635 4.027,2.635 5.188,1.455 5.188,0 5.188,-1.455 4.027,-2.635 2.594,-2.635 1.161,-2.635 0,-1.455 0,0"
             style="fill:#000000;fill-opacity:1;fill-rule:evenodd;stroke:none"
             id="path2752"
             inkscape:connector-curvature="0" /></g><g
           id="g2754"
           transform="translate(247.2334,173.79939)"><path
             d="M 0,0 C 0,1.455 1.161,2.635 2.594,2.635 4.027,2.635 5.188,1.455 5.188,0 5.188,-1.455 4.027,-2.635 2.594,-2.635 1.161,-2.635 0,-1.455 0,0 Z"
             style="fill:none;stroke:#000000;stroke-width:0.75;stroke-linecap:butt;stroke-linejoin:round;stroke-miterlimit:10;stroke-dasharray:none;stroke-opacity:1"
             id="path2756"
             inkscape:connector-curvature="0" /></g></g></g><g
       id="g2758"><g
         id="g2760"
         clip-path="url(#clipPath2764)"><g
           id="g2766"
           transform="translate(237.9604,178.8994)"><path
             d="M 0,0 C 0,1.455 1.161,2.635 2.594,2.635 4.027,2.635 5.188,1.455 5.188,0 5.188,-1.455 4.027,-2.635 2.594,-2.635 1.161,-2.635 0,-1.455 0,0"
             style="fill:#000000;fill-opacity:1;fill-rule:evenodd;stroke:none"
             id="path2768"
             inkscape:connector-curvature="0" /></g><g
           id="g2770"
           transform="translate(237.9604,178.8994)"><path
             d="M 0,0 C 0,1.455 1.161,2.635 2.594,2.635 4.027,2.635 5.188,1.455 5.188,0 5.188,-1.455 4.027,-2.635 2.594,-2.635 1.161,-2.635 0,-1.455 0,0 Z"
             style="fill:none;stroke:#000000;stroke-width:0.75;stroke-linecap:butt;stroke-linejoin:round;stroke-miterlimit:10;stroke-dasharray:none;stroke-opacity:1"
             id="path2772"
             inkscape:connector-curvature="0" /></g></g></g><g
       id="g2774"><g
         id="g2776"
         clip-path="url(#clipPath2780)"><g
           id="g2782"
           transform="translate(237.9334,187.5995)"><path
             d="M 0,0 C 0,1.455 1.161,2.635 2.594,2.635 4.027,2.635 5.188,1.455 5.188,0 5.188,-1.455 4.027,-2.635 2.594,-2.635 1.161,-2.635 0,-1.455 0,0"
             style="fill:#000000;fill-opacity:1;fill-rule:evenodd;stroke:none"
             id="path2784"
             inkscape:connector-curvature="0" /></g><g
           id="g2786"
           transform="translate(237.9334,187.5995)"><path
             d="M 0,0 C 0,1.455 1.161,2.635 2.594,2.635 4.027,2.635 5.188,1.455 5.188,0 5.188,-1.455 4.027,-2.635 2.594,-2.635 1.161,-2.635 0,-1.455 0,0 Z"
             style="fill:none;stroke:#000000;stroke-width:0.75;stroke-linecap:butt;stroke-linejoin:round;stroke-miterlimit:10;stroke-dasharray:none;stroke-opacity:1"
             id="path2788"
             inkscape:connector-curvature="0" /></g></g></g><g
       id="g2790"><g
         id="g2792"
         clip-path="url(#clipPath2796)"><g
           id="g2798"
           transform="translate(255.8571,182.81841)"><path
             d="M 0,0 -2.912,-4.368"
             style="fill:none;stroke:#000000;stroke-width:1;stroke-linecap:butt;stroke-linejoin:round;stroke-miterlimit:10;stroke-dasharray:none;stroke-opacity:1"
             id="path2800"
             inkscape:connector-curvature="0" /></g><g
           id="g2802"
           transform="translate(255.164,178.17349)"><path
             d="m 0,0 -3.883,-2.219 0.555,4.438 z"
             style="fill:#000000;fill-opacity:1;fill-rule:evenodd;stroke:none"
             id="path2804"
             inkscape:connector-curvature="0" /></g><g
           id="g2806"
           transform="translate(253.6382,183.0959)"><path
             d="M 0,0 3.883,2.219 3.328,-2.219 Z"
             style="fill:#000000;fill-opacity:1;fill-rule:evenodd;stroke:none"
             id="path2808"
             inkscape:connector-curvature="0" /></g></g></g><g
       id="g2810"><g
         id="g2812"
         clip-path="url(#clipPath2816)"><g
           id="g2818"
           transform="translate(252.72121,187.2346)"><path
             d="M 0,0 H -6.6"
             style="fill:none;stroke:#000000;stroke-width:1;stroke-linecap:butt;stroke-linejoin:round;stroke-miterlimit:10;stroke-dasharray:none;stroke-opacity:1"
             id="path2820"
             inkscape:connector-curvature="0" /></g><g
           id="g2822"
           transform="translate(247.12131,185.2348)"><path
             d="M 0,0 -4,2 0,4 Z"
             style="fill:#000000;fill-opacity:1;fill-rule:evenodd;stroke:none"
             id="path2824"
             inkscape:connector-curvature="0" /></g><g
           id="g2826"
           transform="translate(251.7213,189.2348)"><path
             d="M 0,0 4,-2 0,-4 Z"
             style="fill:#000000;fill-opacity:1;fill-rule:evenodd;stroke:none"
             id="path2828"
             inkscape:connector-curvature="0" /></g></g></g><g
       id="g2830"><g
         id="g2832"
         clip-path="url(#clipPath2836)"><g
           id="g2838"
           transform="translate(253.5797,184.5161)"><path
             d="M 0,0 -8.017,-3.563"
             style="fill:none;stroke:#000000;stroke-width:1;stroke-linecap:butt;stroke-linejoin:round;stroke-miterlimit:10;stroke-dasharray:none;stroke-opacity:1"
             id="path2840"
             inkscape:connector-curvature="0" /></g><g
           id="g2842"
           transform="translate(247.2887,179.53169)"><path
             d="m 0,0 -4.468,0.203 2.843,3.452 z"
             style="fill:#000000;fill-opacity:1;fill-rule:evenodd;stroke:none"
             id="path2844"
             inkscape:connector-curvature="0" /></g><g
           id="g2846"
           transform="translate(251.8537,185.93781)"><path
             d="M 0,0 4.468,-0.203 1.624,-3.655 Z"
             style="fill:#000000;fill-opacity:1;fill-rule:evenodd;stroke:none"
             id="path2848"
             inkscape:connector-curvature="0" /></g></g></g><g
       id="g2850"><g
         id="g2852"
         clip-path="url(#clipPath2856)"><g
           id="g2858"
           transform="translate(258.72121,187.2346)"><path
             d="M 0,0 H 108"
             style="fill:none;stroke:#000000;stroke-width:2.5;stroke-linecap:butt;stroke-linejoin:round;stroke-miterlimit:10;stroke-dasharray:none;stroke-opacity:1"
             id="path2860"
             inkscape:connector-curvature="0" /></g></g></g><g
       id="g2862"><g
         id="g2864"
         clip-path="url(#clipPath2868)"><g
           id="g2870"
           transform="translate(366.72121,187.2346)"><path
             d="M 0,0 54,93.531"
             style="fill:none;stroke:#000000;stroke-width:2.5;stroke-linecap:butt;stroke-linejoin:round;stroke-miterlimit:10;stroke-dasharray:none;stroke-opacity:1"
             id="path2872"
             inkscape:connector-curvature="0" /></g></g></g><g
       id="g2874"><g
         id="g2876"
         clip-path="url(#clipPath2880)"><g
           id="g2882"
           transform="translate(258.72121,187.2346)"><path
             d="M 0,0 54,93.531"
             style="fill:none;stroke:#000000;stroke-width:2.5;stroke-linecap:butt;stroke-linejoin:round;stroke-miterlimit:10;stroke-dasharray:none;stroke-opacity:1"
             id="path2884"
             inkscape:connector-curvature="0" /></g></g></g><g
       id="g2886"><g
         id="g2888"
         clip-path="url(#clipPath2892)"><g
           id="g2894"
           transform="translate(312.72121,280.2547)"><path
             d="M 0,0 H 108"
             style="fill:none;stroke:#000000;stroke-width:2.5;stroke-linecap:butt;stroke-linejoin:round;stroke-miterlimit:10;stroke-dasharray:none;stroke-opacity:1"
             id="path2896"
             inkscape:connector-curvature="0" /></g></g></g><g
       id="g2898"><g
         id="g2900"
         clip-path="url(#clipPath2904)"><g
           id="g2906"
           transform="translate(264.72121,197.4194)"><path
             d="M 0,0 H 18"
             style="fill:none;stroke:#000000;stroke-width:0.75;stroke-linecap:butt;stroke-linejoin:round;stroke-miterlimit:10;stroke-dasharray:none;stroke-opacity:1"
             id="path2908"
             inkscape:connector-curvature="0" /></g></g></g><g
       id="g2910"><g
         id="g2912"
         clip-path="url(#clipPath2916)"><g
           id="g2918"
           transform="translate(270.72121,187.23441)"><path
             d="M 0,0 9,15.588"
             style="fill:none;stroke:#000000;stroke-width:0.75;stroke-linecap:butt;stroke-linejoin:round;stroke-miterlimit:10;stroke-dasharray:none;stroke-opacity:1"
             id="path2920"
             inkscape:connector-curvature="0" /></g></g></g><g
       id="g2922"><g
         id="g2924"
         clip-path="url(#clipPath2928)"><g
           id="g2930"
           transform="translate(282.72121,187.2346)"><path
             d="M 0,0 3.6,6.235"
             style="fill:none;stroke:#000000;stroke-width:0.75;stroke-linecap:butt;stroke-linejoin:round;stroke-miterlimit:10;stroke-dasharray:none;stroke-opacity:1"
             id="path2932"
             inkscape:connector-curvature="0" /></g></g></g><g
       id="g2934"><g
         id="g2936"
         clip-path="url(#clipPath2940)"><g
           id="g2942"
           transform="translate(270.72121,207.60429)"><path
             d="M 0,0 H 7.2"
             style="fill:none;stroke:#000000;stroke-width:0.75;stroke-linecap:butt;stroke-linejoin:round;stroke-miterlimit:10;stroke-dasharray:none;stroke-opacity:1"
             id="path2944"
             inkscape:connector-curvature="0" /></g></g></g><g
       id="g2946"><g
         id="g2948"
         clip-path="url(#clipPath2952)"><g
           id="g2954"
           transform="translate(414.72121,270.01939)"><path
             d="M 0,0 H -18"
             style="fill:none;stroke:#000000;stroke-width:0.75;stroke-linecap:butt;stroke-linejoin:round;stroke-miterlimit:10;stroke-dasharray:none;stroke-opacity:1"
             id="path2956"
             inkscape:connector-curvature="0" /></g></g></g><g
       id="g2958"><g
         id="g2960"
         clip-path="url(#clipPath2964)"><g
           id="g2966"
           transform="translate(408.72121,280.2045)"><path
             d="M 0,0 -9,-15.588"
             style="fill:none;stroke:#000000;stroke-width:0.75;stroke-linecap:butt;stroke-linejoin:round;stroke-miterlimit:10;stroke-dasharray:none;stroke-opacity:1"
             id="path2968"
             inkscape:connector-curvature="0" /></g></g></g><g
       id="g2970"><g
         id="g2972"
         clip-path="url(#clipPath2976)"><g
           id="g2978"
           transform="translate(396.72121,280.2043)"><path
             d="M 0,0 -3.6,-6.235"
             style="fill:none;stroke:#000000;stroke-width:0.75;stroke-linecap:butt;stroke-linejoin:round;stroke-miterlimit:10;stroke-dasharray:none;stroke-opacity:1"
             id="path2980"
             inkscape:connector-curvature="0" /></g></g></g><g
       id="g2982"><g
         id="g2984"
         clip-path="url(#clipPath2988)"><g
           id="g2990"
           transform="translate(408.72121,259.83459)"><path
             d="M 0,0 H -7.2"
             style="fill:none;stroke:#000000;stroke-width:0.75;stroke-linecap:butt;stroke-linejoin:round;stroke-miterlimit:10;stroke-dasharray:none;stroke-opacity:1"
             id="path2992"
             inkscape:connector-curvature="0" /></g></g></g><text
       transform="matrix(1,0,0,-1,312.6158,227.9146)"
       style="font-style:italic;font-variant:normal;font-weight:bold;font-stretch:normal;font-size:20.04000092px;font-family:'Times New Roman';-inkscape-font-specification:TimesNewRomanPS-BoldItalicMT;writing-mode:lr-tb;fill:#000000;fill-opacity:1;fill-rule:nonzero;stroke:none"
       id="text2996"><tspan
         x="0 10.08012 20.16024 27.955799 33.466801 38.156158"
         y="0"
         sodipodi:role="line"
         id="tspan2994">part 0</tspan></text>
<text
       transform="matrix(1,0,0,-1,439.4749,275.1744)"
       style="font-style:italic;font-variant:normal;font-weight:normal;font-stretch:normal;font-size:12px;font-family:'Times New Roman';-inkscape-font-specification:TimesNewRomanPS-ItalicMT;writing-mode:lr-tb;fill:#000000;fill-opacity:1;fill-rule:nonzero;stroke:none"
       id="text3000"><tspan
         x="0 3.8399999 9.8400002 12.84 18.84"
         y="0"
         sodipodi:role="line"
         id="tspan2998">(9,9)</tspan></text>
<g
       id="g3002"
       transform="translate(437.51109,279.6512)"><path
         d="M 0,0 -25.421,-4.406"
         style="fill:none;stroke:#000000;stroke-width:1;stroke-linecap:butt;stroke-linejoin:round;stroke-miterlimit:10;stroke-dasharray:none;stroke-opacity:1"
         id="path3004"
         inkscape:connector-curvature="0" /></g><g
       id="g3006"
       transform="translate(413.5876,272.46069)"><path
         d="m 0,0 -4.454,2.273 3.429,3.639 z"
         style="fill:#000000;fill-opacity:1;fill-rule:evenodd;stroke:none"
         id="path3008"
         inkscape:connector-curvature="0" /></g><text
       transform="matrix(1,0,0,-1,296.7354,193.6045)"
       style="font-style:italic;font-variant:normal;font-weight:normal;font-stretch:normal;font-size:12px;font-family:'Times New Roman';-inkscape-font-specification:TimesNewRomanPS-ItalicMT;writing-mode:lr-tb;fill:#000000;fill-opacity:1;fill-rule:nonzero;stroke:none"
       id="text3012"><tspan
         x="0 3.8399999 9.8400002 12.84 18.84"
         y="0"
         sodipodi:role="line"
         id="tspan3010">(1,1)</tspan></text>
<g
       id="g3014"
       transform="translate(295.3262,197.76019)"><path
         d="M 0,0 -25.421,-4.406"
         style="fill:none;stroke:#000000;stroke-width:1;stroke-linecap:butt;stroke-linejoin:round;stroke-miterlimit:10;stroke-dasharray:none;stroke-opacity:1"
         id="path3016"
         inkscape:connector-curvature="0" /></g><g
       id="g3018"
       transform="translate(271.40269,190.56979)"><path
         d="m 0,0 -4.454,2.273 3.429,3.639 z"
         style="fill:#000000;fill-opacity:1;fill-rule:evenodd;stroke:none"
         id="path3020"
         inkscape:connector-curvature="0" /></g><g
       id="g3022"
       transform="translate(387.3,154.0192)"><path
         d="M 0,0 H 48"
         style="fill:none;stroke:#000000;stroke-width:0.75;stroke-linecap:butt;stroke-linejoin:round;stroke-miterlimit:10;stroke-dasharray:none;stroke-opacity:1"
         id="path3024"
         inkscape:connector-curvature="0" /></g><g
       id="g3026"
       transform="translate(435.3,154.45)"><path
         d="M 0,0 24,41.569"
         style="fill:none;stroke:#000000;stroke-width:0.75;stroke-linecap:butt;stroke-linejoin:round;stroke-miterlimit:10;stroke-dasharray:none;stroke-opacity:1"
         id="path3028"
         inkscape:connector-curvature="0" /></g><g
       id="g3030"
       transform="translate(387.3,154.45)"><path
         d="M 0,0 24,41.569"
         style="fill:none;stroke:#000000;stroke-width:0.75;stroke-linecap:butt;stroke-linejoin:round;stroke-miterlimit:10;stroke-dasharray:none;stroke-opacity:1"
         id="path3032"
         inkscape:connector-curvature="0" /></g><g
       id="g3034"
       transform="translate(411.3,196.0192)"><path
         d="M 0,0 H 48"
         style="fill:none;stroke:#000000;stroke-width:0.75;stroke-linecap:butt;stroke-linejoin:round;stroke-miterlimit:10;stroke-dasharray:none;stroke-opacity:1"
         id="path3036"
         inkscape:connector-curvature="0" /></g><g
       id="g3038"><g
         id="g3040"
         clip-path="url(#clipPath3044)"><g
           id="g3046"
           transform="translate(408.8,196.08411)"><path
             d="M 0,0 C 0,1.455 1.161,2.635 2.594,2.635 4.027,2.635 5.188,1.455 5.188,0 5.188,-1.455 4.027,-2.635 2.594,-2.635 1.161,-2.635 0,-1.455 0,0"
             style="fill:#000000;fill-opacity:1;fill-rule:evenodd;stroke:none"
             id="path3048"
             inkscape:connector-curvature="0" /></g><g
           id="g3050"
           transform="translate(408.8,196.08411)"><path
             d="M 0,0 C 0,1.455 1.161,2.635 2.594,2.635 4.027,2.635 5.188,1.455 5.188,0 5.188,-1.455 4.027,-2.635 2.594,-2.635 1.161,-2.635 0,-1.455 0,0 Z"
             style="fill:none;stroke:#000000;stroke-width:0.75;stroke-linecap:butt;stroke-linejoin:round;stroke-miterlimit:10;stroke-dasharray:none;stroke-opacity:1"
             id="path3052"
             inkscape:connector-curvature="0" /></g></g></g><g
       id="g3054"><g
         id="g3056"
         clip-path="url(#clipPath3060)"><g
           id="g3062"
           transform="translate(456.81219,196.08411)"><path
             d="M 0,0 C 0,1.455 1.161,2.635 2.594,2.635 4.027,2.635 5.188,1.455 5.188,0 5.188,-1.455 4.027,-2.635 2.594,-2.635 1.161,-2.635 0,-1.455 0,0"
             style="fill:#000000;fill-opacity:1;fill-rule:evenodd;stroke:none"
             id="path3064"
             inkscape:connector-curvature="0" /></g><g
           id="g3066"
           transform="translate(456.81219,196.08411)"><path
             d="M 0,0 C 0,1.455 1.161,2.635 2.594,2.635 4.027,2.635 5.188,1.455 5.188,0 5.188,-1.455 4.027,-2.635 2.594,-2.635 1.161,-2.635 0,-1.455 0,0 Z"
             style="fill:none;stroke:#000000;stroke-width:0.75;stroke-linecap:butt;stroke-linejoin:round;stroke-miterlimit:10;stroke-dasharray:none;stroke-opacity:1"
             id="path3068"
             inkscape:connector-curvature="0" /></g></g></g><g
       id="g3070"><g
         id="g3072"
         clip-path="url(#clipPath3076)"><g
           id="g3078"
           transform="translate(384.3,154.08411)"><path
             d="M 0,0 C 0,1.455 1.161,2.635 2.594,2.635 4.027,2.635 5.188,1.455 5.188,0 5.188,-1.455 4.027,-2.635 2.594,-2.635 1.161,-2.635 0,-1.455 0,0"
             style="fill:#000000;fill-opacity:1;fill-rule:evenodd;stroke:none"
             id="path3080"
             inkscape:connector-curvature="0" /></g><g
           id="g3082"
           transform="translate(384.3,154.08411)"><path
             d="M 0,0 C 0,1.455 1.161,2.635 2.594,2.635 4.027,2.635 5.188,1.455 5.188,0 5.188,-1.455 4.027,-2.635 2.594,-2.635 1.161,-2.635 0,-1.455 0,0 Z"
             style="fill:none;stroke:#000000;stroke-width:0.75;stroke-linecap:butt;stroke-linejoin:round;stroke-miterlimit:10;stroke-dasharray:none;stroke-opacity:1"
             id="path3084"
             inkscape:connector-curvature="0" /></g></g></g><g
       id="g3086"><g
         id="g3088"
         clip-path="url(#clipPath3092)"><g
           id="g3094"
           transform="translate(432.31219,154.08411)"><path
             d="M 0,0 C 0,1.455 1.161,2.635 2.594,2.635 4.027,2.635 5.188,1.455 5.188,0 5.188,-1.455 4.027,-2.635 2.594,-2.635 1.161,-2.635 0,-1.455 0,0"
             style="fill:#000000;fill-opacity:1;fill-rule:evenodd;stroke:none"
             id="path3096"
             inkscape:connector-curvature="0" /></g><g
           id="g3098"
           transform="translate(432.31219,154.08411)"><path
             d="M 0,0 C 0,1.455 1.161,2.635 2.594,2.635 4.027,2.635 5.188,1.455 5.188,0 5.188,-1.455 4.027,-2.635 2.594,-2.635 1.161,-2.635 0,-1.455 0,0 Z"
             style="fill:none;stroke:#000000;stroke-width:0.75;stroke-linecap:butt;stroke-linejoin:round;stroke-miterlimit:10;stroke-dasharray:none;stroke-opacity:1"
             id="path3100"
             inkscape:connector-curvature="0" /></g></g></g><text
       transform="matrix(1,0,0,-1,389.5245,139.8289)"
       style="font-style:italic;font-variant:normal;font-weight:normal;font-stretch:normal;font-size:12px;font-family:'Times New Roman';-inkscape-font-specification:TimesNewRomanPS-ItalicMT;writing-mode:lr-tb;fill:#000000;fill-opacity:1;fill-rule:nonzero;stroke:none"
       id="text3110"><tspan
         x="0"
         y="0"
         id="tspan3102">0</tspan><tspan
         x="48"
         y="0.12"
         id="tspan3104">1</tspan><tspan
         x="72.599998"
         y="-41.880001"
         id="tspan3106">2</tspan><tspan
         x="24.6"
         y="-42"
         id="tspan3108">3</tspan></text>
</g></svg>