<?xml version="1.0" encoding="UTF-8" standalone="no"?>
<!-- Created with Inkscape (http://www.inkscape.org/) -->

<svg
   xmlns:dc="http://purl.org/dc/elements/1.1/"
   xmlns:cc="http://creativecommons.org/ns#"
   xmlns:rdf="http://www.w3.org/1999/02/22-rdf-syntax-ns#"
   xmlns:svg="http://www.w3.org/2000/svg"
   xmlns="http://www.w3.org/2000/svg"
   xmlns:sodipodi="http://sodipodi.sourceforge.net/DTD/sodipodi-0.dtd"
   xmlns:inkscape="http://www.inkscape.org/namespaces/inkscape"
   version="1.1"
   id="svg452"
   xml:space="preserve"
   width="258.66666"
   height="258.66666"
   viewBox="0 0 258.66666 258.66666"
   sodipodi:docname="figStructGrid3.svg"
   inkscape:version="0.92.2 (5c3e80d, 2017-08-06)"><metadata
     id="metadata458"><rdf:RDF><cc:Work
         rdf:about=""><dc:format>image/svg+xml</dc:format><dc:type
           rdf:resource="http://purl.org/dc/dcmitype/StillImage" /><dc:title></dc:title></cc:Work></rdf:RDF></metadata><defs
     id="defs456" /><sodipodi:namedview
     pagecolor="#ffffff"
     bordercolor="#666666"
     borderopacity="1"
     objecttolerance="10"
     gridtolerance="10"
     guidetolerance="10"
     inkscape:pageopacity="0"
     inkscape:pageshadow="2"
     inkscape:window-width="1131"
     inkscape:window-height="900"
     id="namedview454"
     showgrid="false"
     inkscape:zoom="2.7100517"
     inkscape:cx="129.33333"
     inkscape:cy="129.33333"
     inkscape:window-x="0"
     inkscape:window-y="0"
     inkscape:window-maximized="0"
     inkscape:current-layer="g460" /><g
     id="g460"
     inkscape:groupmode="layer"
     inkscape:label="figStructGrid3"
     transform="matrix(1.3333333,0,0,-1.3333333,0,258.66667)"><g
       id="g462"
       transform="scale(0.1)"><g
         id="g464"><path
           d="m 961.2,356.4 h 901.2 v 1200 H 961.2 Z"
           style="fill:#ffe0e0;fill-opacity:1;fill-rule:evenodd;stroke:none"
           id="path466"
           inkscape:connector-curvature="0" /><path
           d="M 57.5999,957.6 H 957.6"
           style="fill:none;stroke:#000000;stroke-width:22.5;stroke-linecap:round;stroke-linejoin:round;stroke-miterlimit:10;stroke-dasharray:none;stroke-opacity:1"
           id="path468"
           inkscape:connector-curvature="0" /><path
           d="M 60,357.6 H 960"
           style="fill:none;stroke:#000000;stroke-width:22.5;stroke-linecap:round;stroke-linejoin:round;stroke-miterlimit:10;stroke-dasharray:none;stroke-opacity:1"
           id="path470"
           inkscape:connector-curvature="0" /><g
           id="g472"
           transform="scale(10)"><text
             transform="matrix(0.836364,0,0,-1,3.6,7.92)"
             style="font-style:italic;font-variant:normal;font-size:13.75px;font-family:'Times New Roman';-inkscape-font-specification:Times-Italic;writing-mode:lr-tb;fill:#000000;fill-opacity:1;fill-rule:nonzero;stroke:none"
             id="text476"><tspan
               x="0 4.5787401 9.1574802 16.03248 19.46998 26.34498 30.923719"
               y="0"
               sodipodi:role="line"
               id="tspan474">(-3,1)</tspan></text>
</g><path
           d="M 360,956.4 V 357.6"
           style="fill:none;stroke:#000000;stroke-width:7.5;stroke-linecap:round;stroke-linejoin:round;stroke-miterlimit:10;stroke-dasharray:none;stroke-opacity:1"
           id="path478"
           inkscape:connector-curvature="0" /><path
           d="M 660,956.4 V 357.6"
           style="fill:none;stroke:#000000;stroke-width:7.5;stroke-linecap:round;stroke-linejoin:round;stroke-miterlimit:10;stroke-dasharray:none;stroke-opacity:1"
           id="path480"
           inkscape:connector-curvature="0" /><path
           d="M 1260,1556.4 V 357.6"
           style="fill:none;stroke:#a00000;stroke-width:7.5;stroke-linecap:round;stroke-linejoin:round;stroke-miterlimit:10;stroke-dasharray:none;stroke-opacity:1"
           id="path482"
           inkscape:connector-curvature="0" /><path
           d="M 1560,1556.4 V 357.6"
           style="fill:none;stroke:#a00000;stroke-width:7.5;stroke-linecap:round;stroke-linejoin:round;stroke-miterlimit:10;stroke-dasharray:none;stroke-opacity:1"
           id="path484"
           inkscape:connector-curvature="0" /><path
           d="M 60,657.6 H 960"
           style="fill:none;stroke:#000000;stroke-width:7.5;stroke-linecap:round;stroke-linejoin:round;stroke-miterlimit:10;stroke-dasharray:none;stroke-opacity:1"
           id="path486"
           inkscape:connector-curvature="0" /><path
           d="m 960,1556.4 h 900"
           style="fill:none;stroke:#a00000;stroke-width:22.5;stroke-linecap:round;stroke-linejoin:round;stroke-miterlimit:10;stroke-dasharray:none;stroke-opacity:1"
           id="path488"
           inkscape:connector-curvature="0" /><path
           d="m 960,357.6 h 900"
           style="fill:none;stroke:#a00000;stroke-width:22.5;stroke-linecap:round;stroke-linejoin:round;stroke-miterlimit:10;stroke-dasharray:none;stroke-opacity:1"
           id="path490"
           inkscape:connector-curvature="0" /><path
           d="m 960,1256.4 h 900"
           style="fill:none;stroke:#a00000;stroke-width:7.5;stroke-linecap:round;stroke-linejoin:round;stroke-miterlimit:10;stroke-dasharray:none;stroke-opacity:1"
           id="path492"
           inkscape:connector-curvature="0" /><path
           d="m 960,956.4 h 900"
           style="fill:none;stroke:#a00000;stroke-width:7.5;stroke-linecap:round;stroke-linejoin:round;stroke-miterlimit:10;stroke-dasharray:none;stroke-opacity:1"
           id="path494"
           inkscape:connector-curvature="0" /><path
           d="m 961.2,657.6 h 897.6"
           style="fill:none;stroke:#a00000;stroke-width:7.5;stroke-linecap:round;stroke-linejoin:round;stroke-miterlimit:10;stroke-dasharray:none;stroke-opacity:1"
           id="path496"
           inkscape:connector-curvature="0" /><path
           d="m 1106.4,537.6 h 3.6"
           style="fill:none;stroke:#a00000;stroke-width:7.5;stroke-linecap:round;stroke-linejoin:round;stroke-miterlimit:10;stroke-dasharray:none;stroke-opacity:1"
           id="path498"
           inkscape:connector-curvature="0" /><path
           d="m 1110,537.6 3.6,-1.2"
           style="fill:none;stroke:#a00000;stroke-width:7.5;stroke-linecap:round;stroke-linejoin:round;stroke-miterlimit:10;stroke-dasharray:none;stroke-opacity:1"
           id="path500"
           inkscape:connector-curvature="0" /><path
           d="m 1113.6,536.4 2.4,-1.2"
           style="fill:none;stroke:#a00000;stroke-width:7.5;stroke-linecap:round;stroke-linejoin:round;stroke-miterlimit:10;stroke-dasharray:none;stroke-opacity:1"
           id="path502"
           inkscape:connector-curvature="0" /><path
           d="m 1116,535.2 3.6,-2.4"
           style="fill:none;stroke:#a00000;stroke-width:7.5;stroke-linecap:round;stroke-linejoin:round;stroke-miterlimit:10;stroke-dasharray:none;stroke-opacity:1"
           id="path504"
           inkscape:connector-curvature="0" /><path
           d="m 1702.8,532.8 1.2,-2.4"
           style="fill:none;stroke:#a00000;stroke-width:7.5;stroke-linecap:round;stroke-linejoin:round;stroke-miterlimit:10;stroke-dasharray:none;stroke-opacity:1"
           id="path506"
           inkscape:connector-curvature="0" /><path
           d="m 1704,530.4 2.4,-2.4"
           style="fill:none;stroke:#a00000;stroke-width:7.5;stroke-linecap:round;stroke-linejoin:round;stroke-miterlimit:10;stroke-dasharray:none;stroke-opacity:1"
           id="path508"
           inkscape:connector-curvature="0" /><path
           d="m 1706.4,528 1.2,-3.6"
           style="fill:none;stroke:#a00000;stroke-width:7.5;stroke-linecap:round;stroke-linejoin:round;stroke-miterlimit:10;stroke-dasharray:none;stroke-opacity:1"
           id="path510"
           inkscape:connector-curvature="0" /><path
           d="m 1707.6,524.4 v -3.6"
           style="fill:none;stroke:#a00000;stroke-width:7.5;stroke-linecap:round;stroke-linejoin:round;stroke-miterlimit:10;stroke-dasharray:none;stroke-opacity:1"
           id="path512"
           inkscape:connector-curvature="0" /><path
           d="m 1707.6,520.8 v -3.6"
           style="fill:none;stroke:#a00000;stroke-width:7.5;stroke-linecap:round;stroke-linejoin:round;stroke-miterlimit:10;stroke-dasharray:none;stroke-opacity:1"
           id="path514"
           inkscape:connector-curvature="0" /><path
           d="m 1707.6,517.2 -1.2,-3.6"
           style="fill:none;stroke:#a00000;stroke-width:7.5;stroke-linecap:round;stroke-linejoin:round;stroke-miterlimit:10;stroke-dasharray:none;stroke-opacity:1"
           id="path516"
           inkscape:connector-curvature="0" /><path
           d="m 1706.4,513.6 -2.4,-2.4"
           style="fill:none;stroke:#a00000;stroke-width:7.5;stroke-linecap:round;stroke-linejoin:round;stroke-miterlimit:10;stroke-dasharray:none;stroke-opacity:1"
           id="path518"
           inkscape:connector-curvature="0" /><path
           d="m 1704,511.2 -1.2,-3.6"
           style="fill:none;stroke:#a00000;stroke-width:7.5;stroke-linecap:round;stroke-linejoin:round;stroke-miterlimit:10;stroke-dasharray:none;stroke-opacity:1"
           id="path520"
           inkscape:connector-curvature="0" /><g
           id="g522"
           transform="scale(10)"><text
             transform="matrix(0.836364,0,0,-1,156.24,176.4)"
             style="font-style:italic;font-variant:normal;font-size:13.75px;font-family:'Times New Roman';-inkscape-font-specification:Times-Italic;writing-mode:lr-tb;fill:#000000;fill-opacity:1;fill-rule:nonzero;stroke:none"
             id="text526"><tspan
               x="0 4.5787401 11.45374 14.89124 21.766239 26.34498"
               y="0"
               sodipodi:role="line"
               id="tspan524">(2,4)</tspan></text>
</g><path
           d="m 198,537.6 h 3.6 l 3.6,-1.2 2.4,-1.2 3.6,-2.4 1.2,-2.4 2.4,-2.4 2.4,-3.6 v -7.2 l -2.4,-3.6 -2.4,-2.4 -1.2,-3.6 -3.6,-1.2 -2.4,-2.4 h -3.6 l -3.6,-2.4 -3.6,2.4 h -3.6 l -2.4,2.4 -3.6,1.2 -2.4,3.6 -1.2,2.4 -1.2,3.6 v 7.2 l 1.2,3.6 1.2,2.4 2.4,2.4 3.6,2.4 2.4,1.2 3.6,1.2 h 3.6"
           style="fill:#000000;fill-opacity:1;fill-rule:evenodd;stroke:none"
           id="path528"
           inkscape:connector-curvature="0" /><path
           d="m 198,537.6 h 3.6 l 3.6,-1.2 2.4,-1.2 3.6,-2.4 1.2,-2.4 2.4,-2.4 1.2,-3.6 v -7.2 l -1.2,-3.6 -2.4,-2.4 -1.2,-3.6 -3.6,-1.2 -2.4,-2.4 h -3.6 l -3.6,-1.2 -3.6,1.2 h -3.6 l -2.4,2.4 -3.6,1.2 -2.4,3.6 -1.2,2.4 -1.2,3.6 v 7.2 l 1.2,3.6 1.2,2.4 2.4,2.4 3.6,2.4 2.4,1.2 3.6,1.2 z"
           style="fill:none;stroke:#000000;stroke-width:7.5;stroke-linecap:round;stroke-linejoin:round;stroke-miterlimit:10;stroke-dasharray:none;stroke-opacity:1"
           id="path530"
           inkscape:connector-curvature="0" /><path
           d="m 198,537.6 h 3.6 l 3.6,-1.2 2.4,-1.2 3.6,-2.4 1.2,-2.4 2.4,-2.4 1.2,-3.6 v -7.2 l -1.2,-3.6 -2.4,-2.4 -1.2,-3.6 -3.6,-1.2 -2.4,-2.4 h -3.6 l -3.6,-1.2 -3.6,1.2 h -3.6 l -2.4,2.4 -3.6,1.2 -2.4,3.6 -1.2,2.4 -1.2,3.6 v 7.2 l 1.2,3.6 1.2,2.4 2.4,2.4 3.6,2.4 2.4,1.2 3.6,1.2 z"
           style="fill:none;stroke:#000000;stroke-width:7.5;stroke-linecap:round;stroke-linejoin:round;stroke-miterlimit:10;stroke-dasharray:none;stroke-opacity:1"
           id="path532"
           inkscape:connector-curvature="0" /><path
           d="m 498,537.6 h 3.6 l 3.6,-1.2 2.4,-1.2 3.6,-2.4 1.2,-2.4 2.4,-2.4 2.4,-3.6 v -7.2 l -2.4,-3.6 -2.4,-2.4 -1.2,-3.6 -3.6,-1.2 -2.4,-2.4 h -3.6 l -3.6,-2.4 -3.6,2.4 h -3.6 l -2.4,2.4 -3.6,1.2 -2.4,3.6 -1.2,2.4 -1.2,3.6 v 7.2 l 1.2,3.6 1.2,2.4 2.4,2.4 3.6,2.4 2.4,1.2 3.6,1.2 h 3.6"
           style="fill:#000000;fill-opacity:1;fill-rule:evenodd;stroke:none"
           id="path534"
           inkscape:connector-curvature="0" /><path
           d="m 498,537.6 h 3.6 l 3.6,-1.2 2.4,-1.2 3.6,-2.4 1.2,-2.4 2.4,-2.4 1.2,-3.6 v -7.2 l -1.2,-3.6 -2.4,-2.4 -1.2,-3.6 -3.6,-1.2 -2.4,-2.4 h -3.6 l -3.6,-1.2 -3.6,1.2 h -3.6 l -2.4,2.4 -3.6,1.2 -2.4,3.6 -1.2,2.4 -1.2,3.6 v 7.2 l 1.2,3.6 1.2,2.4 2.4,2.4 3.6,2.4 2.4,1.2 3.6,1.2 z"
           style="fill:none;stroke:#000000;stroke-width:7.5;stroke-linecap:round;stroke-linejoin:round;stroke-miterlimit:10;stroke-dasharray:none;stroke-opacity:1"
           id="path536"
           inkscape:connector-curvature="0" /><path
           d="m 498,537.6 h 3.6 l 3.6,-1.2 2.4,-1.2 3.6,-2.4 1.2,-2.4 2.4,-2.4 1.2,-3.6 v -7.2 l -1.2,-3.6 -2.4,-2.4 -1.2,-3.6 -3.6,-1.2 -2.4,-2.4 h -3.6 l -3.6,-1.2 -3.6,1.2 h -3.6 l -2.4,2.4 -3.6,1.2 -2.4,3.6 -1.2,2.4 -1.2,3.6 v 7.2 l 1.2,3.6 1.2,2.4 2.4,2.4 3.6,2.4 2.4,1.2 3.6,1.2 z"
           style="fill:none;stroke:#000000;stroke-width:7.5;stroke-linecap:round;stroke-linejoin:round;stroke-miterlimit:10;stroke-dasharray:none;stroke-opacity:1"
           id="path538"
           inkscape:connector-curvature="0" /><path
           d="m 798,537.6 h 3.6 l 3.6,-1.2 2.4,-1.2 3.6,-2.4 1.2,-2.4 2.4,-2.4 2.4,-3.6 v -7.2 l -2.4,-3.6 -2.4,-2.4 -1.2,-3.6 -3.6,-1.2 -2.4,-2.4 h -3.6 l -3.6,-2.4 -3.6,2.4 h -3.6 l -2.4,2.4 -3.6,1.2 -2.4,3.6 -1.2,2.4 -1.2,3.6 v 7.2 l 1.2,3.6 1.2,2.4 2.4,2.4 3.6,2.4 2.4,1.2 3.6,1.2 h 3.6"
           style="fill:#000000;fill-opacity:1;fill-rule:evenodd;stroke:none"
           id="path540"
           inkscape:connector-curvature="0" /><path
           d="m 798,537.6 h 3.6 l 3.6,-1.2 2.4,-1.2 3.6,-2.4 1.2,-2.4 2.4,-2.4 1.2,-3.6 v -7.2 l -1.2,-3.6 -2.4,-2.4 -1.2,-3.6 -3.6,-1.2 -2.4,-2.4 h -3.6 l -3.6,-1.2 -3.6,1.2 h -3.6 l -2.4,2.4 -3.6,1.2 -2.4,3.6 -1.2,2.4 -1.2,3.6 v 7.2 l 1.2,3.6 1.2,2.4 2.4,2.4 3.6,2.4 2.4,1.2 3.6,1.2 z"
           style="fill:none;stroke:#000000;stroke-width:7.5;stroke-linecap:round;stroke-linejoin:round;stroke-miterlimit:10;stroke-dasharray:none;stroke-opacity:1"
           id="path542"
           inkscape:connector-curvature="0" /><path
           d="m 798,537.6 h 3.6 l 3.6,-1.2 2.4,-1.2 3.6,-2.4 1.2,-2.4 2.4,-2.4 1.2,-3.6 v -7.2 l -1.2,-3.6 -2.4,-2.4 -1.2,-3.6 -3.6,-1.2 -2.4,-2.4 h -3.6 l -3.6,-1.2 -3.6,1.2 h -3.6 l -2.4,2.4 -3.6,1.2 -2.4,3.6 -1.2,2.4 -1.2,3.6 v 7.2 l 1.2,3.6 1.2,2.4 2.4,2.4 3.6,2.4 2.4,1.2 3.6,1.2 z"
           style="fill:none;stroke:#000000;stroke-width:7.5;stroke-linecap:round;stroke-linejoin:round;stroke-miterlimit:10;stroke-dasharray:none;stroke-opacity:1"
           id="path544"
           inkscape:connector-curvature="0" /><path
           d="m 198,837.6 h 3.6 l 3.6,-1.2 2.4,-1.2 3.6,-2.4 1.2,-2.4 2.4,-2.4 2.4,-3.6 v -7.2 l -2.4,-3.6 -2.4,-2.4 -1.2,-2.4 -3.6,-2.4 -2.4,-2.4 h -3.6 l -3.6,-2.4 -3.6,2.4 h -3.6 l -2.4,2.4 -3.6,2.4 -2.4,2.4 -1.2,2.4 -1.2,3.6 v 7.2 l 1.2,3.6 1.2,2.4 2.4,2.4 3.6,2.4 2.4,1.2 3.6,1.2 h 3.6"
           style="fill:#000000;fill-opacity:1;fill-rule:evenodd;stroke:none"
           id="path546"
           inkscape:connector-curvature="0" /><path
           d="m 198,837.6 h 3.6 l 3.6,-1.2 2.4,-1.2 3.6,-2.4 1.2,-2.4 2.4,-2.4 1.2,-3.6 v -7.2 l -1.2,-3.6 -2.4,-2.4 -1.2,-2.4 -3.6,-2.4 -2.4,-2.4 h -3.6 l -3.6,-1.2 -3.6,1.2 h -3.6 l -2.4,2.4 -3.6,2.4 -2.4,2.4 -1.2,2.4 -1.2,3.6 v 7.2 l 1.2,3.6 1.2,2.4 2.4,2.4 3.6,2.4 2.4,1.2 3.6,1.2 z"
           style="fill:none;stroke:#000000;stroke-width:7.5;stroke-linecap:round;stroke-linejoin:round;stroke-miterlimit:10;stroke-dasharray:none;stroke-opacity:1"
           id="path548"
           inkscape:connector-curvature="0" /><path
           d="m 198,837.6 h 3.6 l 3.6,-1.2 2.4,-1.2 3.6,-2.4 1.2,-2.4 2.4,-2.4 1.2,-3.6 v -7.2 l -1.2,-3.6 -2.4,-2.4 -1.2,-2.4 -3.6,-2.4 -2.4,-2.4 h -3.6 l -3.6,-1.2 -3.6,1.2 h -3.6 l -2.4,2.4 -3.6,2.4 -2.4,2.4 -1.2,2.4 -1.2,3.6 v 7.2 l 1.2,3.6 1.2,2.4 2.4,2.4 3.6,2.4 2.4,1.2 3.6,1.2 z"
           style="fill:none;stroke:#000000;stroke-width:7.5;stroke-linecap:round;stroke-linejoin:round;stroke-miterlimit:10;stroke-dasharray:none;stroke-opacity:1"
           id="path550"
           inkscape:connector-curvature="0" /><path
           d="m 498,837.6 h 3.6 l 3.6,-1.2 2.4,-1.2 3.6,-2.4 1.2,-2.4 2.4,-2.4 2.4,-3.6 v -7.2 l -2.4,-3.6 -2.4,-2.4 -1.2,-2.4 -3.6,-2.4 -2.4,-2.4 h -3.6 l -3.6,-2.4 -3.6,2.4 h -3.6 l -2.4,2.4 -3.6,2.4 -2.4,2.4 -1.2,2.4 -1.2,3.6 v 7.2 l 1.2,3.6 1.2,2.4 2.4,2.4 3.6,2.4 2.4,1.2 3.6,1.2 h 3.6"
           style="fill:#000000;fill-opacity:1;fill-rule:evenodd;stroke:none"
           id="path552"
           inkscape:connector-curvature="0" /><path
           d="m 498,837.6 h 3.6 l 3.6,-1.2 2.4,-1.2 3.6,-2.4 1.2,-2.4 2.4,-2.4 1.2,-3.6 v -7.2 l -1.2,-3.6 -2.4,-2.4 -1.2,-2.4 -3.6,-2.4 -2.4,-2.4 h -3.6 l -3.6,-1.2 -3.6,1.2 h -3.6 l -2.4,2.4 -3.6,2.4 -2.4,2.4 -1.2,2.4 -1.2,3.6 v 7.2 l 1.2,3.6 1.2,2.4 2.4,2.4 3.6,2.4 2.4,1.2 3.6,1.2 z"
           style="fill:none;stroke:#000000;stroke-width:7.5;stroke-linecap:round;stroke-linejoin:round;stroke-miterlimit:10;stroke-dasharray:none;stroke-opacity:1"
           id="path554"
           inkscape:connector-curvature="0" /><path
           d="m 498,837.6 h 3.6 l 3.6,-1.2 2.4,-1.2 3.6,-2.4 1.2,-2.4 2.4,-2.4 1.2,-3.6 v -7.2 l -1.2,-3.6 -2.4,-2.4 -1.2,-2.4 -3.6,-2.4 -2.4,-2.4 h -3.6 l -3.6,-1.2 -3.6,1.2 h -3.6 l -2.4,2.4 -3.6,2.4 -2.4,2.4 -1.2,2.4 -1.2,3.6 v 7.2 l 1.2,3.6 1.2,2.4 2.4,2.4 3.6,2.4 2.4,1.2 3.6,1.2 z"
           style="fill:none;stroke:#000000;stroke-width:7.5;stroke-linecap:round;stroke-linejoin:round;stroke-miterlimit:10;stroke-dasharray:none;stroke-opacity:1"
           id="path556"
           inkscape:connector-curvature="0" /><path
           d="m 1098,837.6 h 3.6 l 3.6,-1.2 2.4,-1.2 3.6,-2.4 1.2,-2.4 2.4,-2.4 1.2,-3.6 v -7.2 l -1.2,-3.6 -2.4,-2.4 -1.2,-2.4 -3.6,-2.4 -2.4,-2.4 h -3.6 l -3.6,-1.2 -3.6,1.2 h -3.6 l -2.4,2.4 -3.6,2.4 -2.4,2.4 -1.2,2.4 -1.2,3.6 v 7.2 l 1.2,3.6 1.2,2.4 2.4,2.4 3.6,2.4 2.4,1.2 3.6,1.2 h 3.6"
           style="fill:#a00000;fill-opacity:1;fill-rule:evenodd;stroke:none"
           id="path558"
           inkscape:connector-curvature="0" /><path
           d="m 1098,837.6 h 3.6 l 3.6,-1.2 2.4,-1.2 3.6,-2.4 1.2,-2.4 2.4,-2.4 1.2,-3.6 v -7.2 l -1.2,-3.6 -2.4,-2.4 -1.2,-2.4 -3.6,-2.4 -2.4,-2.4 h -3.6 l -3.6,-1.2 -3.6,1.2 h -3.6 l -2.4,2.4 -3.6,2.4 -2.4,2.4 -1.2,2.4 -1.2,3.6 v 7.2 l 1.2,3.6 1.2,2.4 2.4,2.4 3.6,2.4 2.4,1.2 3.6,1.2 h 3.6"
           style="fill:none;stroke:#a00000;stroke-width:15;stroke-linecap:round;stroke-linejoin:round;stroke-miterlimit:10;stroke-dasharray:none;stroke-opacity:1"
           id="path560"
           inkscape:connector-curvature="0" /><path
           d="m 1098,837.6 h 3.6 l 3.6,-1.2 2.4,-1.2 3.6,-2.4 1.2,-2.4 2.4,-2.4 1.2,-3.6 v -7.2 l -1.2,-3.6 -2.4,-2.4 -1.2,-2.4 -3.6,-2.4 -2.4,-2.4 h -3.6 l -3.6,-1.2 -3.6,1.2 h -3.6 l -2.4,2.4 -3.6,2.4 -2.4,2.4 -1.2,2.4 -1.2,3.6 v 7.2 l 1.2,3.6 1.2,2.4 2.4,2.4 3.6,2.4 2.4,1.2 3.6,1.2 h 3.6"
           style="fill:#a00000;fill-opacity:1;fill-rule:evenodd;stroke:none"
           id="path562"
           inkscape:connector-curvature="0" /><path
           d="m 1098,837.6 h 3.6 l 3.6,-1.2 2.4,-1.2 3.6,-2.4 1.2,-2.4 2.4,-2.4 1.2,-3.6 v -7.2 l -1.2,-3.6 -2.4,-2.4 -1.2,-2.4 -3.6,-2.4 -2.4,-2.4 h -3.6 l -3.6,-1.2 -3.6,1.2 h -3.6 l -2.4,2.4 -3.6,2.4 -2.4,2.4 -1.2,2.4 -1.2,3.6 v 7.2 l 1.2,3.6 1.2,2.4 2.4,2.4 3.6,2.4 2.4,1.2 3.6,1.2 h 3.6"
           style="fill:none;stroke:#a00000;stroke-width:7.5;stroke-linecap:round;stroke-linejoin:round;stroke-miterlimit:10;stroke-dasharray:none;stroke-opacity:1"
           id="path564"
           inkscape:connector-curvature="0" /><path
           d="m 1098,837.6 h 3.6 l 3.6,-1.2 2.4,-1.2 3.6,-2.4 1.2,-2.4 2.4,-2.4 1.2,-3.6 v -7.2 l -1.2,-3.6 -2.4,-2.4 -1.2,-2.4 -3.6,-2.4 -2.4,-2.4 h -3.6 l -3.6,-1.2 -3.6,1.2 h -3.6 l -2.4,2.4 -3.6,2.4 -2.4,2.4 -1.2,2.4 -1.2,3.6 v 7.2 l 1.2,3.6 1.2,2.4 2.4,2.4 3.6,2.4 2.4,1.2 3.6,1.2 h 3.6"
           style="fill:#a00000;fill-opacity:1;fill-rule:evenodd;stroke:none"
           id="path566"
           inkscape:connector-curvature="0" /><path
           d="m 1098,837.6 h 3.6 l 3.6,-1.2 2.4,-1.2 3.6,-2.4 1.2,-2.4 2.4,-2.4 1.2,-3.6 v -7.2 l -1.2,-3.6 -2.4,-2.4 -1.2,-2.4 -3.6,-2.4 -2.4,-2.4 h -3.6 l -3.6,-1.2 -3.6,1.2 h -3.6 l -2.4,2.4 -3.6,2.4 -2.4,2.4 -1.2,2.4 -1.2,3.6 v 7.2 l 1.2,3.6 1.2,2.4 2.4,2.4 3.6,2.4 2.4,1.2 3.6,1.2 h 3.6"
           style="fill:none;stroke:#a00000;stroke-width:7.5;stroke-linecap:round;stroke-linejoin:round;stroke-miterlimit:10;stroke-dasharray:none;stroke-opacity:1"
           id="path568"
           inkscape:connector-curvature="0" /><path
           d="m 1398,837.6 h 3.6 l 3.6,-1.2 2.4,-1.2 3.6,-2.4 1.2,-2.4 2.4,-2.4 1.2,-3.6 v -7.2 l -1.2,-3.6 -2.4,-2.4 -1.2,-2.4 -3.6,-2.4 -2.4,-2.4 h -3.6 l -3.6,-1.2 -3.6,1.2 h -3.6 l -2.4,2.4 -3.6,2.4 -2.4,2.4 -1.2,2.4 -1.2,3.6 v 7.2 l 1.2,3.6 1.2,2.4 2.4,2.4 3.6,2.4 2.4,1.2 3.6,1.2 h 3.6"
           style="fill:#a00000;fill-opacity:1;fill-rule:evenodd;stroke:none"
           id="path570"
           inkscape:connector-curvature="0" /><path
           d="m 1398,837.6 h 3.6 l 3.6,-1.2 2.4,-1.2 3.6,-2.4 1.2,-2.4 2.4,-2.4 1.2,-3.6 v -7.2 l -1.2,-3.6 -2.4,-2.4 -1.2,-2.4 -3.6,-2.4 -2.4,-2.4 h -3.6 l -3.6,-1.2 -3.6,1.2 h -3.6 l -2.4,2.4 -3.6,2.4 -2.4,2.4 -1.2,2.4 -1.2,3.6 v 7.2 l 1.2,3.6 1.2,2.4 2.4,2.4 3.6,2.4 2.4,1.2 3.6,1.2 h 3.6"
           style="fill:none;stroke:#a00000;stroke-width:15;stroke-linecap:round;stroke-linejoin:round;stroke-miterlimit:10;stroke-dasharray:none;stroke-opacity:1"
           id="path572"
           inkscape:connector-curvature="0" /><path
           d="m 1398,837.6 h 3.6 l 3.6,-1.2 2.4,-1.2 3.6,-2.4 1.2,-2.4 2.4,-2.4 1.2,-3.6 v -7.2 l -1.2,-3.6 -2.4,-2.4 -1.2,-2.4 -3.6,-2.4 -2.4,-2.4 h -3.6 l -3.6,-1.2 -3.6,1.2 h -3.6 l -2.4,2.4 -3.6,2.4 -2.4,2.4 -1.2,2.4 -1.2,3.6 v 7.2 l 1.2,3.6 1.2,2.4 2.4,2.4 3.6,2.4 2.4,1.2 3.6,1.2 h 3.6"
           style="fill:#a00000;fill-opacity:1;fill-rule:evenodd;stroke:none"
           id="path574"
           inkscape:connector-curvature="0" /><path
           d="m 1398,837.6 h 3.6 l 3.6,-1.2 2.4,-1.2 3.6,-2.4 1.2,-2.4 2.4,-2.4 1.2,-3.6 v -7.2 l -1.2,-3.6 -2.4,-2.4 -1.2,-2.4 -3.6,-2.4 -2.4,-2.4 h -3.6 l -3.6,-1.2 -3.6,1.2 h -3.6 l -2.4,2.4 -3.6,2.4 -2.4,2.4 -1.2,2.4 -1.2,3.6 v 7.2 l 1.2,3.6 1.2,2.4 2.4,2.4 3.6,2.4 2.4,1.2 3.6,1.2 h 3.6"
           style="fill:none;stroke:#a00000;stroke-width:7.5;stroke-linecap:round;stroke-linejoin:round;stroke-miterlimit:10;stroke-dasharray:none;stroke-opacity:1"
           id="path576"
           inkscape:connector-curvature="0" /><path
           d="m 1398,837.6 h 3.6 l 3.6,-1.2 2.4,-1.2 3.6,-2.4 1.2,-2.4 2.4,-2.4 1.2,-3.6 v -7.2 l -1.2,-3.6 -2.4,-2.4 -1.2,-2.4 -3.6,-2.4 -2.4,-2.4 h -3.6 l -3.6,-1.2 -3.6,1.2 h -3.6 l -2.4,2.4 -3.6,2.4 -2.4,2.4 -1.2,2.4 -1.2,3.6 v 7.2 l 1.2,3.6 1.2,2.4 2.4,2.4 3.6,2.4 2.4,1.2 3.6,1.2 h 3.6"
           style="fill:#a00000;fill-opacity:1;fill-rule:evenodd;stroke:none"
           id="path578"
           inkscape:connector-curvature="0" /><path
           d="m 1398,837.6 h 3.6 l 3.6,-1.2 2.4,-1.2 3.6,-2.4 1.2,-2.4 2.4,-2.4 1.2,-3.6 v -7.2 l -1.2,-3.6 -2.4,-2.4 -1.2,-2.4 -3.6,-2.4 -2.4,-2.4 h -3.6 l -3.6,-1.2 -3.6,1.2 h -3.6 l -2.4,2.4 -3.6,2.4 -2.4,2.4 -1.2,2.4 -1.2,3.6 v 7.2 l 1.2,3.6 1.2,2.4 2.4,2.4 3.6,2.4 2.4,1.2 3.6,1.2 h 3.6"
           style="fill:none;stroke:#a00000;stroke-width:7.5;stroke-linecap:round;stroke-linejoin:round;stroke-miterlimit:10;stroke-dasharray:none;stroke-opacity:1"
           id="path580"
           inkscape:connector-curvature="0" /><path
           d="m 798,837.6 h 3.6 l 3.6,-1.2 2.4,-1.2 3.6,-2.4 1.2,-2.4 2.4,-2.4 2.4,-3.6 v -7.2 l -2.4,-3.6 -2.4,-2.4 -1.2,-2.4 -3.6,-2.4 -2.4,-2.4 h -3.6 l -3.6,-2.4 -3.6,2.4 h -3.6 l -2.4,2.4 -3.6,2.4 -2.4,2.4 -1.2,2.4 -1.2,3.6 v 7.2 l 1.2,3.6 1.2,2.4 2.4,2.4 3.6,2.4 2.4,1.2 3.6,1.2 h 3.6"
           style="fill:#000000;fill-opacity:1;fill-rule:evenodd;stroke:none"
           id="path582"
           inkscape:connector-curvature="0" /><path
           d="m 798,837.6 h 3.6 l 3.6,-1.2 2.4,-1.2 3.6,-2.4 1.2,-2.4 2.4,-2.4 1.2,-3.6 v -7.2 l -1.2,-3.6 -2.4,-2.4 -1.2,-2.4 -3.6,-2.4 -2.4,-2.4 h -3.6 l -3.6,-1.2 -3.6,1.2 h -3.6 l -2.4,2.4 -3.6,2.4 -2.4,2.4 -1.2,2.4 -1.2,3.6 v 7.2 l 1.2,3.6 1.2,2.4 2.4,2.4 3.6,2.4 2.4,1.2 3.6,1.2 z"
           style="fill:none;stroke:#000000;stroke-width:7.5;stroke-linecap:round;stroke-linejoin:round;stroke-miterlimit:10;stroke-dasharray:none;stroke-opacity:1"
           id="path584"
           inkscape:connector-curvature="0" /><path
           d="m 798,837.6 h 3.6 l 3.6,-1.2 2.4,-1.2 3.6,-2.4 1.2,-2.4 2.4,-2.4 1.2,-3.6 v -7.2 l -1.2,-3.6 -2.4,-2.4 -1.2,-2.4 -3.6,-2.4 -2.4,-2.4 h -3.6 l -3.6,-1.2 -3.6,1.2 h -3.6 l -2.4,2.4 -3.6,2.4 -2.4,2.4 -1.2,2.4 -1.2,3.6 v 7.2 l 1.2,3.6 1.2,2.4 2.4,2.4 3.6,2.4 2.4,1.2 3.6,1.2 z"
           style="fill:none;stroke:#000000;stroke-width:7.5;stroke-linecap:round;stroke-linejoin:round;stroke-miterlimit:10;stroke-dasharray:none;stroke-opacity:1"
           id="path586"
           inkscape:connector-curvature="0" /><path
           d="m 1698,837.6 h 3.6 l 3.6,-1.2 2.4,-1.2 3.6,-2.4 1.2,-2.4 2.4,-2.4 1.2,-3.6 v -7.2 l -1.2,-3.6 -2.4,-2.4 -1.2,-3.6 -3.6,-1.2 -2.4,-2.4 h -3.6 l -3.6,-1.2 -3.6,1.2 h -3.6 l -2.4,2.4 -3.6,1.2 -2.4,3.6 -1.2,2.4 -1.2,3.6 v 7.2 l 1.2,3.6 1.2,2.4 2.4,2.4 3.6,2.4 2.4,1.2 3.6,1.2 h 3.6"
           style="fill:#a00000;fill-opacity:1;fill-rule:evenodd;stroke:none"
           id="path588"
           inkscape:connector-curvature="0" /><path
           d="m 1698,837.6 h 3.6 l 3.6,-1.2 2.4,-1.2 3.6,-2.4 1.2,-2.4 2.4,-2.4 1.2,-3.6 v -7.2 l -1.2,-3.6 -2.4,-2.4 -1.2,-3.6 -3.6,-1.2 -2.4,-2.4 h -3.6 l -3.6,-1.2 -3.6,1.2 h -3.6 l -2.4,2.4 -3.6,1.2 -2.4,3.6 -1.2,2.4 -1.2,3.6 v 7.2 l 1.2,3.6 1.2,2.4 2.4,2.4 3.6,2.4 2.4,1.2 3.6,1.2 h 3.6"
           style="fill:none;stroke:#a00000;stroke-width:15;stroke-linecap:round;stroke-linejoin:round;stroke-miterlimit:10;stroke-dasharray:none;stroke-opacity:1"
           id="path590"
           inkscape:connector-curvature="0" /><path
           d="m 1698,837.6 h 3.6 l 3.6,-1.2 2.4,-1.2 3.6,-2.4 1.2,-2.4 2.4,-2.4 1.2,-3.6 v -7.2 l -1.2,-3.6 -2.4,-2.4 -1.2,-3.6 -3.6,-1.2 -2.4,-2.4 h -3.6 l -3.6,-1.2 -3.6,1.2 h -3.6 l -2.4,2.4 -3.6,1.2 -2.4,3.6 -1.2,2.4 -1.2,3.6 v 7.2 l 1.2,3.6 1.2,2.4 2.4,2.4 3.6,2.4 2.4,1.2 3.6,1.2 h 3.6"
           style="fill:#a00000;fill-opacity:1;fill-rule:evenodd;stroke:none"
           id="path592"
           inkscape:connector-curvature="0" /><path
           d="m 1698,837.6 h 3.6 l 3.6,-1.2 2.4,-1.2 3.6,-2.4 1.2,-2.4 2.4,-2.4 1.2,-3.6 v -7.2 l -1.2,-3.6 -2.4,-2.4 -1.2,-3.6 -3.6,-1.2 -2.4,-2.4 h -3.6 l -3.6,-1.2 -3.6,1.2 h -3.6 l -2.4,2.4 -3.6,1.2 -2.4,3.6 -1.2,2.4 -1.2,3.6 v 7.2 l 1.2,3.6 1.2,2.4 2.4,2.4 3.6,2.4 2.4,1.2 3.6,1.2 h 3.6"
           style="fill:none;stroke:#a00000;stroke-width:7.5;stroke-linecap:round;stroke-linejoin:round;stroke-miterlimit:10;stroke-dasharray:none;stroke-opacity:1"
           id="path594"
           inkscape:connector-curvature="0" /><path
           d="m 1698,837.6 h 3.6 l 3.6,-1.2 2.4,-1.2 3.6,-2.4 1.2,-2.4 2.4,-2.4 1.2,-3.6 v -7.2 l -1.2,-3.6 -2.4,-2.4 -1.2,-3.6 -3.6,-1.2 -2.4,-2.4 h -3.6 l -3.6,-1.2 -3.6,1.2 h -3.6 l -2.4,2.4 -3.6,1.2 -2.4,3.6 -1.2,2.4 -1.2,3.6 v 7.2 l 1.2,3.6 1.2,2.4 2.4,2.4 3.6,2.4 2.4,1.2 3.6,1.2 h 3.6"
           style="fill:#a00000;fill-opacity:1;fill-rule:evenodd;stroke:none"
           id="path596"
           inkscape:connector-curvature="0" /><path
           d="m 1698,837.6 h 3.6 l 3.6,-1.2 2.4,-1.2 3.6,-2.4 1.2,-2.4 2.4,-2.4 1.2,-3.6 v -7.2 l -1.2,-3.6 -2.4,-2.4 -1.2,-3.6 -3.6,-1.2 -2.4,-2.4 h -3.6 l -3.6,-1.2 -3.6,1.2 h -3.6 l -2.4,2.4 -3.6,1.2 -2.4,3.6 -1.2,2.4 -1.2,3.6 v 7.2 l 1.2,3.6 1.2,2.4 2.4,2.4 3.6,2.4 2.4,1.2 3.6,1.2 h 3.6"
           style="fill:none;stroke:#a00000;stroke-width:7.5;stroke-linecap:round;stroke-linejoin:round;stroke-miterlimit:10;stroke-dasharray:none;stroke-opacity:1"
           id="path598"
           inkscape:connector-curvature="0" /><path
           d="m 1098,1136.4 h 3.6 l 3.6,-1.2 2.4,-1.2 3.6,-2.4 1.2,-2.4 2.4,-2.4 1.2,-3.6 v -7.2 l -1.2,-3.6 -2.4,-2.4 -1.2,-2.4 -3.6,-2.4 -2.4,-2.4 h -3.6 l -3.6,-1.2 -3.6,1.2 h -3.6 l -2.4,2.4 -3.6,2.4 -2.4,2.4 -1.2,2.4 -1.2,3.6 v 7.2 l 1.2,3.6 1.2,2.4 2.4,2.4 3.6,2.4 2.4,1.2 3.6,1.2 h 3.6"
           style="fill:#a00000;fill-opacity:1;fill-rule:evenodd;stroke:none"
           id="path600"
           inkscape:connector-curvature="0" /><path
           d="m 1098,1136.4 h 3.6 l 3.6,-1.2 2.4,-1.2 3.6,-2.4 1.2,-2.4 2.4,-2.4 1.2,-3.6 v -7.2 l -1.2,-3.6 -2.4,-2.4 -1.2,-2.4 -3.6,-2.4 -2.4,-2.4 h -3.6 l -3.6,-1.2 -3.6,1.2 h -3.6 l -2.4,2.4 -3.6,2.4 -2.4,2.4 -1.2,2.4 -1.2,3.6 v 7.2 l 1.2,3.6 1.2,2.4 2.4,2.4 3.6,2.4 2.4,1.2 3.6,1.2 h 3.6"
           style="fill:none;stroke:#a00000;stroke-width:15;stroke-linecap:round;stroke-linejoin:round;stroke-miterlimit:10;stroke-dasharray:none;stroke-opacity:1"
           id="path602"
           inkscape:connector-curvature="0" /><path
           d="m 1098,1136.4 h 3.6 l 3.6,-1.2 2.4,-1.2 3.6,-2.4 1.2,-2.4 2.4,-2.4 1.2,-3.6 v -7.2 l -1.2,-3.6 -2.4,-2.4 -1.2,-2.4 -3.6,-2.4 -2.4,-2.4 h -3.6 l -3.6,-1.2 -3.6,1.2 h -3.6 l -2.4,2.4 -3.6,2.4 -2.4,2.4 -1.2,2.4 -1.2,3.6 v 7.2 l 1.2,3.6 1.2,2.4 2.4,2.4 3.6,2.4 2.4,1.2 3.6,1.2 h 3.6"
           style="fill:#a00000;fill-opacity:1;fill-rule:evenodd;stroke:none"
           id="path604"
           inkscape:connector-curvature="0" /><path
           d="m 1098,1136.4 h 3.6 l 3.6,-1.2 2.4,-1.2 3.6,-2.4 1.2,-2.4 2.4,-2.4 1.2,-3.6 v -7.2 l -1.2,-3.6 -2.4,-2.4 -1.2,-2.4 -3.6,-2.4 -2.4,-2.4 h -3.6 l -3.6,-1.2 -3.6,1.2 h -3.6 l -2.4,2.4 -3.6,2.4 -2.4,2.4 -1.2,2.4 -1.2,3.6 v 7.2 l 1.2,3.6 1.2,2.4 2.4,2.4 3.6,2.4 2.4,1.2 3.6,1.2 h 3.6"
           style="fill:none;stroke:#a00000;stroke-width:7.5;stroke-linecap:round;stroke-linejoin:round;stroke-miterlimit:10;stroke-dasharray:none;stroke-opacity:1"
           id="path606"
           inkscape:connector-curvature="0" /><path
           d="m 1098,1136.4 h 3.6 l 3.6,-1.2 2.4,-1.2 3.6,-2.4 1.2,-2.4 2.4,-2.4 1.2,-3.6 v -7.2 l -1.2,-3.6 -2.4,-2.4 -1.2,-2.4 -3.6,-2.4 -2.4,-2.4 h -3.6 l -3.6,-1.2 -3.6,1.2 h -3.6 l -2.4,2.4 -3.6,2.4 -2.4,2.4 -1.2,2.4 -1.2,3.6 v 7.2 l 1.2,3.6 1.2,2.4 2.4,2.4 3.6,2.4 2.4,1.2 3.6,1.2 h 3.6"
           style="fill:#a00000;fill-opacity:1;fill-rule:evenodd;stroke:none"
           id="path608"
           inkscape:connector-curvature="0" /><path
           d="m 1098,1136.4 h 3.6 l 3.6,-1.2 2.4,-1.2 3.6,-2.4 1.2,-2.4 2.4,-2.4 1.2,-3.6 v -7.2 l -1.2,-3.6 -2.4,-2.4 -1.2,-2.4 -3.6,-2.4 -2.4,-2.4 h -3.6 l -3.6,-1.2 -3.6,1.2 h -3.6 l -2.4,2.4 -3.6,2.4 -2.4,2.4 -1.2,2.4 -1.2,3.6 v 7.2 l 1.2,3.6 1.2,2.4 2.4,2.4 3.6,2.4 2.4,1.2 3.6,1.2 h 3.6"
           style="fill:none;stroke:#a00000;stroke-width:7.5;stroke-linecap:round;stroke-linejoin:round;stroke-miterlimit:10;stroke-dasharray:none;stroke-opacity:1"
           id="path610"
           inkscape:connector-curvature="0" /><path
           d="m 1398,1136.4 h 3.6 l 3.6,-1.2 2.4,-1.2 3.6,-2.4 1.2,-2.4 2.4,-2.4 1.2,-3.6 v -7.2 l -1.2,-3.6 -2.4,-2.4 -1.2,-2.4 -3.6,-2.4 -2.4,-2.4 h -3.6 l -3.6,-1.2 -3.6,1.2 h -3.6 l -2.4,2.4 -3.6,2.4 -2.4,2.4 -1.2,2.4 -1.2,3.6 v 7.2 l 1.2,3.6 1.2,2.4 2.4,2.4 3.6,2.4 2.4,1.2 3.6,1.2 h 3.6"
           style="fill:#a00000;fill-opacity:1;fill-rule:evenodd;stroke:none"
           id="path612"
           inkscape:connector-curvature="0" /><path
           d="m 1398,1136.4 h 3.6 l 3.6,-1.2 2.4,-1.2 3.6,-2.4 1.2,-2.4 2.4,-2.4 1.2,-3.6 v -7.2 l -1.2,-3.6 -2.4,-2.4 -1.2,-2.4 -3.6,-2.4 -2.4,-2.4 h -3.6 l -3.6,-1.2 -3.6,1.2 h -3.6 l -2.4,2.4 -3.6,2.4 -2.4,2.4 -1.2,2.4 -1.2,3.6 v 7.2 l 1.2,3.6 1.2,2.4 2.4,2.4 3.6,2.4 2.4,1.2 3.6,1.2 h 3.6"
           style="fill:none;stroke:#a00000;stroke-width:15;stroke-linecap:round;stroke-linejoin:round;stroke-miterlimit:10;stroke-dasharray:none;stroke-opacity:1"
           id="path614"
           inkscape:connector-curvature="0" /><path
           d="m 1398,1136.4 h 3.6 l 3.6,-1.2 2.4,-1.2 3.6,-2.4 1.2,-2.4 2.4,-2.4 1.2,-3.6 v -7.2 l -1.2,-3.6 -2.4,-2.4 -1.2,-2.4 -3.6,-2.4 -2.4,-2.4 h -3.6 l -3.6,-1.2 -3.6,1.2 h -3.6 l -2.4,2.4 -3.6,2.4 -2.4,2.4 -1.2,2.4 -1.2,3.6 v 7.2 l 1.2,3.6 1.2,2.4 2.4,2.4 3.6,2.4 2.4,1.2 3.6,1.2 h 3.6"
           style="fill:#a00000;fill-opacity:1;fill-rule:evenodd;stroke:none"
           id="path616"
           inkscape:connector-curvature="0" /><path
           d="m 1398,1136.4 h 3.6 l 3.6,-1.2 2.4,-1.2 3.6,-2.4 1.2,-2.4 2.4,-2.4 1.2,-3.6 v -7.2 l -1.2,-3.6 -2.4,-2.4 -1.2,-2.4 -3.6,-2.4 -2.4,-2.4 h -3.6 l -3.6,-1.2 -3.6,1.2 h -3.6 l -2.4,2.4 -3.6,2.4 -2.4,2.4 -1.2,2.4 -1.2,3.6 v 7.2 l 1.2,3.6 1.2,2.4 2.4,2.4 3.6,2.4 2.4,1.2 3.6,1.2 h 3.6"
           style="fill:none;stroke:#a00000;stroke-width:7.5;stroke-linecap:round;stroke-linejoin:round;stroke-miterlimit:10;stroke-dasharray:none;stroke-opacity:1"
           id="path618"
           inkscape:connector-curvature="0" /><path
           d="m 1398,1136.4 h 3.6 l 3.6,-1.2 2.4,-1.2 3.6,-2.4 1.2,-2.4 2.4,-2.4 1.2,-3.6 v -7.2 l -1.2,-3.6 -2.4,-2.4 -1.2,-2.4 -3.6,-2.4 -2.4,-2.4 h -3.6 l -3.6,-1.2 -3.6,1.2 h -3.6 l -2.4,2.4 -3.6,2.4 -2.4,2.4 -1.2,2.4 -1.2,3.6 v 7.2 l 1.2,3.6 1.2,2.4 2.4,2.4 3.6,2.4 2.4,1.2 3.6,1.2 h 3.6"
           style="fill:#a00000;fill-opacity:1;fill-rule:evenodd;stroke:none"
           id="path620"
           inkscape:connector-curvature="0" /><path
           d="m 1398,1136.4 h 3.6 l 3.6,-1.2 2.4,-1.2 3.6,-2.4 1.2,-2.4 2.4,-2.4 1.2,-3.6 v -7.2 l -1.2,-3.6 -2.4,-2.4 -1.2,-2.4 -3.6,-2.4 -2.4,-2.4 h -3.6 l -3.6,-1.2 -3.6,1.2 h -3.6 l -2.4,2.4 -3.6,2.4 -2.4,2.4 -1.2,2.4 -1.2,3.6 v 7.2 l 1.2,3.6 1.2,2.4 2.4,2.4 3.6,2.4 2.4,1.2 3.6,1.2 h 3.6"
           style="fill:none;stroke:#a00000;stroke-width:7.5;stroke-linecap:round;stroke-linejoin:round;stroke-miterlimit:10;stroke-dasharray:none;stroke-opacity:1"
           id="path622"
           inkscape:connector-curvature="0" /><path
           d="m 1698,1136.4 h 3.6 l 3.6,-1.2 2.4,-1.2 3.6,-2.4 1.2,-2.4 2.4,-2.4 1.2,-3.6 v -7.2 l -1.2,-3.6 -2.4,-2.4 -1.2,-3.6 -3.6,-1.2 -2.4,-2.4 h -3.6 l -3.6,-1.2 -3.6,1.2 h -3.6 l -2.4,2.4 -3.6,1.2 -2.4,3.6 -1.2,2.4 -1.2,3.6 v 7.2 l 1.2,3.6 1.2,2.4 2.4,2.4 3.6,2.4 2.4,1.2 3.6,1.2 h 3.6"
           style="fill:#a00000;fill-opacity:1;fill-rule:evenodd;stroke:none"
           id="path624"
           inkscape:connector-curvature="0" /><path
           d="m 1698,1136.4 h 3.6 l 3.6,-1.2 2.4,-1.2 3.6,-2.4 1.2,-2.4 2.4,-2.4 1.2,-3.6 v -7.2 l -1.2,-3.6 -2.4,-2.4 -1.2,-3.6 -3.6,-1.2 -2.4,-2.4 h -3.6 l -3.6,-1.2 -3.6,1.2 h -3.6 l -2.4,2.4 -3.6,1.2 -2.4,3.6 -1.2,2.4 -1.2,3.6 v 7.2 l 1.2,3.6 1.2,2.4 2.4,2.4 3.6,2.4 2.4,1.2 3.6,1.2 h 3.6"
           style="fill:none;stroke:#a00000;stroke-width:15;stroke-linecap:round;stroke-linejoin:round;stroke-miterlimit:10;stroke-dasharray:none;stroke-opacity:1"
           id="path626"
           inkscape:connector-curvature="0" /><path
           d="m 1698,1136.4 h 3.6 l 3.6,-1.2 2.4,-1.2 3.6,-2.4 1.2,-2.4 2.4,-2.4 1.2,-3.6 v -7.2 l -1.2,-3.6 -2.4,-2.4 -1.2,-3.6 -3.6,-1.2 -2.4,-2.4 h -3.6 l -3.6,-1.2 -3.6,1.2 h -3.6 l -2.4,2.4 -3.6,1.2 -2.4,3.6 -1.2,2.4 -1.2,3.6 v 7.2 l 1.2,3.6 1.2,2.4 2.4,2.4 3.6,2.4 2.4,1.2 3.6,1.2 h 3.6"
           style="fill:#a00000;fill-opacity:1;fill-rule:evenodd;stroke:none"
           id="path628"
           inkscape:connector-curvature="0" /><path
           d="m 1698,1136.4 h 3.6 l 3.6,-1.2 2.4,-1.2 3.6,-2.4 1.2,-2.4 2.4,-2.4 1.2,-3.6 v -7.2 l -1.2,-3.6 -2.4,-2.4 -1.2,-3.6 -3.6,-1.2 -2.4,-2.4 h -3.6 l -3.6,-1.2 -3.6,1.2 h -3.6 l -2.4,2.4 -3.6,1.2 -2.4,3.6 -1.2,2.4 -1.2,3.6 v 7.2 l 1.2,3.6 1.2,2.4 2.4,2.4 3.6,2.4 2.4,1.2 3.6,1.2 h 3.6"
           style="fill:none;stroke:#a00000;stroke-width:7.5;stroke-linecap:round;stroke-linejoin:round;stroke-miterlimit:10;stroke-dasharray:none;stroke-opacity:1"
           id="path630"
           inkscape:connector-curvature="0" /><path
           d="m 1698,1136.4 h 3.6 l 3.6,-1.2 2.4,-1.2 3.6,-2.4 1.2,-2.4 2.4,-2.4 1.2,-3.6 v -7.2 l -1.2,-3.6 -2.4,-2.4 -1.2,-3.6 -3.6,-1.2 -2.4,-2.4 h -3.6 l -3.6,-1.2 -3.6,1.2 h -3.6 l -2.4,2.4 -3.6,1.2 -2.4,3.6 -1.2,2.4 -1.2,3.6 v 7.2 l 1.2,3.6 1.2,2.4 2.4,2.4 3.6,2.4 2.4,1.2 3.6,1.2 h 3.6"
           style="fill:#a00000;fill-opacity:1;fill-rule:evenodd;stroke:none"
           id="path632"
           inkscape:connector-curvature="0" /><path
           d="m 1698,1136.4 h 3.6 l 3.6,-1.2 2.4,-1.2 3.6,-2.4 1.2,-2.4 2.4,-2.4 1.2,-3.6 v -7.2 l -1.2,-3.6 -2.4,-2.4 -1.2,-3.6 -3.6,-1.2 -2.4,-2.4 h -3.6 l -3.6,-1.2 -3.6,1.2 h -3.6 l -2.4,2.4 -3.6,1.2 -2.4,3.6 -1.2,2.4 -1.2,3.6 v 7.2 l 1.2,3.6 1.2,2.4 2.4,2.4 3.6,2.4 2.4,1.2 3.6,1.2 h 3.6"
           style="fill:none;stroke:#a00000;stroke-width:7.5;stroke-linecap:round;stroke-linejoin:round;stroke-miterlimit:10;stroke-dasharray:none;stroke-opacity:1"
           id="path634"
           inkscape:connector-curvature="0" /><path
           d="m 1098,1436.4 h 3.6 l 3.6,-1.2 2.4,-1.2 3.6,-2.4 1.2,-2.4 2.4,-2.4 1.2,-3.6 v -7.2 l -1.2,-3.6 -2.4,-2.4 -1.2,-2.4 -3.6,-2.4 -2.4,-2.4 h -3.6 l -3.6,-1.2 -3.6,1.2 h -3.6 l -2.4,2.4 -3.6,2.4 -2.4,2.4 -1.2,2.4 -1.2,3.6 v 7.2 l 1.2,3.6 1.2,2.4 2.4,2.4 3.6,2.4 2.4,1.2 3.6,1.2 h 3.6"
           style="fill:#a00000;fill-opacity:1;fill-rule:evenodd;stroke:none"
           id="path636"
           inkscape:connector-curvature="0" /><path
           d="m 1098,1436.4 h 3.6 l 3.6,-1.2 2.4,-1.2 3.6,-2.4 1.2,-2.4 2.4,-2.4 1.2,-3.6 v -7.2 l -1.2,-3.6 -2.4,-2.4 -1.2,-2.4 -3.6,-2.4 -2.4,-2.4 h -3.6 l -3.6,-1.2 -3.6,1.2 h -3.6 l -2.4,2.4 -3.6,2.4 -2.4,2.4 -1.2,2.4 -1.2,3.6 v 7.2 l 1.2,3.6 1.2,2.4 2.4,2.4 3.6,2.4 2.4,1.2 3.6,1.2 h 3.6"
           style="fill:none;stroke:#a00000;stroke-width:15;stroke-linecap:round;stroke-linejoin:round;stroke-miterlimit:10;stroke-dasharray:none;stroke-opacity:1"
           id="path638"
           inkscape:connector-curvature="0" /><path
           d="m 1098,1436.4 h 3.6 l 3.6,-1.2 2.4,-1.2 3.6,-2.4 1.2,-2.4 2.4,-2.4 1.2,-3.6 v -7.2 l -1.2,-3.6 -2.4,-2.4 -1.2,-2.4 -3.6,-2.4 -2.4,-2.4 h -3.6 l -3.6,-1.2 -3.6,1.2 h -3.6 l -2.4,2.4 -3.6,2.4 -2.4,2.4 -1.2,2.4 -1.2,3.6 v 7.2 l 1.2,3.6 1.2,2.4 2.4,2.4 3.6,2.4 2.4,1.2 3.6,1.2 h 3.6"
           style="fill:#a00000;fill-opacity:1;fill-rule:evenodd;stroke:none"
           id="path640"
           inkscape:connector-curvature="0" /><path
           d="m 1098,1436.4 h 3.6 l 3.6,-1.2 2.4,-1.2 3.6,-2.4 1.2,-2.4 2.4,-2.4 1.2,-3.6 v -7.2 l -1.2,-3.6 -2.4,-2.4 -1.2,-2.4 -3.6,-2.4 -2.4,-2.4 h -3.6 l -3.6,-1.2 -3.6,1.2 h -3.6 l -2.4,2.4 -3.6,2.4 -2.4,2.4 -1.2,2.4 -1.2,3.6 v 7.2 l 1.2,3.6 1.2,2.4 2.4,2.4 3.6,2.4 2.4,1.2 3.6,1.2 h 3.6"
           style="fill:none;stroke:#a00000;stroke-width:7.5;stroke-linecap:round;stroke-linejoin:round;stroke-miterlimit:10;stroke-dasharray:none;stroke-opacity:1"
           id="path642"
           inkscape:connector-curvature="0" /><path
           d="m 1098,1436.4 h 3.6 l 3.6,-1.2 2.4,-1.2 3.6,-2.4 1.2,-2.4 2.4,-2.4 1.2,-3.6 v -7.2 l -1.2,-3.6 -2.4,-2.4 -1.2,-2.4 -3.6,-2.4 -2.4,-2.4 h -3.6 l -3.6,-1.2 -3.6,1.2 h -3.6 l -2.4,2.4 -3.6,2.4 -2.4,2.4 -1.2,2.4 -1.2,3.6 v 7.2 l 1.2,3.6 1.2,2.4 2.4,2.4 3.6,2.4 2.4,1.2 3.6,1.2 h 3.6"
           style="fill:#a00000;fill-opacity:1;fill-rule:evenodd;stroke:none"
           id="path644"
           inkscape:connector-curvature="0" /><path
           d="m 1098,1436.4 h 3.6 l 3.6,-1.2 2.4,-1.2 3.6,-2.4 1.2,-2.4 2.4,-2.4 1.2,-3.6 v -7.2 l -1.2,-3.6 -2.4,-2.4 -1.2,-2.4 -3.6,-2.4 -2.4,-2.4 h -3.6 l -3.6,-1.2 -3.6,1.2 h -3.6 l -2.4,2.4 -3.6,2.4 -2.4,2.4 -1.2,2.4 -1.2,3.6 v 7.2 l 1.2,3.6 1.2,2.4 2.4,2.4 3.6,2.4 2.4,1.2 3.6,1.2 h 3.6"
           style="fill:none;stroke:#a00000;stroke-width:7.5;stroke-linecap:round;stroke-linejoin:round;stroke-miterlimit:10;stroke-dasharray:none;stroke-opacity:1"
           id="path646"
           inkscape:connector-curvature="0" /><path
           d="m 1398,1436.4 h 3.6 l 3.6,-1.2 2.4,-1.2 3.6,-2.4 1.2,-2.4 2.4,-2.4 1.2,-3.6 v -7.2 l -1.2,-3.6 -2.4,-2.4 -1.2,-2.4 -3.6,-2.4 -2.4,-2.4 h -3.6 l -3.6,-1.2 -3.6,1.2 h -3.6 l -2.4,2.4 -3.6,2.4 -2.4,2.4 -1.2,2.4 -1.2,3.6 v 7.2 l 1.2,3.6 1.2,2.4 2.4,2.4 3.6,2.4 2.4,1.2 3.6,1.2 h 3.6"
           style="fill:#a00000;fill-opacity:1;fill-rule:evenodd;stroke:none"
           id="path648"
           inkscape:connector-curvature="0" /><path
           d="m 1398,1436.4 h 3.6 l 3.6,-1.2 2.4,-1.2 3.6,-2.4 1.2,-2.4 2.4,-2.4 1.2,-3.6 v -7.2 l -1.2,-3.6 -2.4,-2.4 -1.2,-2.4 -3.6,-2.4 -2.4,-2.4 h -3.6 l -3.6,-1.2 -3.6,1.2 h -3.6 l -2.4,2.4 -3.6,2.4 -2.4,2.4 -1.2,2.4 -1.2,3.6 v 7.2 l 1.2,3.6 1.2,2.4 2.4,2.4 3.6,2.4 2.4,1.2 3.6,1.2 h 3.6"
           style="fill:none;stroke:#a00000;stroke-width:15;stroke-linecap:round;stroke-linejoin:round;stroke-miterlimit:10;stroke-dasharray:none;stroke-opacity:1"
           id="path650"
           inkscape:connector-curvature="0" /><path
           d="m 1398,1436.4 h 3.6 l 3.6,-1.2 2.4,-1.2 3.6,-2.4 1.2,-2.4 2.4,-2.4 1.2,-3.6 v -7.2 l -1.2,-3.6 -2.4,-2.4 -1.2,-2.4 -3.6,-2.4 -2.4,-2.4 h -3.6 l -3.6,-1.2 -3.6,1.2 h -3.6 l -2.4,2.4 -3.6,2.4 -2.4,2.4 -1.2,2.4 -1.2,3.6 v 7.2 l 1.2,3.6 1.2,2.4 2.4,2.4 3.6,2.4 2.4,1.2 3.6,1.2 h 3.6"
           style="fill:#a00000;fill-opacity:1;fill-rule:evenodd;stroke:none"
           id="path652"
           inkscape:connector-curvature="0" /><path
           d="m 1398,1436.4 h 3.6 l 3.6,-1.2 2.4,-1.2 3.6,-2.4 1.2,-2.4 2.4,-2.4 1.2,-3.6 v -7.2 l -1.2,-3.6 -2.4,-2.4 -1.2,-2.4 -3.6,-2.4 -2.4,-2.4 h -3.6 l -3.6,-1.2 -3.6,1.2 h -3.6 l -2.4,2.4 -3.6,2.4 -2.4,2.4 -1.2,2.4 -1.2,3.6 v 7.2 l 1.2,3.6 1.2,2.4 2.4,2.4 3.6,2.4 2.4,1.2 3.6,1.2 h 3.6"
           style="fill:none;stroke:#a00000;stroke-width:7.5;stroke-linecap:round;stroke-linejoin:round;stroke-miterlimit:10;stroke-dasharray:none;stroke-opacity:1"
           id="path654"
           inkscape:connector-curvature="0" /><path
           d="m 1398,1436.4 h 3.6 l 3.6,-1.2 2.4,-1.2 3.6,-2.4 1.2,-2.4 2.4,-2.4 1.2,-3.6 v -7.2 l -1.2,-3.6 -2.4,-2.4 -1.2,-2.4 -3.6,-2.4 -2.4,-2.4 h -3.6 l -3.6,-1.2 -3.6,1.2 h -3.6 l -2.4,2.4 -3.6,2.4 -2.4,2.4 -1.2,2.4 -1.2,3.6 v 7.2 l 1.2,3.6 1.2,2.4 2.4,2.4 3.6,2.4 2.4,1.2 3.6,1.2 h 3.6"
           style="fill:#a00000;fill-opacity:1;fill-rule:evenodd;stroke:none"
           id="path656"
           inkscape:connector-curvature="0" /><path
           d="m 1398,1436.4 h 3.6 l 3.6,-1.2 2.4,-1.2 3.6,-2.4 1.2,-2.4 2.4,-2.4 1.2,-3.6 v -7.2 l -1.2,-3.6 -2.4,-2.4 -1.2,-2.4 -3.6,-2.4 -2.4,-2.4 h -3.6 l -3.6,-1.2 -3.6,1.2 h -3.6 l -2.4,2.4 -3.6,2.4 -2.4,2.4 -1.2,2.4 -1.2,3.6 v 7.2 l 1.2,3.6 1.2,2.4 2.4,2.4 3.6,2.4 2.4,1.2 3.6,1.2 h 3.6"
           style="fill:none;stroke:#a00000;stroke-width:7.5;stroke-linecap:round;stroke-linejoin:round;stroke-miterlimit:10;stroke-dasharray:none;stroke-opacity:1"
           id="path658"
           inkscape:connector-curvature="0" /><path
           d="m 1698,1436.4 h 3.6 l 3.6,-1.2 2.4,-1.2 3.6,-2.4 1.2,-2.4 2.4,-2.4 1.2,-3.6 v -7.2 l -1.2,-3.6 -2.4,-2.4 -1.2,-3.6 -3.6,-1.2 -2.4,-2.4 h -3.6 l -3.6,-1.2 -3.6,1.2 h -3.6 l -2.4,2.4 -3.6,1.2 -2.4,3.6 -1.2,2.4 -1.2,3.6 v 7.2 l 1.2,3.6 1.2,2.4 2.4,2.4 3.6,2.4 2.4,1.2 3.6,1.2 h 3.6"
           style="fill:#a00000;fill-opacity:1;fill-rule:evenodd;stroke:none"
           id="path660"
           inkscape:connector-curvature="0" /><path
           d="m 1698,1436.4 h 3.6 l 3.6,-1.2 2.4,-1.2 3.6,-2.4 1.2,-2.4 2.4,-2.4 1.2,-3.6 v -7.2 l -1.2,-3.6 -2.4,-2.4 -1.2,-3.6 -3.6,-1.2 -2.4,-2.4 h -3.6 l -3.6,-1.2 -3.6,1.2 h -3.6 l -2.4,2.4 -3.6,1.2 -2.4,3.6 -1.2,2.4 -1.2,3.6 v 7.2 l 1.2,3.6 1.2,2.4 2.4,2.4 3.6,2.4 2.4,1.2 3.6,1.2 h 3.6"
           style="fill:none;stroke:#a00000;stroke-width:15;stroke-linecap:round;stroke-linejoin:round;stroke-miterlimit:10;stroke-dasharray:none;stroke-opacity:1"
           id="path662"
           inkscape:connector-curvature="0" /><path
           d="m 1698,1436.4 h 3.6 l 3.6,-1.2 2.4,-1.2 3.6,-2.4 1.2,-2.4 2.4,-2.4 1.2,-3.6 v -7.2 l -1.2,-3.6 -2.4,-2.4 -1.2,-3.6 -3.6,-1.2 -2.4,-2.4 h -3.6 l -3.6,-1.2 -3.6,1.2 h -3.6 l -2.4,2.4 -3.6,1.2 -2.4,3.6 -1.2,2.4 -1.2,3.6 v 7.2 l 1.2,3.6 1.2,2.4 2.4,2.4 3.6,2.4 2.4,1.2 3.6,1.2 h 3.6"
           style="fill:#a00000;fill-opacity:1;fill-rule:evenodd;stroke:none"
           id="path664"
           inkscape:connector-curvature="0" /><path
           d="m 1698,1436.4 h 3.6 l 3.6,-1.2 2.4,-1.2 3.6,-2.4 1.2,-2.4 2.4,-2.4 1.2,-3.6 v -7.2 l -1.2,-3.6 -2.4,-2.4 -1.2,-3.6 -3.6,-1.2 -2.4,-2.4 h -3.6 l -3.6,-1.2 -3.6,1.2 h -3.6 l -2.4,2.4 -3.6,1.2 -2.4,3.6 -1.2,2.4 -1.2,3.6 v 7.2 l 1.2,3.6 1.2,2.4 2.4,2.4 3.6,2.4 2.4,1.2 3.6,1.2 h 3.6"
           style="fill:none;stroke:#a00000;stroke-width:7.5;stroke-linecap:round;stroke-linejoin:round;stroke-miterlimit:10;stroke-dasharray:none;stroke-opacity:1"
           id="path666"
           inkscape:connector-curvature="0" /><path
           d="m 1698,1436.4 h 3.6 l 3.6,-1.2 2.4,-1.2 3.6,-2.4 1.2,-2.4 2.4,-2.4 1.2,-3.6 v -7.2 l -1.2,-3.6 -2.4,-2.4 -1.2,-3.6 -3.6,-1.2 -2.4,-2.4 h -3.6 l -3.6,-1.2 -3.6,1.2 h -3.6 l -2.4,2.4 -3.6,1.2 -2.4,3.6 -1.2,2.4 -1.2,3.6 v 7.2 l 1.2,3.6 1.2,2.4 2.4,2.4 3.6,2.4 2.4,1.2 3.6,1.2 h 3.6"
           style="fill:#a00000;fill-opacity:1;fill-rule:evenodd;stroke:none"
           id="path668"
           inkscape:connector-curvature="0" /><path
           d="m 1698,1436.4 h 3.6 l 3.6,-1.2 2.4,-1.2 3.6,-2.4 1.2,-2.4 2.4,-2.4 1.2,-3.6 v -7.2 l -1.2,-3.6 -2.4,-2.4 -1.2,-3.6 -3.6,-1.2 -2.4,-2.4 h -3.6 l -3.6,-1.2 -3.6,1.2 h -3.6 l -2.4,2.4 -3.6,1.2 -2.4,3.6 -1.2,2.4 -1.2,3.6 v 7.2 l 1.2,3.6 1.2,2.4 2.4,2.4 3.6,2.4 2.4,1.2 3.6,1.2 h 3.6"
           style="fill:none;stroke:#a00000;stroke-width:7.5;stroke-linecap:round;stroke-linejoin:round;stroke-miterlimit:10;stroke-dasharray:none;stroke-opacity:1"
           id="path670"
           inkscape:connector-curvature="0" /><path
           d="M 60,956.4 V 357.6"
           style="fill:none;stroke:#000000;stroke-width:22.5;stroke-linecap:round;stroke-linejoin:round;stroke-miterlimit:10;stroke-dasharray:none;stroke-opacity:1"
           id="path672"
           inkscape:connector-curvature="0" /><path
           d="M 1857.6,1548 V 349.2"
           style="fill:none;stroke:#a00000;stroke-width:7.5;stroke-linecap:round;stroke-linejoin:round;stroke-miterlimit:10;stroke-dasharray:none;stroke-opacity:1"
           id="path674"
           inkscape:connector-curvature="0" /><path
           d="M 957.6,1557.6 V 950.4"
           style="fill:none;stroke:#a00000;stroke-width:22.5;stroke-linecap:round;stroke-linejoin:round;stroke-miterlimit:10;stroke-dasharray:none;stroke-opacity:1"
           id="path676"
           inkscape:connector-curvature="0" /><path
           d="M 957.6,943.2 V 356.4"
           style="fill:none;stroke:#a00000;stroke-width:7.5;stroke-linecap:round;stroke-linejoin:round;stroke-miterlimit:10;stroke-dasharray:none;stroke-opacity:1"
           id="path678"
           inkscape:connector-curvature="0" /><path
           d="m 1098,540 h 3.6 l 3.6,-1.2 2.4,-1.2 3.6,-2.4 1.2,-2.4 2.4,-2.4 1.2,-3.6 v -7.2 l -1.2,-3.6 -2.4,-2.4 -1.2,-2.4 -3.6,-2.4 -2.4,-2.4 h -3.6 l -3.6,-1.2 -3.6,1.2 h -3.6 l -2.4,2.4 -3.6,2.4 -2.4,2.4 -1.2,2.4 -1.2,3.6 v 7.2 l 1.2,3.6 1.2,2.4 2.4,2.4 3.6,2.4 2.4,1.2 3.6,1.2 h 3.6"
           style="fill:#a00000;fill-opacity:1;fill-rule:evenodd;stroke:none"
           id="path680"
           inkscape:connector-curvature="0" /><path
           d="m 1098,540 h 3.6 l 3.6,-1.2 2.4,-1.2 3.6,-2.4 1.2,-2.4 2.4,-2.4 1.2,-3.6 v -7.2 l -1.2,-3.6 -2.4,-2.4 -1.2,-2.4 -3.6,-2.4 -2.4,-2.4 h -3.6 l -3.6,-1.2 -3.6,1.2 h -3.6 l -2.4,2.4 -3.6,2.4 -2.4,2.4 -1.2,2.4 -1.2,3.6 v 7.2 l 1.2,3.6 1.2,2.4 2.4,2.4 3.6,2.4 2.4,1.2 3.6,1.2 h 3.6"
           style="fill:none;stroke:#a00000;stroke-width:15;stroke-linecap:round;stroke-linejoin:round;stroke-miterlimit:10;stroke-dasharray:none;stroke-opacity:1"
           id="path682"
           inkscape:connector-curvature="0" /><path
           d="m 1098,540 h 3.6 l 3.6,-1.2 2.4,-1.2 3.6,-2.4 1.2,-2.4 2.4,-2.4 1.2,-3.6 v -7.2 l -1.2,-3.6 -2.4,-2.4 -1.2,-2.4 -3.6,-2.4 -2.4,-2.4 h -3.6 l -3.6,-1.2 -3.6,1.2 h -3.6 l -2.4,2.4 -3.6,2.4 -2.4,2.4 -1.2,2.4 -1.2,3.6 v 7.2 l 1.2,3.6 1.2,2.4 2.4,2.4 3.6,2.4 2.4,1.2 3.6,1.2 h 3.6"
           style="fill:#a00000;fill-opacity:1;fill-rule:evenodd;stroke:none"
           id="path684"
           inkscape:connector-curvature="0" /><path
           d="m 1098,540 h 3.6 l 3.6,-1.2 2.4,-1.2 3.6,-2.4 1.2,-2.4 2.4,-2.4 1.2,-3.6 v -7.2 l -1.2,-3.6 -2.4,-2.4 -1.2,-2.4 -3.6,-2.4 -2.4,-2.4 h -3.6 l -3.6,-1.2 -3.6,1.2 h -3.6 l -2.4,2.4 -3.6,2.4 -2.4,2.4 -1.2,2.4 -1.2,3.6 v 7.2 l 1.2,3.6 1.2,2.4 2.4,2.4 3.6,2.4 2.4,1.2 3.6,1.2 h 3.6"
           style="fill:none;stroke:#a00000;stroke-width:7.5;stroke-linecap:round;stroke-linejoin:round;stroke-miterlimit:10;stroke-dasharray:none;stroke-opacity:1"
           id="path686"
           inkscape:connector-curvature="0" /><path
           d="m 1098,540 h 3.6 l 3.6,-1.2 2.4,-1.2 3.6,-2.4 1.2,-2.4 2.4,-2.4 1.2,-3.6 v -7.2 l -1.2,-3.6 -2.4,-2.4 -1.2,-2.4 -3.6,-2.4 -2.4,-2.4 h -3.6 l -3.6,-1.2 -3.6,1.2 h -3.6 l -2.4,2.4 -3.6,2.4 -2.4,2.4 -1.2,2.4 -1.2,3.6 v 7.2 l 1.2,3.6 1.2,2.4 2.4,2.4 3.6,2.4 2.4,1.2 3.6,1.2 h 3.6"
           style="fill:#a00000;fill-opacity:1;fill-rule:evenodd;stroke:none"
           id="path688"
           inkscape:connector-curvature="0" /><path
           d="m 1098,540 h 3.6 l 3.6,-1.2 2.4,-1.2 3.6,-2.4 1.2,-2.4 2.4,-2.4 1.2,-3.6 v -7.2 l -1.2,-3.6 -2.4,-2.4 -1.2,-2.4 -3.6,-2.4 -2.4,-2.4 h -3.6 l -3.6,-1.2 -3.6,1.2 h -3.6 l -2.4,2.4 -3.6,2.4 -2.4,2.4 -1.2,2.4 -1.2,3.6 v 7.2 l 1.2,3.6 1.2,2.4 2.4,2.4 3.6,2.4 2.4,1.2 3.6,1.2 h 3.6"
           style="fill:none;stroke:#a00000;stroke-width:7.5;stroke-linecap:round;stroke-linejoin:round;stroke-miterlimit:10;stroke-dasharray:none;stroke-opacity:1"
           id="path690"
           inkscape:connector-curvature="0" /><path
           d="m 1398,540 h 3.6 l 3.6,-1.2 2.4,-1.2 3.6,-2.4 1.2,-2.4 2.4,-2.4 1.2,-3.6 v -7.2 l -1.2,-3.6 -2.4,-2.4 -1.2,-2.4 -3.6,-2.4 -2.4,-2.4 h -3.6 l -3.6,-1.2 -3.6,1.2 h -3.6 l -2.4,2.4 -3.6,2.4 -2.4,2.4 -1.2,2.4 -1.2,3.6 v 7.2 l 1.2,3.6 1.2,2.4 2.4,2.4 3.6,2.4 2.4,1.2 3.6,1.2 h 3.6"
           style="fill:#a00000;fill-opacity:1;fill-rule:evenodd;stroke:none"
           id="path692"
           inkscape:connector-curvature="0" /><path
           d="m 1398,540 h 3.6 l 3.6,-1.2 2.4,-1.2 3.6,-2.4 1.2,-2.4 2.4,-2.4 1.2,-3.6 v -7.2 l -1.2,-3.6 -2.4,-2.4 -1.2,-2.4 -3.6,-2.4 -2.4,-2.4 h -3.6 l -3.6,-1.2 -3.6,1.2 h -3.6 l -2.4,2.4 -3.6,2.4 -2.4,2.4 -1.2,2.4 -1.2,3.6 v 7.2 l 1.2,3.6 1.2,2.4 2.4,2.4 3.6,2.4 2.4,1.2 3.6,1.2 h 3.6"
           style="fill:none;stroke:#a00000;stroke-width:15;stroke-linecap:round;stroke-linejoin:round;stroke-miterlimit:10;stroke-dasharray:none;stroke-opacity:1"
           id="path694"
           inkscape:connector-curvature="0" /><path
           d="m 1398,540 h 3.6 l 3.6,-1.2 2.4,-1.2 3.6,-2.4 1.2,-2.4 2.4,-2.4 1.2,-3.6 v -7.2 l -1.2,-3.6 -2.4,-2.4 -1.2,-2.4 -3.6,-2.4 -2.4,-2.4 h -3.6 l -3.6,-1.2 -3.6,1.2 h -3.6 l -2.4,2.4 -3.6,2.4 -2.4,2.4 -1.2,2.4 -1.2,3.6 v 7.2 l 1.2,3.6 1.2,2.4 2.4,2.4 3.6,2.4 2.4,1.2 3.6,1.2 h 3.6"
           style="fill:#a00000;fill-opacity:1;fill-rule:evenodd;stroke:none"
           id="path696"
           inkscape:connector-curvature="0" /><path
           d="m 1398,540 h 3.6 l 3.6,-1.2 2.4,-1.2 3.6,-2.4 1.2,-2.4 2.4,-2.4 1.2,-3.6 v -7.2 l -1.2,-3.6 -2.4,-2.4 -1.2,-2.4 -3.6,-2.4 -2.4,-2.4 h -3.6 l -3.6,-1.2 -3.6,1.2 h -3.6 l -2.4,2.4 -3.6,2.4 -2.4,2.4 -1.2,2.4 -1.2,3.6 v 7.2 l 1.2,3.6 1.2,2.4 2.4,2.4 3.6,2.4 2.4,1.2 3.6,1.2 h 3.6"
           style="fill:none;stroke:#a00000;stroke-width:7.5;stroke-linecap:round;stroke-linejoin:round;stroke-miterlimit:10;stroke-dasharray:none;stroke-opacity:1"
           id="path698"
           inkscape:connector-curvature="0" /><path
           d="m 1398,540 h 3.6 l 3.6,-1.2 2.4,-1.2 3.6,-2.4 1.2,-2.4 2.4,-2.4 1.2,-3.6 v -7.2 l -1.2,-3.6 -2.4,-2.4 -1.2,-2.4 -3.6,-2.4 -2.4,-2.4 h -3.6 l -3.6,-1.2 -3.6,1.2 h -3.6 l -2.4,2.4 -3.6,2.4 -2.4,2.4 -1.2,2.4 -1.2,3.6 v 7.2 l 1.2,3.6 1.2,2.4 2.4,2.4 3.6,2.4 2.4,1.2 3.6,1.2 h 3.6"
           style="fill:#a00000;fill-opacity:1;fill-rule:evenodd;stroke:none"
           id="path700"
           inkscape:connector-curvature="0" /><path
           d="m 1398,540 h 3.6 l 3.6,-1.2 2.4,-1.2 3.6,-2.4 1.2,-2.4 2.4,-2.4 1.2,-3.6 v -7.2 l -1.2,-3.6 -2.4,-2.4 -1.2,-2.4 -3.6,-2.4 -2.4,-2.4 h -3.6 l -3.6,-1.2 -3.6,1.2 h -3.6 l -2.4,2.4 -3.6,2.4 -2.4,2.4 -1.2,2.4 -1.2,3.6 v 7.2 l 1.2,3.6 1.2,2.4 2.4,2.4 3.6,2.4 2.4,1.2 3.6,1.2 h 3.6"
           style="fill:none;stroke:#a00000;stroke-width:7.5;stroke-linecap:round;stroke-linejoin:round;stroke-miterlimit:10;stroke-dasharray:none;stroke-opacity:1"
           id="path702"
           inkscape:connector-curvature="0" /><path
           d="m 1698,540 h 3.6 l 3.6,-1.2 2.4,-1.2 3.6,-2.4 1.2,-2.4 2.4,-2.4 1.2,-3.6 v -7.2 l -1.2,-3.6 -2.4,-2.4 -1.2,-3.6 -3.6,-1.2 -2.4,-2.4 h -3.6 l -3.6,-1.2 -3.6,1.2 h -3.6 l -2.4,2.4 -3.6,1.2 -2.4,3.6 -1.2,2.4 -1.2,3.6 v 7.2 l 1.2,3.6 1.2,2.4 2.4,2.4 3.6,2.4 2.4,1.2 3.6,1.2 h 3.6"
           style="fill:#a00000;fill-opacity:1;fill-rule:evenodd;stroke:none"
           id="path704"
           inkscape:connector-curvature="0" /><path
           d="m 1698,540 h 3.6 l 3.6,-1.2 2.4,-1.2 3.6,-2.4 1.2,-2.4 2.4,-2.4 1.2,-3.6 v -7.2 l -1.2,-3.6 -2.4,-2.4 -1.2,-3.6 -3.6,-1.2 -2.4,-2.4 h -3.6 l -3.6,-1.2 -3.6,1.2 h -3.6 l -2.4,2.4 -3.6,1.2 -2.4,3.6 -1.2,2.4 -1.2,3.6 v 7.2 l 1.2,3.6 1.2,2.4 2.4,2.4 3.6,2.4 2.4,1.2 3.6,1.2 h 3.6"
           style="fill:none;stroke:#a00000;stroke-width:15;stroke-linecap:round;stroke-linejoin:round;stroke-miterlimit:10;stroke-dasharray:none;stroke-opacity:1"
           id="path706"
           inkscape:connector-curvature="0" /><path
           d="m 1698,540 h 3.6 l 3.6,-1.2 2.4,-1.2 3.6,-2.4 1.2,-2.4 2.4,-2.4 1.2,-3.6 v -7.2 l -1.2,-3.6 -2.4,-2.4 -1.2,-3.6 -3.6,-1.2 -2.4,-2.4 h -3.6 l -3.6,-1.2 -3.6,1.2 h -3.6 l -2.4,2.4 -3.6,1.2 -2.4,3.6 -1.2,2.4 -1.2,3.6 v 7.2 l 1.2,3.6 1.2,2.4 2.4,2.4 3.6,2.4 2.4,1.2 3.6,1.2 h 3.6"
           style="fill:#a00000;fill-opacity:1;fill-rule:evenodd;stroke:none"
           id="path708"
           inkscape:connector-curvature="0" /><path
           d="m 1698,540 h 3.6 l 3.6,-1.2 2.4,-1.2 3.6,-2.4 1.2,-2.4 2.4,-2.4 1.2,-3.6 v -7.2 l -1.2,-3.6 -2.4,-2.4 -1.2,-3.6 -3.6,-1.2 -2.4,-2.4 h -3.6 l -3.6,-1.2 -3.6,1.2 h -3.6 l -2.4,2.4 -3.6,1.2 -2.4,3.6 -1.2,2.4 -1.2,3.6 v 7.2 l 1.2,3.6 1.2,2.4 2.4,2.4 3.6,2.4 2.4,1.2 3.6,1.2 h 3.6"
           style="fill:none;stroke:#a00000;stroke-width:7.5;stroke-linecap:round;stroke-linejoin:round;stroke-miterlimit:10;stroke-dasharray:none;stroke-opacity:1"
           id="path710"
           inkscape:connector-curvature="0" /><path
           d="m 1698,540 h 3.6 l 3.6,-1.2 2.4,-1.2 3.6,-2.4 1.2,-2.4 2.4,-2.4 1.2,-3.6 v -7.2 l -1.2,-3.6 -2.4,-2.4 -1.2,-3.6 -3.6,-1.2 -2.4,-2.4 h -3.6 l -3.6,-1.2 -3.6,1.2 h -3.6 l -2.4,2.4 -3.6,1.2 -2.4,3.6 -1.2,2.4 -1.2,3.6 v 7.2 l 1.2,3.6 1.2,2.4 2.4,2.4 3.6,2.4 2.4,1.2 3.6,1.2 h 3.6"
           style="fill:#a00000;fill-opacity:1;fill-rule:evenodd;stroke:none"
           id="path712"
           inkscape:connector-curvature="0" /><path
           d="m 1698,540 h 3.6 l 3.6,-1.2 2.4,-1.2 3.6,-2.4 1.2,-2.4 2.4,-2.4 1.2,-3.6 v -7.2 l -1.2,-3.6 -2.4,-2.4 -1.2,-3.6 -3.6,-1.2 -2.4,-2.4 h -3.6 l -3.6,-1.2 -3.6,1.2 h -3.6 l -2.4,2.4 -3.6,1.2 -2.4,3.6 -1.2,2.4 -1.2,3.6 v 7.2 l 1.2,3.6 1.2,2.4 2.4,2.4 3.6,2.4 2.4,1.2 3.6,1.2 h 3.6"
           style="fill:none;stroke:#a00000;stroke-width:7.5;stroke-linecap:round;stroke-linejoin:round;stroke-miterlimit:10;stroke-dasharray:none;stroke-opacity:1"
           id="path714"
           inkscape:connector-curvature="0" /><path
           d="M 194.4,453.6 V 223.2"
           style="fill:none;stroke:#000000;stroke-width:15;stroke-linecap:round;stroke-linejoin:round;stroke-miterlimit:10;stroke-dasharray:none;stroke-opacity:1"
           id="path716"
           inkscape:connector-curvature="0" /><path
           d="m 194.4,475.2 27.6,-57.6 -27.6,25.2 -28.8,-25.2 28.8,57.6"
           style="fill:#000000;fill-opacity:1;fill-rule:evenodd;stroke:none"
           id="path718"
           inkscape:connector-curvature="0" /><path
           d="m 194.4,475.2 27.6,-57.6 -27.6,25.2 -28.8,-25.2 28.8,57.6"
           style="fill:none;stroke:#000000;stroke-width:7.5;stroke-linecap:round;stroke-linejoin:round;stroke-miterlimit:10;stroke-dasharray:none;stroke-opacity:1"
           id="path720"
           inkscape:connector-curvature="0" /><path
           d="M 1692,1713.6 V 1483.2"
           style="fill:none;stroke:#000000;stroke-width:15;stroke-linecap:round;stroke-linejoin:round;stroke-miterlimit:10;stroke-dasharray:none;stroke-opacity:1"
           id="path722"
           inkscape:connector-curvature="0" /><path
           d="m 1692,1461.6 -27.6,57.6 27.6,-25.2 28.8,25.2 -28.8,-57.6"
           style="fill:#000000;fill-opacity:1;fill-rule:evenodd;stroke:none"
           id="path724"
           inkscape:connector-curvature="0" /><path
           d="m 1692,1461.6 -27.6,57.6 27.6,-25.2 28.8,25.2 -28.8,-57.6"
           style="fill:none;stroke:#000000;stroke-width:7.5;stroke-linecap:round;stroke-linejoin:round;stroke-miterlimit:10;stroke-dasharray:none;stroke-opacity:1"
           id="path726"
           inkscape:connector-curvature="0" /></g></g></g></svg>