<?xml version="1.0" encoding="UTF-8" standalone="no"?>
<!-- Created with Inkscape (http://www.inkscape.org/) -->

<svg
   xmlns:dc="http://purl.org/dc/elements/1.1/"
   xmlns:cc="http://creativecommons.org/ns#"
   xmlns:rdf="http://www.w3.org/1999/02/22-rdf-syntax-ns#"
   xmlns:svg="http://www.w3.org/2000/svg"
   xmlns="http://www.w3.org/2000/svg"
   xmlns:sodipodi="http://sodipodi.sourceforge.net/DTD/sodipodi-0.dtd"
   xmlns:inkscape="http://www.inkscape.org/namespaces/inkscape"
   version="1.1"
   id="svg2284"
   xml:space="preserve"
   width="530.44714"
   height="325.79282"
   viewBox="0 0 530.44714 325.79282"
   sodipodi:docname="figSStructExample2a.svg"
   inkscape:version="0.92.2 (5c3e80d, 2017-08-06)"><metadata
     id="metadata2290"><rdf:RDF><cc:Work
         rdf:about=""><dc:format>image/svg+xml</dc:format><dc:type
           rdf:resource="http://purl.org/dc/dcmitype/StillImage" /><dc:title></dc:title></cc:Work></rdf:RDF></metadata><defs
     id="defs2288" /><sodipodi:namedview
     pagecolor="#ffffff"
     bordercolor="#666666"
     borderopacity="1"
     objecttolerance="10"
     gridtolerance="10"
     guidetolerance="10"
     inkscape:pageopacity="0"
     inkscape:pageshadow="2"
     inkscape:window-width="1389"
     inkscape:window-height="1044"
     id="namedview2286"
     showgrid="false"
     inkscape:zoom="2.3828953"
     inkscape:cx="265.22357"
     inkscape:cy="162.8964"
     inkscape:window-x="45"
     inkscape:window-y="42"
     inkscape:window-maximized="0"
     inkscape:current-layer="g2292" /><g
     id="g2292"
     inkscape:groupmode="layer"
     inkscape:label="figSStructExample2a"
     transform="matrix(1.3333333,0,0,-1.3333333,-4.2999732,331.21999)"><g
       id="g2294"
       transform="scale(0.1)"><g
         id="g2296"><path
           d="m 2199.6,1396.8 1800,-597.6"
           style="fill:none;stroke:#000000;stroke-width:10;stroke-linecap:round;stroke-linejoin:round;stroke-miterlimit:10;stroke-dasharray:40, 20;stroke-dashoffset:0;stroke-opacity:1"
           id="path2298"
           inkscape:connector-curvature="0" /><path
           d="m 2199.6,2476.8 1800,-237.6"
           style="fill:none;stroke:#000000;stroke-width:10;stroke-linecap:round;stroke-linejoin:round;stroke-miterlimit:10;stroke-dasharray:40, 20;stroke-dashoffset:0;stroke-opacity:1"
           id="path2300"
           inkscape:connector-curvature="0" /><path
           d="M 1116,309.6 H 2206.8 V 2480.4 H 1116 Z"
           style="fill:#ffffff;fill-opacity:1;fill-rule:evenodd;stroke:none"
           id="path2302"
           inkscape:connector-curvature="0" /><path
           d="M 1116,309.6 H 2206.8 V 2480.4 H 1116 Z"
           style="fill:none;stroke:#000000;stroke-width:7.5;stroke-linecap:round;stroke-linejoin:round;stroke-miterlimit:10;stroke-dasharray:none;stroke-opacity:1"
           id="path2304"
           inkscape:connector-curvature="0" /><path
           d="m 35.9998,309.6 h 1090.8 v 2170.8 h -1090.8 z"
           style="fill:#e0e0e0;fill-opacity:1;fill-rule:evenodd;stroke:none"
           id="path2306"
           inkscape:connector-curvature="0" /><path
           d="m 35.9998,309.6 h 1090.8 v 2170.8 h -1090.8 z"
           style="fill:none;stroke:#000000;stroke-width:7.5;stroke-linecap:round;stroke-linejoin:round;stroke-miterlimit:10;stroke-dasharray:none;stroke-opacity:1"
           id="path2308"
           inkscape:connector-curvature="0" /><path
           d="m 331.2,2210.4 c -0.019,19.4 -20.997,31.51 -37.803,21.82 -16.804,-9.75 -16.774,-33.97 0.03,-43.66 16.819,-9.66 37.758,2.44 37.773,21.84"
           style="fill:#000000;fill-opacity:1;fill-rule:evenodd;stroke:none"
           id="path2310"
           inkscape:connector-curvature="0" /><path
           d="m 331.2,2210.4 c -0.019,19.4 -20.997,31.51 -37.803,21.82 -16.804,-9.75 -16.774,-33.97 0.03,-43.66 16.819,-9.66 37.758,2.44 37.773,21.84"
           style="fill:none;stroke:#000000;stroke-width:7.5;stroke-linecap:round;stroke-linejoin:round;stroke-miterlimit:10;stroke-dasharray:none;stroke-opacity:1"
           id="path2312"
           inkscape:connector-curvature="0" /><path
           d="m 874.8,2206.8 c -0.019,19.4 -20.997,31.51 -37.803,21.82 -16.804,-9.75 -16.774,-33.97 0.03,-43.66 16.819,-9.66 37.758,2.44 37.773,21.84"
           style="fill:#000000;fill-opacity:1;fill-rule:evenodd;stroke:none"
           id="path2314"
           inkscape:connector-curvature="0" /><path
           d="m 874.8,2206.8 c -0.019,19.4 -20.997,31.51 -37.803,21.82 -16.804,-9.75 -16.774,-33.97 0.03,-43.66 16.819,-9.66 37.758,2.44 37.773,21.84"
           style="fill:none;stroke:#000000;stroke-width:7.5;stroke-linecap:round;stroke-linejoin:round;stroke-miterlimit:10;stroke-dasharray:none;stroke-opacity:1"
           id="path2316"
           inkscape:connector-curvature="0" /><path
           d="m 334.8,1666.8 c -0.019,19.4 -20.997,31.51 -37.803,21.82 -16.804,-9.75 -16.774,-33.97 0.03,-43.66 16.819,-9.66 37.758,2.44 37.773,21.84"
           style="fill:#000000;fill-opacity:1;fill-rule:evenodd;stroke:none"
           id="path2318"
           inkscape:connector-curvature="0" /><path
           d="m 334.8,1666.8 c -0.019,19.4 -20.997,31.51 -37.803,21.82 -16.804,-9.75 -16.774,-33.97 0.03,-43.66 16.819,-9.66 37.758,2.44 37.773,21.84"
           style="fill:none;stroke:#000000;stroke-width:7.5;stroke-linecap:round;stroke-linejoin:round;stroke-miterlimit:10;stroke-dasharray:none;stroke-opacity:1"
           id="path2320"
           inkscape:connector-curvature="0" /><path
           d="m 871.2,1670.4 c -0.019,19.4 -20.997,31.51 -37.803,21.82 -16.804,-9.75 -16.774,-33.97 0.03,-43.66 16.819,-9.66 37.758,2.44 37.773,21.84"
           style="fill:#000000;fill-opacity:1;fill-rule:evenodd;stroke:none"
           id="path2322"
           inkscape:connector-curvature="0" /><path
           d="m 871.2,1670.4 c -0.019,19.4 -20.997,31.51 -37.803,21.82 -16.804,-9.75 -16.774,-33.97 0.03,-43.66 16.819,-9.66 37.758,2.44 37.773,21.84"
           style="fill:none;stroke:#000000;stroke-width:7.5;stroke-linecap:round;stroke-linejoin:round;stroke-miterlimit:10;stroke-dasharray:none;stroke-opacity:1"
           id="path2324"
           inkscape:connector-curvature="0" /><path
           d="m 331.2,1130.4 c -0.019,19.4 -20.997,31.51 -37.803,21.82 -16.804,-9.75 -16.774,-33.97 0.03,-43.66 16.819,-9.66 37.758,2.44 37.773,21.84"
           style="fill:#000000;fill-opacity:1;fill-rule:evenodd;stroke:none"
           id="path2326"
           inkscape:connector-curvature="0" /><path
           d="m 331.2,1130.4 c -0.019,19.4 -20.997,31.51 -37.803,21.82 -16.804,-9.75 -16.774,-33.97 0.03,-43.66 16.819,-9.66 37.758,2.44 37.773,21.84"
           style="fill:none;stroke:#000000;stroke-width:7.5;stroke-linecap:round;stroke-linejoin:round;stroke-miterlimit:10;stroke-dasharray:none;stroke-opacity:1"
           id="path2328"
           inkscape:connector-curvature="0" /><path
           d="m 871.2,1130.4 c -0.019,19.4 -20.997,31.51 -37.803,21.82 -16.804,-9.75 -16.774,-33.97 0.03,-43.66 16.819,-9.66 37.758,2.44 37.773,21.84"
           style="fill:#000000;fill-opacity:1;fill-rule:evenodd;stroke:none"
           id="path2330"
           inkscape:connector-curvature="0" /><path
           d="m 871.2,1130.4 c -0.019,19.4 -20.997,31.51 -37.803,21.82 -16.804,-9.75 -16.774,-33.97 0.03,-43.66 16.819,-9.66 37.758,2.44 37.773,21.84"
           style="fill:none;stroke:#000000;stroke-width:7.5;stroke-linecap:round;stroke-linejoin:round;stroke-miterlimit:10;stroke-dasharray:none;stroke-opacity:1"
           id="path2332"
           inkscape:connector-curvature="0" /><path
           d="m 331.2,590.405 c -0.019,19.398 -20.997,31.505 -37.803,21.817 -16.804,-9.749 -16.774,-33.97 0.03,-43.662 16.819,-9.664 37.758,2.442 37.773,21.84"
           style="fill:#000000;fill-opacity:1;fill-rule:evenodd;stroke:none"
           id="path2334"
           inkscape:connector-curvature="0" /><path
           d="m 331.2,590.405 c -0.019,19.398 -20.997,31.505 -37.803,21.817 -16.804,-9.749 -16.774,-33.97 0.03,-43.662 16.819,-9.664 37.758,2.442 37.773,21.84"
           style="fill:none;stroke:#000000;stroke-width:7.5;stroke-linecap:round;stroke-linejoin:round;stroke-miterlimit:10;stroke-dasharray:none;stroke-opacity:1"
           id="path2336"
           inkscape:connector-curvature="0" /><path
           d="m 871.2,590.405 c -0.019,19.398 -20.997,31.505 -37.803,21.817 -16.804,-9.749 -16.774,-33.97 0.03,-43.662 16.819,-9.664 37.758,2.442 37.773,21.84"
           style="fill:#000000;fill-opacity:1;fill-rule:evenodd;stroke:none"
           id="path2338"
           inkscape:connector-curvature="0" /><path
           d="m 871.2,590.405 c -0.019,19.398 -20.997,31.505 -37.803,21.817 -16.804,-9.749 -16.774,-33.97 0.03,-43.662 16.819,-9.664 37.758,2.442 37.773,21.84"
           style="fill:none;stroke:#000000;stroke-width:7.5;stroke-linecap:round;stroke-linejoin:round;stroke-miterlimit:10;stroke-dasharray:none;stroke-opacity:1"
           id="path2340"
           inkscape:connector-curvature="0" /><path
           d="M 39.5999,1936.8 H 1119.6"
           style="fill:none;stroke:#000000;stroke-width:7.5;stroke-linecap:round;stroke-linejoin:round;stroke-miterlimit:10;stroke-dasharray:none;stroke-opacity:1"
           id="path2342"
           inkscape:connector-curvature="0" /><path
           d="M 39.5999,856.8 H 1119.6"
           style="fill:none;stroke:#000000;stroke-width:7.5;stroke-linecap:round;stroke-linejoin:round;stroke-miterlimit:10;stroke-dasharray:none;stroke-opacity:1"
           id="path2344"
           inkscape:connector-curvature="0" /><path
           d="M 579.6,2476.8 V 316.8"
           style="fill:none;stroke:#000000;stroke-width:7.5;stroke-linecap:round;stroke-linejoin:round;stroke-miterlimit:10;stroke-dasharray:none;stroke-opacity:1"
           id="path2346"
           inkscape:connector-curvature="0" /><path
           d="M 46.7998,1396.8 H 1119.6"
           style="fill:none;stroke:#000000;stroke-width:7.5;stroke-linecap:round;stroke-linejoin:round;stroke-miterlimit:10;stroke-dasharray:none;stroke-opacity:1"
           id="path2348"
           inkscape:connector-curvature="0" /><path
           d="m 1411.2,2210.4 c -0.02,19.4 -21,31.51 -37.8,21.82 -16.81,-9.75 -16.78,-33.97 0.03,-43.66 16.82,-9.66 37.75,2.44 37.77,21.84"
           style="fill:#e0e0e0;fill-opacity:1;fill-rule:evenodd;stroke:none"
           id="path2350"
           inkscape:connector-curvature="0" /><path
           d="m 1411.2,2210.4 c -0.02,19.4 -21,31.51 -37.8,21.82 -16.81,-9.75 -16.78,-33.97 0.03,-43.66 16.82,-9.66 37.75,2.44 37.77,21.84"
           style="fill:none;stroke:#000000;stroke-width:7.5;stroke-linecap:round;stroke-linejoin:round;stroke-miterlimit:10;stroke-dasharray:none;stroke-opacity:1"
           id="path2352"
           inkscape:connector-curvature="0" /><path
           d="m 1954.8,2206.8 c -0.02,19.4 -21,31.51 -37.8,21.82 -16.81,-9.75 -16.78,-33.97 0.03,-43.66 16.82,-9.66 37.75,2.44 37.77,21.84"
           style="fill:#e0e0e0;fill-opacity:1;fill-rule:evenodd;stroke:none"
           id="path2354"
           inkscape:connector-curvature="0" /><path
           d="m 1954.8,2206.8 c -0.02,19.4 -21,31.51 -37.8,21.82 -16.81,-9.75 -16.78,-33.97 0.03,-43.66 16.82,-9.66 37.75,2.44 37.77,21.84"
           style="fill:none;stroke:#000000;stroke-width:7.5;stroke-linecap:round;stroke-linejoin:round;stroke-miterlimit:10;stroke-dasharray:none;stroke-opacity:1"
           id="path2356"
           inkscape:connector-curvature="0" /><path
           d="m 1414.8,1666.8 c -0.02,19.4 -21,31.51 -37.8,21.82 -16.81,-9.75 -16.78,-33.97 0.03,-43.66 16.82,-9.66 37.75,2.44 37.77,21.84"
           style="fill:#e0e0e0;fill-opacity:1;fill-rule:evenodd;stroke:none"
           id="path2358"
           inkscape:connector-curvature="0" /><path
           d="m 1414.8,1666.8 c -0.02,19.4 -21,31.51 -37.8,21.82 -16.81,-9.75 -16.78,-33.97 0.03,-43.66 16.82,-9.66 37.75,2.44 37.77,21.84"
           style="fill:none;stroke:#000000;stroke-width:7.5;stroke-linecap:round;stroke-linejoin:round;stroke-miterlimit:10;stroke-dasharray:none;stroke-opacity:1"
           id="path2360"
           inkscape:connector-curvature="0" /><path
           d="m 1951.2,1670.4 c -0.02,19.4 -21,31.51 -37.8,21.82 -16.81,-9.75 -16.78,-33.97 0.03,-43.66 16.82,-9.66 37.75,2.44 37.77,21.84"
           style="fill:#e0e0e0;fill-opacity:1;fill-rule:evenodd;stroke:none"
           id="path2362"
           inkscape:connector-curvature="0" /><path
           d="m 1951.2,1670.4 c -0.02,19.4 -21,31.51 -37.8,21.82 -16.81,-9.75 -16.78,-33.97 0.03,-43.66 16.82,-9.66 37.75,2.44 37.77,21.84"
           style="fill:none;stroke:#000000;stroke-width:7.5;stroke-linecap:round;stroke-linejoin:round;stroke-miterlimit:10;stroke-dasharray:none;stroke-opacity:1"
           id="path2364"
           inkscape:connector-curvature="0" /><path
           d="m 1411.2,1130.4 c -0.02,19.4 -21,31.51 -37.8,21.82 -16.81,-9.75 -16.78,-33.97 0.03,-43.66 16.82,-9.66 37.75,2.44 37.77,21.84"
           style="fill:#000000;fill-opacity:1;fill-rule:evenodd;stroke:none"
           id="path2366"
           inkscape:connector-curvature="0" /><path
           d="m 1411.2,1130.4 c -0.02,19.4 -21,31.51 -37.8,21.82 -16.81,-9.75 -16.78,-33.97 0.03,-43.66 16.82,-9.66 37.75,2.44 37.77,21.84"
           style="fill:none;stroke:#000000;stroke-width:7.5;stroke-linecap:round;stroke-linejoin:round;stroke-miterlimit:10;stroke-dasharray:none;stroke-opacity:1"
           id="path2368"
           inkscape:connector-curvature="0" /><path
           d="m 1951.2,1130.4 c -0.02,19.4 -21,31.51 -37.8,21.82 -16.81,-9.75 -16.78,-33.97 0.03,-43.66 16.82,-9.66 37.75,2.44 37.77,21.84"
           style="fill:#000000;fill-opacity:1;fill-rule:evenodd;stroke:none"
           id="path2370"
           inkscape:connector-curvature="0" /><path
           d="m 1951.2,1130.4 c -0.02,19.4 -21,31.51 -37.8,21.82 -16.81,-9.75 -16.78,-33.97 0.03,-43.66 16.82,-9.66 37.75,2.44 37.77,21.84"
           style="fill:none;stroke:#000000;stroke-width:7.5;stroke-linecap:round;stroke-linejoin:round;stroke-miterlimit:10;stroke-dasharray:none;stroke-opacity:1"
           id="path2372"
           inkscape:connector-curvature="0" /><path
           d="m 1411.2,590.405 c -0.02,19.398 -21,31.505 -37.8,21.817 -16.81,-9.749 -16.78,-33.97 0.03,-43.662 16.82,-9.664 37.75,2.442 37.77,21.84"
           style="fill:#000000;fill-opacity:1;fill-rule:evenodd;stroke:none"
           id="path2374"
           inkscape:connector-curvature="0" /><path
           d="m 1411.2,590.405 c -0.02,19.398 -21,31.505 -37.8,21.817 -16.81,-9.749 -16.78,-33.97 0.03,-43.662 16.82,-9.664 37.75,2.442 37.77,21.84"
           style="fill:none;stroke:#000000;stroke-width:7.5;stroke-linecap:round;stroke-linejoin:round;stroke-miterlimit:10;stroke-dasharray:none;stroke-opacity:1"
           id="path2376"
           inkscape:connector-curvature="0" /><path
           d="m 1951.2,590.405 c -0.02,19.398 -21,31.505 -37.8,21.817 -16.81,-9.749 -16.78,-33.97 0.03,-43.662 16.82,-9.664 37.75,2.442 37.77,21.84"
           style="fill:#000000;fill-opacity:1;fill-rule:evenodd;stroke:none"
           id="path2378"
           inkscape:connector-curvature="0" /><path
           d="m 1951.2,590.405 c -0.02,19.398 -21,31.505 -37.8,21.817 -16.81,-9.749 -16.78,-33.97 0.03,-43.662 16.82,-9.664 37.75,2.442 37.77,21.84"
           style="fill:none;stroke:#000000;stroke-width:7.5;stroke-linecap:round;stroke-linejoin:round;stroke-miterlimit:10;stroke-dasharray:none;stroke-opacity:1"
           id="path2380"
           inkscape:connector-curvature="0" /><path
           d="m 1119.6,1936.8 h 1080"
           style="fill:none;stroke:#000000;stroke-width:7.5;stroke-linecap:round;stroke-linejoin:round;stroke-miterlimit:10;stroke-dasharray:none;stroke-opacity:1"
           id="path2382"
           inkscape:connector-curvature="0" /><path
           d="m 1119.6,856.8 h 1080"
           style="fill:none;stroke:#000000;stroke-width:7.5;stroke-linecap:round;stroke-linejoin:round;stroke-miterlimit:10;stroke-dasharray:none;stroke-opacity:1"
           id="path2384"
           inkscape:connector-curvature="0" /><path
           d="M 1659.6,2476.8 V 316.8"
           style="fill:none;stroke:#000000;stroke-width:7.5;stroke-linecap:round;stroke-linejoin:round;stroke-miterlimit:10;stroke-dasharray:none;stroke-opacity:1"
           id="path2386"
           inkscape:connector-curvature="0" /><path
           d="m 1119.6,1396.8 h 1080"
           style="fill:none;stroke:#000000;stroke-width:7.5;stroke-linecap:round;stroke-linejoin:round;stroke-miterlimit:10;stroke-dasharray:none;stroke-opacity:1"
           id="path2388"
           inkscape:connector-curvature="0" /><g
           id="g2390"
           transform="scale(10)"><text
             transform="matrix(0.871795,0,0,-1,183.24,207.36)"
             style="font-style:italic;font-variant:normal;font-size:10px;font-family:'Times New Roman';-inkscape-font-specification:Times-Italic;writing-mode:lr-tb;fill:#000000;fill-opacity:1;fill-rule:nonzero;stroke:none"
             id="text2400"><tspan
               x="0 3.3299999 8.3299999 10.82998 15.82998 19.159981"
               y="0"
               sodipodi:role="line"
               id="tspan2392">(4,4)</tspan><tspan
               x="-186.64902 -183.31902 -178.31902 -175.81905 -170.81905 -167.48904"
               y="162"
               sodipodi:role="line"
               id="tspan2394">(1,1)</tspan><tspan
               x="-124.70784 -121.37784 -116.37784 -113.87786 -108.87786 -105.54786"
               y="0"
               sodipodi:role="line"
               id="tspan2396">(2,4)</tspan><tspan
               x="-62.766659 -59.436661 -54.436661 -51.93668 -46.93668 -43.606682"
               y="162"
               sodipodi:role="line"
               id="tspan2398">(3,1)</tspan></text>
</g><path
           d="m 3279.6,792 h 727.2 v 1447.2 h -727.2 z"
           style="fill:#ffffff;fill-opacity:1;fill-rule:evenodd;stroke:none"
           id="path2402"
           inkscape:connector-curvature="0" /><path
           d="m 3279.6,792 h 727.2 v 1447.2 h -727.2 z"
           style="fill:none;stroke:#000000;stroke-width:7.5;stroke-linecap:round;stroke-linejoin:round;stroke-miterlimit:10;stroke-dasharray:none;stroke-opacity:1"
           id="path2404"
           inkscape:connector-curvature="0" /><path
           d="m 2559.6,792 h 727.2 v 1447.2 h -727.2 z"
           style="fill:#e0e0e0;fill-opacity:1;fill-rule:evenodd;stroke:none"
           id="path2406"
           inkscape:connector-curvature="0" /><path
           d="m 2559.6,792 h 727.2 v 1447.2 h -727.2 z"
           style="fill:none;stroke:#000000;stroke-width:7.5;stroke-linecap:round;stroke-linejoin:round;stroke-miterlimit:10;stroke-dasharray:none;stroke-opacity:1"
           id="path2408"
           inkscape:connector-curvature="0" /><path
           d="m 2764.8,2059.2 c -0.02,19.4 -21,31.51 -37.8,21.82 -16.81,-9.75 -16.78,-33.97 0.03,-43.66 16.82,-9.66 37.75,2.44 37.77,21.84"
           style="fill:#000000;fill-opacity:1;fill-rule:evenodd;stroke:none"
           id="path2410"
           inkscape:connector-curvature="0" /><path
           d="m 2764.8,2059.2 c -0.02,19.4 -21,31.51 -37.8,21.82 -16.81,-9.75 -16.78,-33.97 0.03,-43.66 16.82,-9.66 37.75,2.44 37.77,21.84"
           style="fill:none;stroke:#000000;stroke-width:7.5;stroke-linecap:round;stroke-linejoin:round;stroke-miterlimit:10;stroke-dasharray:none;stroke-opacity:1"
           id="path2412"
           inkscape:connector-curvature="0" /><path
           d="m 3128.4,2055.6 c -0.02,19.4 -21,31.51 -37.8,21.82 -16.81,-9.75 -16.78,-33.97 0.03,-43.66 16.82,-9.66 37.76,2.44 37.77,21.84"
           style="fill:#000000;fill-opacity:1;fill-rule:evenodd;stroke:none"
           id="path2414"
           inkscape:connector-curvature="0" /><path
           d="m 3128.4,2055.6 c -0.02,19.4 -21,31.51 -37.8,21.82 -16.81,-9.75 -16.78,-33.97 0.03,-43.66 16.82,-9.66 37.76,2.44 37.77,21.84"
           style="fill:none;stroke:#000000;stroke-width:7.5;stroke-linecap:round;stroke-linejoin:round;stroke-miterlimit:10;stroke-dasharray:none;stroke-opacity:1"
           id="path2416"
           inkscape:connector-curvature="0" /><path
           d="m 2768.4,1695.6 c -0.02,19.4 -21,31.51 -37.8,21.82 -16.81,-9.75 -16.78,-33.97 0.03,-43.66 16.82,-9.66 37.76,2.44 37.77,21.84"
           style="fill:#000000;fill-opacity:1;fill-rule:evenodd;stroke:none"
           id="path2418"
           inkscape:connector-curvature="0" /><path
           d="m 2768.4,1695.6 c -0.02,19.4 -21,31.51 -37.8,21.82 -16.81,-9.75 -16.78,-33.97 0.03,-43.66 16.82,-9.66 37.76,2.44 37.77,21.84"
           style="fill:none;stroke:#000000;stroke-width:7.5;stroke-linecap:round;stroke-linejoin:round;stroke-miterlimit:10;stroke-dasharray:none;stroke-opacity:1"
           id="path2420"
           inkscape:connector-curvature="0" /><path
           d="m 3124.8,1699.2 c -0.02,19.4 -21,31.51 -37.8,21.82 -16.81,-9.75 -16.78,-33.97 0.03,-43.66 16.82,-9.66 37.75,2.44 37.77,21.84"
           style="fill:#000000;fill-opacity:1;fill-rule:evenodd;stroke:none"
           id="path2422"
           inkscape:connector-curvature="0" /><path
           d="m 3124.8,1699.2 c -0.02,19.4 -21,31.51 -37.8,21.82 -16.81,-9.75 -16.78,-33.97 0.03,-43.66 16.82,-9.66 37.75,2.44 37.77,21.84"
           style="fill:none;stroke:#000000;stroke-width:7.5;stroke-linecap:round;stroke-linejoin:round;stroke-miterlimit:10;stroke-dasharray:none;stroke-opacity:1"
           id="path2424"
           inkscape:connector-curvature="0" /><path
           d="m 2764.8,1339.2 c -0.02,19.4 -21,31.51 -37.8,21.82 -16.81,-9.75 -16.78,-33.97 0.03,-43.66 16.82,-9.66 37.75,2.44 37.77,21.84"
           style="fill:#000000;fill-opacity:1;fill-rule:evenodd;stroke:none"
           id="path2426"
           inkscape:connector-curvature="0" /><path
           d="m 2764.8,1339.2 c -0.02,19.4 -21,31.51 -37.8,21.82 -16.81,-9.75 -16.78,-33.97 0.03,-43.66 16.82,-9.66 37.75,2.44 37.77,21.84"
           style="fill:none;stroke:#000000;stroke-width:7.5;stroke-linecap:round;stroke-linejoin:round;stroke-miterlimit:10;stroke-dasharray:none;stroke-opacity:1"
           id="path2428"
           inkscape:connector-curvature="0" /><path
           d="m 3124.8,1339.2 c -0.02,19.4 -21,31.51 -37.8,21.82 -16.81,-9.75 -16.78,-33.97 0.03,-43.66 16.82,-9.66 37.75,2.44 37.77,21.84"
           style="fill:#000000;fill-opacity:1;fill-rule:evenodd;stroke:none"
           id="path2430"
           inkscape:connector-curvature="0" /><path
           d="m 3124.8,1339.2 c -0.02,19.4 -21,31.51 -37.8,21.82 -16.81,-9.75 -16.78,-33.97 0.03,-43.66 16.82,-9.66 37.75,2.44 37.77,21.84"
           style="fill:none;stroke:#000000;stroke-width:7.5;stroke-linecap:round;stroke-linejoin:round;stroke-miterlimit:10;stroke-dasharray:none;stroke-opacity:1"
           id="path2432"
           inkscape:connector-curvature="0" /><path
           d="m 2764.8,979.205 c -0.02,19.398 -21,31.505 -37.8,21.815 -16.81,-9.747 -16.78,-33.968 0.03,-43.66 16.82,-9.664 37.75,2.442 37.77,21.84"
           style="fill:#000000;fill-opacity:1;fill-rule:evenodd;stroke:none"
           id="path2434"
           inkscape:connector-curvature="0" /><path
           d="m 2764.8,979.205 c -0.02,19.398 -21,31.505 -37.8,21.815 -16.81,-9.747 -16.78,-33.968 0.03,-43.66 16.82,-9.664 37.75,2.442 37.77,21.84"
           style="fill:none;stroke:#000000;stroke-width:7.5;stroke-linecap:round;stroke-linejoin:round;stroke-miterlimit:10;stroke-dasharray:none;stroke-opacity:1"
           id="path2436"
           inkscape:connector-curvature="0" /><path
           d="m 3124.8,979.205 c -0.02,19.398 -21,31.505 -37.8,21.815 -16.81,-9.747 -16.78,-33.968 0.03,-43.66 16.82,-9.664 37.75,2.442 37.77,21.84"
           style="fill:#000000;fill-opacity:1;fill-rule:evenodd;stroke:none"
           id="path2438"
           inkscape:connector-curvature="0" /><path
           d="m 3124.8,979.205 c -0.02,19.398 -21,31.505 -37.8,21.815 -16.81,-9.747 -16.78,-33.968 0.03,-43.66 16.82,-9.664 37.75,2.442 37.77,21.84"
           style="fill:none;stroke:#000000;stroke-width:7.5;stroke-linecap:round;stroke-linejoin:round;stroke-miterlimit:10;stroke-dasharray:none;stroke-opacity:1"
           id="path2440"
           inkscape:connector-curvature="0" /><path
           d="m 2559.6,1879.2 h 720"
           style="fill:none;stroke:#000000;stroke-width:7.5;stroke-linecap:round;stroke-linejoin:round;stroke-miterlimit:10;stroke-dasharray:none;stroke-opacity:1"
           id="path2442"
           inkscape:connector-curvature="0" /><path
           d="m 2559.6,1159.2 h 720"
           style="fill:none;stroke:#000000;stroke-width:7.5;stroke-linecap:round;stroke-linejoin:round;stroke-miterlimit:10;stroke-dasharray:none;stroke-opacity:1"
           id="path2444"
           inkscape:connector-curvature="0" /><path
           d="M 2919.6,2239.2 V 799.2"
           style="fill:none;stroke:#000000;stroke-width:7.5;stroke-linecap:round;stroke-linejoin:round;stroke-miterlimit:10;stroke-dasharray:none;stroke-opacity:1"
           id="path2446"
           inkscape:connector-curvature="0" /><path
           d="m 2559.6,1519.2 h 720"
           style="fill:none;stroke:#000000;stroke-width:7.5;stroke-linecap:round;stroke-linejoin:round;stroke-miterlimit:10;stroke-dasharray:none;stroke-opacity:1"
           id="path2448"
           inkscape:connector-curvature="0" /><path
           d="m 3484.8,2059.2 c -0.02,19.4 -21,31.51 -37.8,21.82 -16.81,-9.75 -16.78,-33.97 0.03,-43.66 16.82,-9.66 37.75,2.44 37.77,21.84"
           style="fill:#000000;fill-opacity:1;fill-rule:evenodd;stroke:none"
           id="path2450"
           inkscape:connector-curvature="0" /><path
           d="m 3484.8,2059.2 c -0.02,19.4 -21,31.51 -37.8,21.82 -16.81,-9.75 -16.78,-33.97 0.03,-43.66 16.82,-9.66 37.75,2.44 37.77,21.84"
           style="fill:none;stroke:#000000;stroke-width:7.5;stroke-linecap:round;stroke-linejoin:round;stroke-miterlimit:10;stroke-dasharray:none;stroke-opacity:1"
           id="path2452"
           inkscape:connector-curvature="0" /><path
           d="m 3848.4,2055.6 c -0.02,19.4 -21,31.51 -37.8,21.82 -16.81,-9.75 -16.78,-33.97 0.03,-43.66 16.82,-9.66 37.76,2.44 37.77,21.84"
           style="fill:#000000;fill-opacity:1;fill-rule:evenodd;stroke:none"
           id="path2454"
           inkscape:connector-curvature="0" /><path
           d="m 3848.4,2055.6 c -0.02,19.4 -21,31.51 -37.8,21.82 -16.81,-9.75 -16.78,-33.97 0.03,-43.66 16.82,-9.66 37.76,2.44 37.77,21.84"
           style="fill:none;stroke:#000000;stroke-width:7.5;stroke-linecap:round;stroke-linejoin:round;stroke-miterlimit:10;stroke-dasharray:none;stroke-opacity:1"
           id="path2456"
           inkscape:connector-curvature="0" /><path
           d="m 3488.4,1695.6 c -0.02,19.4 -21,31.51 -37.8,21.82 -16.81,-9.75 -16.78,-33.97 0.03,-43.66 16.82,-9.66 37.76,2.44 37.77,21.84"
           style="fill:#000000;fill-opacity:1;fill-rule:evenodd;stroke:none"
           id="path2458"
           inkscape:connector-curvature="0" /><path
           d="m 3488.4,1695.6 c -0.02,19.4 -21,31.51 -37.8,21.82 -16.81,-9.75 -16.78,-33.97 0.03,-43.66 16.82,-9.66 37.76,2.44 37.77,21.84"
           style="fill:none;stroke:#000000;stroke-width:7.5;stroke-linecap:round;stroke-linejoin:round;stroke-miterlimit:10;stroke-dasharray:none;stroke-opacity:1"
           id="path2460"
           inkscape:connector-curvature="0" /><path
           d="m 3844.8,1699.2 c -0.02,19.4 -21,31.51 -37.8,21.82 -16.81,-9.75 -16.78,-33.97 0.03,-43.66 16.82,-9.66 37.75,2.44 37.77,21.84"
           style="fill:#000000;fill-opacity:1;fill-rule:evenodd;stroke:none"
           id="path2462"
           inkscape:connector-curvature="0" /><path
           d="m 3844.8,1699.2 c -0.02,19.4 -21,31.51 -37.8,21.82 -16.81,-9.75 -16.78,-33.97 0.03,-43.66 16.82,-9.66 37.75,2.44 37.77,21.84"
           style="fill:none;stroke:#000000;stroke-width:7.5;stroke-linecap:round;stroke-linejoin:round;stroke-miterlimit:10;stroke-dasharray:none;stroke-opacity:1"
           id="path2464"
           inkscape:connector-curvature="0" /><path
           d="m 3484.8,1339.2 c -0.02,19.4 -21,31.51 -37.8,21.82 -16.81,-9.75 -16.78,-33.97 0.03,-43.66 16.82,-9.66 37.75,2.44 37.77,21.84"
           style="fill:#000000;fill-opacity:1;fill-rule:evenodd;stroke:none"
           id="path2466"
           inkscape:connector-curvature="0" /><path
           d="m 3484.8,1339.2 c -0.02,19.4 -21,31.51 -37.8,21.82 -16.81,-9.75 -16.78,-33.97 0.03,-43.66 16.82,-9.66 37.75,2.44 37.77,21.84"
           style="fill:none;stroke:#000000;stroke-width:7.5;stroke-linecap:round;stroke-linejoin:round;stroke-miterlimit:10;stroke-dasharray:none;stroke-opacity:1"
           id="path2468"
           inkscape:connector-curvature="0" /><path
           d="m 3844.8,1339.2 c -0.02,19.4 -21,31.51 -37.8,21.82 -16.81,-9.75 -16.78,-33.97 0.03,-43.66 16.82,-9.66 37.75,2.44 37.77,21.84"
           style="fill:#000000;fill-opacity:1;fill-rule:evenodd;stroke:none"
           id="path2470"
           inkscape:connector-curvature="0" /><path
           d="m 3844.8,1339.2 c -0.02,19.4 -21,31.51 -37.8,21.82 -16.81,-9.75 -16.78,-33.97 0.03,-43.66 16.82,-9.66 37.75,2.44 37.77,21.84"
           style="fill:none;stroke:#000000;stroke-width:7.5;stroke-linecap:round;stroke-linejoin:round;stroke-miterlimit:10;stroke-dasharray:none;stroke-opacity:1"
           id="path2472"
           inkscape:connector-curvature="0" /><path
           d="m 3484.8,979.205 c -0.02,19.398 -21,31.505 -37.8,21.815 -16.81,-9.747 -16.78,-33.968 0.03,-43.66 16.82,-9.664 37.75,2.442 37.77,21.84"
           style="fill:#000000;fill-opacity:1;fill-rule:evenodd;stroke:none"
           id="path2474"
           inkscape:connector-curvature="0" /><path
           d="m 3484.8,979.205 c -0.02,19.398 -21,31.505 -37.8,21.815 -16.81,-9.747 -16.78,-33.968 0.03,-43.66 16.82,-9.664 37.75,2.442 37.77,21.84"
           style="fill:none;stroke:#000000;stroke-width:7.5;stroke-linecap:round;stroke-linejoin:round;stroke-miterlimit:10;stroke-dasharray:none;stroke-opacity:1"
           id="path2476"
           inkscape:connector-curvature="0" /><path
           d="m 3844.8,979.205 c -0.02,19.398 -21,31.505 -37.8,21.815 -16.81,-9.747 -16.78,-33.968 0.03,-43.66 16.82,-9.664 37.75,2.442 37.77,21.84"
           style="fill:#000000;fill-opacity:1;fill-rule:evenodd;stroke:none"
           id="path2478"
           inkscape:connector-curvature="0" /><path
           d="m 3844.8,979.205 c -0.02,19.398 -21,31.505 -37.8,21.815 -16.81,-9.747 -16.78,-33.968 0.03,-43.66 16.82,-9.664 37.75,2.442 37.77,21.84"
           style="fill:none;stroke:#000000;stroke-width:7.5;stroke-linecap:round;stroke-linejoin:round;stroke-miterlimit:10;stroke-dasharray:none;stroke-opacity:1"
           id="path2480"
           inkscape:connector-curvature="0" /><path
           d="m 3279.6,1879.2 h 727.2"
           style="fill:none;stroke:#000000;stroke-width:7.5;stroke-linecap:round;stroke-linejoin:round;stroke-miterlimit:10;stroke-dasharray:none;stroke-opacity:1"
           id="path2482"
           inkscape:connector-curvature="0" /><path
           d="m 3279.6,1159.2 h 727.2"
           style="fill:none;stroke:#000000;stroke-width:7.5;stroke-linecap:round;stroke-linejoin:round;stroke-miterlimit:10;stroke-dasharray:none;stroke-opacity:1"
           id="path2484"
           inkscape:connector-curvature="0" /><path
           d="M 3639.6,2239.2 V 799.2"
           style="fill:none;stroke:#000000;stroke-width:7.5;stroke-linecap:round;stroke-linejoin:round;stroke-miterlimit:10;stroke-dasharray:none;stroke-opacity:1"
           id="path2486"
           inkscape:connector-curvature="0" /><path
           d="m 3279.6,1519.2 h 727.2"
           style="fill:none;stroke:#000000;stroke-width:7.5;stroke-linecap:round;stroke-linejoin:round;stroke-miterlimit:10;stroke-dasharray:none;stroke-opacity:1"
           id="path2488"
           inkscape:connector-curvature="0" /><g
           id="g2490"
           transform="scale(10)"><text
             transform="matrix(0.871795,0,0,-1,372.6,192.24)"
             style="font-style:italic;font-variant:normal;font-size:10px;font-family:'Times New Roman';-inkscape-font-specification:Times-Italic;writing-mode:lr-tb;fill:#000000;fill-opacity:1;fill-rule:nonzero;stroke:none"
             id="text2500"><tspan
               x="0 3.3299999 8.3299999 10.82998 15.82998 19.159981"
               y="0"
               sodipodi:role="line"
               id="tspan2492">(9,9)</tspan><tspan
               x="-124.70802 -121.37802 -116.37802 -113.87804 -108.87804 -105.54804"
               y="107.28"
               sodipodi:role="line"
               id="tspan2494">(6,6)</tspan><tspan
               x="-83.413841 -80.083839 -75.083839 -72.583862 -67.583862 -64.25386"
               y="0"
               sodipodi:role="line"
               id="tspan2496">(7,9)</tspan><tspan
               x="-42.119659 -38.789661 -33.789661 -31.28968 -26.28968 -22.959681"
               y="108"
               sodipodi:role="line"
               id="tspan2498">(8,6)</tspan></text>
</g><path
           d="m 1119.6,2476.8 1440,-237.6"
           style="fill:none;stroke:#000000;stroke-width:7.5;stroke-linecap:round;stroke-linejoin:round;stroke-miterlimit:10;stroke-dasharray:40, 20;stroke-dashoffset:0;stroke-opacity:1"
           id="path2502"
           inkscape:connector-curvature="0" /><path
           d="m 1119.6,1396.8 1440,-597.6"
           style="fill:none;stroke:#000000;stroke-width:7.5;stroke-linecap:round;stroke-linejoin:round;stroke-miterlimit:10;stroke-dasharray:40, 20;stroke-dashoffset:0;stroke-opacity:1"
           id="path2504"
           inkscape:connector-curvature="0" /><g
           id="g2506"
           transform="scale(10)"><text
             transform="matrix(0.861111,0,0,-1,90.36,7.92)"
             style="font-style:italic;font-variant:normal;font-weight:bold;font-size:18px;font-family:'Times New Roman';-inkscape-font-specification:Times-BoldItalic;writing-mode:lr-tb;fill:#000000;fill-opacity:1;fill-rule:nonzero;stroke:none"
             id="text2512"><tspan
               x="0 9 18 25.001989 30.00597 34.50597 43.50597"
               y="0"
               sodipodi:role="line"
               id="tspan2508">part 0</tspan><tspan
               x="250.83897 259.83896 268.83896 275.84097 280.84494 285.34494 294.34494"
               y="-48.240002"
               sodipodi:role="line"
               id="tspan2510">part 1</tspan></text>
</g><path
           d="m 39.5999,309.6 h 2167.2 v 2167.2 h -2167.2 z"
           style="fill:none;stroke:#000000;stroke-width:7.5;stroke-linecap:round;stroke-linejoin:round;stroke-miterlimit:10;stroke-dasharray:none;stroke-opacity:1"
           id="path2514"
           inkscape:connector-curvature="0" /><path
           d="M 2559.6,792 H 4006.8 V 2239.2 H 2559.6 Z"
           style="fill:none;stroke:#000000;stroke-width:7.5;stroke-linecap:round;stroke-linejoin:round;stroke-miterlimit:10;stroke-dasharray:none;stroke-opacity:1"
           id="path2516"
           inkscape:connector-curvature="0" /></g></g></g></svg>