<?xml version="1.0" encoding="UTF-8" standalone="no"?>
<!-- Created with Inkscape (http://www.inkscape.org/) -->

<svg
   xmlns:dc="http://purl.org/dc/elements/1.1/"
   xmlns:cc="http://creativecommons.org/ns#"
   xmlns:rdf="http://www.w3.org/1999/02/22-rdf-syntax-ns#"
   xmlns:svg="http://www.w3.org/2000/svg"
   xmlns="http://www.w3.org/2000/svg"
   xmlns:sodipodi="http://sodipodi.sourceforge.net/DTD/sodipodi-0.dtd"
   xmlns:inkscape="http://www.inkscape.org/namespaces/inkscape"
   version="1.1"
   id="svg4602"
   xml:space="preserve"
   width="376.80002"
   height="249.92354"
   viewBox="0 0 376.80002 249.92354"
   sodipodi:docname="figSStructGrid6.svg"
   inkscape:version="0.92.2 (5c3e80d, 2017-08-06)"><metadata
     id="metadata4608"><rdf:RDF><cc:Work
         rdf:about=""><dc:format>image/svg+xml</dc:format><dc:type
           rdf:resource="http://purl.org/dc/dcmitype/StillImage" /><dc:title></dc:title></cc:Work></rdf:RDF></metadata><defs
     id="defs4606" /><sodipodi:namedview
     pagecolor="#ffffff"
     bordercolor="#666666"
     borderopacity="1"
     objecttolerance="10"
     gridtolerance="10"
     guidetolerance="10"
     inkscape:pageopacity="0"
     inkscape:pageshadow="2"
     inkscape:window-width="1220"
     inkscape:window-height="960"
     id="namedview4604"
     showgrid="false"
     inkscape:zoom="2.9060508"
     inkscape:cx="188.40001"
     inkscape:cy="124.96177"
     inkscape:window-x="0"
     inkscape:window-y="0"
     inkscape:window-maximized="0"
     inkscape:current-layer="g4610" /><g
     id="g4610"
     inkscape:groupmode="layer"
     inkscape:label="figSStructGrid6"
     transform="matrix(1.3333333,0,0,-1.3333333,-4.7999732,255.97781)"><g
       id="g4612"
       transform="scale(0.1)"><g
         id="g4614"><path
           d="M 516,1682.4 H 696 L 1417.2,240 1054.8,242.4 516,1682.4"
           style="fill:#e0e0e0;fill-opacity:1;fill-rule:evenodd;stroke:none"
           id="path4616"
           inkscape:connector-curvature="0" /><path
           d="m 783.6,963.6 h 270"
           style="fill:none;stroke:#c0c0c0;stroke-width:5;stroke-linecap:round;stroke-linejoin:round;stroke-miterlimit:10;stroke-dasharray:none;stroke-opacity:1"
           id="path4618"
           inkscape:connector-curvature="0" /><path
           d="M 648,1323.6 H 873.6"
           style="fill:none;stroke:#c0c0c0;stroke-width:5;stroke-linecap:round;stroke-linejoin:round;stroke-miterlimit:10;stroke-dasharray:none;stroke-opacity:1"
           id="path4620"
           inkscape:connector-curvature="0" /><path
           d="m 916.8,603.6 h 315.6"
           style="fill:none;stroke:#c0c0c0;stroke-width:5;stroke-linecap:round;stroke-linejoin:round;stroke-miterlimit:10;stroke-dasharray:none;stroke-opacity:1"
           id="path4622"
           inkscape:connector-curvature="0" /><path
           d="m 696,1682.4 718.8,-1440"
           style="fill:none;stroke:#c0c0c0;stroke-width:20;stroke-linecap:round;stroke-linejoin:round;stroke-miterlimit:10;stroke-dasharray:none;stroke-opacity:1"
           id="path4624"
           inkscape:connector-curvature="0" /><path
           d="M 696,1682.4 1416,241.2"
           style="fill:none;stroke:#c0c0c0;stroke-width:20;stroke-linecap:round;stroke-linejoin:round;stroke-miterlimit:10;stroke-dasharray:none;stroke-opacity:1"
           id="path4626"
           inkscape:connector-curvature="0" /><path
           d="M 1753.2,48 1416,243.6 2316,1142.4 2493.6,1047.6 1753.2,48"
           style="fill:#e0e0e0;fill-opacity:1;fill-rule:evenodd;stroke:none"
           id="path4628"
           inkscape:connector-curvature="0" /><path
           d="M 1948.8,777.6 2181.6,632.4"
           style="fill:none;stroke:#c0c0c0;stroke-width:5;stroke-linecap:round;stroke-linejoin:round;stroke-miterlimit:10;stroke-dasharray:none;stroke-opacity:1"
           id="path4630"
           inkscape:connector-curvature="0" /><path
           d="M 2126.4,956.4 2331.6,835.2"
           style="fill:none;stroke:#c0c0c0;stroke-width:5;stroke-linecap:round;stroke-linejoin:round;stroke-miterlimit:10;stroke-dasharray:none;stroke-opacity:1"
           id="path4632"
           inkscape:connector-curvature="0" /><path
           d="M 1705.2,535.2 1983.6,360"
           style="fill:none;stroke:#c0c0c0;stroke-width:5;stroke-linecap:round;stroke-linejoin:round;stroke-miterlimit:10;stroke-dasharray:none;stroke-opacity:1"
           id="path4634"
           inkscape:connector-curvature="0" /><path
           d="m 1416,242.4 897.6,900"
           style="fill:none;stroke:#c0c0c0;stroke-width:20;stroke-linecap:round;stroke-linejoin:round;stroke-miterlimit:10;stroke-dasharray:none;stroke-opacity:1"
           id="path4636"
           inkscape:connector-curvature="0" /><path
           d="m 1413.6,246 895.2,891.6"
           style="fill:none;stroke:#c0c0c0;stroke-width:20;stroke-linecap:round;stroke-linejoin:round;stroke-miterlimit:10;stroke-dasharray:none;stroke-opacity:1"
           id="path4638"
           inkscape:connector-curvature="0" /><g
           id="g4640"
           transform="scale(10)"><text
             transform="matrix(0.871795,0,0,-1,163.32,25.32)"
             style="font-style:italic;font-variant:normal;font-size:10px;font-family:'Times New Roman';-inkscape-font-specification:Times-Italic;writing-mode:lr-tb;fill:#c0c0c0;fill-opacity:1;fill-rule:nonzero;stroke:none"
             id="text4644"><tspan
               x="0 3.3299999 8.3299999 10.82998 15.82998 19.159981"
               y="0"
               sodipodi:role="line"
               id="tspan4642">(1,1)</tspan></text>
</g><g
           id="g4646"
           transform="scale(10)"><text
             transform="matrix(0.871795,0,0,-1,258.6,125.28)"
             style="font-style:italic;font-variant:normal;font-size:10px;font-family:'Times New Roman';-inkscape-font-specification:Times-Italic;writing-mode:lr-tb;fill:#c0c0c0;fill-opacity:1;fill-rule:nonzero;stroke:none"
             id="text4650"><tspan
               x="0 3.3299999 8.3299999 10.82998 15.82998 19.159981"
               y="0"
               sodipodi:role="line"
               id="tspan4648">(1,4)</tspan></text>
</g><g
           id="g4652"
           transform="scale(10)"><text
             transform="matrix(0.871795,0,0,-1,107.52,37.56)"
             style="font-style:italic;font-variant:normal;font-size:10px;font-family:'Times New Roman';-inkscape-font-specification:Times-Italic;writing-mode:lr-tb;fill:#c0c0c0;fill-opacity:1;fill-rule:nonzero;stroke:none"
             id="text4656"><tspan
               x="0 3.3299999 8.3299999 10.82998 15.82998 19.159981"
               y="0"
               sodipodi:role="line"
               id="tspan4654">(4,1)</tspan></text>
</g><g
           id="g4658"
           transform="scale(10)"><text
             transform="matrix(0.871795,0,0,-1,47.16,185.04)"
             style="font-style:italic;font-variant:normal;font-size:10px;font-family:'Times New Roman';-inkscape-font-specification:Times-Italic;writing-mode:lr-tb;fill:#c0c0c0;fill-opacity:1;fill-rule:nonzero;stroke:none"
             id="text4662"><tspan
               x="0 3.3299999 8.3299999 10.82998 15.82998 19.159981"
               y="0"
               sodipodi:role="line"
               id="tspan4660">(4,4)</tspan></text>
</g><path
           d="M 1350,1776 1953.6,782.4"
           style="fill:none;stroke:#c0c0c0;stroke-width:5;stroke-linecap:round;stroke-linejoin:round;stroke-miterlimit:10;stroke-dasharray:none;stroke-opacity:1"
           id="path4664"
           inkscape:connector-curvature="0" /><path
           d="M 1652.4,1820.4 2133.6,961.2"
           style="fill:none;stroke:#c0c0c0;stroke-width:5;stroke-linecap:round;stroke-linejoin:round;stroke-miterlimit:10;stroke-dasharray:none;stroke-opacity:1"
           id="path4666"
           inkscape:connector-curvature="0" /><path
           d="M 1053.6,1734 1716,547.2"
           style="fill:none;stroke:#c0c0c0;stroke-width:5;stroke-linecap:round;stroke-linejoin:round;stroke-miterlimit:10;stroke-dasharray:none;stroke-opacity:1"
           id="path4668"
           inkscape:connector-curvature="0" /><path
           d="m 874.8,1324.8 1165.2,360"
           style="fill:none;stroke:#c0c0c0;stroke-width:5;stroke-linecap:round;stroke-linejoin:round;stroke-miterlimit:10;stroke-dasharray:none;stroke-opacity:1"
           id="path4670"
           inkscape:connector-curvature="0" /><path
           d="M 1054.8,964.8 2125.2,1512"
           style="fill:none;stroke:#c0c0c0;stroke-width:5;stroke-linecap:round;stroke-linejoin:round;stroke-miterlimit:10;stroke-dasharray:none;stroke-opacity:1"
           id="path4672"
           inkscape:connector-curvature="0" /><path
           d="m 1234.8,604.8 978,727.2"
           style="fill:none;stroke:#c0c0c0;stroke-width:5;stroke-linecap:round;stroke-linejoin:round;stroke-miterlimit:10;stroke-dasharray:none;stroke-opacity:1"
           id="path4674"
           inkscape:connector-curvature="0" /><path
           d="m 696,1682.4 1258.8,180"
           style="fill:none;stroke:#c0c0c0;stroke-width:20;stroke-linecap:round;stroke-linejoin:round;stroke-miterlimit:10;stroke-dasharray:none;stroke-opacity:1"
           id="path4676"
           inkscape:connector-curvature="0" /><path
           d="m 1954.8,1862.4 354,-724.8"
           style="fill:none;stroke:#c0c0c0;stroke-width:20;stroke-linecap:round;stroke-linejoin:round;stroke-miterlimit:10;stroke-dasharray:none;stroke-opacity:1"
           id="path4678"
           inkscape:connector-curvature="0" /><g
           id="g4680"
           transform="scale(10)"><text
             transform="matrix(0.871795,0,0,-1,138.12,50.4)"
             style="font-style:italic;font-variant:normal;font-size:10px;font-family:'Times New Roman';-inkscape-font-specification:Times-Italic;writing-mode:lr-tb;fill:#c0c0c0;fill-opacity:1;fill-rule:nonzero;stroke:none"
             id="text4684"><tspan
               x="0 3.3299999 8.3299999 10.82998 15.82998 19.159981"
               y="0"
               sodipodi:role="line"
               id="tspan4682">(1,1)</tspan></text>
</g><g
           id="g4686"
           transform="scale(10)"><text
             transform="matrix(0.871795,0,0,-1,176.52,169.92)"
             style="font-style:italic;font-variant:normal;font-size:10px;font-family:'Times New Roman';-inkscape-font-specification:Times-Italic;writing-mode:lr-tb;fill:#c0c0c0;fill-opacity:1;fill-rule:nonzero;stroke:none"
             id="text4690"><tspan
               x="0 3.3299999 8.3299999 10.82998 15.82998 19.159981"
               y="0"
               sodipodi:role="line"
               id="tspan4688">(4,4)</tspan></text>
</g><path
           d="m 2494.8,603.6 h 37.2 l 18,-2.4 18,-1.2 18,-2.4 16.8,-2.4 18,-3.6 15.6,-2.4 16.8,-4.8 15.6,-3.6 15.6,-4.8 14.4,-4.8 14.4,-6 14.4,-6 13.2,-6 12,-6 12,-7.2 12,-7.2 10.8,-7.2 10.8,-7.2 9.6,-8.4 8.4,-8.4 8.4,-8.4 7.2,-8.4 6,-8.4 6,-9.6 4.8,-9.6 4.8,-8.4 2.4,-9.6 2.4,-10.8 1.2,-9.6 2.4,-9.6 -2.4,-10.8 -1.2,-9.6 -2.4,-9.6 -2.4,-9.6 -4.8,-9.6 -4.8,-8.4 -6,-9.6 -6,-8.4 -7.2,-9.6 -8.4,-8.4 -8.4,-7.2 -9.6,-8.4 -10.8,-7.2 -10.8,-8.4 -12,-6 -12,-7.2 -12,-6 -13.2,-7.2 -14.4,-4.8 -14.4,-6 -14.4,-4.8 -15.6,-4.8 -15.6,-4.8 -16.8,-3.6 -15.6,-3.6 -18,-2.4 -16.8,-3.6 -18,-1.2 -18,-2.4 -18,-1.2 h -19.2 l -18,-1.2 -19.2,1.2 h -19.2 l -18,1.2 -18,2.4 -18,1.2 -16.8,3.6 -16.8,2.4 -16.8,3.6 -16.8,3.6 -15.6,4.8 -15.6,4.8 -14.4,4.8 -14.4,6 -14.4,4.8 -13.2,7.2 -12,6 -12,7.2 -12,6 -10.8,8.4 -9.6,7.2 -9.6,8.4 -9.6,7.2 -8.4,8.4 -7.2,9.6 -6,8.4 -6,9.6 -4.8,8.4 -3.6,9.6 -3.6,9.6 -2.4,9.6 -1.2,9.6 -1.2,10.8 1.2,9.6 1.2,9.6 2.4,10.8 3.6,9.6 3.6,8.4 4.8,9.6 6,9.6 6,8.4 7.2,8.4 8.4,8.4 9.6,8.4 9.6,8.4 9.6,7.2 10.8,7.2 12,7.2 12,7.2 12,6 13.2,6 14.4,6 14.4,6 14.4,4.8 15.6,4.8 15.6,3.6 16.8,4.8 16.8,2.4 16.8,3.6 16.8,2.4 18,2.4 18,1.2 18,2.4 h 38.4"
           style="fill:#ffffff;fill-opacity:1;fill-rule:evenodd;stroke:none"
           id="path4692"
           inkscape:connector-curvature="0" /><g
           id="g4694"
           transform="scale(10)"><text
             transform="matrix(0.873418,0,0,-1,226.44,34.8)"
             style="font-style:italic;font-variant:normal;font-weight:bold;font-size:19.75px;font-family:'Times New Roman';-inkscape-font-specification:Times-BoldItalic;writing-mode:lr-tb;fill:#c0c0c0;fill-opacity:1;fill-rule:nonzero;stroke:none"
             id="text4698"><tspan
               x="0 9.875 19.75 27.43273 32.92321 37.86071 47.73571"
               y="0"
               sodipodi:role="line"
               id="tspan4696">part 2</tspan></text>
</g><path
           d="m 1594.8,1381.2 h 18 l 19.2,-1.2 18,-1.2 18,-1.2 18,-2.4 16.8,-2.4 18,-3.6 15.6,-2.4 16.8,-4.8 15.6,-3.6 15.6,-4.8 14.4,-4.8 14.4,-6 14.4,-6 13.2,-6 12,-6 12,-7.2 12,-7.2 10.8,-7.2 10.8,-7.2 9.6,-8.4 8.4,-8.4 8.4,-8.4 7.2,-8.4 6,-8.4 6,-9.6 4.8,-9.6 4.8,-8.4 2.4,-9.6 2.4,-10.8 1.2,-9.6 2.4,-9.6 -2.4,-10.8 -1.2,-9.6 -2.4,-9.6 -2.4,-9.6 -4.8,-9.6 -4.8,-9.6 -6,-8.4 -6,-8.4 -7.2,-9.6 -8.4,-8.4 -8.4,-7.2 -9.6,-8.4 -10.8,-7.2 -10.8,-8.4 -12,-6 -12,-7.2 -12,-7.2 -13.2,-6 -14.4,-4.8 -14.4,-6 -14.4,-4.8 -15.6,-4.8 -15.6,-4.8 -16.8,-3.6 -15.6,-3.6 -18,-2.4 -16.8,-3.6 -18,-1.2 -18,-2.4 -18,-1.2 -19.2,-1.2 h -37.2 l -19.2,1.2 -18,1.2 -18,2.4 -18,1.2 -16.8,3.6 -16.8,2.4 -15.6,3.6 -16.8,3.6 -15.6,4.8 -15.6,4.8 -14.4,4.8 -14.4,6 -14.4,4.8 -13.2,6 -12,7.2 -12,7.2 -12,6 -10.8,8.4 -9.6,7.2 -9.6,8.4 -9.6,7.2 -8.4,8.4 -7.2,9.6 -6,8.4 -6,8.4 -4.8,9.6 -3.6,9.6 -3.6,9.6 -2.4,9.6 -1.2,9.6 -1.2,10.8 1.2,9.6 1.2,9.6 2.4,10.8 3.6,9.6 3.6,8.4 4.8,9.6 6,9.6 6,8.4 7.2,8.4 8.4,8.4 9.6,8.4 9.6,8.4 9.6,7.2 10.8,7.2 12,7.2 12,7.2 12,6 13.2,6 14.4,6 14.4,6 14.4,4.8 15.6,4.8 15.6,3.6 16.8,4.8 15.6,2.4 16.8,3.6 16.8,2.4 18,2.4 18,1.2 18,1.2 19.2,1.2 h 19.2"
           style="fill:#ffffff;fill-opacity:1;fill-rule:evenodd;stroke:none"
           id="path4700"
           inkscape:connector-curvature="0" /><g
           id="g4702"
           transform="scale(10)"><text
             transform="matrix(0.873418,0,0,-1,136.56,112.56)"
             style="font-style:italic;font-variant:normal;font-weight:bold;font-size:19.75px;font-family:'Times New Roman';-inkscape-font-specification:Times-BoldItalic;writing-mode:lr-tb;fill:#c0c0c0;fill-opacity:1;fill-rule:nonzero;stroke:none"
             id="text4706"><tspan
               x="0 9.875 19.75 27.43273 32.92321 37.86071 47.73571"
               y="0"
               sodipodi:role="line"
               id="tspan4704">part 3</tspan></text>
</g><path
           d="m 400.8,1078.8 h 18 l 19.2,-1.2 18,-1.2 18,-1.2 18,-2.4 18,-2.4 16.8,-3.6 16.8,-3.6 15.6,-3.6 15.6,-3.6 15.6,-4.8 14.4,-6 14.4,-4.8 14.4,-6 13.2,-6 13.2,-6 12,-7.2 10.8,-7.2 10.8,-7.2 10.8,-7.2 9.6,-8.4 8.4,-8.4 8.4,-8.4 7.2,-8.4 7.2,-8.4 4.8,-9.6 4.8,-9.6 4.8,-9.6 3.6,-9.6 1.2,-9.6 3.6,-9.6 v -20.4 l -3.6,-9.6 -2.4,-9.6 -2.4,-9.6 -4.8,-9.6 -4.8,-9.6 -6,-8.4 -6,-9.6 -7.2,-8.4 -8.4,-8.4 -8.4,-8.4 -9.6,-7.2 -10.8,-7.2 -10.8,-8.4 -10.8,-7.2 -12,-6 -13.2,-7.2 -13.2,-6 -14.4,-4.8 -14.4,-6 -14.4,-4.8 -15.6,-4.8 -15.6,-4.8 -15.6,-3.6 -16.8,-3.6 -16.8,-2.4 -18,-3.6 -18,-1.2 -18,-2.4 -18,-1.2 -19.2,-1.2 h -37.2 l -18,1.2 -19.2,1.2 -18,2.4 -16.8,1.2 -18,3.6 -16.8,2.4 -16.8,3.6 -16.8,3.6 -15.6,4.8 -14.4,4.8 -15.6,4.8 -14.4,6 -13.2,4.8 -13.2,6 -13.2,7.2 -12,6 -12,7.2 -10.8,8.4 -9.6,7.2 -9.6001,7.2 -9.5999,8.4 -7.2002,8.4 -7.1999,8.4 -7.2,9.6 -6,8.4 -4.8,9.6 -3.6001,9.6 -3.5999,9.6 -2.4001,9.6 v 39.6 l 2.4001,9.6 3.5999,9.6 3.6001,9.6 4.8,9.6 6,9.6 7.2,8.4 7.1999,8.4 7.2002,8.4 9.5999,8.4 9.6001,8.4 9.6,7.2 10.8,7.2 12,7.2 12,7.2 13.2,6 13.2,6 13.2,6 14.4,4.8 15.6,6 14.4,4.8 15.6,3.6 16.8,3.6 16.8,3.6 16.8,3.6 18,2.4 16.8,2.4 18,1.2 19.2,1.2 18,1.2 h 19.2"
           style="fill:#ffffff;fill-opacity:1;fill-rule:evenodd;stroke:none"
           id="path4708"
           inkscape:connector-curvature="0" /><g
           id="g4710"
           transform="scale(10)"><text
             transform="matrix(0.873418,0,0,-1,17.04,82.32)"
             style="font-style:italic;font-variant:normal;font-weight:bold;font-size:19.75px;font-family:'Times New Roman';-inkscape-font-specification:Times-BoldItalic;writing-mode:lr-tb;fill:#c0c0c0;fill-opacity:1;fill-rule:nonzero;stroke:none"
             id="text4714"><tspan
               x="0 9.875 19.75 27.43273 32.92321 37.86071 47.73571"
               y="0"
               sodipodi:role="line"
               id="tspan4712">part 4</tspan></text>
</g><path
           d="m 2336.4,1008 222,220.8"
           style="fill:none;stroke:#c0c0c0;stroke-width:5;stroke-linecap:round;stroke-linejoin:round;stroke-miterlimit:10;stroke-dasharray:none;stroke-opacity:1"
           id="path4716"
           inkscape:connector-curvature="0" /><path
           d="m 2320.8,990 54,22.8 -34.8,-2.4 2.4,34.8 -21.6,-55.2"
           style="fill:#c0c0c0;fill-opacity:1;fill-rule:evenodd;stroke:none"
           id="path4718"
           inkscape:connector-curvature="0" /><path
           d="M 565.2,1804.8 679.2,1524"
           style="fill:none;stroke:#c0c0c0;stroke-width:5;stroke-linecap:round;stroke-linejoin:round;stroke-miterlimit:10;stroke-dasharray:none;stroke-opacity:1"
           id="path4720"
           inkscape:connector-curvature="0" /><path
           d="m 688.8,1502.4 v 56.4 l -12,-30 -28.8,14.4 40.8,-40.8"
           style="fill:#c0c0c0;fill-opacity:1;fill-rule:evenodd;stroke:none"
           id="path4722"
           inkscape:connector-curvature="0" /><path
           d="M 516,1682.4 H 696 L 1416,241.2 1054.8,242.4 516,1682.4"
           style="fill:#dddddd;fill-opacity:1;fill-rule:evenodd;stroke:none"
           id="path4724"
           inkscape:connector-curvature="0" /><path
           d="M 516,1682.4 H 696 L 1416,241.2 1054.8,242.4 516,1682.4"
           style="fill:none;stroke:#000000;stroke-width:7.5;stroke-linecap:round;stroke-linejoin:round;stroke-miterlimit:10;stroke-dasharray:none;stroke-opacity:1"
           id="path4726"
           inkscape:connector-curvature="0" /><path
           d="m 783.6,963.6 h 270"
           style="fill:none;stroke:#000000;stroke-width:5;stroke-linecap:round;stroke-linejoin:round;stroke-miterlimit:10;stroke-dasharray:none;stroke-opacity:1"
           id="path4728"
           inkscape:connector-curvature="0" /><path
           d="M 648,1323.6 H 873.6"
           style="fill:none;stroke:#000000;stroke-width:5;stroke-linecap:round;stroke-linejoin:round;stroke-miterlimit:10;stroke-dasharray:none;stroke-opacity:1"
           id="path4730"
           inkscape:connector-curvature="0" /><path
           d="m 916.8,603.6 h 315.6"
           style="fill:none;stroke:#000000;stroke-width:5;stroke-linecap:round;stroke-linejoin:round;stroke-miterlimit:10;stroke-dasharray:none;stroke-opacity:1"
           id="path4732"
           inkscape:connector-curvature="0" /><path
           d="m 696,1682.4 718.8,-1440"
           style="fill:none;stroke:#000000;stroke-width:20;stroke-linecap:round;stroke-linejoin:round;stroke-miterlimit:10;stroke-dasharray:none;stroke-opacity:1"
           id="path4734"
           inkscape:connector-curvature="0" /><path
           d="M 1753.2,49.2 1416,243.6 2316,1142.4 2492.4,1047.6 1753.2,49.2"
           style="fill:#dddddd;fill-opacity:1;fill-rule:evenodd;stroke:none"
           id="path4736"
           inkscape:connector-curvature="0" /><path
           d="M 1753.2,49.2 1416,243.6 2316,1142.4 2492.4,1047.6 1753.2,49.2"
           style="fill:none;stroke:#000000;stroke-width:7.5;stroke-linecap:round;stroke-linejoin:round;stroke-miterlimit:10;stroke-dasharray:none;stroke-opacity:1"
           id="path4738"
           inkscape:connector-curvature="0" /><path
           d="M 1948.8,777.6 2181.6,632.4"
           style="fill:none;stroke:#000000;stroke-width:5;stroke-linecap:round;stroke-linejoin:round;stroke-miterlimit:10;stroke-dasharray:none;stroke-opacity:1"
           id="path4740"
           inkscape:connector-curvature="0" /><path
           d="M 2126.4,956.4 2331.6,835.2"
           style="fill:none;stroke:#000000;stroke-width:5;stroke-linecap:round;stroke-linejoin:round;stroke-miterlimit:10;stroke-dasharray:none;stroke-opacity:1"
           id="path4742"
           inkscape:connector-curvature="0" /><path
           d="M 1705.2,535.2 1983.6,360"
           style="fill:none;stroke:#000000;stroke-width:5;stroke-linecap:round;stroke-linejoin:round;stroke-miterlimit:10;stroke-dasharray:none;stroke-opacity:1"
           id="path4744"
           inkscape:connector-curvature="0" /><path
           d="m 1416,242.4 897.6,900"
           style="fill:none;stroke:#000000;stroke-width:20;stroke-linecap:round;stroke-linejoin:round;stroke-miterlimit:10;stroke-dasharray:none;stroke-opacity:1"
           id="path4746"
           inkscape:connector-curvature="0" /><g
           id="g4748"
           transform="scale(10)"><text
             transform="matrix(0.871795,0,0,-1,163.32,25.32)"
             style="font-style:italic;font-variant:normal;font-size:10px;font-family:'Times New Roman';-inkscape-font-specification:Times-Italic;writing-mode:lr-tb;fill:#000000;fill-opacity:1;fill-rule:nonzero;stroke:none"
             id="text4758"><tspan
               x="0 3.3299999 8.3299999 10.82998 15.82998 19.159981"
               y="0"
               sodipodi:role="line"
               id="tspan4750">(1,1)</tspan><tspan
               x="109.29178 112.62178 117.62178 120.12176 125.12176 128.45177"
               y="-99.959999"
               sodipodi:role="line"
               id="tspan4752">(1,4)</tspan><tspan
               x="-64.006241 -60.676239 -55.676239 -53.176262 -48.176262 -44.84626"
               y="-12.24"
               sodipodi:role="line"
               id="tspan4754">(4,1)</tspan><tspan
               x="-133.24266 -129.91266 -124.91266 -122.41268 -117.41268 -114.08268"
               y="-159.72"
               sodipodi:role="line"
               id="tspan4756">(4,4)</tspan></text>
</g><path
           d="M 696,1682.4 1416,241.2"
           style="fill:none;stroke:#000000;stroke-width:20;stroke-linecap:round;stroke-linejoin:round;stroke-miterlimit:10;stroke-dasharray:none;stroke-opacity:1"
           id="path4760"
           inkscape:connector-curvature="0" /><path
           d="m 1413.6,246 895.2,891.6"
           style="fill:none;stroke:#000000;stroke-width:20;stroke-linecap:round;stroke-linejoin:round;stroke-miterlimit:10;stroke-dasharray:none;stroke-opacity:1"
           id="path4762"
           inkscape:connector-curvature="0" /><path
           d="M 1350,1776 1953.6,782.4"
           style="fill:none;stroke:#000000;stroke-width:5;stroke-linecap:round;stroke-linejoin:round;stroke-miterlimit:10;stroke-dasharray:none;stroke-opacity:1"
           id="path4764"
           inkscape:connector-curvature="0" /><path
           d="M 1652.4,1820.4 2133.6,961.2"
           style="fill:none;stroke:#000000;stroke-width:5;stroke-linecap:round;stroke-linejoin:round;stroke-miterlimit:10;stroke-dasharray:none;stroke-opacity:1"
           id="path4766"
           inkscape:connector-curvature="0" /><path
           d="M 1053.6,1734 1716,547.2"
           style="fill:none;stroke:#000000;stroke-width:5;stroke-linecap:round;stroke-linejoin:round;stroke-miterlimit:10;stroke-dasharray:none;stroke-opacity:1"
           id="path4768"
           inkscape:connector-curvature="0" /><path
           d="m 874.8,1324.8 1165.2,360"
           style="fill:none;stroke:#000000;stroke-width:5;stroke-linecap:round;stroke-linejoin:round;stroke-miterlimit:10;stroke-dasharray:none;stroke-opacity:1"
           id="path4770"
           inkscape:connector-curvature="0" /><path
           d="M 1054.8,964.8 2125.2,1512"
           style="fill:none;stroke:#000000;stroke-width:5;stroke-linecap:round;stroke-linejoin:round;stroke-miterlimit:10;stroke-dasharray:none;stroke-opacity:1"
           id="path4772"
           inkscape:connector-curvature="0" /><path
           d="m 1234.8,604.8 978,727.2"
           style="fill:none;stroke:#000000;stroke-width:5;stroke-linecap:round;stroke-linejoin:round;stroke-miterlimit:10;stroke-dasharray:none;stroke-opacity:1"
           id="path4774"
           inkscape:connector-curvature="0" /><path
           d="m 696,1682.4 1258.8,180"
           style="fill:none;stroke:#000000;stroke-width:20;stroke-linecap:round;stroke-linejoin:round;stroke-miterlimit:10;stroke-dasharray:none;stroke-opacity:1"
           id="path4776"
           inkscape:connector-curvature="0" /><path
           d="m 1954.8,1862.4 354,-724.8"
           style="fill:none;stroke:#000000;stroke-width:20;stroke-linecap:round;stroke-linejoin:round;stroke-miterlimit:10;stroke-dasharray:none;stroke-opacity:1"
           id="path4778"
           inkscape:connector-curvature="0" /><g
           id="g4780"
           transform="scale(10)"><text
             transform="matrix(0.871795,0,0,-1,138.12,50.4)"
             style="font-style:italic;font-variant:normal;font-size:10px;font-family:'Times New Roman';-inkscape-font-specification:Times-Italic;writing-mode:lr-tb;fill:#000000;fill-opacity:1;fill-rule:nonzero;stroke:none"
             id="text4786"><tspan
               x="0 3.3299999 8.3299999 10.82998 15.82998 19.159981"
               y="0"
               sodipodi:role="line"
               id="tspan4782">(1,1)</tspan><tspan
               x="44.047081 47.377079 52.377079 54.87706 59.87706 63.207062"
               y="-119.52"
               sodipodi:role="line"
               id="tspan4784">(4,4)</tspan></text>
</g><path
           d="m 2494.8,603.6 h 37.2 l 18,-2.4 18,-1.2 18,-2.4 16.8,-2.4 18,-3.6 15.6,-2.4 16.8,-4.8 15.6,-3.6 15.6,-4.8 14.4,-4.8 14.4,-6 14.4,-6 13.2,-6 12,-6 12,-7.2 12,-7.2 10.8,-7.2 10.8,-7.2 9.6,-8.4 8.4,-8.4 8.4,-8.4 7.2,-8.4 6,-8.4 6,-9.6 4.8,-9.6 4.8,-8.4 2.4,-9.6 2.4,-10.8 1.2,-9.6 2.4,-9.6 -2.4,-10.8 -1.2,-9.6 -2.4,-9.6 -2.4,-9.6 -4.8,-9.6 -4.8,-8.4 -6,-9.6 -6,-8.4 -7.2,-9.6 -8.4,-8.4 -8.4,-7.2 -9.6,-8.4 -10.8,-7.2 -10.8,-8.4 -12,-6 -12,-7.2 -12,-6 -13.2,-7.2 -14.4,-4.8 -14.4,-6 -14.4,-4.8 -15.6,-4.8 -15.6,-4.8 -16.8,-3.6 -15.6,-3.6 -18,-2.4 -16.8,-3.6 -18,-1.2 -18,-2.4 -18,-1.2 h -19.2 l -18,-1.2 -19.2,1.2 h -19.2 l -18,1.2 -18,2.4 -18,1.2 -16.8,3.6 -16.8,2.4 -16.8,3.6 -16.8,3.6 -15.6,4.8 -15.6,4.8 -14.4,4.8 -14.4,6 -14.4,4.8 -13.2,7.2 -12,6 -12,7.2 -12,6 -10.8,8.4 -9.6,7.2 -9.6,8.4 -9.6,7.2 -8.4,8.4 -7.2,9.6 -6,8.4 -6,9.6 -4.8,8.4 -3.6,9.6 -3.6,9.6 -2.4,9.6 -1.2,9.6 -1.2,10.8 1.2,9.6 1.2,9.6 2.4,10.8 3.6,9.6 3.6,8.4 4.8,9.6 6,9.6 6,8.4 7.2,8.4 8.4,8.4 9.6,8.4 9.6,8.4 9.6,7.2 10.8,7.2 12,7.2 12,7.2 12,6 13.2,6 14.4,6 14.4,6 14.4,4.8 15.6,4.8 15.6,3.6 16.8,4.8 16.8,2.4 16.8,3.6 16.8,2.4 18,2.4 18,1.2 18,2.4 h 38.4"
           style="fill:#ffffff;fill-opacity:1;fill-rule:evenodd;stroke:none"
           id="path4788"
           inkscape:connector-curvature="0" /><g
           id="g4790"
           transform="scale(10)"><text
             transform="matrix(0.873418,0,0,-1,226.44,34.8)"
             style="font-style:italic;font-variant:normal;font-weight:bold;font-size:19.75px;font-family:'Times New Roman';-inkscape-font-specification:Times-BoldItalic;writing-mode:lr-tb;fill:#000000;fill-opacity:1;fill-rule:nonzero;stroke:none"
             id="text4794"><tspan
               x="0 9.875 19.75 27.43273 32.92321 37.86071 47.73571"
               y="0"
               sodipodi:role="line"
               id="tspan4792">part 2</tspan></text>
</g><path
           d="m 1594.8,1381.2 h 18 l 19.2,-1.2 18,-1.2 18,-1.2 18,-2.4 16.8,-2.4 18,-3.6 15.6,-2.4 16.8,-4.8 15.6,-3.6 15.6,-4.8 14.4,-4.8 14.4,-6 14.4,-6 13.2,-6 12,-6 12,-7.2 12,-7.2 10.8,-7.2 10.8,-7.2 9.6,-8.4 8.4,-8.4 8.4,-8.4 7.2,-8.4 6,-8.4 6,-9.6 4.8,-9.6 4.8,-8.4 2.4,-9.6 2.4,-10.8 1.2,-9.6 2.4,-9.6 -2.4,-10.8 -1.2,-9.6 -2.4,-9.6 -2.4,-9.6 -4.8,-9.6 -4.8,-9.6 -6,-8.4 -6,-8.4 -7.2,-9.6 -8.4,-8.4 -8.4,-7.2 -9.6,-8.4 -10.8,-7.2 -10.8,-8.4 -12,-6 -12,-7.2 -12,-7.2 -13.2,-6 -14.4,-4.8 -14.4,-6 -14.4,-4.8 -15.6,-4.8 -15.6,-4.8 -16.8,-3.6 -15.6,-3.6 -18,-2.4 -16.8,-3.6 -18,-1.2 -18,-2.4 -18,-1.2 -19.2,-1.2 h -37.2 l -19.2,1.2 -18,1.2 -18,2.4 -18,1.2 -16.8,3.6 -16.8,2.4 -15.6,3.6 -16.8,3.6 -15.6,4.8 -15.6,4.8 -14.4,4.8 -14.4,6 -14.4,4.8 -13.2,6 -12,7.2 -12,7.2 -12,6 -10.8,8.4 -9.6,7.2 -9.6,8.4 -9.6,7.2 -8.4,8.4 -7.2,9.6 -6,8.4 -6,8.4 -4.8,9.6 -3.6,9.6 -3.6,9.6 -2.4,9.6 -1.2,9.6 -1.2,10.8 1.2,9.6 1.2,9.6 2.4,10.8 3.6,9.6 3.6,8.4 4.8,9.6 6,9.6 6,8.4 7.2,8.4 8.4,8.4 9.6,8.4 9.6,8.4 9.6,7.2 10.8,7.2 12,7.2 12,7.2 12,6 13.2,6 14.4,6 14.4,6 14.4,4.8 15.6,4.8 15.6,3.6 16.8,4.8 15.6,2.4 16.8,3.6 16.8,2.4 18,2.4 18,1.2 18,1.2 19.2,1.2 h 19.2"
           style="fill:#ffffff;fill-opacity:1;fill-rule:evenodd;stroke:none"
           id="path4796"
           inkscape:connector-curvature="0" /><g
           id="g4798"
           transform="scale(10)"><text
             transform="matrix(0.873418,0,0,-1,136.56,112.56)"
             style="font-style:italic;font-variant:normal;font-weight:bold;font-size:19.75px;font-family:'Times New Roman';-inkscape-font-specification:Times-BoldItalic;writing-mode:lr-tb;fill:#000000;fill-opacity:1;fill-rule:nonzero;stroke:none"
             id="text4802"><tspan
               x="0 9.875 19.75 27.43273 32.92321 37.86071 47.73571"
               y="0"
               sodipodi:role="line"
               id="tspan4800">part 3</tspan></text>
</g><path
           d="m 400.8,1078.8 h 18 l 19.2,-1.2 18,-1.2 18,-1.2 18,-2.4 18,-2.4 16.8,-3.6 16.8,-3.6 15.6,-3.6 15.6,-3.6 15.6,-4.8 14.4,-6 14.4,-4.8 14.4,-6 13.2,-6 13.2,-6 12,-7.2 10.8,-7.2 10.8,-7.2 10.8,-7.2 9.6,-8.4 8.4,-8.4 8.4,-8.4 7.2,-8.4 7.2,-8.4 4.8,-9.6 4.8,-9.6 4.8,-9.6 3.6,-9.6 1.2,-9.6 3.6,-9.6 v -20.4 l -3.6,-9.6 -2.4,-9.6 -2.4,-9.6 -4.8,-9.6 -4.8,-9.6 -6,-8.4 -6,-9.6 -7.2,-8.4 -8.4,-8.4 -8.4,-8.4 -9.6,-7.2 -10.8,-7.2 -10.8,-8.4 -10.8,-7.2 -12,-6 -13.2,-7.2 -13.2,-6 -14.4,-4.8 -14.4,-6 -14.4,-4.8 -15.6,-4.8 -15.6,-4.8 -15.6,-3.6 -16.8,-3.6 -16.8,-2.4 -18,-3.6 -18,-1.2 -18,-2.4 -18,-1.2 -19.2,-1.2 h -37.2 l -18,1.2 -19.2,1.2 -18,2.4 -16.8,1.2 -18,3.6 -16.8,2.4 -16.8,3.6 -16.8,3.6 -15.6,4.8 -14.4,4.8 -15.6,4.8 -14.4,6 -13.2,4.8 -13.2,6 -13.2,7.2 -12,6 -12,7.2 -10.8,8.4 -9.6,7.2 -9.6001,7.2 -9.5999,8.4 -7.2002,8.4 -7.1999,8.4 -7.2,9.6 -6,8.4 -4.8,9.6 -3.6001,9.6 -3.5999,9.6 -2.4001,9.6 v 39.6 l 2.4001,9.6 3.5999,9.6 3.6001,9.6 4.8,9.6 6,9.6 7.2,8.4 7.1999,8.4 7.2002,8.4 9.5999,8.4 9.6001,8.4 9.6,7.2 10.8,7.2 12,7.2 12,7.2 13.2,6 13.2,6 13.2,6 14.4,4.8 15.6,6 14.4,4.8 15.6,3.6 16.8,3.6 16.8,3.6 16.8,3.6 18,2.4 16.8,2.4 18,1.2 19.2,1.2 18,1.2 h 19.2"
           style="fill:#ffffff;fill-opacity:1;fill-rule:evenodd;stroke:none"
           id="path4804"
           inkscape:connector-curvature="0" /><g
           id="g4806"
           transform="scale(10)"><text
             transform="matrix(0.873418,0,0,-1,17.04,82.32)"
             style="font-style:italic;font-variant:normal;font-weight:bold;font-size:19.75px;font-family:'Times New Roman';-inkscape-font-specification:Times-BoldItalic;writing-mode:lr-tb;fill:#000000;fill-opacity:1;fill-rule:nonzero;stroke:none"
             id="text4810"><tspan
               x="0 9.875 19.75 27.43273 32.92321 37.86071 47.73571"
               y="0"
               sodipodi:role="line"
               id="tspan4808">part 4</tspan></text>
</g><path
           d="m 2336.4,1008 222,220.8"
           style="fill:none;stroke:#000000;stroke-width:5;stroke-linecap:round;stroke-linejoin:round;stroke-miterlimit:10;stroke-dasharray:none;stroke-opacity:1"
           id="path4812"
           inkscape:connector-curvature="0" /><path
           d="m 2320.8,990 54,22.8 -34.8,-2.4 2.4,34.8 -21.6,-55.2"
           style="fill:#000000;fill-opacity:1;fill-rule:evenodd;stroke:none"
           id="path4814"
           inkscape:connector-curvature="0" /><path
           d="M 565.2,1804.8 679.2,1524"
           style="fill:none;stroke:#000000;stroke-width:5;stroke-linecap:round;stroke-linejoin:round;stroke-miterlimit:10;stroke-dasharray:none;stroke-opacity:1"
           id="path4816"
           inkscape:connector-curvature="0" /><path
           d="m 688.8,1502.4 v 56.4 l -12,-30 -28.8,14.4 40.8,-40.8"
           style="fill:#000000;fill-opacity:1;fill-rule:evenodd;stroke:none"
           id="path4818"
           inkscape:connector-curvature="0" /><path
           d="m 1282.8,1644 h 6 l 4.8,-2.4 4.8,-2.4 4.8,-3.6 3.6,-4.8 2.4,-4.8 3.6,-6 v -12 l -3.6,-6 -2.4,-4.8 -3.6,-4.8 -4.8,-3.6 -4.8,-2.4 -4.8,-1.2 -3.6,-2.4 h -6 l -2.4,2.4 -6,1.2 -4.8,2.4 -4.8,3.6 -3.6,4.8 -2.4,4.8 -1.2,6 -1.2,2.4 v 7.2 l 1.2,2.4 1.2,6 2.4,4.8 3.6,4.8 4.8,3.6 4.8,2.4 6,2.4 h 6"
           style="fill:#000000;fill-opacity:1;fill-rule:evenodd;stroke:none"
           id="path4820"
           inkscape:connector-curvature="0" /><path
           d="m 1282.8,1644 h 6 l 4.8,-2.4 4.8,-2.4 4.8,-3.6 3.6,-4.8 2.4,-4.8 2.4,-6 v -12 l -2.4,-6 -2.4,-4.8 -3.6,-4.8 -4.8,-3.6 -4.8,-2.4 -4.8,-1.2 -3.6,-1.2 h -6 l -2.4,1.2 -6,1.2 -4.8,2.4 -4.8,3.6 -3.6,4.8 -2.4,4.8 -1.2,6 -1.2,2.4 v 7.2 l 1.2,2.4 1.2,6 2.4,4.8 3.6,4.8 4.8,3.6 4.8,2.4 6,2.4 z"
           style="fill:none;stroke:#000000;stroke-width:5;stroke-linecap:round;stroke-linejoin:round;stroke-miterlimit:10;stroke-dasharray:none;stroke-opacity:1"
           id="path4822"
           inkscape:connector-curvature="0" /><path
           d="m 1282.8,1644 h 6 l 4.8,-2.4 4.8,-2.4 4.8,-3.6 3.6,-4.8 2.4,-4.8 2.4,-6 v -12 l -2.4,-6 -2.4,-4.8 -3.6,-4.8 -4.8,-3.6 -4.8,-2.4 -4.8,-1.2 -3.6,-1.2 h -6 l -2.4,1.2 -6,1.2 -4.8,2.4 -4.8,3.6 -3.6,4.8 -2.4,4.8 -1.2,6 -1.2,2.4 v 7.2 l 1.2,2.4 1.2,6 2.4,4.8 3.6,4.8 4.8,3.6 4.8,2.4 6,2.4 z"
           style="fill:none;stroke:#000000;stroke-width:5;stroke-linecap:round;stroke-linejoin:round;stroke-miterlimit:10;stroke-dasharray:none;stroke-opacity:1"
           id="path4824"
           inkscape:connector-curvature="0" /><path
           d="m 1401.6,1615.2 69.6,34.8 -69.6,34.8 v -69.6"
           style="fill:#000000;fill-opacity:1;fill-rule:evenodd;stroke:none"
           id="path4826"
           inkscape:connector-curvature="0" /><path
           d="m 1114.8,1539.6 69.6,34.8 -69.6,34.8 v -69.6"
           style="fill:#000000;fill-opacity:1;fill-rule:evenodd;stroke:none"
           id="path4828"
           inkscape:connector-curvature="0" /><path
           d="m 1363.2,1518 -33.6,-69.6 h 69.6 l -36,69.6"
           style="fill:#000000;fill-opacity:1;fill-rule:evenodd;stroke:none"
           id="path4830"
           inkscape:connector-curvature="0" /><path
           d="m 1233.6,1797.6 -34.8,-69.6 h 69.6 l -34.8,69.6"
           style="fill:#000000;fill-opacity:1;fill-rule:evenodd;stroke:none"
           id="path4832"
           inkscape:connector-curvature="0" /></g></g></g></svg>