<?xml version="1.0" encoding="UTF-8" standalone="no"?>
<!-- Created with Inkscape (http://www.inkscape.org/) -->

<svg
   xmlns:dc="http://purl.org/dc/elements/1.1/"
   xmlns:cc="http://creativecommons.org/ns#"
   xmlns:rdf="http://www.w3.org/1999/02/22-rdf-syntax-ns#"
   xmlns:svg="http://www.w3.org/2000/svg"
   xmlns="http://www.w3.org/2000/svg"
   xmlns:sodipodi="http://sodipodi.sourceforge.net/DTD/sodipodi-0.dtd"
   xmlns:inkscape="http://www.inkscape.org/namespaces/inkscape"
   version="1.1"
   id="svg3262"
   xml:space="preserve"
   width="414.07999"
   height="237.33334"
   viewBox="0 0 414.07999 237.33334"
   sodipodi:docname="figSStructGraph4.svg"
   inkscape:version="0.92.2 (5c3e80d, 2017-08-06)"><metadata
     id="metadata3268"><rdf:RDF><cc:Work
         rdf:about=""><dc:format>image/svg+xml</dc:format><dc:type
           rdf:resource="http://purl.org/dc/dcmitype/StillImage" /><dc:title></dc:title></cc:Work></rdf:RDF></metadata><defs
     id="defs3266" /><sodipodi:namedview
     pagecolor="#ffffff"
     bordercolor="#666666"
     borderopacity="1"
     objecttolerance="10"
     gridtolerance="10"
     guidetolerance="10"
     inkscape:pageopacity="0"
     inkscape:pageshadow="2"
     inkscape:window-width="1391"
     inkscape:window-height="1014"
     id="namedview3264"
     showgrid="false"
     inkscape:zoom="3.0573803"
     inkscape:cx="207.03999"
     inkscape:cy="118.66667"
     inkscape:window-x="0"
     inkscape:window-y="0"
     inkscape:window-maximized="0"
     inkscape:current-layer="g3270" /><g
     id="g3270"
     inkscape:groupmode="layer"
     inkscape:label="figSStructGraph4"
     transform="matrix(1.3333333,0,0,-1.3333333,-13.76,245.11999)"><g
       id="g3272"
       transform="scale(0.1)"><g
         id="g3274"><path
           d="M 450,1112.4 1119.6,784.8"
           style="fill:none;stroke:#000000;stroke-width:1;stroke-linecap:round;stroke-linejoin:round;stroke-miterlimit:10;stroke-dasharray:10, 20;stroke-dashoffset:0;stroke-opacity:1"
           id="path3276"
           inkscape:connector-curvature="0" /><path
           d="M 118.8,1112.4 968.4,777.6"
           style="fill:none;stroke:#000000;stroke-width:1;stroke-linecap:round;stroke-linejoin:round;stroke-miterlimit:10;stroke-dasharray:10, 20;stroke-dashoffset:0;stroke-opacity:1"
           id="path3278"
           inkscape:connector-curvature="0" /><path
           d="m 442.8,792 684,-180"
           style="fill:none;stroke:#000000;stroke-width:1;stroke-linecap:round;stroke-linejoin:round;stroke-miterlimit:10;stroke-dasharray:10, 20;stroke-dashoffset:0;stroke-opacity:1"
           id="path3280"
           inkscape:connector-curvature="0" /><path
           d="M 118.8,784.8 957.6,615.6"
           style="fill:none;stroke:#000000;stroke-width:1;stroke-linecap:round;stroke-linejoin:round;stroke-miterlimit:10;stroke-dasharray:10, 20;stroke-dashoffset:0;stroke-opacity:1"
           id="path3282"
           inkscape:connector-curvature="0" /><path
           d="m 2641.2,492 h 363.6"
           style="fill:none;stroke:#000000;stroke-width:1;stroke-linecap:round;stroke-linejoin:round;stroke-miterlimit:10;stroke-dasharray:none;stroke-opacity:1"
           id="path3284"
           inkscape:connector-curvature="0" /><path
           d="M 2822.4,1332 V 968.4"
           style="fill:none;stroke:#000000;stroke-width:1;stroke-linecap:round;stroke-linejoin:round;stroke-miterlimit:10;stroke-dasharray:none;stroke-opacity:1"
           id="path3286"
           inkscape:connector-curvature="0" /><path
           d="M 2642.4,129.6 H 3006 v 723.6 h -363.6 z"
           style="fill:none;stroke:#000000;stroke-width:1;stroke-linecap:round;stroke-linejoin:round;stroke-miterlimit:10;stroke-dasharray:none;stroke-opacity:1"
           id="path3288"
           inkscape:connector-curvature="0" /><path
           d="m 2466,964.8 h 716.4 v 363.6 H 2466 Z"
           style="fill:none;stroke:#000000;stroke-width:1;stroke-linecap:round;stroke-linejoin:round;stroke-miterlimit:10;stroke-dasharray:none;stroke-opacity:1"
           id="path3290"
           inkscape:connector-curvature="0" /><path
           d="m 2642.4,1447.2 h 360 v 363.6 h -360 z"
           style="fill:none;stroke:#000000;stroke-width:1;stroke-linecap:round;stroke-linejoin:round;stroke-miterlimit:10;stroke-dasharray:none;stroke-opacity:1"
           id="path3292"
           inkscape:connector-curvature="0" /><path
           d="m 2822.4,134.4 -4.8,10.8 -6,9.6 -4.8,10.8 -3.6,10.8 -4.8,10.8 -3.6,10.8 -3.6,10.8 -3.6,12 -2.4,10.8 -2.4,10.8 -1.2,12 -2.4,12 -1.2,10.8 -1.2,12 V 336 l 1.2,10.8 1.2,12 1.2,10.8 2.4,12 2.4,10.8 2.4,10.8 3.6,12 3.6,10.8 3.6,10.8 3.6,10.8 4.8,10.8 4.8,10.8 4.8,9.6 6,10.8"
           style="fill:none;stroke:#a0a0a4;stroke-width:15;stroke-linecap:round;stroke-linejoin:round;stroke-miterlimit:10;stroke-dasharray:none;stroke-opacity:1"
           id="path3294"
           inkscape:connector-curvature="0" /><path
           d="m 2822.4,1627.2 v -180"
           style="fill:none;stroke:#a0a0a4;stroke-width:15;stroke-linecap:round;stroke-linejoin:round;stroke-miterlimit:10;stroke-dasharray:none;stroke-opacity:1"
           id="path3296"
           inkscape:connector-curvature="0" /><path
           d="m 2466,1150.8 10.8,6 10.8,4.8 9.6,4.8 10.8,4.8 10.8,3.6 10.8,3.6 12,3.6 10.8,3.6 10.8,2.4 12,2.4 10.8,2.4 12,1.2 10.8,1.2 12,1.2 h 12 l 10.8,1.2 12,-1.2 h 12 l 12,-1.2 10.8,-1.2 12,-1.2 10.8,-2.4 12,-2.4 10.8,-2.4 12,-3.6 10.8,-3.6 10.8,-3.6 10.8,-3.6 10.8,-4.8 10.8,-4.8 10.8,-6 9.6,-4.8"
           style="fill:none;stroke:#a0a0a4;stroke-width:15;stroke-linecap:round;stroke-linejoin:round;stroke-miterlimit:10;stroke-dasharray:none;stroke-opacity:1"
           id="path3298"
           inkscape:connector-curvature="0" /><path
           d="m 2622,1153.2 h 200.4"
           style="fill:none;stroke:#a0a0a4;stroke-width:15;stroke-linecap:round;stroke-linejoin:round;stroke-miterlimit:10;stroke-dasharray:none;stroke-opacity:1"
           id="path3300"
           inkscape:connector-curvature="0" /><path
           d="M 784.8,613.2 H 1452"
           style="fill:none;stroke:#000000;stroke-width:5;stroke-linecap:round;stroke-linejoin:round;stroke-miterlimit:10;stroke-dasharray:none;stroke-opacity:1"
           id="path3302"
           inkscape:connector-curvature="0" /><path
           d="M 784.8,781.2 H 1452"
           style="fill:none;stroke:#000000;stroke-width:5;stroke-linecap:round;stroke-linejoin:round;stroke-miterlimit:10;stroke-dasharray:none;stroke-opacity:1"
           id="path3304"
           inkscape:connector-curvature="0" /><path
           d="M 784.8,446.4 H 1452"
           style="fill:none;stroke:#000000;stroke-width:5;stroke-linecap:round;stroke-linejoin:round;stroke-miterlimit:10;stroke-dasharray:none;stroke-opacity:1"
           id="path3306"
           inkscape:connector-curvature="0" /><path
           d="m 952.8,946.8 v -666"
           style="fill:none;stroke:#000000;stroke-width:5;stroke-linecap:round;stroke-linejoin:round;stroke-miterlimit:10;stroke-dasharray:none;stroke-opacity:1"
           id="path3308"
           inkscape:connector-curvature="0" /><path
           d="m 1118.4,946.8 v -666"
           style="fill:none;stroke:#000000;stroke-width:5;stroke-linecap:round;stroke-linejoin:round;stroke-miterlimit:10;stroke-dasharray:none;stroke-opacity:1"
           id="path3310"
           inkscape:connector-curvature="0" /><path
           d="m 1286.4,946.8 v -666"
           style="fill:none;stroke:#000000;stroke-width:5;stroke-linecap:round;stroke-linejoin:round;stroke-miterlimit:10;stroke-dasharray:none;stroke-opacity:1"
           id="path3312"
           inkscape:connector-curvature="0" /><path
           d="m 786,946.8 v -666"
           style="fill:none;stroke:#000000;stroke-width:20;stroke-linecap:round;stroke-linejoin:round;stroke-miterlimit:10;stroke-dasharray:none;stroke-opacity:1"
           id="path3314"
           inkscape:connector-curvature="0" /><path
           d="m 1453.2,946.8 v -666"
           style="fill:none;stroke:#000000;stroke-width:20;stroke-linecap:round;stroke-linejoin:round;stroke-miterlimit:10;stroke-dasharray:none;stroke-opacity:1"
           id="path3316"
           inkscape:connector-curvature="0" /><path
           d="M 784.8,945.6 H 1452"
           style="fill:none;stroke:#000000;stroke-width:20;stroke-linecap:round;stroke-linejoin:round;stroke-miterlimit:10;stroke-dasharray:none;stroke-opacity:1"
           id="path3318"
           inkscape:connector-curvature="0" /><path
           d="m 784.8,279.6 h 668.4"
           style="fill:none;stroke:#000000;stroke-width:20;stroke-linecap:round;stroke-linejoin:round;stroke-miterlimit:10;stroke-dasharray:none;stroke-opacity:1"
           id="path3320"
           inkscape:connector-curvature="0" /><path
           d="m 1453.2,613.2 666,-164.4"
           style="fill:none;stroke:#000000;stroke-width:5;stroke-linecap:round;stroke-linejoin:round;stroke-miterlimit:10;stroke-dasharray:none;stroke-opacity:1"
           id="path3322"
           inkscape:connector-curvature="0" /><path
           d="m 1453.2,781.2 666,-249.6"
           style="fill:none;stroke:#000000;stroke-width:5;stroke-linecap:round;stroke-linejoin:round;stroke-miterlimit:10;stroke-dasharray:none;stroke-opacity:1"
           id="path3324"
           inkscape:connector-curvature="0" /><path
           d="m 1453.2,446.4 666,-81.6"
           style="fill:none;stroke:#000000;stroke-width:5;stroke-linecap:round;stroke-linejoin:round;stroke-miterlimit:10;stroke-dasharray:none;stroke-opacity:1"
           id="path3326"
           inkscape:connector-curvature="0" /><path
           d="M 1617.6,865.2 V 280.8"
           style="fill:none;stroke:#000000;stroke-width:5;stroke-linecap:round;stroke-linejoin:round;stroke-miterlimit:10;stroke-dasharray:none;stroke-opacity:1"
           id="path3328"
           inkscape:connector-curvature="0" /><path
           d="M 1784.4,782.4 V 280.8"
           style="fill:none;stroke:#000000;stroke-width:5;stroke-linecap:round;stroke-linejoin:round;stroke-miterlimit:10;stroke-dasharray:none;stroke-opacity:1"
           id="path3330"
           inkscape:connector-curvature="0" /><path
           d="M 1951.2,698.4 V 280.8"
           style="fill:none;stroke:#000000;stroke-width:5;stroke-linecap:round;stroke-linejoin:round;stroke-miterlimit:10;stroke-dasharray:none;stroke-opacity:1"
           id="path3332"
           inkscape:connector-curvature="0" /><path
           d="m 1453.2,945.6 v -666"
           style="fill:none;stroke:#000000;stroke-width:20;stroke-linecap:round;stroke-linejoin:round;stroke-miterlimit:10;stroke-dasharray:none;stroke-opacity:1"
           id="path3334"
           inkscape:connector-curvature="0" /><path
           d="M 2119.2,614.4 V 279.6"
           style="fill:none;stroke:#000000;stroke-width:20;stroke-linecap:round;stroke-linejoin:round;stroke-miterlimit:10;stroke-dasharray:none;stroke-opacity:1"
           id="path3336"
           inkscape:connector-curvature="0" /><path
           d="m 1453.2,945.6 666,-331.2"
           style="fill:none;stroke:#000000;stroke-width:20;stroke-linecap:round;stroke-linejoin:round;stroke-miterlimit:10;stroke-dasharray:none;stroke-opacity:1"
           id="path3338"
           inkscape:connector-curvature="0" /><path
           d="m 1453.2,279.6 h 666"
           style="fill:none;stroke:#000000;stroke-width:20;stroke-linecap:round;stroke-linejoin:round;stroke-miterlimit:10;stroke-dasharray:none;stroke-opacity:1"
           id="path3340"
           inkscape:connector-curvature="0" /><path
           d="m 784.8,1280.4 h 500.4"
           style="fill:none;stroke:#000000;stroke-width:5;stroke-linecap:round;stroke-linejoin:round;stroke-miterlimit:10;stroke-dasharray:none;stroke-opacity:1"
           id="path3342"
           inkscape:connector-curvature="0" /><path
           d="m 784.8,1447.2 h 416.4"
           style="fill:none;stroke:#000000;stroke-width:5;stroke-linecap:round;stroke-linejoin:round;stroke-miterlimit:10;stroke-dasharray:none;stroke-opacity:1"
           id="path3344"
           inkscape:connector-curvature="0" /><path
           d="M 784.8,1113.6 H 1368"
           style="fill:none;stroke:#000000;stroke-width:5;stroke-linecap:round;stroke-linejoin:round;stroke-miterlimit:10;stroke-dasharray:none;stroke-opacity:1"
           id="path3346"
           inkscape:connector-curvature="0" /><path
           d="m 868.8,1612.8 82.8,-666"
           style="fill:none;stroke:#000000;stroke-width:5;stroke-linecap:round;stroke-linejoin:round;stroke-miterlimit:10;stroke-dasharray:none;stroke-opacity:1"
           id="path3348"
           inkscape:connector-curvature="0" /><path
           d="M 952.8,1612.8 1118.4,945.6"
           style="fill:none;stroke:#000000;stroke-width:5;stroke-linecap:round;stroke-linejoin:round;stroke-miterlimit:10;stroke-dasharray:none;stroke-opacity:1"
           id="path3350"
           inkscape:connector-curvature="0" /><path
           d="M 1035.6,1612.8 1285.2,945.6"
           style="fill:none;stroke:#000000;stroke-width:5;stroke-linecap:round;stroke-linejoin:round;stroke-miterlimit:10;stroke-dasharray:none;stroke-opacity:1"
           id="path3352"
           inkscape:connector-curvature="0" /><path
           d="M 786,1612.8 V 945.6"
           style="fill:none;stroke:#000000;stroke-width:20;stroke-linecap:round;stroke-linejoin:round;stroke-miterlimit:10;stroke-dasharray:none;stroke-opacity:1"
           id="path3354"
           inkscape:connector-curvature="0" /><path
           d="M 1118.4,1612.8 1452,946.8"
           style="fill:none;stroke:#000000;stroke-width:20;stroke-linecap:round;stroke-linejoin:round;stroke-miterlimit:10;stroke-dasharray:none;stroke-opacity:1"
           id="path3356"
           inkscape:connector-curvature="0" /><path
           d="m 784.8,1612.8 h 333.6"
           style="fill:none;stroke:#000000;stroke-width:20;stroke-linecap:round;stroke-linejoin:round;stroke-miterlimit:10;stroke-dasharray:none;stroke-opacity:1"
           id="path3358"
           inkscape:connector-curvature="0" /><path
           d="m 784.8,945.6 h 668.4"
           style="fill:none;stroke:#000000;stroke-width:20;stroke-linecap:round;stroke-linejoin:round;stroke-miterlimit:10;stroke-dasharray:none;stroke-opacity:1"
           id="path3360"
           inkscape:connector-curvature="0" /><path
           d="m 1453.2,946.8 415.2,416.4"
           style="fill:none;stroke:#000000;stroke-width:20;stroke-linecap:round;stroke-linejoin:round;stroke-miterlimit:10;stroke-dasharray:none;stroke-opacity:1"
           id="path3362"
           inkscape:connector-curvature="0" /><path
           d="m 1700.4,1195.2 462,-276"
           style="fill:none;stroke:#000000;stroke-width:5;stroke-linecap:round;stroke-linejoin:round;stroke-miterlimit:10;stroke-dasharray:none;stroke-opacity:1"
           id="path3364"
           inkscape:connector-curvature="0" /><path
           d="m 1785.6,1279.2 387.6,-219.6"
           style="fill:none;stroke:#000000;stroke-width:5;stroke-linecap:round;stroke-linejoin:round;stroke-miterlimit:10;stroke-dasharray:none;stroke-opacity:1"
           id="path3366"
           inkscape:connector-curvature="0" /><path
           d="M 1575.6,1089.6 2142,780"
           style="fill:none;stroke:#000000;stroke-width:5;stroke-linecap:round;stroke-linejoin:round;stroke-miterlimit:10;stroke-dasharray:none;stroke-opacity:1"
           id="path3368"
           inkscape:connector-curvature="0" /><path
           d="M 1618.8,864 1956,1320"
           style="fill:none;stroke:#000000;stroke-width:5;stroke-linecap:round;stroke-linejoin:round;stroke-miterlimit:10;stroke-dasharray:none;stroke-opacity:1"
           id="path3370"
           inkscape:connector-curvature="0" /><path
           d="m 1785.6,782.4 249.6,498"
           style="fill:none;stroke:#000000;stroke-width:5;stroke-linecap:round;stroke-linejoin:round;stroke-miterlimit:10;stroke-dasharray:none;stroke-opacity:1"
           id="path3372"
           inkscape:connector-curvature="0" /><path
           d="m 1951.2,698.4 168,541.2"
           style="fill:none;stroke:#000000;stroke-width:5;stroke-linecap:round;stroke-linejoin:round;stroke-miterlimit:10;stroke-dasharray:none;stroke-opacity:1"
           id="path3374"
           inkscape:connector-curvature="0" /><path
           d="m 2119.2,614.4 84,583.2"
           style="fill:none;stroke:#000000;stroke-width:20;stroke-linecap:round;stroke-linejoin:round;stroke-miterlimit:10;stroke-dasharray:none;stroke-opacity:1"
           id="path3376"
           inkscape:connector-curvature="0" /><path
           d="m 1868.4,1363.2 334.8,-165.6"
           style="fill:none;stroke:#000000;stroke-width:20;stroke-linecap:round;stroke-linejoin:round;stroke-miterlimit:10;stroke-dasharray:none;stroke-opacity:1"
           id="path3378"
           inkscape:connector-curvature="0" /><path
           d="m 1453.2,946.8 666,-332.4"
           style="fill:none;stroke:#000000;stroke-width:20;stroke-linecap:round;stroke-linejoin:round;stroke-miterlimit:10;stroke-dasharray:none;stroke-opacity:1"
           id="path3380"
           inkscape:connector-curvature="0" /><path
           d="M 1423.2,1657.2 1694.4,1188"
           style="fill:none;stroke:#000000;stroke-width:5;stroke-linecap:round;stroke-linejoin:round;stroke-miterlimit:10;stroke-dasharray:none;stroke-opacity:1"
           id="path3382"
           inkscape:connector-curvature="0" /><path
           d="m 1562.4,1677.6 222,-399.6"
           style="fill:none;stroke:#000000;stroke-width:5;stroke-linecap:round;stroke-linejoin:round;stroke-miterlimit:10;stroke-dasharray:none;stroke-opacity:1"
           id="path3384"
           inkscape:connector-curvature="0" /><path
           d="m 1285.2,1636.8 296.4,-559.2"
           style="fill:none;stroke:#000000;stroke-width:5;stroke-linecap:round;stroke-linejoin:round;stroke-miterlimit:10;stroke-dasharray:none;stroke-opacity:1"
           id="path3386"
           inkscape:connector-curvature="0" /><path
           d="M 1201.2,1448.4 1742.4,1614"
           style="fill:none;stroke:#000000;stroke-width:5;stroke-linecap:round;stroke-linejoin:round;stroke-miterlimit:10;stroke-dasharray:none;stroke-opacity:1"
           id="path3388"
           inkscape:connector-curvature="0" /><path
           d="m 1285.2,1280.4 498,254.4"
           style="fill:none;stroke:#000000;stroke-width:5;stroke-linecap:round;stroke-linejoin:round;stroke-miterlimit:10;stroke-dasharray:none;stroke-opacity:1"
           id="path3390"
           inkscape:connector-curvature="0" /><path
           d="m 1369.2,1114.8 453.6,336"
           style="fill:none;stroke:#000000;stroke-width:5;stroke-linecap:round;stroke-linejoin:round;stroke-miterlimit:10;stroke-dasharray:none;stroke-opacity:1"
           id="path3392"
           inkscape:connector-curvature="0" /><path
           d="m 1118.4,1612.8 584.4,84"
           style="fill:none;stroke:#000000;stroke-width:20;stroke-linecap:round;stroke-linejoin:round;stroke-miterlimit:10;stroke-dasharray:none;stroke-opacity:1"
           id="path3394"
           inkscape:connector-curvature="0" /><path
           d="m 1452,948 414,412.8"
           style="fill:none;stroke:#000000;stroke-width:20;stroke-linecap:round;stroke-linejoin:round;stroke-miterlimit:10;stroke-dasharray:none;stroke-opacity:1"
           id="path3396"
           inkscape:connector-curvature="0" /><path
           d="m 1702.8,1696.8 163.2,-336"
           style="fill:none;stroke:#000000;stroke-width:20;stroke-linecap:round;stroke-linejoin:round;stroke-miterlimit:10;stroke-dasharray:none;stroke-opacity:1"
           id="path3398"
           inkscape:connector-curvature="0" /><path
           d="M 1118.4,1612.8 1453.2,945.6"
           style="fill:none;stroke:#000000;stroke-width:20;stroke-linecap:round;stroke-linejoin:round;stroke-miterlimit:10;stroke-dasharray:none;stroke-opacity:1"
           id="path3400"
           inkscape:connector-curvature="0" /><path
           d="m 121.2,783.6 h 330 v 328.8 h -330 z"
           style="fill:#ffffff;fill-opacity:1;fill-rule:evenodd;stroke:none"
           id="path3402"
           inkscape:connector-curvature="0" /><path
           d="m 121.2,783.6 h 330 v 328.8 h -330 z"
           style="fill:none;stroke:#000000;stroke-width:7.5;stroke-linecap:round;stroke-linejoin:round;stroke-miterlimit:10;stroke-dasharray:none;stroke-opacity:1"
           id="path3404"
           inkscape:connector-curvature="0" /><path
           d="m 285.6,966 h 3.6 l 3.6,-1.2 3.6,-2.4 2.4,-2.4 2.4,-2.4 1.2,-3.6 2.4,-3.6 v -7.2 l -2.4,-3.6 -1.2,-3.6 -2.4,-1.2 -2.4,-2.4 -3.6,-1.2 -3.6,-2.4 H 282 l -3.6,2.4 -2.4,1.2 -3.6,2.4 -1.2,1.2 -2.4,3.6 -1.2,3.6 v 7.2 l 1.2,3.6 2.4,3.6 1.2,2.4 3.6,2.4 2.4,2.4 3.6,1.2 h 3.6"
           style="fill:#000000;fill-opacity:1;fill-rule:evenodd;stroke:none"
           id="path3406"
           inkscape:connector-curvature="0" /><path
           d="m 285.6,966 h 3.6 l 3.6,-1.2 3.6,-2.4 2.4,-2.4 2.4,-2.4 1.2,-3.6 1.2,-3.6 v -7.2 l -1.2,-3.6 -1.2,-3.6 -2.4,-1.2 -2.4,-2.4 -3.6,-1.2 -3.6,-1.2 H 282 l -3.6,1.2 -2.4,1.2 -3.6,2.4 -1.2,1.2 -2.4,3.6 -1.2,3.6 v 7.2 l 1.2,3.6 2.4,3.6 1.2,2.4 3.6,2.4 2.4,2.4 3.6,1.2 z"
           style="fill:none;stroke:#000000;stroke-width:5;stroke-linecap:round;stroke-linejoin:round;stroke-miterlimit:10;stroke-dasharray:none;stroke-opacity:1"
           id="path3408"
           inkscape:connector-curvature="0" /><path
           d="m 285.6,966 h 3.6 l 3.6,-1.2 3.6,-2.4 2.4,-2.4 2.4,-2.4 1.2,-3.6 1.2,-3.6 v -7.2 l -1.2,-3.6 -1.2,-3.6 -2.4,-1.2 -2.4,-2.4 -3.6,-1.2 -3.6,-1.2 H 282 l -3.6,1.2 -2.4,1.2 -3.6,2.4 -1.2,1.2 -2.4,3.6 -1.2,3.6 v 7.2 l 1.2,3.6 2.4,3.6 1.2,2.4 3.6,2.4 2.4,2.4 3.6,1.2 z"
           style="fill:none;stroke:#000000;stroke-width:5;stroke-linecap:round;stroke-linejoin:round;stroke-miterlimit:10;stroke-dasharray:none;stroke-opacity:1"
           id="path3410"
           inkscape:connector-curvature="0" /><path
           d="m 436.8,922.8 43.2,22.8 -43.2,21.6 v -44.4"
           style="fill:#000000;fill-opacity:1;fill-rule:evenodd;stroke:none"
           id="path3412"
           inkscape:connector-curvature="0" /><path
           d="m 103.2,922.8 44.4,22.8 -44.4,21.6 v -44.4"
           style="fill:#000000;fill-opacity:1;fill-rule:evenodd;stroke:none"
           id="path3414"
           inkscape:connector-curvature="0" /><path
           d="m 286.8,1137.6 -20.4,-44.4 h 43.2 l -22.8,44.4"
           style="fill:#000000;fill-opacity:1;fill-rule:evenodd;stroke:none"
           id="path3416"
           inkscape:connector-curvature="0" /><path
           d="m 288,804 -21.6,-43.2 h 43.2 L 288,804"
           style="fill:#000000;fill-opacity:1;fill-rule:evenodd;stroke:none"
           id="path3418"
           inkscape:connector-curvature="0" /><path
           d="m 2820,1633.2 h 180"
           style="fill:none;stroke:#a0a0a4;stroke-width:15;stroke-linecap:round;stroke-linejoin:round;stroke-miterlimit:10;stroke-dasharray:none;stroke-opacity:1"
           id="path3420"
           inkscape:connector-curvature="0" /><path
           d="m 2640,1633.2 h 180"
           style="fill:none;stroke:#a0a0a4;stroke-width:15;stroke-linecap:round;stroke-linejoin:round;stroke-miterlimit:10;stroke-dasharray:none;stroke-opacity:1"
           id="path3422"
           inkscape:connector-curvature="0" /><path
           d="m 2821.2,1813.2 v -180"
           style="fill:none;stroke:#a0a0a4;stroke-width:15;stroke-linecap:round;stroke-linejoin:round;stroke-miterlimit:10;stroke-dasharray:none;stroke-opacity:1"
           id="path3424"
           inkscape:connector-curvature="0" /><path
           d="m 2982,1610.4 48,25.2 -48,22.8 v -48"
           style="fill:#000000;fill-opacity:1;fill-rule:evenodd;stroke:none"
           id="path3426"
           inkscape:connector-curvature="0" /><path
           d="m 2623.2,1610.4 46.8,25.2 -46.8,22.8 v -48"
           style="fill:#000000;fill-opacity:1;fill-rule:evenodd;stroke:none"
           id="path3428"
           inkscape:connector-curvature="0" /><path
           d="m 2822.4,1838.4 -24,-48 h 48 l -24,48"
           style="fill:#000000;fill-opacity:1;fill-rule:evenodd;stroke:none"
           id="path3430"
           inkscape:connector-curvature="0" /><path
           d="m 2822.4,1479.6 -24,-48 h 48 l -24,48"
           style="fill:#000000;fill-opacity:1;fill-rule:evenodd;stroke:none"
           id="path3432"
           inkscape:connector-curvature="0" /><path
           d="m 2820,495.6 178.8,178.8"
           style="fill:none;stroke:#a0a0a4;stroke-width:15;stroke-linecap:round;stroke-linejoin:round;stroke-miterlimit:10;stroke-dasharray:none;stroke-opacity:1"
           id="path3434"
           inkscape:connector-curvature="0" /><path
           d="M 2640,674.4 2820,495.6"
           style="fill:none;stroke:#a0a0a4;stroke-width:15;stroke-linecap:round;stroke-linejoin:round;stroke-miterlimit:10;stroke-dasharray:none;stroke-opacity:1"
           id="path3436"
           inkscape:connector-curvature="0" /><path
           d="m 2640,315.6 180,180"
           style="fill:none;stroke:#a0a0a4;stroke-width:15;stroke-linecap:round;stroke-linejoin:round;stroke-miterlimit:10;stroke-dasharray:none;stroke-opacity:1"
           id="path3438"
           inkscape:connector-curvature="0" /><path
           d="m 2820,495.6 178.8,-180"
           style="fill:none;stroke:#a0a0a4;stroke-width:15;stroke-linecap:round;stroke-linejoin:round;stroke-miterlimit:10;stroke-dasharray:none;stroke-opacity:1"
           id="path3440"
           inkscape:connector-curvature="0" /><path
           d="M 2820,674.4 V 495.6"
           style="fill:none;stroke:#a0a0a4;stroke-width:15;stroke-linecap:round;stroke-linejoin:round;stroke-miterlimit:10;stroke-dasharray:none;stroke-opacity:1"
           id="path3442"
           inkscape:connector-curvature="0" /><path
           d="m 2820,645.6 v -336"
           style="fill:none;stroke:#a0a0a4;stroke-width:15;stroke-linecap:round;stroke-linejoin:round;stroke-miterlimit:10;stroke-dasharray:none;stroke-opacity:1"
           id="path3444"
           inkscape:connector-curvature="0" /><path
           d="m 2822.4,496.8 -4.8,10.8 -6,9.6 -4.8,10.8 -3.6,10.8 -4.8,10.8 -3.6,10.8 -3.6,12 -3.6,10.8 -2.4,10.8 -2.4,12 -1.2,10.8 -2.4,12 -1.2,10.8 -1.2,12 v 46.8 l 1.2,12 1.2,10.8 2.4,12 1.2,10.8 2.4,12 2.4,10.8 3.6,12 3.6,10.8 3.6,10.8 4.8,10.8 3.6,10.8 4.8,10.8 6,10.8 4.8,9.6"
           style="fill:none;stroke:#a0a0a4;stroke-width:15;stroke-linecap:round;stroke-linejoin:round;stroke-miterlimit:10;stroke-dasharray:none;stroke-opacity:1"
           id="path3446"
           inkscape:connector-curvature="0" /><path
           d="m 2982,292.8 46.8,25.2 -46.8,22.8 v -48"
           style="fill:#000000;fill-opacity:1;fill-rule:evenodd;stroke:none"
           id="path3448"
           inkscape:connector-curvature="0" /><path
           d="m 2623.2,292.8 46.8,25.2 -46.8,22.8 v -48"
           style="fill:#000000;fill-opacity:1;fill-rule:evenodd;stroke:none"
           id="path3450"
           inkscape:connector-curvature="0" /><path
           d="m 2821.2,160.8 -22.8,-48 h 46.8 l -24,48"
           style="fill:#000000;fill-opacity:1;fill-rule:evenodd;stroke:none"
           id="path3452"
           inkscape:connector-curvature="0" /><path
           d="m 2982,651.6 46.8,25.2 -46.8,22.8 v -48"
           style="fill:#000000;fill-opacity:1;fill-rule:evenodd;stroke:none"
           id="path3454"
           inkscape:connector-curvature="0" /><path
           d="m 2623.2,651.6 46.8,25.2 -46.8,22.8 v -48"
           style="fill:#000000;fill-opacity:1;fill-rule:evenodd;stroke:none"
           id="path3456"
           inkscape:connector-curvature="0" /><path
           d="m 2821.2,879.6 -22.8,-48 h 46.8 l -24,48"
           style="fill:#000000;fill-opacity:1;fill-rule:evenodd;stroke:none"
           id="path3458"
           inkscape:connector-curvature="0" /><path
           d="m 2820,694.8 4.8,-1.2 3.6,-1.2 2.4,-1.2 3.6,-2.4 2.4,-3.6 1.2,-2.4 1.2,-4.8 2.4,-3.6 -2.4,-3.6 -1.2,-3.6 -1.2,-3.6 -2.4,-3.6 -3.6,-2.4 -2.4,-1.2 -3.6,-1.2 -4.8,-2.4 -3.6,2.4 -3.6,1.2 -3.6,1.2 -3.6,2.4 -2.4,3.6 -1.2,3.6 -1.2,3.6 v 7.2 l 1.2,4.8 1.2,2.4 2.4,3.6 3.6,2.4 3.6,1.2 3.6,1.2 3.6,1.2"
           style="fill:#000000;fill-opacity:1;fill-rule:evenodd;stroke:none"
           id="path3460"
           inkscape:connector-curvature="0" /><path
           d="m 2820,694.8 4.8,-1.2 3.6,-1.2 2.4,-1.2 3.6,-2.4 2.4,-3.6 1.2,-2.4 1.2,-4.8 1.2,-3.6 -1.2,-3.6 -1.2,-3.6 -1.2,-3.6 -2.4,-3.6 -3.6,-2.4 -2.4,-1.2 -3.6,-1.2 -4.8,-1.2 -3.6,1.2 -3.6,1.2 -3.6,1.2 -3.6,2.4 -2.4,3.6 -1.2,3.6 -1.2,3.6 v 7.2 l 1.2,4.8 1.2,2.4 2.4,3.6 3.6,2.4 3.6,1.2 3.6,1.2 z"
           style="fill:none;stroke:#000000;stroke-width:5;stroke-linecap:round;stroke-linejoin:round;stroke-miterlimit:10;stroke-dasharray:none;stroke-opacity:1"
           id="path3462"
           inkscape:connector-curvature="0" /><path
           d="m 2820,694.8 4.8,-1.2 3.6,-1.2 2.4,-1.2 3.6,-2.4 2.4,-3.6 1.2,-2.4 1.2,-4.8 1.2,-3.6 -1.2,-3.6 -1.2,-3.6 -1.2,-3.6 -2.4,-3.6 -3.6,-2.4 -2.4,-1.2 -3.6,-1.2 -4.8,-1.2 -3.6,1.2 -3.6,1.2 -3.6,1.2 -3.6,2.4 -2.4,3.6 -1.2,3.6 -1.2,3.6 v 7.2 l 1.2,4.8 1.2,2.4 2.4,3.6 3.6,2.4 3.6,1.2 3.6,1.2 z"
           style="fill:none;stroke:#000000;stroke-width:5;stroke-linecap:round;stroke-linejoin:round;stroke-miterlimit:10;stroke-dasharray:none;stroke-opacity:1"
           id="path3464"
           inkscape:connector-curvature="0" /><path
           d="m 2820,1154.4 180,178.8"
           style="fill:none;stroke:#a0a0a4;stroke-width:15;stroke-linecap:round;stroke-linejoin:round;stroke-miterlimit:10;stroke-dasharray:none;stroke-opacity:1"
           id="path3466"
           inkscape:connector-curvature="0" /><path
           d="m 2820,1154.4 180,-180"
           style="fill:none;stroke:#a0a0a4;stroke-width:15;stroke-linecap:round;stroke-linejoin:round;stroke-miterlimit:10;stroke-dasharray:none;stroke-opacity:1"
           id="path3468"
           inkscape:connector-curvature="0" /><path
           d="m 2640,1333.2 180,-178.8"
           style="fill:none;stroke:#a0a0a4;stroke-width:15;stroke-linecap:round;stroke-linejoin:round;stroke-miterlimit:10;stroke-dasharray:none;stroke-opacity:1"
           id="path3470"
           inkscape:connector-curvature="0" /><path
           d="m 2640,974.4 180,180"
           style="fill:none;stroke:#a0a0a4;stroke-width:15;stroke-linecap:round;stroke-linejoin:round;stroke-miterlimit:10;stroke-dasharray:none;stroke-opacity:1"
           id="path3472"
           inkscape:connector-curvature="0" /><path
           d="m 2820,1153.2 h 180"
           style="fill:none;stroke:#a0a0a4;stroke-width:15;stroke-linecap:round;stroke-linejoin:round;stroke-miterlimit:10;stroke-dasharray:none;stroke-opacity:1"
           id="path3474"
           inkscape:connector-curvature="0" /><path
           d="m 2826,1150.8 10.8,6 10.8,4.8 9.6,4.8 10.8,4.8 10.8,3.6 10.8,3.6 10.8,3.6 12,3.6 10.8,2.4 10.8,2.4 12,2.4 10.8,1.2 12,1.2 12,1.2 h 10.8 l 12,1.2 12,-1.2 h 10.8 l 12,-1.2 12,-1.2 10.8,-1.2 12,-2.4 10.8,-2.4 12,-2.4 10.8,-3.6 10.8,-3.6 10.8,-3.6 10.8,-3.6 10.8,-4.8 10.8,-4.8 10.8,-6 9.6,-4.8"
           style="fill:none;stroke:#a0a0a4;stroke-width:15;stroke-linecap:round;stroke-linejoin:round;stroke-miterlimit:10;stroke-dasharray:none;stroke-opacity:1"
           id="path3476"
           inkscape:connector-curvature="0" /><path
           d="m 2803.2,1132.8 45.6,22.8 -45.6,22.8 v -45.6"
           style="fill:#a0a0a4;fill-opacity:1;fill-rule:evenodd;stroke:none"
           id="path3478"
           inkscape:connector-curvature="0" /><path
           d="m 2803.2,1132.8 45.6,22.8 -45.6,22.8 v -45.6"
           style="fill:none;stroke:#000000;stroke-width:7.5;stroke-linecap:round;stroke-linejoin:round;stroke-miterlimit:10;stroke-dasharray:none;stroke-opacity:1"
           id="path3480"
           inkscape:connector-curvature="0" /><path
           d="m 2443.2,1131.6 48,24 -48,22.8 v -46.8"
           style="fill:#000000;fill-opacity:1;fill-rule:evenodd;stroke:none"
           id="path3482"
           inkscape:connector-curvature="0" /><path
           d="m 2642.4,1358.4 -24,-48 h 48 l -24,48"
           style="fill:#000000;fill-opacity:1;fill-rule:evenodd;stroke:none"
           id="path3484"
           inkscape:connector-curvature="0" /><path
           d="m 2642.4,999.6 -24,-48 h 48 l -24,48"
           style="fill:#000000;fill-opacity:1;fill-rule:evenodd;stroke:none"
           id="path3486"
           inkscape:connector-curvature="0" /><path
           d="m 3000,1358.4 -22.8,-48 h 48 l -25.2,48"
           style="fill:#000000;fill-opacity:1;fill-rule:evenodd;stroke:none"
           id="path3488"
           inkscape:connector-curvature="0" /><path
           d="m 3000,999.6 -22.8,-48 h 48 l -25.2,48"
           style="fill:#000000;fill-opacity:1;fill-rule:evenodd;stroke:none"
           id="path3490"
           inkscape:connector-curvature="0" /><path
           d="m 3162,1128 46.8,24 -46.8,24 v -48"
           style="fill:#000000;fill-opacity:1;fill-rule:evenodd;stroke:none"
           id="path3492"
           inkscape:connector-curvature="0" /><path
           d="m 3003.6,1173.6 3.6,-1.2 3.6,-1.2 3.6,-1.2 2.4,-2.4 2.4,-2.4 2.4,-3.6 2.4,-3.6 v -8.4 l -2.4,-3.6 -2.4,-2.4 -2.4,-3.6 -2.4,-2.4 -3.6,-1.2 -3.6,-1.2 -3.6,-2.4 -3.6,2.4 -3.6,1.2 -3.6,1.2 -3.6,2.4 -2.4,3.6 -1.2,2.4 -1.2,3.6 v 8.4 l 1.2,3.6 1.2,3.6 2.4,2.4 3.6,2.4 3.6,1.2 3.6,1.2 3.6,1.2"
           style="fill:#000000;fill-opacity:1;fill-rule:evenodd;stroke:none"
           id="path3494"
           inkscape:connector-curvature="0" /><path
           d="m 3003.6,1173.6 3.6,-1.2 3.6,-1.2 3.6,-1.2 2.4,-2.4 2.4,-2.4 2.4,-3.6 1.2,-3.6 v -8.4 l -1.2,-3.6 -2.4,-2.4 -2.4,-3.6 -2.4,-2.4 -3.6,-1.2 -3.6,-1.2 -3.6,-1.2 -3.6,1.2 -3.6,1.2 -3.6,1.2 -3.6,2.4 -2.4,3.6 -1.2,2.4 -1.2,3.6 v 8.4 l 1.2,3.6 1.2,3.6 2.4,2.4 3.6,2.4 3.6,1.2 3.6,1.2 z"
           style="fill:none;stroke:#000000;stroke-width:5;stroke-linecap:round;stroke-linejoin:round;stroke-miterlimit:10;stroke-dasharray:none;stroke-opacity:1"
           id="path3496"
           inkscape:connector-curvature="0" /><path
           d="m 3003.6,1173.6 3.6,-1.2 3.6,-1.2 3.6,-1.2 2.4,-2.4 2.4,-2.4 2.4,-3.6 1.2,-3.6 v -8.4 l -1.2,-3.6 -2.4,-2.4 -2.4,-3.6 -2.4,-2.4 -3.6,-1.2 -3.6,-1.2 -3.6,-1.2 -3.6,1.2 -3.6,1.2 -3.6,1.2 -3.6,2.4 -2.4,3.6 -1.2,2.4 -1.2,3.6 v 8.4 l 1.2,3.6 1.2,3.6 2.4,2.4 3.6,2.4 3.6,1.2 3.6,1.2 z"
           style="fill:none;stroke:#000000;stroke-width:5;stroke-linecap:round;stroke-linejoin:round;stroke-miterlimit:10;stroke-dasharray:none;stroke-opacity:1"
           id="path3498"
           inkscape:connector-curvature="0" /><path
           d="m 2552.4,68.3999 h 528 v 849.6 h -528 z"
           style="fill:none;stroke:#c00000;stroke-width:20;stroke-linecap:round;stroke-linejoin:round;stroke-miterlimit:10;stroke-dasharray:none;stroke-opacity:1"
           id="path3500"
           inkscape:connector-curvature="0" /><path
           d="M 2821.2,519.6 2798.4,474 h 45.6 l -22.8,45.6"
           style="fill:#a0a0a4;fill-opacity:1;fill-rule:evenodd;stroke:none"
           id="path3502"
           inkscape:connector-curvature="0" /><path
           d="M 2821.2,519.6 2798.4,474 h 45.6 l -22.8,45.6"
           style="fill:none;stroke:#000000;stroke-width:7.5;stroke-linecap:round;stroke-linejoin:round;stroke-miterlimit:10;stroke-dasharray:none;stroke-opacity:1"
           id="path3504"
           inkscape:connector-curvature="0" /><path
           d="m 2816.4,338.4 3.6,-1.2 3.6,-1.2 3.6,-1.2 2.4,-2.4 2.4,-2.4 2.4,-3.6 1.2,-3.6 v -8.4 l -1.2,-3.6 -2.4,-2.4 -2.4,-3.6 -2.4,-2.4 -3.6,-1.2 -3.6,-1.2 -3.6,-1.2 -3.6,1.2 -3.6,1.2 -3.6,1.2 -3.6,2.4 -2.4,3.6 -1.2,2.4 -1.2,3.6 v 8.4 l 1.2,3.6 1.2,3.6 2.4,2.4 3.6,2.4 3.6,1.2 3.6,1.2 3.6,1.2"
           style="fill:#000000;fill-opacity:1;fill-rule:evenodd;stroke:none"
           id="path3506"
           inkscape:connector-curvature="0" /><path
           d="m 2816.4,338.4 3.6,-1.2 3.6,-1.2 3.6,-1.2 2.4,-2.4 2.4,-2.4 2.4,-3.6 1.2,-3.6 v -8.4 l -1.2,-3.6 -2.4,-2.4 -2.4,-3.6 -2.4,-2.4 -3.6,-1.2 -3.6,-1.2 -3.6,-1.2 -3.6,1.2 -3.6,1.2 -3.6,1.2 -3.6,2.4 -2.4,3.6 -1.2,2.4 -1.2,3.6 v 8.4 l 1.2,3.6 1.2,3.6 2.4,2.4 3.6,2.4 3.6,1.2 3.6,1.2 3.6,1.2"
           style="fill:none;stroke:#000000;stroke-width:5;stroke-linecap:round;stroke-linejoin:round;stroke-miterlimit:10;stroke-dasharray:none;stroke-opacity:1"
           id="path3508"
           inkscape:connector-curvature="0" /><path
           d="m 2643.6,1170 3.6,-1.2 3.6,-1.2 3.6,-1.2 2.4,-2.4 2.4,-2.4 2.4,-3.6 1.2,-3.6 v -8.4 l -1.2,-3.6 -2.4,-2.4 -2.4,-3.6 -2.4,-2.4 -3.6,-1.2 -3.6,-1.2 -3.6,-1.2 -3.6,1.2 -3.6,1.2 -3.6,1.2 -3.6,2.4 -2.4,3.6 -1.2,2.4 -1.2,3.6 v 8.4 l 1.2,3.6 1.2,3.6 2.4,2.4 3.6,2.4 3.6,1.2 3.6,1.2 3.6,1.2"
           style="fill:#000000;fill-opacity:1;fill-rule:evenodd;stroke:none"
           id="path3510"
           inkscape:connector-curvature="0" /><path
           d="m 2643.6,1170 3.6,-1.2 3.6,-1.2 3.6,-1.2 2.4,-2.4 2.4,-2.4 2.4,-3.6 1.2,-3.6 v -8.4 l -1.2,-3.6 -2.4,-2.4 -2.4,-3.6 -2.4,-2.4 -3.6,-1.2 -3.6,-1.2 -3.6,-1.2 -3.6,1.2 -3.6,1.2 -3.6,1.2 -3.6,2.4 -2.4,3.6 -1.2,2.4 -1.2,3.6 v 8.4 l 1.2,3.6 1.2,3.6 2.4,2.4 3.6,2.4 3.6,1.2 3.6,1.2 3.6,1.2"
           style="fill:none;stroke:#000000;stroke-width:5;stroke-linecap:round;stroke-linejoin:round;stroke-miterlimit:10;stroke-dasharray:none;stroke-opacity:1"
           id="path3512"
           inkscape:connector-curvature="0" /><path
           d="m 2820,1652.4 3.6,-1.2 3.6,-1.2 3.6,-1.2 2.4,-2.4 2.4,-2.4 2.4,-3.6 1.2,-3.6 v -8.4 l -1.2,-3.6 -2.4,-2.4 -2.4,-3.6 -2.4,-2.4 -3.6,-1.2 -3.6,-1.2 -3.6,-1.2 -3.6,1.2 -3.6,1.2 -3.6,1.2 -3.6,2.4 -2.4,3.6 -1.2,2.4 -1.2,3.6 v 8.4 l 1.2,3.6 1.2,3.6 2.4,2.4 3.6,2.4 3.6,1.2 3.6,1.2 3.6,1.2"
           style="fill:#a0a0a4;fill-opacity:1;fill-rule:evenodd;stroke:none"
           id="path3514"
           inkscape:connector-curvature="0" /><path
           d="m 2820,1652.4 3.6,-1.2 3.6,-1.2 3.6,-1.2 2.4,-2.4 2.4,-2.4 2.4,-3.6 1.2,-3.6 v -8.4 l -1.2,-3.6 -2.4,-2.4 -2.4,-3.6 -2.4,-2.4 -3.6,-1.2 -3.6,-1.2 -3.6,-1.2 -3.6,1.2 -3.6,1.2 -3.6,1.2 -3.6,2.4 -2.4,3.6 -1.2,2.4 -1.2,3.6 v 8.4 l 1.2,3.6 1.2,3.6 2.4,2.4 3.6,2.4 3.6,1.2 3.6,1.2 3.6,1.2"
           style="fill:none;stroke:#000000;stroke-width:7.5;stroke-linecap:round;stroke-linejoin:round;stroke-miterlimit:10;stroke-dasharray:none;stroke-opacity:1"
           id="path3516"
           inkscape:connector-curvature="0" /></g></g></g></svg>