<?xml version="1.0" encoding="UTF-8" standalone="no"?>
<!-- Created with Inkscape (http://www.inkscape.org/) -->

<svg
   xmlns:dc="http://purl.org/dc/elements/1.1/"
   xmlns:cc="http://creativecommons.org/ns#"
   xmlns:rdf="http://www.w3.org/1999/02/22-rdf-syntax-ns#"
   xmlns:svg="http://www.w3.org/2000/svg"
   xmlns="http://www.w3.org/2000/svg"
   xmlns:sodipodi="http://sodipodi.sourceforge.net/DTD/sodipodi-0.dtd"
   xmlns:inkscape="http://www.inkscape.org/namespaces/inkscape"
   version="1.1"
   id="svg3932"
   xml:space="preserve"
   width="218.37891"
   height="218.86073"
   viewBox="0 0 218.37891 218.86074"
   sodipodi:docname="figSStructGrid2.svg"
   inkscape:version="0.92.2 (5c3e80d, 2017-08-06)"><metadata
     id="metadata3938"><rdf:RDF><cc:Work
         rdf:about=""><dc:format>image/svg+xml</dc:format><dc:type
           rdf:resource="http://purl.org/dc/dcmitype/StillImage" /><dc:title></dc:title></cc:Work></rdf:RDF></metadata><defs
     id="defs3936" /><sodipodi:namedview
     pagecolor="#ffffff"
     bordercolor="#666666"
     borderopacity="1"
     objecttolerance="10"
     gridtolerance="10"
     guidetolerance="10"
     inkscape:pageopacity="0"
     inkscape:pageshadow="2"
     inkscape:window-width="1321"
     inkscape:window-height="965"
     id="namedview3934"
     showgrid="false"
     inkscape:zoom="3.4999425"
     inkscape:cx="109.18946"
     inkscape:cy="109.43037"
     inkscape:window-x="0"
     inkscape:window-y="0"
     inkscape:window-maximized="0"
     inkscape:current-layer="g3940" /><g
     id="g3940"
     inkscape:groupmode="layer"
     inkscape:label="figSStructGrid2"
     transform="matrix(1.3333333,0,0,-1.3333333,-91.447864,249.6704)"><g
       id="g3942"
       transform="scale(0.1)"><g
         id="g3944"><path
           d="m 696,1682.4 720,-1441.2 892.8,896.4 -354,724.8 -1258.8,-180"
           style="fill:#ffe0e0;fill-opacity:1;fill-rule:evenodd;stroke:none"
           id="path3946"
           inkscape:connector-curvature="0" /><path
           d="m 696,1682.4 720,-1441.2 892.8,896.4 -354,724.8 -1258.8,-180"
           style="fill:none;stroke:#a00000;stroke-width:7.5;stroke-linecap:butt;stroke-linejoin:round;stroke-miterlimit:10;stroke-dasharray:none;stroke-opacity:1"
           id="path3948"
           inkscape:connector-curvature="0" /><path
           d="m 696,1682.4 718.8,-1440"
           style="fill:none;stroke:#c0c0c0;stroke-width:20;stroke-linecap:round;stroke-linejoin:round;stroke-miterlimit:10;stroke-dasharray:none;stroke-opacity:1"
           id="path3950"
           inkscape:connector-curvature="0" /><path
           d="M 696,1682.4 1416,241.2"
           style="fill:none;stroke:#c0c0c0;stroke-width:20;stroke-linecap:round;stroke-linejoin:round;stroke-miterlimit:10;stroke-dasharray:none;stroke-opacity:1"
           id="path3952"
           inkscape:connector-curvature="0" /><path
           d="m 1416,242.4 897.6,900"
           style="fill:none;stroke:#c0c0c0;stroke-width:20;stroke-linecap:round;stroke-linejoin:round;stroke-miterlimit:10;stroke-dasharray:none;stroke-opacity:1"
           id="path3954"
           inkscape:connector-curvature="0" /><path
           d="m 1413.6,246 895.2,891.6"
           style="fill:none;stroke:#c0c0c0;stroke-width:20;stroke-linecap:round;stroke-linejoin:round;stroke-miterlimit:10;stroke-dasharray:none;stroke-opacity:1"
           id="path3956"
           inkscape:connector-curvature="0" /><path
           d="M 1350,1776 1953.6,782.4"
           style="fill:none;stroke:#c0c0c0;stroke-width:5;stroke-linecap:round;stroke-linejoin:round;stroke-miterlimit:10;stroke-dasharray:none;stroke-opacity:1"
           id="path3958"
           inkscape:connector-curvature="0" /><path
           d="M 1652.4,1820.4 2133.6,961.2"
           style="fill:none;stroke:#c0c0c0;stroke-width:5;stroke-linecap:round;stroke-linejoin:round;stroke-miterlimit:10;stroke-dasharray:none;stroke-opacity:1"
           id="path3960"
           inkscape:connector-curvature="0" /><path
           d="M 1053.6,1734 1716,547.2"
           style="fill:none;stroke:#c0c0c0;stroke-width:5;stroke-linecap:round;stroke-linejoin:round;stroke-miterlimit:10;stroke-dasharray:none;stroke-opacity:1"
           id="path3962"
           inkscape:connector-curvature="0" /><path
           d="m 874.8,1324.8 1165.2,360"
           style="fill:none;stroke:#c0c0c0;stroke-width:5;stroke-linecap:round;stroke-linejoin:round;stroke-miterlimit:10;stroke-dasharray:none;stroke-opacity:1"
           id="path3964"
           inkscape:connector-curvature="0" /><path
           d="M 1054.8,964.8 2125.2,1512"
           style="fill:none;stroke:#c0c0c0;stroke-width:5;stroke-linecap:round;stroke-linejoin:round;stroke-miterlimit:10;stroke-dasharray:none;stroke-opacity:1"
           id="path3966"
           inkscape:connector-curvature="0" /><path
           d="m 1234.8,604.8 978,727.2"
           style="fill:none;stroke:#c0c0c0;stroke-width:5;stroke-linecap:round;stroke-linejoin:round;stroke-miterlimit:10;stroke-dasharray:none;stroke-opacity:1"
           id="path3968"
           inkscape:connector-curvature="0" /><path
           d="m 696,1682.4 1258.8,180"
           style="fill:none;stroke:#a00000;stroke-width:20;stroke-linecap:round;stroke-linejoin:round;stroke-miterlimit:10;stroke-dasharray:none;stroke-opacity:1"
           id="path3970"
           inkscape:connector-curvature="0" /><path
           d="m 1954.8,1862.4 354,-724.8"
           style="fill:none;stroke:#a00000;stroke-width:20;stroke-linecap:round;stroke-linejoin:round;stroke-miterlimit:10;stroke-dasharray:none;stroke-opacity:1"
           id="path3972"
           inkscape:connector-curvature="0" /><g
           id="g3974"
           transform="scale(10)"><text
             transform="matrix(0.871795,0,0,-1,138.12,50.4)"
             style="font-style:italic;font-variant:normal;font-size:10px;font-family:'Times New Roman';-inkscape-font-specification:Times-Italic;writing-mode:lr-tb;fill:#c0c0c0;fill-opacity:1;fill-rule:nonzero;stroke:none"
             id="text3978"><tspan
               x="0 3.3299999 8.3299999 10.82998 15.82998 19.159981"
               y="0"
               sodipodi:role="line"
               id="tspan3976">(1,1)</tspan></text>
</g><g
           id="g3980"
           transform="scale(10)"><text
             transform="matrix(0.871795,0,0,-1,176.52,169.92)"
             style="font-style:italic;font-variant:normal;font-size:10px;font-family:'Times New Roman';-inkscape-font-specification:Times-Italic;writing-mode:lr-tb;fill:#c0c0c0;fill-opacity:1;fill-rule:nonzero;stroke:none"
             id="text3984"><tspan
               x="0 3.3299999 8.3299999 10.82998 15.82998 19.159981"
               y="0"
               sodipodi:role="line"
               id="tspan3982">(4,4)</tspan></text>
</g><path
           d="m 1594.8,1381.2 h 18 l 19.2,-1.2 18,-1.2 18,-1.2 18,-2.4 16.8,-2.4 18,-3.6 15.6,-2.4 16.8,-4.8 15.6,-3.6 15.6,-4.8 14.4,-4.8 14.4,-6 14.4,-6 13.2,-6 12,-6 12,-7.2 12,-7.2 10.8,-7.2 10.8,-7.2 9.6,-8.4 8.4,-8.4 8.4,-8.4 7.2,-8.4 6,-8.4 6,-9.6 4.8,-9.6 4.8,-8.4 2.4,-9.6 2.4,-10.8 1.2,-9.6 2.4,-9.6 -2.4,-10.8 -1.2,-9.6 -2.4,-9.6 -2.4,-9.6 -4.8,-9.6 -4.8,-9.6 -6,-8.4 -6,-8.4 -7.2,-9.6 -8.4,-8.4 -8.4,-7.2 -9.6,-8.4 -10.8,-7.2 -10.8,-8.4 -12,-6 -12,-7.2 -12,-7.2 -13.2,-6 -14.4,-4.8 -14.4,-6 -14.4,-4.8 -15.6,-4.8 -15.6,-4.8 -16.8,-3.6 -15.6,-3.6 -18,-2.4 -16.8,-3.6 -18,-1.2 -18,-2.4 -18,-1.2 -19.2,-1.2 h -37.2 l -19.2,1.2 -18,1.2 -18,2.4 -18,1.2 -16.8,3.6 -16.8,2.4 -15.6,3.6 -16.8,3.6 -15.6,4.8 -15.6,4.8 -14.4,4.8 -14.4,6 -14.4,4.8 -13.2,6 -12,7.2 -12,7.2 -12,6 -10.8,8.4 -9.6,7.2 -9.6,8.4 -9.6,7.2 -8.4,8.4 -7.2,9.6 -6,8.4 -6,8.4 -4.8,9.6 -3.6,9.6 -3.6,9.6 -2.4,9.6 -1.2,9.6 -1.2,10.8 1.2,9.6 1.2,9.6 2.4,10.8 3.6,9.6 3.6,8.4 4.8,9.6 6,9.6 6,8.4 7.2,8.4 8.4,8.4 9.6,8.4 9.6,8.4 9.6,7.2 10.8,7.2 12,7.2 12,7.2 12,6 13.2,6 14.4,6 14.4,6 14.4,4.8 15.6,4.8 15.6,3.6 16.8,4.8 15.6,2.4 16.8,3.6 16.8,2.4 18,2.4 18,1.2 18,1.2 19.2,1.2 h 19.2"
           style="fill:#ffffff;fill-opacity:1;fill-rule:evenodd;stroke:none"
           id="path3986"
           inkscape:connector-curvature="0" /><g
           id="g3988"
           transform="scale(10)"><text
             transform="matrix(0.873418,0,0,-1,136.56,112.56)"
             style="font-style:italic;font-variant:normal;font-weight:bold;font-size:19.75px;font-family:'Times New Roman';-inkscape-font-specification:Times-BoldItalic;writing-mode:lr-tb;fill:#c0c0c0;fill-opacity:1;fill-rule:nonzero;stroke:none"
             id="text3992"><tspan
               x="0 9.875 19.75 27.43273 32.92321 37.86071 47.73571"
               y="0"
               sodipodi:role="line"
               id="tspan3990">part 3</tspan></text>
</g><path
           d="m 696,1682.4 718.8,-1440"
           style="fill:none;stroke:#a00000;stroke-width:20;stroke-linecap:round;stroke-linejoin:round;stroke-miterlimit:10;stroke-dasharray:none;stroke-opacity:1"
           id="path3994"
           inkscape:connector-curvature="0" /><path
           d="m 1416,242.4 897.6,900"
           style="fill:none;stroke:#a00000;stroke-width:20;stroke-linecap:round;stroke-linejoin:round;stroke-miterlimit:10;stroke-dasharray:none;stroke-opacity:1"
           id="path3996"
           inkscape:connector-curvature="0" /><path
           d="M 1350,1776 1953.6,782.4"
           style="fill:none;stroke:#a00000;stroke-width:5;stroke-linecap:round;stroke-linejoin:round;stroke-miterlimit:10;stroke-dasharray:none;stroke-opacity:1"
           id="path3998"
           inkscape:connector-curvature="0" /><path
           d="M 1652.4,1820.4 2133.6,961.2"
           style="fill:none;stroke:#a00000;stroke-width:5;stroke-linecap:round;stroke-linejoin:round;stroke-miterlimit:10;stroke-dasharray:none;stroke-opacity:1"
           id="path4000"
           inkscape:connector-curvature="0" /><path
           d="M 1053.6,1734 1716,547.2"
           style="fill:none;stroke:#a00000;stroke-width:5;stroke-linecap:round;stroke-linejoin:round;stroke-miterlimit:10;stroke-dasharray:none;stroke-opacity:1"
           id="path4002"
           inkscape:connector-curvature="0" /><path
           d="m 874.8,1324.8 1165.2,360"
           style="fill:none;stroke:#a00000;stroke-width:5;stroke-linecap:round;stroke-linejoin:round;stroke-miterlimit:10;stroke-dasharray:none;stroke-opacity:1"
           id="path4004"
           inkscape:connector-curvature="0" /><path
           d="M 1054.8,964.8 2125.2,1512"
           style="fill:none;stroke:#a00000;stroke-width:5;stroke-linecap:round;stroke-linejoin:round;stroke-miterlimit:10;stroke-dasharray:none;stroke-opacity:1"
           id="path4006"
           inkscape:connector-curvature="0" /><path
           d="m 1234.8,604.8 978,727.2"
           style="fill:none;stroke:#a00000;stroke-width:5;stroke-linecap:round;stroke-linejoin:round;stroke-miterlimit:10;stroke-dasharray:none;stroke-opacity:1"
           id="path4008"
           inkscape:connector-curvature="0" /><g
           id="g4010"
           transform="scale(10)"><text
             transform="matrix(0.871795,0,0,-1,138.12,50.4)"
             style="font-style:italic;font-variant:normal;font-size:10px;font-family:'Times New Roman';-inkscape-font-specification:Times-Italic;writing-mode:lr-tb;fill:#a00000;fill-opacity:1;fill-rule:nonzero;stroke:none"
             id="text4014"><tspan
               x="0 3.3299999 8.3299999 10.82998 15.82998 19.159981"
               y="0"
               sodipodi:role="line"
               id="tspan4012">(1,1)</tspan></text>
</g><g
           id="g4016"
           transform="scale(10)"><text
             transform="matrix(0.871795,0,0,-1,176.52,169.92)"
             style="font-style:italic;font-variant:normal;font-size:10px;font-family:'Times New Roman';-inkscape-font-specification:Times-Italic;writing-mode:lr-tb;fill:#a00000;fill-opacity:1;fill-rule:nonzero;stroke:none"
             id="text4020"><tspan
               x="0 3.3299999 8.3299999 10.82998 15.82998 19.159981"
               y="0"
               sodipodi:role="line"
               id="tspan4018">(4,4)</tspan></text>
</g><path
           d="m 1594.8,1381.2 h 18 l 19.2,-1.2 18,-1.2 18,-1.2 18,-2.4 16.8,-2.4 18,-3.6 15.6,-2.4 16.8,-4.8 15.6,-3.6 15.6,-4.8 14.4,-4.8 14.4,-6 14.4,-6 13.2,-6 12,-6 12,-7.2 12,-7.2 10.8,-7.2 10.8,-7.2 9.6,-8.4 8.4,-8.4 8.4,-8.4 7.2,-8.4 6,-8.4 6,-9.6 4.8,-9.6 4.8,-8.4 2.4,-9.6 2.4,-10.8 1.2,-9.6 2.4,-9.6 -2.4,-10.8 -1.2,-9.6 -2.4,-9.6 -2.4,-9.6 -4.8,-9.6 -4.8,-9.6 -6,-8.4 -6,-8.4 -7.2,-9.6 -8.4,-8.4 -8.4,-7.2 -9.6,-8.4 -10.8,-7.2 -10.8,-8.4 -12,-6 -12,-7.2 -12,-7.2 -13.2,-6 -14.4,-4.8 -14.4,-6 -14.4,-4.8 -15.6,-4.8 -15.6,-4.8 -16.8,-3.6 -15.6,-3.6 -18,-2.4 -16.8,-3.6 -18,-1.2 -18,-2.4 -18,-1.2 -19.2,-1.2 h -37.2 l -19.2,1.2 -18,1.2 -18,2.4 -18,1.2 -16.8,3.6 -16.8,2.4 -15.6,3.6 -16.8,3.6 -15.6,4.8 -15.6,4.8 -14.4,4.8 -14.4,6 -14.4,4.8 -13.2,6 -12,7.2 -12,7.2 -12,6 -10.8,8.4 -9.6,7.2 -9.6,8.4 -9.6,7.2 -8.4,8.4 -7.2,9.6 -6,8.4 -6,8.4 -4.8,9.6 -3.6,9.6 -3.6,9.6 -2.4,9.6 -1.2,9.6 -1.2,10.8 1.2,9.6 1.2,9.6 2.4,10.8 3.6,9.6 3.6,8.4 4.8,9.6 6,9.6 6,8.4 7.2,8.4 8.4,8.4 9.6,8.4 9.6,8.4 9.6,7.2 10.8,7.2 12,7.2 12,7.2 12,6 13.2,6 14.4,6 14.4,6 14.4,4.8 15.6,4.8 15.6,3.6 16.8,4.8 15.6,2.4 16.8,3.6 16.8,2.4 18,2.4 18,1.2 18,1.2 19.2,1.2 h 19.2"
           style="fill:#ffe0e0;fill-opacity:1;fill-rule:evenodd;stroke:none"
           id="path4022"
           inkscape:connector-curvature="0" /><g
           id="g4024"
           transform="scale(10)"><text
             transform="matrix(0.873418,0,0,-1,136.56,112.56)"
             style="font-style:italic;font-variant:normal;font-weight:bold;font-size:19.75px;font-family:'Times New Roman';-inkscape-font-specification:Times-BoldItalic;writing-mode:lr-tb;fill:#a00000;fill-opacity:1;fill-rule:nonzero;stroke:none"
             id="text4028"><tspan
               x="0 9.875 19.75 27.43273 32.92321 37.86071 47.73571"
               y="0"
               sodipodi:role="line"
               id="tspan4026">part 3</tspan></text>
</g></g></g></g></svg>