<?xml version="1.0" encoding="UTF-8" standalone="no"?>
<!-- Created with Inkscape (http://www.inkscape.org/) -->

<svg
   xmlns:dc="http://purl.org/dc/elements/1.1/"
   xmlns:cc="http://creativecommons.org/ns#"
   xmlns:rdf="http://www.w3.org/1999/02/22-rdf-syntax-ns#"
   xmlns:svg="http://www.w3.org/2000/svg"
   xmlns="http://www.w3.org/2000/svg"
   xmlns:sodipodi="http://sodipodi.sourceforge.net/DTD/sodipodi-0.dtd"
   xmlns:inkscape="http://www.inkscape.org/namespaces/inkscape"
   version="1.1"
   id="svg7826"
   xml:space="preserve"
   width="525.80347"
   height="184.66798"
   viewBox="0 0 525.80347 184.66799"
   sodipodi:docname="hypre_wiw.svg"
   inkscape:version="0.92.2 (5c3e80d, 2017-08-06)"><metadata
     id="metadata7832"><rdf:RDF><cc:Work
         rdf:about=""><dc:format>image/svg+xml</dc:format><dc:type
           rdf:resource="http://purl.org/dc/dcmitype/StillImage" /><dc:title></dc:title></cc:Work></rdf:RDF></metadata><defs
     id="defs7830" /><sodipodi:namedview
     pagecolor="#ffffff"
     bordercolor="#666666"
     borderopacity="1"
     objecttolerance="10"
     gridtolerance="10"
     guidetolerance="10"
     inkscape:pageopacity="0"
     inkscape:pageshadow="2"
     inkscape:window-width="1306"
     inkscape:window-height="953"
     id="namedview7828"
     showgrid="false"
     inkscape:zoom="2.2460864"
     inkscape:cx="262.90173"
     inkscape:cy="92.333992"
     inkscape:window-x="0"
     inkscape:window-y="0"
     inkscape:window-maximized="0"
     inkscape:current-layer="g7834" /><g
     id="g7834"
     inkscape:groupmode="layer"
     inkscape:label="hypre_wiw"
     transform="matrix(1.3333333,0,0,-1.3333333,-0.44986932,184.94666)"><g
       id="g7836"
       transform="scale(0.1)"><g
         id="g7838"><path
           d="m 888.066,1001.55 c 30.137,62.76 54.229,113.82 67.149,143.61 41.992,96.8 -7.778,85.1 2.373,108.5 4.614,10.64 11.367,12.77 18.115,14.89 84.267,26.6 174.207,84.76 188.727,84.76 6.78,0 7.84,-4.26 3.68,-13.83 -4.61,-10.64 -38.98,-78.72 -79.44,-156.38 L 961.924,931.226 954.028,915.107 c 68.672,53.164 212.252,114.693 293.232,114.693 80.91,0 136.95,-37.188 92.67,-139.258 -7.38,-17.012 -22.64,-49.976 -43.55,-89.316 L 1182.84,582.192 c -9.32,-17.011 -14.86,-29.77 -17.62,-36.147 -5.07,-11.699 -1.09,-15.952 6.68,-15.952 6.81,0 12.07,3.193 21.69,7.446 l 12.48,6.377 0.35,-14.883 -143.38,-63.686 c -14.51,-6.382 -33.38,-13.824 -43.16,-13.824 -9.78,0 -10.46,7.442 -5.38,19.141 2.71,8.506 11.58,24.453 22.24,46.782 l 112.52,227.539 c 13.94,27.647 24.15,48.911 29.68,61.67 40.59,93.565 30.53,144.615 -57.27,144.615 -91.7,0 -181.48,-68.062 -223.306,-148.868 L 735.249,486.611 c -3.735,-6.377 -56.558,-34.751 -67.114,-39.004 l -27.364,-11.699 c -9.619,-4.253 -16.372,-6.377 -22.202,-6.377 -3.881,0 -4.956,4.253 -1.728,11.695 7.383,17.011 20.854,43.593 37.554,77.617 l 233.671,482.707"
           style="fill:#000000;fill-opacity:1;fill-rule:nonzero;stroke:none"
           id="path7840"
           inkscape:connector-curvature="0" /><path
           d="m 1525.88,1013.81 c 23.54,11.7 30.3,13.84 38.07,13.84 9.72,0 9.64,-18.09 8.19,-39.349 -3.17,-65.913 -31.09,-213.682 -45.98,-432.036 202.64,206.992 281.37,305.063 293.8,333.725 12.89,29.722 -8.26,39.282 -39.39,39.282 -44.75,0 -58.17,-8.501 -96.3,-40.341 l -9.43,7.431 100.43,89.331 c 19,19.117 91.09,23.787 139.73,23.787 54.25,0 78.92,-21.248 65.09,-53.123 -13.35,-30.791 -27.91,-50.961 -359.84,-386.401 -64.08,-64.751 -243.98,-266.435 -253.65,-288.726 -4.14,-9.555 -1.58,-14.863 6.2,-14.863 7.79,0 25.71,3.184 37.84,4.248 l -7.85,-18.095 -128.09,-43.018 c -10.7,-2.129 -28.65,-7.441 -40.38,-7.441 -13.7,0 -17.31,7.441 -12.25,19.13 5.08,11.7 12.57,24.463 185.92,210.225 14.88,106.152 22.79,212.305 25.05,294.038 5.3,184.707 0.19,195.317 -21.19,195.317 -7.77,0 -18.36,-4.243 -23.16,-6.367 l 0.15,13.804 137.04,85.602"
           style="fill:#000000;fill-opacity:1;fill-rule:nonzero;stroke:none"
           id="path7842"
           inkscape:connector-curvature="0" /><path
           d="m 2144.22,872.08 c 75.6,82.022 152.09,127.847 214.56,127.847 57.59,0 101.37,-54.346 50.08,-172.588 C 2342.78,675.01 2192.25,523.74 2080,523.74 c -58.57,0 -80.93,36.221 -81.25,69.243 z M 1892.41,320.801 c -10.63,-4.248 -24.65,-9.561 -29.53,-9.561 -4.88,0 -6.43,3.184 -0.9,15.938 2.77,6.372 10.2,21.25 19.98,39.311 l 76.76,147.691 c 28.85,-21.25 66.56,-26.563 102.68,-26.563 150.31,0 351.71,157.564 435.81,351.441 56.37,129.961 7.21,210.852 -85.52,210.852 -58.47,0 -145.41,-34.03 -216.46,-80.891 l 17.56,40.481 c 12.91,29.77 13.63,40.41 1.94,40.41 -13.64,0 -91.46,-63.626 -167.75,-89.148 -19.29,-6.402 -26.1,-6.402 -31.17,-18.12 -12.48,-28.76 43.72,0 -1.1,-103.326 -5.55,-12.788 -17.1,-39.419 -33.83,-73.505 L 1736.4,264.634 c -6.5,-12.754 -10.64,-22.315 -12.49,-26.568 -5.99,-13.813 -4.89,-20.185 1.88,-20.185 8.7,0 20.68,5.312 37.43,12.749 l 128.13,74.233 1.06,15.938"
           style="fill:#000000;fill-opacity:1;fill-rule:nonzero;stroke:none"
           id="path7844"
           inkscape:connector-curvature="0" /><path
           d="m 2517.64,557.329 c -9.34,-17.046 -17.29,-30.893 -20.52,-38.35 -3.7,-8.52 -3.05,-15.976 4.73,-15.976 6.8,0 24.61,7.456 37.09,13.848 l 0.34,-14.913 -79.47,-35.151 c -27.57,-11.719 -75.46,-37.256 -85.24,-37.256 -8.79,0 -9.42,5.327 -5.26,14.912 3.7,8.521 11.61,24.497 20.44,42.608 l 131.57,265.234 c 13.49,26.631 24.12,51.133 33.37,72.437 44.81,103.325 -11.38,74.565 1.09,103.325 5.08,11.714 11.89,11.714 31.17,18.105 76.31,25.567 135.5,66.028 149.14,66.028 10.72,0 7.58,-11.73 -31.56,-101.96 h 1.94 c 48.57,42.534 111.07,92.54 140.22,92.54 12.63,0 17.99,-1.08 26.32,-4.274 l 23.01,-7.446 c 5.88,-2.124 10.78,-4.253 15.64,-4.253 3.89,0 7.73,2.129 13.96,5.317 l 5.06,-8.505 -58.65,-47.857 c -10.96,-9.575 -36.34,-46.411 -45.08,-46.411 -8.75,0 -49.8,10.635 -60.48,10.635 -7.78,0 -22.21,-6.382 -36.49,-19.141 l -52.52,-47.178 c -14.75,-13.847 -29.48,-29.824 -36.46,-43.671 -6.52,-12.784 -13.96,-27.696 -22.84,-43.672 L 2517.64,557.329"
           style="fill:#000000;fill-opacity:1;fill-rule:nonzero;stroke:none"
           id="path7846"
           inkscape:connector-curvature="0" /><path
           d="m 3203.8,914.17 -217.67,-57.588 c -3.39,-1.064 -8.2,-3.198 -12.51,-6.396 l -43.53,-33.062 -1.03,2.134 c 73.32,115.176 172.68,175.971 237.88,175.971 47.68,0 58.14,-32.001 43.8,-65.063 z m -22.94,-276.211 c -63.47,-47.988 -168.35,-110.913 -235.49,-110.913 -98.29,0 -120.26,68.257 -59.66,207.959 10.64,24.531 2.92,8.223 14.59,30.62 l 374.47,97.046 c 21.75,5.332 32.76,12.798 46.54,26.66 l 49.35,67.495 -2.08,6.402 c -23.55,-11.734 -44.27,-19.195 -70.87,-24.527 18.24,55.454 -21.78,92.659 -88.83,92.659 -128.45,0 -365.85,-141.648 -463.45,-366.672 -52.28,-120.508 -39.07,-235.157 84.41,-235.157 74.93,0 139.35,29.59 238.28,90.122 38.28,23.462 92.38,71.382 100.71,90.581 l 12.03,27.725"
           style="fill:#000000;fill-opacity:1;fill-rule:nonzero;stroke:none"
           id="path7848"
           inkscape:connector-curvature="0" /><path
           d="M 3859.58,765.571 C 3805.9,757.9 72.3879,754.067 3.37402,757.9 64.7219,757.9 3669.79,694.468 3669.79,659.961 l 189.79,105.61"
           style="fill:#000000;fill-opacity:1;fill-rule:nonzero;stroke:none"
           id="path7850"
           inkscape:connector-curvature="0" /><path
           d="m 3946.9,791.294 c -53.68,-7.666 -3787.198,-11.499 -3856.212,-7.666 61.348,0 3666.422,-63.433 3666.422,-97.944 l 189.79,105.61"
           style="fill:#00ffff;fill-opacity:1;fill-rule:nonzero;stroke:none"
           id="path7852"
           inkscape:connector-curvature="0" /><path
           d="m 931.201,1035.34 c 30.137,62.76 54.229,113.82 67.149,143.6 41.99,96.81 -7.779,85.1 2.37,108.51 4.62,10.64 11.36,12.77 18.12,14.89 84.26,26.6 174.21,84.76 188.73,84.76 6.78,0 7.83,-4.26 3.68,-13.83 -4.61,-10.64 -38.99,-78.72 -79.45,-156.37 l -126.74,-251.885 -7.897,-16.119 c 68.677,53.164 212.257,114.694 293.227,114.694 80.91,0 136.95,-37.19 92.68,-139.259 -7.38,-17.017 -22.65,-49.976 -43.56,-89.316 L 1225.98,615.981 c -9.33,-17.011 -14.86,-29.77 -17.63,-36.147 -5.07,-11.699 -1.08,-15.952 6.69,-15.952 6.8,0 12.07,3.188 21.69,7.446 l 12.48,6.377 0.35,-14.883 -143.39,-63.686 c -14.5,-6.382 -33.38,-13.823 -43.15,-13.823 -9.78,0 -10.47,7.441 -5.39,19.14 2.71,8.506 11.58,24.453 22.25,46.782 l 112.51,227.539 c 13.95,27.647 24.15,48.912 29.68,61.67 40.59,93.565 30.54,144.615 -57.27,144.615 -91.7,0 -181.475,-68.062 -223.301,-148.868 L 778.384,520.4 c -3.736,-6.377 -56.558,-34.755 -67.114,-39.004 l -27.364,-11.699 c -9.619,-4.253 -16.372,-6.377 -22.202,-6.377 -3.887,0 -4.956,4.253 -1.728,11.695 7.382,17.011 20.854,43.593 37.553,77.617 l 233.672,482.708"
           style="fill:#b30000;fill-opacity:1;fill-rule:nonzero;stroke:none"
           id="path7854"
           inkscape:connector-curvature="0" /><path
           d="m 1569.02,1047.6 c 23.53,11.7 30.29,13.84 38.06,13.84 9.72,0 9.65,-18.09 8.2,-39.35 -3.18,-65.913 -31.09,-213.682 -45.98,-432.041 202.63,206.997 281.36,305.068 293.8,333.73 12.89,29.722 -8.27,39.283 -39.4,39.283 -44.75,0 -58.16,-8.501 -96.3,-40.342 l -9.42,7.426 100.43,89.334 c 19,19.12 91.08,23.79 139.72,23.79 54.25,0 78.92,-21.25 65.1,-53.124 -13.36,-30.791 -27.92,-50.961 -359.84,-386.396 -64.08,-64.756 -243.99,-266.44 -253.65,-288.735 -4.15,-9.551 -1.59,-14.859 6.2,-14.859 7.78,0 25.7,3.184 37.83,4.243 l -7.84,-18.09 -128.1,-43.018 c -10.7,-2.129 -28.65,-7.441 -40.38,-7.441 -13.69,0 -17.31,7.441 -12.24,19.126 5.08,11.709 12.57,24.467 185.91,210.229 14.88,106.152 22.79,212.305 25.05,294.038 5.3,184.707 0.19,195.318 -21.19,195.318 -7.77,0 -18.35,-4.244 -23.16,-6.368 l 0.15,13.799 137.05,85.608"
           style="fill:#b30000;fill-opacity:1;fill-rule:nonzero;stroke:none"
           id="path7856"
           inkscape:connector-curvature="0" /><path
           d="m 2187.35,905.869 c 75.6,82.022 152.09,127.851 214.56,127.851 57.59,0 101.38,-54.35 50.09,-172.592 -66.08,-152.329 -216.62,-303.599 -328.87,-303.599 -58.57,0 -80.92,36.221 -81.24,69.243 z M 1935.54,354.59 c -10.63,-4.253 -24.65,-9.566 -29.53,-9.566 -4.88,0 -6.43,3.189 -0.89,15.943 2.77,6.372 10.19,21.25 19.98,39.311 l 76.75,147.691 c 28.85,-21.25 66.57,-26.563 102.68,-26.563 150.32,0 351.72,157.564 435.82,351.441 56.37,129.963 7.2,210.853 -85.53,210.853 -58.46,0 -145.41,-34.03 -216.46,-80.89 l 17.56,40.48 c 12.92,29.77 13.63,40.41 1.94,40.41 -13.64,0 -91.45,-63.63 -167.74,-89.149 -19.3,-6.402 -26.1,-6.402 -31.18,-18.12 -12.48,-28.76 43.72,0 -1.1,-103.326 -5.55,-12.788 -17.1,-39.418 -33.83,-73.505 L 1779.54,298.418 c -6.5,-12.749 -10.65,-22.31 -12.49,-26.563 -6,-13.808 -4.9,-20.185 1.87,-20.185 8.71,0 20.67,5.312 37.44,12.749 l 128.12,74.233 1.06,15.938"
           style="fill:#b30000;fill-opacity:1;fill-rule:nonzero;stroke:none"
           id="path7858"
           inkscape:connector-curvature="0" /><path
           d="m 2560.77,591.118 c -9.33,-17.046 -17.28,-30.893 -20.52,-38.349 -3.69,-8.521 -3.04,-15.977 4.73,-15.977 6.8,0 24.61,7.456 37.1,13.848 l 0.33,-14.912 -79.47,-35.157 c -27.57,-11.714 -75.45,-37.251 -85.23,-37.251 -8.8,0 -9.42,5.323 -5.26,14.912 3.69,8.521 11.6,24.497 20.43,42.608 l 131.58,265.234 c 13.49,26.631 24.12,51.133 33.36,72.437 44.82,103.325 -11.38,74.565 1.1,103.325 5.08,11.714 11.88,11.714 31.17,18.105 76.31,25.569 135.5,66.029 149.13,66.029 10.72,0 7.58,-11.73 -31.56,-101.961 h 1.94 c 48.58,42.534 111.07,92.531 140.22,92.531 12.63,0 17.99,-1.08 26.33,-4.27 l 23,-7.44 c 5.88,-2.12 10.79,-4.25 15.64,-4.25 3.89,0 7.73,2.13 13.97,5.31 l 5.05,-8.51 -58.65,-47.849 c -10.95,-9.57 -36.33,-46.411 -45.08,-46.411 -8.74,0 -49.8,10.635 -60.49,10.635 -7.76,0 -22.19,-6.382 -36.47,-19.141 l -52.53,-47.177 c -14.75,-13.848 -29.48,-29.825 -36.45,-43.672 -6.52,-12.784 -13.97,-27.696 -22.85,-43.672 L 2560.77,591.118"
           style="fill:#b30000;fill-opacity:1;fill-rule:nonzero;stroke:none"
           id="path7860"
           inkscape:connector-curvature="0" /><path
           d="m 3246.93,947.959 -217.67,-57.588 c -3.38,-1.069 -8.2,-3.198 -12.51,-6.401 l -43.53,-33.057 -1.02,2.129 c 73.31,115.181 172.67,175.978 237.87,175.978 47.69,0 58.14,-32.003 43.8,-65.065 z M 3223.99,671.748 C 3160.53,623.76 3055.65,560.835 2988.5,560.835 c -98.28,0 -120.26,68.252 -59.66,207.959 10.64,24.531 2.93,8.223 14.59,30.62 l 374.47,97.046 c 21.75,5.332 32.76,12.798 46.55,26.66 l 49.35,67.5 -2.08,6.397 c -23.55,-11.734 -44.28,-19.195 -70.88,-24.527 18.24,55.45 -21.78,92.66 -88.82,92.66 -128.46,0 -365.85,-141.649 -463.46,-366.673 -52.27,-120.508 -39.07,-235.157 84.42,-235.157 74.93,0 139.34,29.59 238.27,90.122 38.29,23.462 92.39,71.382 100.71,90.577 l 12.03,27.729"
           style="fill:#b30000;fill-opacity:1;fill-rule:nonzero;stroke:none"
           id="path7862"
           inkscape:connector-curvature="0" /><path
           d="m 1987.15,233.926 73.2,156.094 h 34.39 l -21.7,-46.265 h 0.44 c 8.65,10.952 19.86,17.085 32.5,17.085 17.41,0 18.5,-11.611 9.97,-29.79 l -45.55,-97.124 h -34.38 l 39.79,84.844 c 3.18,6.796 6.15,13.593 -0.87,13.593 -7.02,0 -10.43,-6.797 -13.62,-13.593 l -39.78,-84.844 h -34.39"
           style="fill:#000000;fill-opacity:1;fill-rule:nonzero;stroke:none"
           id="path7864"
           inkscape:connector-curvature="0" /><path
           d="m 2080.12,233.926 58.85,125.508 h 34.39 L 2114.5,233.926 Z m 62.81,133.945 10.38,22.149 h 34.4 l -10.39,-22.149 h -34.39"
           style="fill:#000000;fill-opacity:1;fill-rule:nonzero;stroke:none"
           id="path7866"
           inkscape:connector-curvature="0" /><path
           d="m 2200.25,322.944 c 2.16,4.615 5.97,9.453 11.67,9.453 5.7,0 4.98,-4.838 2.81,-9.453 l -16.88,-35.986 c -2.16,-4.609 -5.96,-9.438 -11.66,-9.438 -5.71,0 -4.98,4.829 -2.82,9.438 z m 65.96,36.46 h -34.61 l -7.64,-16.308 h -0.44 c 0.51,11.391 -3.52,17.744 -17.47,17.744 -11.75,0 -26.63,-8.98 -35.98,-28.916 L 2146,280.591 c -8.53,-18.184 -7.83,-31.548 12.41,-31.548 11.13,0 23.5,7.666 29.63,18.403 h 0.66 l -14.6,-31.133 c -2.06,-4.389 -5.36,-7.685 -10.84,-7.685 -5.49,0 -5.7,3.296 -3.64,7.685 l 3.83,8.16 h -34.39 l -5.74,-12.232 c -6.25,-13.33 1.97,-26.44 28.36,-26.44 15.29,0 44.96,5.244 61.25,39.99 l 53.28,113.613"
           style="fill:#000000;fill-opacity:1;fill-rule:nonzero;stroke:none"
           id="path7868"
           inkscape:connector-curvature="0" /><path
           d="m 2216.73,233.926 73.2,156.094 h 34.39 l -21.7,-46.265 h 0.44 c 8.64,10.952 19.86,17.085 32.5,17.085 17.41,0 18.5,-11.611 9.97,-29.79 l -45.55,-97.124 h -34.38 l 39.79,84.844 c 3.18,6.796 6.15,13.593 -0.87,13.593 -7.02,0 -10.43,-6.797 -13.62,-13.593 l -39.79,-84.844 h -34.38"
           style="fill:#000000;fill-opacity:1;fill-rule:nonzero;stroke:none"
           id="path7870"
           inkscape:connector-curvature="0" /><path
           d="m 2436.34,323.857 c 2.57,5.474 7.08,8.54 11.25,8.54 4.16,0 5.8,-3.066 3.23,-8.54 l -25.47,-54.316 c -2.57,-5.478 -7.08,-8.545 -11.25,-8.545 -4.17,0 -5.8,3.067 -3.23,8.545 z m 16.67,35.547 h -34.39 l -72.03,-153.603 h 34.39 l 20.95,44.682 h 0.44 c -2.27,-11.391 3.42,-17.963 16.06,-17.963 17.41,0 29.49,11.831 36.68,27.163 l 32.46,69.209 c 7.38,15.737 9.33,31.948 -9.61,31.948 -12.65,0 -24.34,-4.819 -32.26,-17.959 h -0.44 l 7.75,16.523"
           style="fill:#000000;fill-opacity:1;fill-rule:nonzero;stroke:none"
           id="path7872"
           inkscape:connector-curvature="0" /><path
           d="m 2524.04,313.379 8.04,17.158 c 2.27,4.834 5.93,7.476 10.75,7.476 4.83,0 6,-2.642 3.74,-7.476 l -8.05,-17.158 z m 39.14,-20.742 15.4,32.842 c 12.67,27.006 -3.01,35.336 -25.05,35.336 -26.83,0 -47.59,-12.714 -58.2,-35.336 l -27.98,-59.664 c -10.88,-23.183 3.98,-33.271 26.02,-33.271 24.22,0 45.84,8.989 56.93,32.617 l 8.6,18.335 h -34.39 l -7.58,-16.152 c -3.48,-7.417 -7.38,-11.992 -12.86,-11.992 -4.61,0 -5.1,4.575 -1.62,11.992 l 11.87,25.293 h 48.86"
           style="fill:#000000;fill-opacity:1;fill-rule:nonzero;stroke:none"
           id="path7874"
           inkscape:connector-curvature="0" /><path
           d="m 2630.49,342.881 h 0.66 c 9.74,10.952 20.7,17.959 33.34,17.959 17.41,0 17.84,-11.611 11.8,-24.492 l -20.98,-44.742 h -34.39 l 14.3,30.484 c 2.36,5.044 3.3,10.307 -2.41,10.307 -5.7,0 -9.71,-5.263 -12.07,-10.307 l -41.34,-88.164 h -34.39 l 58.84,125.478 h 34.39 l -7.75,-16.523"
           style="fill:#000000;fill-opacity:1;fill-rule:nonzero;stroke:none"
           id="path7876"
           inkscape:connector-curvature="0" /><path
           d="m 2682.73,336.606 10.7,22.803 h 7.61 l 3.75,8.003 c 4.53,9.649 16.9,22.583 32.79,22.583 h 21.98 l -10.7,-22.803 c -8.48,0 -11.1,-2.807 -13.43,-7.783 h 9.78 l -10.69,-22.803 h -9.79 l -48.15,-102.68 h -34.39 l 48.16,102.68 h -7.62"
           style="fill:#000000;fill-opacity:1;fill-rule:nonzero;stroke:none"
           id="path7878"
           inkscape:connector-curvature="0" /><path
           d="m 2773.03,329.268 c 2.15,4.589 5.85,8.745 11.33,8.745 5.49,0 5.3,-4.156 3.14,-8.745 l -30.56,-65.171 c -2.15,-4.595 -5.86,-8.745 -11.34,-8.745 -5.48,0 -5.29,4.15 -3.14,8.745 z m 47.12,-3.721 c 10.57,22.554 1.74,35.268 -25.09,35.268 -26.83,0 -47.59,-12.714 -58.16,-35.268 l -28,-59.702 c -10.89,-23.213 3.97,-33.301 26.01,-33.301 22.04,0 46.35,10.088 57.24,33.301 l 28,59.702"
           style="fill:#000000;fill-opacity:1;fill-rule:nonzero;stroke:none"
           id="path7880"
           inkscape:connector-curvature="0" /><path
           d="m 2872.02,342.881 h 0.66 c 9.75,10.952 20.71,17.959 33.34,17.959 17.42,0 17.85,-11.611 11.81,-24.492 l -20.98,-44.742 h -34.39 l 14.29,30.484 c 2.37,5.044 3.3,10.307 -2.4,10.307 -5.71,0 -9.71,-5.263 -12.08,-10.307 l -41.34,-88.164 h -34.39 l 58.85,125.478 h 34.38 l -7.75,-16.523"
           style="fill:#000000;fill-opacity:1;fill-rule:nonzero;stroke:none"
           id="path7882"
           inkscape:connector-curvature="0" /><path
           d="m 2963.87,342.661 h 0.43 c 8.93,11.607 19.85,18.179 32.45,18.179 12.4,0 17.13,-6.133 13.87,-18.179 h 0.44 c 7.2,11.172 20.06,18.179 32.24,18.179 17.17,0 17.37,-11.172 10.18,-26.504 l -47.09,-100.41 h -33.05 l 40.82,87.036 c 2.57,5.483 4.91,11.401 -1.62,11.401 -6.53,0 -9.52,-5.918 -12.09,-11.401 l -40.82,-87.036 h -33.05 l 40.84,87.065 c 2.56,5.484 4.91,11.406 -1.62,11.406 -6.53,0 -9.53,-5.922 -12.1,-11.406 l -40.83,-87.065 h -33.04 l 58.84,125.478 h 33.04 l -7.84,-16.743"
           style="fill:#000000;fill-opacity:1;fill-rule:nonzero;stroke:none"
           id="path7884"
           inkscape:connector-curvature="0" /><path
           d="m 3072.06,279.897 c 4.66,9.937 13.69,12.808 22.77,17.662 l -10.25,-21.856 c -5.28,-11.26 -8.44,-16.118 -15.68,-16.118 -3.29,0 -5.33,2.212 -3.25,6.626 z m -7.07,-45.966 h 34.39 l 43.52,92.798 c 11.79,25.146 -4.9,34.111 -25.63,34.111 -20.74,0 -45.83,-8.965 -57.63,-34.111 l -5.44,-11.592 h 34.39 l 6.41,13.676 c 2.37,5.04 5.85,9.2 11.56,9.2 5.71,0 5.29,-4.16 2.92,-9.2 -10.89,-23.222 -57.9,-19.277 -73.31,-52.133 l -8.73,-18.618 c -7.68,-16.373 -2.84,-25.542 12.18,-25.542 13.74,0 23.48,7.207 31.85,16.157 h 0.43 l -6.91,-14.746"
           style="fill:#000000;fill-opacity:1;fill-rule:nonzero;stroke:none"
           id="path7886"
           inkscape:connector-curvature="0" /><path
           d="m 3194.63,343.755 h 0.44 c 8.42,10.952 19.64,17.085 33.15,17.085 15.45,0 18.25,-10.733 9.85,-28.662 l -46.08,-98.252 h -34.39 l 40.83,87.065 c 2.58,5.484 4.91,11.406 -1.67,11.406 -6.58,0 -10.24,-5.922 -12.81,-11.406 l -40.83,-87.065 h -34.39 l 58.85,125.478 h 34.38 l -7.33,-15.649"
           style="fill:#000000;fill-opacity:1;fill-rule:nonzero;stroke:none"
           id="path7888"
           inkscape:connector-curvature="0" /><path
           d="m 3294.93,329.268 c 2.15,4.589 2.34,8.745 -3.14,8.745 -5.49,0 -9.19,-4.156 -11.35,-8.745 l -30.56,-65.171 c -2.15,-4.595 -2.34,-8.745 3.14,-8.745 5.49,0 9.19,4.15 11.34,8.745 l 9.1,19.399 h 34.39 l -8.58,-18.291 c -11.1,-23.672 -32.73,-32.661 -57.16,-32.661 -25.74,0 -36.37,10.747 -25.06,34.849 l 27.41,58.461 c 9.64,20.552 31.64,34.986 57.81,34.986 22.26,0 37.95,-8.311 25.34,-35.205 l -4.92,-10.498 h -34.39 l 6.63,14.131"
           style="fill:#000000;fill-opacity:1;fill-rule:nonzero;stroke:none"
           id="path7890"
           inkscape:connector-curvature="0" /><path
           d="m 3365.61,313.379 8.05,17.158 c 2.26,4.834 5.91,7.476 10.74,7.476 4.83,0 6,-2.642 3.74,-7.476 l -8.05,-17.158 z m 39.14,-20.742 15.4,32.842 c 12.67,27.006 -3.01,35.336 -25.05,35.336 -26.83,0 -47.6,-12.714 -58.2,-35.336 l -27.98,-59.664 c -10.87,-23.183 3.98,-33.271 26.02,-33.271 24.22,0 45.85,8.989 56.92,32.617 l 8.6,18.335 h -34.38 l -7.58,-16.152 c -3.48,-7.417 -7.38,-11.992 -12.86,-11.992 -4.61,0 -5.1,4.575 -1.62,11.992 l 11.86,25.293 h 48.87"
           style="fill:#000000;fill-opacity:1;fill-rule:nonzero;stroke:none"
           id="path7892"
           inkscape:connector-curvature="0" /><path
           d="m 1968.18,120.142 c 2.57,5.473 7.07,8.54 11.24,8.54 4.17,0 5.8,-3.067 3.24,-8.54 l -25.48,-54.3173 c -2.56,-5.4729 -7.07,-8.54 -11.24,-8.54 -4.17,0 -5.8,3.0671 -3.23,8.54 z m 16.67,35.546 h -34.39 L 1878.43,2.09009 h 34.38 l 20.96,44.67771 h 0.44 c -2.28,-11.3869 3.42,-17.959 16.06,-17.959 17.41,0 29.49,11.8262 36.68,27.1582 l 32.45,69.214 c 7.39,15.737 9.33,31.948 -9.61,31.948 -12.64,0 -24.34,-4.824 -32.25,-17.964 h -0.44 l 7.75,16.523"
           style="fill:#000000;fill-opacity:1;fill-rule:nonzero;stroke:none"
           id="path7894"
           inkscape:connector-curvature="0" /><path
           d="m 2069.71,139.165 h 0.66 c 9.74,10.952 20.71,17.964 33.35,17.964 17.41,0 17.84,-11.611 11.8,-24.492 l -20.98,-44.7461 h -34.39 l 14.29,30.4831 c 2.37,5.044 3.3,10.308 -2.4,10.308 -5.71,0 -9.71,-5.264 -12.08,-10.308 l -41.34,-88.1589 h -34.39 l 58.85,125.4729 h 34.38 l -7.75,-16.523"
           style="fill:#000000;fill-opacity:1;fill-rule:nonzero;stroke:none"
           id="path7896"
           inkscape:connector-curvature="0" /><path
           d="m 2148.49,109.668 8.05,17.153 c 2.27,4.839 5.92,7.476 10.74,7.476 4.83,0 6.01,-2.637 3.74,-7.476 l -8.05,-17.153 z m 39.14,-20.742 15.4,32.837 c 12.67,27.007 -3.01,35.341 -25.05,35.341 -26.83,0 -47.59,-12.719 -58.2,-35.341 L 2091.8,62.0999 c -10.87,-23.1839 3.99,-33.2669 26.02,-33.2669 24.22,0 45.85,8.9888 56.93,32.6167 l 8.59,18.335 h -34.38 l -7.58,-16.1568 C 2137.9,56.2161 2134,51.636 2128.52,51.636 c -4.61,0 -5.09,4.5801 -1.62,11.9919 l 11.86,25.2981 h 48.87"
           style="fill:#000000;fill-opacity:1;fill-rule:nonzero;stroke:none"
           id="path7898"
           inkscape:connector-curvature="0" /><path
           d="m 2263.04,125.552 c 2.15,4.59 2.35,8.745 -3.14,8.745 -5.49,0 -9.19,-4.155 -11.35,-8.745 l -30.56,-65.1711 c -2.15,-4.5899 -2.34,-8.7449 3.14,-8.7449 5.49,0 9.19,4.155 11.35,8.7449 l 9.09,19.4038 h 34.39 l -8.58,-18.2959 c -11.1,-23.667 -32.73,-32.6558 -57.16,-32.6558 -25.74,0 -36.37,10.7417 -25.06,34.8489 l 27.41,58.4571 c 9.64,20.556 31.64,34.99 57.82,34.99 22.26,0 37.94,-8.311 25.33,-35.21 l -4.92,-10.493 h -34.39 l 6.63,14.126"
           style="fill:#000000;fill-opacity:1;fill-rule:nonzero;stroke:none"
           id="path7900"
           inkscape:connector-curvature="0" /><path
           d="m 2341.17,125.552 c 2.15,4.59 5.86,8.745 11.34,8.745 5.49,0 5.29,-4.155 3.14,-8.745 l -30.56,-65.1711 c -2.16,-4.5899 -5.86,-8.7449 -11.34,-8.7449 -5.49,0 -5.29,4.155 -3.14,8.7449 z m 47.13,-3.721 c 10.57,22.554 1.73,35.273 -25.09,35.273 -26.83,0 -47.6,-12.719 -58.17,-35.273 l -28,-59.697 c -10.88,-23.218 3.97,-33.301 26.01,-33.301 22.04,0 46.36,10.083 57.25,33.301 l 28,59.697"
           style="fill:#000000;fill-opacity:1;fill-rule:nonzero;stroke:none"
           id="path7902"
           inkscape:connector-curvature="0" /><path
           d="m 2440.58,140.039 h 0.44 c 8.43,10.952 19.64,17.09 33.15,17.09 15.45,0 18.26,-10.737 9.85,-28.667 l -46.08,-98.2469 h -34.39 l 40.84,87.0649 c 2.57,5.479 4.91,11.402 -1.67,11.402 -6.59,0 -10.24,-5.923 -12.81,-11.402 l -40.83,-87.0649 h -34.39 l 58.84,125.4729 h 34.39 l -7.34,-15.649"
           style="fill:#000000;fill-opacity:1;fill-rule:nonzero;stroke:none"
           id="path7904"
           inkscape:connector-curvature="0" /><path
           d="m 2523.85,120.107 c 2.57,5.479 7.07,8.545 11.24,8.545 4.17,0 5.8,-3.066 3.23,-8.545 l -25.47,-54.316 c -2.56,-5.4741 -7.07,-8.54 -11.24,-8.54 -4.17,0 -5.8,3.0659 -3.24,8.54 z m -27.67,-89.858 h 34.39 l 73.19,156.06 h -34.39 l -22.42,-47.803 h -0.43 c 2.27,11.391 -3.12,18.623 -15.76,18.623 -17.41,0 -29.49,-11.831 -36.99,-27.822 l -32.45,-69.2091 c -7.08,-15.0779 -9.02,-31.2891 9.91,-31.2891 12.65,0 24.35,4.8191 31.95,17.304 h 0.44 l -7.44,-15.8638"
           style="fill:#000000;fill-opacity:1;fill-rule:nonzero;stroke:none"
           id="path7906"
           inkscape:connector-curvature="0" /><path
           d="m 2540.27,30.2151 58.86,125.5079 h 34.38 L 2574.65,30.2151 Z m 62.82,133.9449 10.38,22.144 h 34.39 l -10.39,-22.144 h -34.38"
           style="fill:#000000;fill-opacity:1;fill-rule:nonzero;stroke:none"
           id="path7908"
           inkscape:connector-curvature="0" /><path
           d="m 2629.69,132.891 10.69,22.807 h 11.52 l 10.6,22.583 h 34.38 l -10.59,-22.583 h 15 l -10.69,-22.807 h -15 l -32.1,-68.4432 c -3.5,-7.4561 -5.14,-11.4058 2.91,-11.4058 h 6.74 l -10.69,-22.8032 h -28.06 c -17.2,0 -16.81,9.6443 -9.1,26.0942 l 35.91,76.558 h -11.52"
           style="fill:#000000;fill-opacity:1;fill-rule:nonzero;stroke:none"
           id="path7910"
           inkscape:connector-curvature="0" /><path
           d="m 2648.97,30.2151 58.86,125.5079 h 34.38 L 2683.35,30.2151 Z m 62.81,133.9449 10.39,22.144 h 34.39 l -10.39,-22.144 h -34.39"
           style="fill:#000000;fill-opacity:1;fill-rule:nonzero;stroke:none"
           id="path7912"
           inkscape:connector-curvature="0" /><path
           d="m 2772.06,125.552 c 2.16,4.59 5.86,8.745 11.35,8.745 5.48,0 5.29,-4.155 3.13,-8.745 l -30.56,-65.1711 c -2.15,-4.5899 -5.86,-8.7449 -11.34,-8.7449 -5.49,0 -5.29,4.155 -3.14,8.7449 z m 47.13,-3.721 c 10.57,22.554 1.74,35.273 -25.09,35.273 -26.83,0 -47.59,-12.719 -58.17,-35.273 l -28,-59.697 c -10.88,-23.218 3.97,-33.301 26.01,-33.301 22.05,0 46.36,10.083 57.25,33.301 l 28,59.697"
           style="fill:#000000;fill-opacity:1;fill-rule:nonzero;stroke:none"
           id="path7914"
           inkscape:connector-curvature="0" /><path
           d="m 2871.47,140.039 h 0.44 c 8.43,10.952 19.64,17.09 33.15,17.09 15.46,0 18.26,-10.737 9.85,-28.667 l -46.08,-98.2469 h -34.38 l 40.83,87.0649 c 2.57,5.479 4.91,11.402 -1.68,11.402 -6.58,0 -10.23,-5.923 -12.8,-11.402 l -40.83,-87.0649 h -34.39 l 58.84,125.4729 h 34.39 l -7.34,-15.649"
           style="fill:#000000;fill-opacity:1;fill-rule:nonzero;stroke:none"
           id="path7916"
           inkscape:connector-curvature="0" /><path
           d="m 2949.84,109.668 8.05,17.153 c 2.27,4.839 5.92,7.476 10.74,7.476 4.83,0 6,-2.637 3.74,-7.476 l -8.05,-17.153 z m 39.14,-20.742 15.4,32.837 c 12.67,27.007 -3.01,35.341 -25.05,35.341 -26.83,0 -47.59,-12.719 -58.2,-35.341 l -27.98,-59.6631 c -10.88,-23.1839 3.98,-33.2669 26.03,-33.2669 24.21,0 45.84,8.9888 56.92,32.6167 l 8.6,18.335 h -34.39 l -7.58,-16.1568 c -3.48,-7.4118 -7.38,-11.9919 -12.86,-11.9919 -4.61,0 -5.1,4.5801 -1.62,11.9919 l 11.87,25.2981 h 48.86"
           style="fill:#000000;fill-opacity:1;fill-rule:nonzero;stroke:none"
           id="path7918"
           inkscape:connector-curvature="0" /><path
           d="m 3056.29,139.165 h 0.66 c 9.74,10.952 20.71,17.964 33.34,17.964 17.42,0 17.85,-11.611 11.8,-24.492 l -20.98,-44.7461 h -34.39 l 14.3,30.4831 c 2.36,5.044 3.3,10.308 -2.41,10.308 -5.7,0 -9.7,-5.264 -12.07,-10.308 l -41.35,-88.1589 h -34.38 l 58.84,125.4729 h 34.39 l -7.75,-16.523"
           style="fill:#000000;fill-opacity:1;fill-rule:nonzero;stroke:none"
           id="path7920"
           inkscape:connector-curvature="0" /><path
           d="m 3150.38,111.426 6.31,13.467 c 2.46,5.249 2.66,9.404 -2.83,9.404 -5.48,0 -9.19,-4.155 -11.65,-9.404 -10.05,-21.431 40.01,-17.491 20.94,-58.1691 -11.6,-24.7371 -32.57,-37.8909 -61.38,-37.8909 -22.02,0 -34.98,8.5501 -24.44,31.04 l 9.34,19.9117 h 34.38 l -8.78,-18.7298 c -2.46,-5.259 -2.66,-9.4189 2.83,-9.4189 5.48,0 9.19,4.1599 11.65,9.4189 13.97,29.7801 -39.21,20.586 -20.11,61.3031 11.68,24.927 33.93,34.771 56.61,34.771 26.19,0 38.13,-10.278 28.28,-31.275 l -6.77,-14.428 h -34.38"
           style="fill:#000000;fill-opacity:1;fill-rule:nonzero;stroke:none"
           id="path7922"
           inkscape:connector-curvature="0" /></g></g></g></svg>